<?xml version="1.0" encoding="utf-8" standalone="no"?>
<!DOCTYPE svg PUBLIC "-//W3C//DTD SVG 1.1//EN"
  "http://www.w3.org/Graphics/SVG/1.1/DTD/svg11.dtd">
<svg xmlns:xlink="http://www.w3.org/1999/xlink" width="224.39952pt" height="116.39952pt" viewBox="0 0 224.39952 116.39952" xmlns="http://www.w3.org/2000/svg" version="1.1">
 <metadata>
  <rdf:RDF xmlns:dc="http://purl.org/dc/elements/1.1/" xmlns:cc="http://creativecommons.org/ns#" xmlns:rdf="http://www.w3.org/1999/02/22-rdf-syntax-ns#">
   <cc:Work>
    <dc:type rdf:resource="http://purl.org/dc/dcmitype/StillImage"/>
    <dc:date>2024-02-04T14:14:32.477922</dc:date>
    <dc:format>image/svg+xml</dc:format>
    <dc:creator>
     <cc:Agent>
      <dc:title>Matplotlib v3.7.2, https://matplotlib.org/</dc:title>
     </cc:Agent>
    </dc:creator>
   </cc:Work>
  </rdf:RDF>
 </metadata>
 <defs>
  <style type="text/css">*{stroke-linejoin: round; stroke-linecap: butt}</style>
 </defs>
 <g id="figure_1">
  <g id="patch_1">
   <path d="M 0 116.39952 
L 224.39952 116.39952 
L 224.39952 0 
L 0 0 
z
" style="fill: #ffffff"/>
  </g>
  <g id="axes_1">
   <g id="patch_2">
    <path d="M 29.527969 96.712333 
L 183.018583 96.712333 
L 183.018583 16.45 
L 29.527969 16.45 
z
" style="fill: #ffffff"/>
   </g>
   <g id="patch_3">
    <path d="M 31.720692 88.549589 
L 49.262476 88.549589 
L 49.262476 81.390376 
L 31.720692 81.390376 
L 31.720692 88.549589 
z
" clip-path="url(#pfcc01d425e)" style="fill: #ffffff; stroke: #999999; stroke-linejoin: miter"/>
   </g>
   <g id="patch_4">
    <path d="M 53.647922 57.410146 
L 71.189707 57.410146 
L 71.189707 51.547723 
L 53.647922 51.547723 
L 53.647922 57.410146 
z
" clip-path="url(#pfcc01d425e)" style="fill: #ffffff; stroke: #999999; stroke-linejoin: miter"/>
   </g>
   <g id="patch_5">
    <path d="M 75.575153 52.082796 
L 93.116937 52.082796 
L 93.116937 39.64338 
L 75.575153 39.64338 
L 75.575153 52.082796 
z
" clip-path="url(#pfcc01d425e)" style="fill: #ffffff; stroke: #999999; stroke-linejoin: miter"/>
   </g>
   <g id="patch_6">
    <path d="M 97.502383 32.011523 
L 115.044168 32.011523 
L 115.044168 25.467419 
L 97.502383 25.467419 
L 97.502383 32.011523 
z
" clip-path="url(#pfcc01d425e)" style="fill: #ffffff; stroke: #999999; stroke-linejoin: miter"/>
   </g>
   <g id="patch_7">
    <path d="M 119.429614 25.380605 
L 136.971398 25.380605 
L 136.971398 23.204391 
L 119.429614 23.204391 
L 119.429614 25.380605 
z
" clip-path="url(#pfcc01d425e)" style="fill: #ffffff; stroke: #999999; stroke-linejoin: miter"/>
   </g>
   <g id="patch_8">
    <path d="M 141.356844 33.57783 
L 158.898629 33.57783 
L 158.898629 22.094266 
L 141.356844 22.094266 
L 141.356844 33.57783 
z
" clip-path="url(#pfcc01d425e)" style="fill: #ffffff; stroke: #999999; stroke-linejoin: miter"/>
   </g>
   <g id="patch_9">
    <path d="M 163.284075 47.495714 
L 180.825859 47.495714 
L 180.825859 34.88122 
L 163.284075 34.88122 
L 163.284075 47.495714 
z
" clip-path="url(#pfcc01d425e)" style="fill: #ffffff; stroke: #999999; stroke-linejoin: miter"/>
   </g>
   <g id="matplotlib.axis_1">
    <g id="xtick_1">
     <g id="line2d_1">
      <defs>
       <path id="m97a12ed0f7" d="M 0 0 
L 0 3.5 
" style="stroke: #000000; stroke-width: 0.8"/>
      </defs>
      <g>
       <use xlink:href="#m97a12ed0f7" x="40.491584" y="96.712333" style="stroke: #000000; stroke-width: 0.8"/>
      </g>
     </g>
     <g id="text_1">
      <!-- P0 -->
      <g transform="translate(36.822209 108.00702) scale(0.06 -0.06)">
       <defs>
        <path id="ArialMT-50" d="M 494 0 
L 494 4581 
L 2222 4581 
Q 2678 4581 2919 4538 
Q 3256 4481 3484 4323 
Q 3713 4166 3852 3881 
Q 3991 3597 3991 3256 
Q 3991 2672 3619 2267 
Q 3247 1863 2275 1863 
L 1100 1863 
L 1100 0 
L 494 0 
z
M 1100 2403 
L 2284 2403 
Q 2872 2403 3119 2622 
Q 3366 2841 3366 3238 
Q 3366 3525 3220 3729 
Q 3075 3934 2838 4000 
Q 2684 4041 2272 4041 
L 1100 4041 
L 1100 2403 
z
" transform="scale(0.015625)"/>
        <path id="ArialMT-30" d="M 266 2259 
Q 266 3072 433 3567 
Q 600 4063 929 4331 
Q 1259 4600 1759 4600 
Q 2128 4600 2406 4451 
Q 2684 4303 2865 4023 
Q 3047 3744 3150 3342 
Q 3253 2941 3253 2259 
Q 3253 1453 3087 958 
Q 2922 463 2592 192 
Q 2263 -78 1759 -78 
Q 1097 -78 719 397 
Q 266 969 266 2259 
z
M 844 2259 
Q 844 1131 1108 757 
Q 1372 384 1759 384 
Q 2147 384 2411 759 
Q 2675 1134 2675 2259 
Q 2675 3391 2411 3762 
Q 2147 4134 1753 4134 
Q 1366 4134 1134 3806 
Q 844 3388 844 2259 
z
" transform="scale(0.015625)"/>
       </defs>
       <use xlink:href="#ArialMT-50"/>
       <use xlink:href="#ArialMT-30" x="66.699219"/>
      </g>
     </g>
    </g>
    <g id="xtick_2">
     <g id="line2d_2">
      <g>
       <use xlink:href="#m97a12ed0f7" x="62.418815" y="96.712333" style="stroke: #000000; stroke-width: 0.8"/>
      </g>
     </g>
     <g id="text_2">
      <!-- P3 -->
      <g transform="translate(58.74944 108.00702) scale(0.06 -0.06)">
       <defs>
        <path id="ArialMT-33" d="M 269 1209 
L 831 1284 
Q 928 806 1161 595 
Q 1394 384 1728 384 
Q 2125 384 2398 659 
Q 2672 934 2672 1341 
Q 2672 1728 2419 1979 
Q 2166 2231 1775 2231 
Q 1616 2231 1378 2169 
L 1441 2663 
Q 1497 2656 1531 2656 
Q 1891 2656 2178 2843 
Q 2466 3031 2466 3422 
Q 2466 3731 2256 3934 
Q 2047 4138 1716 4138 
Q 1388 4138 1169 3931 
Q 950 3725 888 3313 
L 325 3413 
Q 428 3978 793 4289 
Q 1159 4600 1703 4600 
Q 2078 4600 2393 4439 
Q 2709 4278 2876 4000 
Q 3044 3722 3044 3409 
Q 3044 3113 2884 2869 
Q 2725 2625 2413 2481 
Q 2819 2388 3044 2092 
Q 3269 1797 3269 1353 
Q 3269 753 2831 336 
Q 2394 -81 1725 -81 
Q 1122 -81 723 278 
Q 325 638 269 1209 
z
" transform="scale(0.015625)"/>
       </defs>
       <use xlink:href="#ArialMT-50"/>
       <use xlink:href="#ArialMT-33" x="66.699219"/>
      </g>
     </g>
    </g>
    <g id="xtick_3">
     <g id="line2d_3">
      <g>
       <use xlink:href="#m97a12ed0f7" x="84.346045" y="96.712333" style="stroke: #000000; stroke-width: 0.8"/>
      </g>
     </g>
     <g id="text_3">
      <!-- P5 -->
      <g transform="translate(80.67667 108.00702) scale(0.06 -0.06)">
       <defs>
        <path id="ArialMT-35" d="M 266 1200 
L 856 1250 
Q 922 819 1161 601 
Q 1400 384 1738 384 
Q 2144 384 2425 690 
Q 2706 997 2706 1503 
Q 2706 1984 2436 2262 
Q 2166 2541 1728 2541 
Q 1456 2541 1237 2417 
Q 1019 2294 894 2097 
L 366 2166 
L 809 4519 
L 3088 4519 
L 3088 3981 
L 1259 3981 
L 1013 2750 
Q 1425 3038 1878 3038 
Q 2478 3038 2890 2622 
Q 3303 2206 3303 1553 
Q 3303 931 2941 478 
Q 2500 -78 1738 -78 
Q 1113 -78 717 272 
Q 322 622 266 1200 
z
" transform="scale(0.015625)"/>
       </defs>
       <use xlink:href="#ArialMT-50"/>
       <use xlink:href="#ArialMT-35" x="66.699219"/>
      </g>
     </g>
    </g>
    <g id="xtick_4">
     <g id="line2d_4">
      <g>
       <use xlink:href="#m97a12ed0f7" x="106.273276" y="96.712333" style="stroke: #000000; stroke-width: 0.8"/>
      </g>
     </g>
     <g id="text_4">
      <!-- P7 -->
      <g transform="translate(102.603901 108.00702) scale(0.06 -0.06)">
       <defs>
        <path id="ArialMT-37" d="M 303 3981 
L 303 4522 
L 3269 4522 
L 3269 4084 
Q 2831 3619 2401 2847 
Q 1972 2075 1738 1259 
Q 1569 684 1522 0 
L 944 0 
Q 953 541 1156 1306 
Q 1359 2072 1739 2783 
Q 2119 3494 2547 3981 
L 303 3981 
z
" transform="scale(0.015625)"/>
       </defs>
       <use xlink:href="#ArialMT-50"/>
       <use xlink:href="#ArialMT-37" x="66.699219"/>
      </g>
     </g>
    </g>
    <g id="xtick_5">
     <g id="line2d_5">
      <g>
       <use xlink:href="#m97a12ed0f7" x="128.200506" y="96.712333" style="stroke: #000000; stroke-width: 0.8"/>
      </g>
     </g>
     <g id="text_5">
      <!-- P10 -->
      <g transform="translate(122.86285 108.00702) scale(0.06 -0.06)">
       <defs>
        <path id="ArialMT-31" d="M 2384 0 
L 1822 0 
L 1822 3584 
Q 1619 3391 1289 3197 
Q 959 3003 697 2906 
L 697 3450 
Q 1169 3672 1522 3987 
Q 1875 4303 2022 4600 
L 2384 4600 
L 2384 0 
z
" transform="scale(0.015625)"/>
       </defs>
       <use xlink:href="#ArialMT-50"/>
       <use xlink:href="#ArialMT-31" x="66.699219"/>
       <use xlink:href="#ArialMT-30" x="122.314453"/>
      </g>
     </g>
    </g>
    <g id="xtick_6">
     <g id="line2d_6">
      <g>
       <use xlink:href="#m97a12ed0f7" x="150.127737" y="96.712333" style="stroke: #000000; stroke-width: 0.8"/>
      </g>
     </g>
     <g id="text_6">
      <!-- P14 -->
      <g transform="translate(144.79008 108.00702) scale(0.06 -0.06)">
       <defs>
        <path id="ArialMT-34" d="M 2069 0 
L 2069 1097 
L 81 1097 
L 81 1613 
L 2172 4581 
L 2631 4581 
L 2631 1613 
L 3250 1613 
L 3250 1097 
L 2631 1097 
L 2631 0 
L 2069 0 
z
M 2069 1613 
L 2069 3678 
L 634 1613 
L 2069 1613 
z
" transform="scale(0.015625)"/>
       </defs>
       <use xlink:href="#ArialMT-50"/>
       <use xlink:href="#ArialMT-31" x="66.699219"/>
       <use xlink:href="#ArialMT-34" x="122.314453"/>
      </g>
     </g>
    </g>
    <g id="xtick_7">
     <g id="line2d_7">
      <g>
       <use xlink:href="#m97a12ed0f7" x="172.054967" y="96.712333" style="stroke: #000000; stroke-width: 0.8"/>
      </g>
     </g>
     <g id="text_7">
      <!-- P21 -->
      <g transform="translate(166.717311 108.00702) scale(0.06 -0.06)">
       <defs>
        <path id="ArialMT-32" d="M 3222 541 
L 3222 0 
L 194 0 
Q 188 203 259 391 
Q 375 700 629 1000 
Q 884 1300 1366 1694 
Q 2113 2306 2375 2664 
Q 2638 3022 2638 3341 
Q 2638 3675 2398 3904 
Q 2159 4134 1775 4134 
Q 1369 4134 1125 3890 
Q 881 3647 878 3216 
L 300 3275 
Q 359 3922 746 4261 
Q 1134 4600 1788 4600 
Q 2447 4600 2831 4234 
Q 3216 3869 3216 3328 
Q 3216 3053 3103 2787 
Q 2991 2522 2730 2228 
Q 2469 1934 1863 1422 
Q 1356 997 1212 845 
Q 1069 694 975 541 
L 3222 541 
z
" transform="scale(0.015625)"/>
       </defs>
       <use xlink:href="#ArialMT-50"/>
       <use xlink:href="#ArialMT-32" x="66.699219"/>
       <use xlink:href="#ArialMT-31" x="122.314453"/>
      </g>
     </g>
    </g>
   </g>
   <g id="matplotlib.axis_2">
    <g id="ytick_1">
     <g id="line2d_8">
      <defs>
       <path id="m5be7721375" d="M 0 0 
L -3.5 0 
" style="stroke: #000000; stroke-width: 0.8"/>
      </defs>
      <g>
       <use xlink:href="#m5be7721375" x="29.527969" y="96.193355" style="stroke: #000000; stroke-width: 0.8"/>
      </g>
     </g>
     <g id="text_8">
      <!-- −2 -->
      <g transform="translate(15.687031 98.340699) scale(0.06 -0.06)">
       <defs>
        <path id="ArialMT-2212" d="M 3381 1997 
L 356 1997 
L 356 2522 
L 3381 2522 
L 3381 1997 
z
" transform="scale(0.015625)"/>
       </defs>
       <use xlink:href="#ArialMT-2212"/>
       <use xlink:href="#ArialMT-32" x="58.398438"/>
      </g>
     </g>
    </g>
    <g id="ytick_2">
     <g id="line2d_9">
      <g>
       <use xlink:href="#m5be7721375" x="29.527969" y="75.819908" style="stroke: #000000; stroke-width: 0.8"/>
      </g>
     </g>
     <g id="text_9">
      <!-- −1 -->
      <g transform="translate(15.687031 77.967252) scale(0.06 -0.06)">
       <use xlink:href="#ArialMT-2212"/>
       <use xlink:href="#ArialMT-31" x="58.398438"/>
      </g>
     </g>
    </g>
    <g id="ytick_3">
     <g id="line2d_10">
      <g>
       <use xlink:href="#m5be7721375" x="29.527969" y="55.446462" style="stroke: #000000; stroke-width: 0.8"/>
      </g>
     </g>
     <g id="text_10">
      <!-- 0 -->
      <g transform="translate(19.191406 57.593806) scale(0.06 -0.06)">
       <use xlink:href="#ArialMT-30"/>
      </g>
     </g>
    </g>
    <g id="ytick_4">
     <g id="line2d_11">
      <g>
       <use xlink:href="#m5be7721375" x="29.527969" y="35.073015" style="stroke: #000000; stroke-width: 0.8"/>
      </g>
     </g>
     <g id="text_11">
      <!-- 1 -->
      <g transform="translate(19.191406 37.220359) scale(0.06 -0.06)">
       <use xlink:href="#ArialMT-31"/>
      </g>
     </g>
    </g>
    <g id="text_12">
     <!-- qRT-PCR -->
     <g transform="translate(12.295781 71.494448) rotate(-90) scale(0.07 -0.07)">
      <defs>
       <path id="ArialMT-71" d="M 2538 -1272 
L 2538 353 
Q 2406 169 2170 47 
Q 1934 -75 1669 -75 
Q 1078 -75 651 397 
Q 225 869 225 1691 
Q 225 2191 398 2587 
Q 572 2984 901 3189 
Q 1231 3394 1625 3394 
Q 2241 3394 2594 2875 
L 2594 3319 
L 3100 3319 
L 3100 -1272 
L 2538 -1272 
z
M 803 1669 
Q 803 1028 1072 708 
Q 1341 388 1716 388 
Q 2075 388 2334 692 
Q 2594 997 2594 1619 
Q 2594 2281 2320 2615 
Q 2047 2950 1678 2950 
Q 1313 2950 1058 2639 
Q 803 2328 803 1669 
z
" transform="scale(0.015625)"/>
       <path id="ArialMT-52" d="M 503 0 
L 503 4581 
L 2534 4581 
Q 3147 4581 3465 4457 
Q 3784 4334 3975 4021 
Q 4166 3709 4166 3331 
Q 4166 2844 3850 2509 
Q 3534 2175 2875 2084 
Q 3116 1969 3241 1856 
Q 3506 1613 3744 1247 
L 4541 0 
L 3778 0 
L 3172 953 
Q 2906 1366 2734 1584 
Q 2563 1803 2427 1890 
Q 2291 1978 2150 2013 
Q 2047 2034 1813 2034 
L 1109 2034 
L 1109 0 
L 503 0 
z
M 1109 2559 
L 2413 2559 
Q 2828 2559 3062 2645 
Q 3297 2731 3419 2920 
Q 3541 3109 3541 3331 
Q 3541 3656 3305 3865 
Q 3069 4075 2559 4075 
L 1109 4075 
L 1109 2559 
z
" transform="scale(0.015625)"/>
       <path id="ArialMT-54" d="M 1659 0 
L 1659 4041 
L 150 4041 
L 150 4581 
L 3781 4581 
L 3781 4041 
L 2266 4041 
L 2266 0 
L 1659 0 
z
" transform="scale(0.015625)"/>
       <path id="ArialMT-2d" d="M 203 1375 
L 203 1941 
L 1931 1941 
L 1931 1375 
L 203 1375 
z
" transform="scale(0.015625)"/>
       <path id="ArialMT-43" d="M 3763 1606 
L 4369 1453 
Q 4178 706 3683 314 
Q 3188 -78 2472 -78 
Q 1731 -78 1267 223 
Q 803 525 561 1097 
Q 319 1669 319 2325 
Q 319 3041 592 3573 
Q 866 4106 1370 4382 
Q 1875 4659 2481 4659 
Q 3169 4659 3637 4309 
Q 4106 3959 4291 3325 
L 3694 3184 
Q 3534 3684 3231 3912 
Q 2928 4141 2469 4141 
Q 1941 4141 1586 3887 
Q 1231 3634 1087 3207 
Q 944 2781 944 2328 
Q 944 1744 1114 1308 
Q 1284 872 1643 656 
Q 2003 441 2422 441 
Q 2931 441 3284 734 
Q 3638 1028 3763 1606 
z
" transform="scale(0.015625)"/>
      </defs>
      <use xlink:href="#ArialMT-71"/>
      <use xlink:href="#ArialMT-52" x="55.615234"/>
      <use xlink:href="#ArialMT-54" x="126.082031"/>
      <use xlink:href="#ArialMT-2d" x="181.666016"/>
      <use xlink:href="#ArialMT-50" x="214.966797"/>
      <use xlink:href="#ArialMT-43" x="281.666016"/>
      <use xlink:href="#ArialMT-52" x="353.882812"/>
     </g>
    </g>
   </g>
   <g id="line2d_12">
    <path d="M 40.491584 88.549589 
L 40.491584 93.064045 
" clip-path="url(#pfcc01d425e)" style="fill: none; stroke: #999999; stroke-linecap: square"/>
   </g>
   <g id="line2d_13">
    <path d="M 40.491584 81.390376 
L 40.491584 74.96238 
" clip-path="url(#pfcc01d425e)" style="fill: none; stroke: #999999; stroke-linecap: square"/>
   </g>
   <g id="line2d_14">
    <path d="M 36.106138 93.064045 
L 44.87703 93.064045 
" clip-path="url(#pfcc01d425e)" style="fill: none; stroke: #999999; stroke-linecap: square"/>
   </g>
   <g id="line2d_15">
    <path d="M 36.106138 74.96238 
L 44.87703 74.96238 
" clip-path="url(#pfcc01d425e)" style="fill: none; stroke: #999999; stroke-linecap: square"/>
   </g>
   <g id="line2d_16"/>
   <g id="line2d_17">
    <path d="M 62.418815 57.410146 
L 62.418815 68.086118 
" clip-path="url(#pfcc01d425e)" style="fill: none; stroke: #999999; stroke-linecap: square"/>
   </g>
   <g id="line2d_18">
    <path d="M 62.418815 51.547723 
L 62.418815 45.527334 
" clip-path="url(#pfcc01d425e)" style="fill: none; stroke: #999999; stroke-linecap: square"/>
   </g>
   <g id="line2d_19">
    <path d="M 58.033368 68.086118 
L 66.804261 68.086118 
" clip-path="url(#pfcc01d425e)" style="fill: none; stroke: #999999; stroke-linecap: square"/>
   </g>
   <g id="line2d_20">
    <path d="M 58.033368 45.527334 
L 66.804261 45.527334 
" clip-path="url(#pfcc01d425e)" style="fill: none; stroke: #999999; stroke-linecap: square"/>
   </g>
   <g id="line2d_21"/>
   <g id="line2d_22">
    <path d="M 84.346045 52.082796 
L 84.346045 56.384751 
" clip-path="url(#pfcc01d425e)" style="fill: none; stroke: #999999; stroke-linecap: square"/>
   </g>
   <g id="line2d_23">
    <path d="M 84.346045 39.64338 
L 84.346045 31.93417 
" clip-path="url(#pfcc01d425e)" style="fill: none; stroke: #999999; stroke-linecap: square"/>
   </g>
   <g id="line2d_24">
    <path d="M 79.960599 56.384751 
L 88.731491 56.384751 
" clip-path="url(#pfcc01d425e)" style="fill: none; stroke: #999999; stroke-linecap: square"/>
   </g>
   <g id="line2d_25">
    <path d="M 79.960599 31.93417 
L 88.731491 31.93417 
" clip-path="url(#pfcc01d425e)" style="fill: none; stroke: #999999; stroke-linecap: square"/>
   </g>
   <g id="line2d_26"/>
   <g id="line2d_27">
    <path d="M 106.273276 32.011523 
L 106.273276 36.228016 
" clip-path="url(#pfcc01d425e)" style="fill: none; stroke: #999999; stroke-linecap: square"/>
   </g>
   <g id="line2d_28">
    <path d="M 106.273276 25.467419 
L 106.273276 21.986509 
" clip-path="url(#pfcc01d425e)" style="fill: none; stroke: #999999; stroke-linecap: square"/>
   </g>
   <g id="line2d_29">
    <path d="M 101.88783 36.228016 
L 110.658722 36.228016 
" clip-path="url(#pfcc01d425e)" style="fill: none; stroke: #999999; stroke-linecap: square"/>
   </g>
   <g id="line2d_30">
    <path d="M 101.88783 21.986509 
L 110.658722 21.986509 
" clip-path="url(#pfcc01d425e)" style="fill: none; stroke: #999999; stroke-linecap: square"/>
   </g>
   <g id="line2d_31"/>
   <g id="line2d_32">
    <path d="M 128.200506 25.380605 
L 128.200506 28.726524 
" clip-path="url(#pfcc01d425e)" style="fill: none; stroke: #999999; stroke-linecap: square"/>
   </g>
   <g id="line2d_33">
    <path d="M 128.200506 23.204391 
L 128.200506 20.098288 
" clip-path="url(#pfcc01d425e)" style="fill: none; stroke: #999999; stroke-linecap: square"/>
   </g>
   <g id="line2d_34">
    <path d="M 123.81506 28.726524 
L 132.585952 28.726524 
" clip-path="url(#pfcc01d425e)" style="fill: none; stroke: #999999; stroke-linecap: square"/>
   </g>
   <g id="line2d_35">
    <path d="M 123.81506 20.098288 
L 132.585952 20.098288 
" clip-path="url(#pfcc01d425e)" style="fill: none; stroke: #999999; stroke-linecap: square"/>
   </g>
   <g id="line2d_36"/>
   <g id="line2d_37">
    <path d="M 150.127737 33.57783 
L 150.127737 34.060194 
" clip-path="url(#pfcc01d425e)" style="fill: none; stroke: #999999; stroke-linecap: square"/>
   </g>
   <g id="line2d_38">
    <path d="M 150.127737 22.094266 
L 150.127737 20.731099 
" clip-path="url(#pfcc01d425e)" style="fill: none; stroke: #999999; stroke-linecap: square"/>
   </g>
   <g id="line2d_39">
    <path d="M 145.742291 34.060194 
L 154.513183 34.060194 
" clip-path="url(#pfcc01d425e)" style="fill: none; stroke: #999999; stroke-linecap: square"/>
   </g>
   <g id="line2d_40">
    <path d="M 145.742291 20.731099 
L 154.513183 20.731099 
" clip-path="url(#pfcc01d425e)" style="fill: none; stroke: #999999; stroke-linecap: square"/>
   </g>
   <g id="line2d_41"/>
   <g id="line2d_42">
    <path d="M 172.054967 47.495714 
L 172.054967 57.615531 
" clip-path="url(#pfcc01d425e)" style="fill: none; stroke: #999999; stroke-linecap: square"/>
   </g>
   <g id="line2d_43">
    <path d="M 172.054967 34.88122 
L 172.054967 25.209832 
" clip-path="url(#pfcc01d425e)" style="fill: none; stroke: #999999; stroke-linecap: square"/>
   </g>
   <g id="line2d_44">
    <path d="M 167.669521 57.615531 
L 176.440413 57.615531 
" clip-path="url(#pfcc01d425e)" style="fill: none; stroke: #999999; stroke-linecap: square"/>
   </g>
   <g id="line2d_45">
    <path d="M 167.669521 25.209832 
L 176.440413 25.209832 
" clip-path="url(#pfcc01d425e)" style="fill: none; stroke: #999999; stroke-linecap: square"/>
   </g>
   <g id="line2d_46"/>
   <g id="line2d_47">
    <path d="M 31.720692 85.288906 
L 49.262476 85.288906 
" clip-path="url(#pfcc01d425e)" style="fill: none; stroke: #999999; stroke-linecap: square"/>
   </g>
   <g id="line2d_48">
    <path d="M 53.647922 55.341121 
L 71.189707 55.341121 
" clip-path="url(#pfcc01d425e)" style="fill: none; stroke: #999999; stroke-linecap: square"/>
   </g>
   <g id="line2d_49">
    <path d="M 75.575153 46.435174 
L 93.116937 46.435174 
" clip-path="url(#pfcc01d425e)" style="fill: none; stroke: #999999; stroke-linecap: square"/>
   </g>
   <g id="line2d_50">
    <path d="M 97.502383 28.616874 
L 115.044168 28.616874 
" clip-path="url(#pfcc01d425e)" style="fill: none; stroke: #999999; stroke-linecap: square"/>
   </g>
   <g id="line2d_51">
    <path d="M 119.429614 24.252529 
L 136.971398 24.252529 
" clip-path="url(#pfcc01d425e)" style="fill: none; stroke: #999999; stroke-linecap: square"/>
   </g>
   <g id="line2d_52">
    <path d="M 141.356844 27.982849 
L 158.898629 27.982849 
" clip-path="url(#pfcc01d425e)" style="fill: none; stroke: #999999; stroke-linecap: square"/>
   </g>
   <g id="line2d_53">
    <path d="M 163.284075 45.417317 
L 180.825859 45.417317 
" clip-path="url(#pfcc01d425e)" style="fill: none; stroke: #999999; stroke-linecap: square"/>
   </g>
   <g id="patch_10">
    <path d="M 29.527969 96.712333 
L 29.527969 16.45 
" style="fill: none; stroke: #000000; stroke-width: 0.8; stroke-linejoin: miter; stroke-linecap: square"/>
   </g>
   <g id="patch_11">
    <path d="M 183.018583 96.712333 
L 183.018583 16.45 
" style="fill: none; stroke: #000000; stroke-width: 0.8; stroke-linejoin: miter; stroke-linecap: square"/>
   </g>
   <g id="patch_12">
    <path d="M 29.527969 96.712333 
L 183.018583 96.712333 
" style="fill: none; stroke: #000000; stroke-width: 0.8; stroke-linejoin: miter; stroke-linecap: square"/>
   </g>
   <g id="patch_13">
    <path d="M 29.527969 16.45 
L 183.018583 16.45 
" style="fill: none; stroke: #000000; stroke-width: 0.8; stroke-linejoin: miter; stroke-linecap: square"/>
   </g>
   <g id="PathCollection_1">
    <defs>
     <path id="C0_0_fa7afa9167" d="M 0 1.5 
C 0.397805 1.5 0.77937 1.341951 1.06066 1.06066 
C 1.341951 0.77937 1.5 0.397805 1.5 -0 
C 1.5 -0.397805 1.341951 -0.77937 1.06066 -1.06066 
C 0.77937 -1.341951 0.397805 -1.5 0 -1.5 
C -0.397805 -1.5 -0.77937 -1.341951 -1.06066 -1.06066 
C -1.341951 -0.77937 -1.5 -0.397805 -1.5 0 
C -1.5 0.397805 -1.341951 0.77937 -1.06066 1.06066 
C -0.77937 1.341951 -0.397805 1.5 0 1.5 
z
"/>
    </defs>
    <g clip-path="url(#pfcc01d425e)">
     <use xlink:href="#C0_0_fa7afa9167" x="41.070102" y="93.064045" style="fill: none; stroke: #000000; stroke-width: 0.6"/>
    </g>
    <g clip-path="url(#pfcc01d425e)">
     <use xlink:href="#C0_0_fa7afa9167" x="39.741577" y="83.533041" style="fill: none; stroke: #000000; stroke-width: 0.6"/>
    </g>
    <g clip-path="url(#pfcc01d425e)">
     <use xlink:href="#C0_0_fa7afa9167" x="39.232874" y="87.044771" style="fill: none; stroke: #000000; stroke-width: 0.6"/>
    </g>
    <g clip-path="url(#pfcc01d425e)">
     <use xlink:href="#C0_0_fa7afa9167" x="41.25638" y="74.96238" style="fill: none; stroke: #000000; stroke-width: 0.6"/>
    </g>
   </g>
   <g id="PathCollection_2">
    <defs>
     <path id="C1_0_bff89dbbb6" d="M 0 1.5 
C 0.397805 1.5 0.77937 1.341951 1.06066 1.06066 
C 1.341951 0.77937 1.5 0.397805 1.5 -0 
C 1.5 -0.397805 1.341951 -0.77937 1.06066 -1.06066 
C 0.77937 -1.341951 0.397805 -1.5 0 -1.5 
C -0.397805 -1.5 -0.77937 -1.341951 -1.06066 -1.06066 
C -1.341951 -0.77937 -1.5 -0.397805 -1.5 0 
C -1.5 0.397805 -1.341951 0.77937 -1.06066 1.06066 
C -0.77937 1.341951 -0.397805 1.5 0 1.5 
z
"/>
    </defs>
    <g clip-path="url(#pfcc01d425e)">
     <use xlink:href="#C1_0_bff89dbbb6" x="62.432423" y="56.198741" style="fill: none; stroke: #000000; stroke-width: 0.6"/>
    </g>
    <g clip-path="url(#pfcc01d425e)">
     <use xlink:href="#C1_0_bff89dbbb6" x="61.578547" y="57.813948" style="fill: none; stroke: #000000; stroke-width: 0.6"/>
    </g>
    <g clip-path="url(#pfcc01d425e)">
     <use xlink:href="#C1_0_bff89dbbb6" x="64.56589" y="45.527334" style="fill: none; stroke: #000000; stroke-width: 0.6"/>
    </g>
    <g clip-path="url(#pfcc01d425e)">
     <use xlink:href="#C1_0_bff89dbbb6" x="60.279875" y="54.483501" style="fill: none; stroke: #000000; stroke-width: 0.6"/>
    </g>
    <g clip-path="url(#pfcc01d425e)">
     <use xlink:href="#C1_0_bff89dbbb6" x="60.31925" y="68.086118" style="fill: none; stroke: #000000; stroke-width: 0.6"/>
    </g>
    <g clip-path="url(#pfcc01d425e)">
     <use xlink:href="#C1_0_bff89dbbb6" x="62.414205" y="50.56913" style="fill: none; stroke: #000000; stroke-width: 0.6"/>
    </g>
   </g>
   <g id="PathCollection_3">
    <defs>
     <path id="C2_0_066b9e21b5" d="M 0 1.5 
C 0.397805 1.5 0.77937 1.341951 1.06066 1.06066 
C 1.341951 0.77937 1.5 0.397805 1.5 -0 
C 1.5 -0.397805 1.341951 -0.77937 1.06066 -1.06066 
C 0.77937 -1.341951 0.397805 -1.5 0 -1.5 
C -0.397805 -1.5 -0.77937 -1.341951 -1.06066 -1.06066 
C -1.341951 -0.77937 -1.5 -0.397805 -1.5 0 
C -1.5 0.397805 -1.341951 0.77937 -1.06066 1.06066 
C -0.77937 1.341951 -0.397805 1.5 0 1.5 
z
"/>
    </defs>
    <g clip-path="url(#pfcc01d425e)">
     <use xlink:href="#C2_0_066b9e21b5" x="82.270261" y="56.384751" style="fill: none; stroke: #000000; stroke-width: 0.6"/>
    </g>
    <g clip-path="url(#pfcc01d425e)">
     <use xlink:href="#C2_0_066b9e21b5" x="84.481439" y="48.608614" style="fill: none; stroke: #000000; stroke-width: 0.6"/>
    </g>
    <g clip-path="url(#pfcc01d425e)">
     <use xlink:href="#C2_0_066b9e21b5" x="82.357319" y="55.556978" style="fill: none; stroke: #000000; stroke-width: 0.6"/>
    </g>
    <g clip-path="url(#pfcc01d425e)">
     <use xlink:href="#C2_0_066b9e21b5" x="83.882589" y="31.93417" style="fill: none; stroke: #000000; stroke-width: 0.6"/>
    </g>
    <g clip-path="url(#pfcc01d425e)">
     <use xlink:href="#C2_0_066b9e21b5" x="85.139571" y="35.37443" style="fill: none; stroke: #000000; stroke-width: 0.6"/>
    </g>
    <g clip-path="url(#pfcc01d425e)">
     <use xlink:href="#C2_0_066b9e21b5" x="83.249131" y="46.435174" style="fill: none; stroke: #000000; stroke-width: 0.6"/>
    </g>
    <g clip-path="url(#pfcc01d425e)">
     <use xlink:href="#C2_0_066b9e21b5" x="86.33531" y="43.91233" style="fill: none; stroke: #000000; stroke-width: 0.6"/>
    </g>
   </g>
   <g id="PathCollection_4">
    <defs>
     <path id="C3_0_7bd47a10bf" d="M 0 1.5 
C 0.397805 1.5 0.77937 1.341951 1.06066 1.06066 
C 1.341951 0.77937 1.5 0.397805 1.5 -0 
C 1.5 -0.397805 1.341951 -0.77937 1.06066 -1.06066 
C 0.77937 -1.341951 0.397805 -1.5 0 -1.5 
C -0.397805 -1.5 -0.77937 -1.341951 -1.06066 -1.06066 
C -1.341951 -0.77937 -1.5 -0.397805 -1.5 0 
C -1.5 0.397805 -1.341951 0.77937 -1.06066 1.06066 
C -0.77937 1.341951 -0.397805 1.5 0 1.5 
z
"/>
    </defs>
    <g clip-path="url(#pfcc01d425e)">
     <use xlink:href="#C3_0_7bd47a10bf" x="104.653143" y="26.627722" style="fill: none; stroke: #000000; stroke-width: 0.6"/>
    </g>
    <g clip-path="url(#pfcc01d425e)">
     <use xlink:href="#C3_0_7bd47a10bf" x="106.128165" y="21.986509" style="fill: none; stroke: #000000; stroke-width: 0.6"/>
    </g>
    <g clip-path="url(#pfcc01d425e)">
     <use xlink:href="#C3_0_7bd47a10bf" x="106.076864" y="36.228016" style="fill: none; stroke: #000000; stroke-width: 0.6"/>
    </g>
    <g clip-path="url(#pfcc01d425e)">
     <use xlink:href="#C3_0_7bd47a10bf" x="108.020893" y="30.606025" style="fill: none; stroke: #000000; stroke-width: 0.6"/>
    </g>
   </g>
   <g id="PathCollection_5">
    <defs>
     <path id="C4_0_464f9d68fc" d="M 0 1.5 
C 0.397805 1.5 0.77937 1.341951 1.06066 1.06066 
C 1.341951 0.77937 1.5 0.397805 1.5 -0 
C 1.5 -0.397805 1.341951 -0.77937 1.06066 -1.06066 
C 0.77937 -1.341951 0.397805 -1.5 0 -1.5 
C -0.397805 -1.5 -0.77937 -1.341951 -1.06066 -1.06066 
C -1.341951 -0.77937 -1.5 -0.397805 -1.5 0 
C -1.5 0.397805 -1.341951 0.77937 -1.06066 1.06066 
C -0.77937 1.341951 -0.397805 1.5 0 1.5 
z
"/>
    </defs>
    <g clip-path="url(#pfcc01d425e)">
     <use xlink:href="#C4_0_464f9d68fc" x="128.919076" y="28.726524" style="fill: none; stroke: #000000; stroke-width: 0.6"/>
    </g>
    <g clip-path="url(#pfcc01d425e)">
     <use xlink:href="#C4_0_464f9d68fc" x="128.161758" y="24.239759" style="fill: none; stroke: #000000; stroke-width: 0.6"/>
    </g>
    <g clip-path="url(#pfcc01d425e)">
     <use xlink:href="#C4_0_464f9d68fc" x="127.091423" y="24.265298" style="fill: none; stroke: #000000; stroke-width: 0.6"/>
    </g>
    <g clip-path="url(#pfcc01d425e)">
     <use xlink:href="#C4_0_464f9d68fc" x="127.146756" y="20.098288" style="fill: none; stroke: #000000; stroke-width: 0.6"/>
    </g>
   </g>
   <g id="PathCollection_6">
    <defs>
     <path id="C5_0_4714890517" d="M 0 1.5 
C 0.397805 1.5 0.77937 1.341951 1.06066 1.06066 
C 1.341951 0.77937 1.5 0.397805 1.5 -0 
C 1.5 -0.397805 1.341951 -0.77937 1.06066 -1.06066 
C 0.77937 -1.341951 0.397805 -1.5 0 -1.5 
C -0.397805 -1.5 -0.77937 -1.341951 -1.06066 -1.06066 
C -1.341951 -0.77937 -1.5 -0.397805 -1.5 0 
C -1.5 0.397805 -1.341951 0.77937 -1.06066 1.06066 
C -0.77937 1.341951 -0.397805 1.5 0 1.5 
z
"/>
    </defs>
    <g clip-path="url(#pfcc01d425e)">
     <use xlink:href="#C5_0_4714890517" x="148.469132" y="34.060194" style="fill: none; stroke: #000000; stroke-width: 0.6"/>
    </g>
    <g clip-path="url(#pfcc01d425e)">
     <use xlink:href="#C5_0_4714890517" x="150.162567" y="22.548655" style="fill: none; stroke: #000000; stroke-width: 0.6"/>
    </g>
    <g clip-path="url(#pfcc01d425e)">
     <use xlink:href="#C5_0_4714890517" x="151.654946" y="33.417042" style="fill: none; stroke: #000000; stroke-width: 0.6"/>
    </g>
    <g clip-path="url(#pfcc01d425e)">
     <use xlink:href="#C5_0_4714890517" x="149.72313" y="20.731099" style="fill: none; stroke: #000000; stroke-width: 0.6"/>
    </g>
   </g>
   <g id="PathCollection_7">
    <defs>
     <path id="C6_0_62a82cae72" d="M 0 1.5 
C 0.397805 1.5 0.77937 1.341951 1.06066 1.06066 
C 1.341951 0.77937 1.5 0.397805 1.5 -0 
C 1.5 -0.397805 1.341951 -0.77937 1.06066 -1.06066 
C 0.77937 -1.341951 0.397805 -1.5 0 -1.5 
C -0.397805 -1.5 -0.77937 -1.341951 -1.06066 -1.06066 
C -1.341951 -0.77937 -1.5 -0.397805 -1.5 0 
C -1.5 0.397805 -1.341951 0.77937 -1.06066 1.06066 
C -0.77937 1.341951 -0.397805 1.5 0 1.5 
z
"/>
    </defs>
    <g clip-path="url(#pfcc01d425e)">
     <use xlink:href="#C6_0_62a82cae72" x="171.101225" y="45.417317" style="fill: none; stroke: #000000; stroke-width: 0.6"/>
    </g>
    <g clip-path="url(#pfcc01d425e)">
     <use xlink:href="#C6_0_62a82cae72" x="173.585908" y="28.53541" style="fill: none; stroke: #000000; stroke-width: 0.6"/>
    </g>
    <g clip-path="url(#pfcc01d425e)">
     <use xlink:href="#C6_0_62a82cae72" x="173.07581" y="41.227029" style="fill: none; stroke: #000000; stroke-width: 0.6"/>
    </g>
    <g clip-path="url(#pfcc01d425e)">
     <use xlink:href="#C6_0_62a82cae72" x="173.185209" y="25.209832" style="fill: none; stroke: #000000; stroke-width: 0.6"/>
    </g>
    <g clip-path="url(#pfcc01d425e)">
     <use xlink:href="#C6_0_62a82cae72" x="171.751039" y="57.615531" style="fill: none; stroke: #000000; stroke-width: 0.6"/>
    </g>
    <g clip-path="url(#pfcc01d425e)">
     <use xlink:href="#C6_0_62a82cae72" x="173.795528" y="48.199107" style="fill: none; stroke: #000000; stroke-width: 0.6"/>
    </g>
    <g clip-path="url(#pfcc01d425e)">
     <use xlink:href="#C6_0_62a82cae72" x="171.610522" y="46.792321" style="fill: none; stroke: #000000; stroke-width: 0.6"/>
    </g>
   </g>
   <g id="text_13">
    <!-- $\it Crx$ expression  $log_2FC$ / p3 -->
    <g transform="translate(62.698276 12.45) scale(0.07 -0.07)">
     <defs>
      <path id="DejaVuSans-Oblique-43" d="M 4447 4306 
L 4319 3641 
Q 4019 3944 3683 4091 
Q 3347 4238 2956 4238 
Q 2422 4238 2017 3981 
Q 1613 3725 1319 3200 
Q 1131 2863 1032 2486 
Q 934 2109 934 1728 
Q 934 1091 1264 756 
Q 1594 422 2222 422 
Q 2656 422 3056 561 
Q 3456 700 3834 978 
L 3688 231 
Q 3316 72 2936 -9 
Q 2556 -91 2175 -91 
Q 1278 -91 773 396 
Q 269 884 269 1753 
Q 269 2309 461 2846 
Q 653 3384 1013 3828 
Q 1394 4300 1883 4525 
Q 2372 4750 3022 4750 
Q 3422 4750 3780 4639 
Q 4138 4528 4447 4306 
z
" transform="scale(0.015625)"/>
      <path id="DejaVuSans-Oblique-72" d="M 2853 2969 
Q 2766 3016 2653 3041 
Q 2541 3066 2413 3066 
Q 1953 3066 1609 2717 
Q 1266 2369 1153 1784 
L 800 0 
L 225 0 
L 909 3500 
L 1484 3500 
L 1375 2956 
Q 1603 3259 1920 3421 
Q 2238 3584 2597 3584 
Q 2691 3584 2781 3573 
Q 2872 3563 2963 3538 
L 2853 2969 
z
" transform="scale(0.015625)"/>
      <path id="DejaVuSans-Oblique-78" d="M 3841 3500 
L 2234 1784 
L 3219 0 
L 2559 0 
L 1819 1388 
L 531 0 
L -166 0 
L 1556 1844 
L 641 3500 
L 1300 3500 
L 1972 2234 
L 3144 3500 
L 3841 3500 
z
" transform="scale(0.015625)"/>
      <path id="ArialMT-20" transform="scale(0.015625)"/>
      <path id="ArialMT-65" d="M 2694 1069 
L 3275 997 
Q 3138 488 2766 206 
Q 2394 -75 1816 -75 
Q 1088 -75 661 373 
Q 234 822 234 1631 
Q 234 2469 665 2931 
Q 1097 3394 1784 3394 
Q 2450 3394 2872 2941 
Q 3294 2488 3294 1666 
Q 3294 1616 3291 1516 
L 816 1516 
Q 847 969 1125 678 
Q 1403 388 1819 388 
Q 2128 388 2347 550 
Q 2566 713 2694 1069 
z
M 847 1978 
L 2700 1978 
Q 2663 2397 2488 2606 
Q 2219 2931 1791 2931 
Q 1403 2931 1139 2672 
Q 875 2413 847 1978 
z
" transform="scale(0.015625)"/>
      <path id="ArialMT-78" d="M 47 0 
L 1259 1725 
L 138 3319 
L 841 3319 
L 1350 2541 
Q 1494 2319 1581 2169 
Q 1719 2375 1834 2534 
L 2394 3319 
L 3066 3319 
L 1919 1756 
L 3153 0 
L 2463 0 
L 1781 1031 
L 1600 1309 
L 728 0 
L 47 0 
z
" transform="scale(0.015625)"/>
      <path id="ArialMT-70" d="M 422 -1272 
L 422 3319 
L 934 3319 
L 934 2888 
Q 1116 3141 1344 3267 
Q 1572 3394 1897 3394 
Q 2322 3394 2647 3175 
Q 2972 2956 3137 2557 
Q 3303 2159 3303 1684 
Q 3303 1175 3120 767 
Q 2938 359 2589 142 
Q 2241 -75 1856 -75 
Q 1575 -75 1351 44 
Q 1128 163 984 344 
L 984 -1272 
L 422 -1272 
z
M 931 1641 
Q 931 1000 1190 694 
Q 1450 388 1819 388 
Q 2194 388 2461 705 
Q 2728 1022 2728 1688 
Q 2728 2322 2467 2637 
Q 2206 2953 1844 2953 
Q 1484 2953 1207 2617 
Q 931 2281 931 1641 
z
" transform="scale(0.015625)"/>
      <path id="ArialMT-72" d="M 416 0 
L 416 3319 
L 922 3319 
L 922 2816 
Q 1116 3169 1280 3281 
Q 1444 3394 1641 3394 
Q 1925 3394 2219 3213 
L 2025 2691 
Q 1819 2813 1613 2813 
Q 1428 2813 1281 2702 
Q 1134 2591 1072 2394 
Q 978 2094 978 1738 
L 978 0 
L 416 0 
z
" transform="scale(0.015625)"/>
      <path id="ArialMT-73" d="M 197 991 
L 753 1078 
Q 800 744 1014 566 
Q 1228 388 1613 388 
Q 2000 388 2187 545 
Q 2375 703 2375 916 
Q 2375 1106 2209 1216 
Q 2094 1291 1634 1406 
Q 1016 1563 777 1677 
Q 538 1791 414 1992 
Q 291 2194 291 2438 
Q 291 2659 392 2848 
Q 494 3038 669 3163 
Q 800 3259 1026 3326 
Q 1253 3394 1513 3394 
Q 1903 3394 2198 3281 
Q 2494 3169 2634 2976 
Q 2775 2784 2828 2463 
L 2278 2388 
Q 2241 2644 2061 2787 
Q 1881 2931 1553 2931 
Q 1166 2931 1000 2803 
Q 834 2675 834 2503 
Q 834 2394 903 2306 
Q 972 2216 1119 2156 
Q 1203 2125 1616 2013 
Q 2213 1853 2448 1751 
Q 2684 1650 2818 1456 
Q 2953 1263 2953 975 
Q 2953 694 2789 445 
Q 2625 197 2315 61 
Q 2006 -75 1616 -75 
Q 969 -75 630 194 
Q 291 463 197 991 
z
" transform="scale(0.015625)"/>
      <path id="ArialMT-69" d="M 425 3934 
L 425 4581 
L 988 4581 
L 988 3934 
L 425 3934 
z
M 425 0 
L 425 3319 
L 988 3319 
L 988 0 
L 425 0 
z
" transform="scale(0.015625)"/>
      <path id="ArialMT-6f" d="M 213 1659 
Q 213 2581 725 3025 
Q 1153 3394 1769 3394 
Q 2453 3394 2887 2945 
Q 3322 2497 3322 1706 
Q 3322 1066 3130 698 
Q 2938 331 2570 128 
Q 2203 -75 1769 -75 
Q 1072 -75 642 372 
Q 213 819 213 1659 
z
M 791 1659 
Q 791 1022 1069 705 
Q 1347 388 1769 388 
Q 2188 388 2466 706 
Q 2744 1025 2744 1678 
Q 2744 2294 2464 2611 
Q 2184 2928 1769 2928 
Q 1347 2928 1069 2612 
Q 791 2297 791 1659 
z
" transform="scale(0.015625)"/>
      <path id="ArialMT-6e" d="M 422 0 
L 422 3319 
L 928 3319 
L 928 2847 
Q 1294 3394 1984 3394 
Q 2284 3394 2536 3286 
Q 2788 3178 2913 3003 
Q 3038 2828 3088 2588 
Q 3119 2431 3119 2041 
L 3119 0 
L 2556 0 
L 2556 2019 
Q 2556 2363 2490 2533 
Q 2425 2703 2258 2804 
Q 2091 2906 1866 2906 
Q 1506 2906 1245 2678 
Q 984 2450 984 1813 
L 984 0 
L 422 0 
z
" transform="scale(0.015625)"/>
      <path id="ArialMT-6c" d="M 409 0 
L 409 4581 
L 972 4581 
L 972 0 
L 409 0 
z
" transform="scale(0.015625)"/>
      <path id="ArialMT-67" d="M 319 -275 
L 866 -356 
Q 900 -609 1056 -725 
Q 1266 -881 1628 -881 
Q 2019 -881 2231 -725 
Q 2444 -569 2519 -288 
Q 2563 -116 2559 434 
Q 2191 0 1641 0 
Q 956 0 581 494 
Q 206 988 206 1678 
Q 206 2153 378 2554 
Q 550 2956 876 3175 
Q 1203 3394 1644 3394 
Q 2231 3394 2613 2919 
L 2613 3319 
L 3131 3319 
L 3131 450 
Q 3131 -325 2973 -648 
Q 2816 -972 2473 -1159 
Q 2131 -1347 1631 -1347 
Q 1038 -1347 672 -1080 
Q 306 -813 319 -275 
z
M 784 1719 
Q 784 1066 1043 766 
Q 1303 466 1694 466 
Q 2081 466 2343 764 
Q 2606 1063 2606 1700 
Q 2606 2309 2336 2618 
Q 2066 2928 1684 2928 
Q 1309 2928 1046 2623 
Q 784 2319 784 1719 
z
" transform="scale(0.015625)"/>
      <path id="ArialMT-46" d="M 525 0 
L 525 4581 
L 3616 4581 
L 3616 4041 
L 1131 4041 
L 1131 2622 
L 3281 2622 
L 3281 2081 
L 1131 2081 
L 1131 0 
L 525 0 
z
" transform="scale(0.015625)"/>
      <path id="ArialMT-2f" d="M 0 -78 
L 1328 4659 
L 1778 4659 
L 453 -78 
L 0 -78 
z
" transform="scale(0.015625)"/>
     </defs>
     <use xlink:href="#DejaVuSans-Oblique-43" transform="translate(0 0.78125)"/>
     <use xlink:href="#DejaVuSans-Oblique-72" transform="translate(69.824219 0.78125)"/>
     <use xlink:href="#DejaVuSans-Oblique-78" transform="translate(110.9375 0.78125)"/>
     <use xlink:href="#ArialMT-20" transform="translate(170.117188 0.78125)"/>
     <use xlink:href="#ArialMT-65" transform="translate(197.900391 0.78125)"/>
     <use xlink:href="#ArialMT-78" transform="translate(253.515625 0.78125)"/>
     <use xlink:href="#ArialMT-70" transform="translate(303.515625 0.78125)"/>
     <use xlink:href="#ArialMT-72" transform="translate(359.130859 0.78125)"/>
     <use xlink:href="#ArialMT-65" transform="translate(392.431641 0.78125)"/>
     <use xlink:href="#ArialMT-73" transform="translate(448.046875 0.78125)"/>
     <use xlink:href="#ArialMT-73" transform="translate(498.046875 0.78125)"/>
     <use xlink:href="#ArialMT-69" transform="translate(548.046875 0.78125)"/>
     <use xlink:href="#ArialMT-6f" transform="translate(570.263672 0.78125)"/>
     <use xlink:href="#ArialMT-6e" transform="translate(625.878906 0.78125)"/>
     <use xlink:href="#ArialMT-20" transform="translate(681.494141 0.78125)"/>
     <use xlink:href="#ArialMT-20" transform="translate(709.277344 0.78125)"/>
     <use xlink:href="#ArialMT-6c" transform="translate(737.060547 0.78125)"/>
     <use xlink:href="#ArialMT-6f" transform="translate(759.277344 0.78125)"/>
     <use xlink:href="#ArialMT-67" transform="translate(814.892578 0.78125)"/>
     <use xlink:href="#ArialMT-32" transform="translate(872.250156 -29.0875) scale(0.7)"/>
     <use xlink:href="#ArialMT-46" transform="translate(916.158945 0.78125)"/>
     <use xlink:href="#ArialMT-43" transform="translate(977.24293 0.78125)"/>
     <use xlink:href="#ArialMT-20" transform="translate(1049.459727 0.78125)"/>
     <use xlink:href="#ArialMT-2f" transform="translate(1077.24293 0.78125)"/>
     <use xlink:href="#ArialMT-20" transform="translate(1105.026133 0.78125)"/>
     <use xlink:href="#ArialMT-70" transform="translate(1132.809336 0.78125)"/>
     <use xlink:href="#ArialMT-33" transform="translate(1188.42457 0.78125)"/>
    </g>
   </g>
  </g>
  <g id="axes_2">
   <g id="PathCollection_8">
    <defs>
     <path id="mf76945a933" d="M 0 -1.414214 
L -0.317511 -0.437016 
L -1.344997 -0.437016 
L -0.513743 0.166925 
L -0.831254 1.144123 
L -0 0.540181 
L 0.831254 1.144123 
L 0.513743 0.166925 
L 1.344997 -0.437016 
L 0.317511 -0.437016 
z
" style="stroke: #ffa500"/>
    </defs>
    <g clip-path="url(#pfcc01d425e)">
     <use xlink:href="#mf76945a933" x="40.491584" y="93.064045" style="fill: #ffa500; stroke: #ffa500"/>
     <use xlink:href="#mf76945a933" x="62.418815" y="53.290346" style="fill: #ffa500; stroke: #ffa500"/>
     <use xlink:href="#mf76945a933" x="106.273276" y="21.812147" style="fill: #ffa500; stroke: #ffa500"/>
     <use xlink:href="#mf76945a933" x="128.200506" y="38.058325" style="fill: #ffa500; stroke: #ffa500"/>
     <use xlink:href="#mf76945a933" x="150.127737" y="39.177792" style="fill: #ffa500; stroke: #ffa500"/>
     <use xlink:href="#mf76945a933" x="172.054967" y="41.411377" style="fill: #ffa500; stroke: #ffa500"/>
    </g>
   </g>
   <g id="matplotlib.axis_3">
    <g id="ytick_5">
     <g id="line2d_54">
      <defs>
       <path id="m9a546ad76b" d="M 0 0 
L 3.5 0 
" style="stroke: #000000; stroke-width: 0.8"/>
      </defs>
      <g>
       <use xlink:href="#m9a546ad76b" x="183.018583" y="83.522429" style="stroke: #000000; stroke-width: 0.8"/>
      </g>
     </g>
     <g id="text_14">
      <!-- −0.50 -->
      <g transform="translate(190.018583 85.669773) scale(0.06 -0.06)">
       <defs>
        <path id="ArialMT-2e" d="M 581 0 
L 581 641 
L 1222 641 
L 1222 0 
L 581 0 
z
" transform="scale(0.015625)"/>
       </defs>
       <use xlink:href="#ArialMT-2212"/>
       <use xlink:href="#ArialMT-30" x="58.398438"/>
       <use xlink:href="#ArialMT-2e" x="114.013672"/>
       <use xlink:href="#ArialMT-35" x="141.796875"/>
       <use xlink:href="#ArialMT-30" x="197.412109"/>
      </g>
     </g>
    </g>
    <g id="ytick_6">
     <g id="line2d_55">
      <g>
       <use xlink:href="#m9a546ad76b" x="183.018583" y="68.406387" style="stroke: #000000; stroke-width: 0.8"/>
      </g>
     </g>
     <g id="text_15">
      <!-- −0.25 -->
      <g transform="translate(190.018583 70.553731) scale(0.06 -0.06)">
       <use xlink:href="#ArialMT-2212"/>
       <use xlink:href="#ArialMT-30" x="58.398438"/>
       <use xlink:href="#ArialMT-2e" x="114.013672"/>
       <use xlink:href="#ArialMT-32" x="141.796875"/>
       <use xlink:href="#ArialMT-35" x="197.412109"/>
      </g>
     </g>
    </g>
    <g id="ytick_7">
     <g id="line2d_56">
      <g>
       <use xlink:href="#m9a546ad76b" x="183.018583" y="53.290346" style="stroke: #000000; stroke-width: 0.8"/>
      </g>
     </g>
     <g id="text_16">
      <!-- 0.00 -->
      <g transform="translate(190.018583 55.437689) scale(0.06 -0.06)">
       <use xlink:href="#ArialMT-30"/>
       <use xlink:href="#ArialMT-2e" x="55.615234"/>
       <use xlink:href="#ArialMT-30" x="83.398438"/>
       <use xlink:href="#ArialMT-30" x="139.013672"/>
      </g>
     </g>
    </g>
    <g id="ytick_8">
     <g id="line2d_57">
      <g>
       <use xlink:href="#m9a546ad76b" x="183.018583" y="38.174304" style="stroke: #000000; stroke-width: 0.8"/>
      </g>
     </g>
     <g id="text_17">
      <!-- 0.25 -->
      <g transform="translate(190.018583 40.321648) scale(0.06 -0.06)">
       <use xlink:href="#ArialMT-30"/>
       <use xlink:href="#ArialMT-2e" x="55.615234"/>
       <use xlink:href="#ArialMT-32" x="83.398438"/>
       <use xlink:href="#ArialMT-35" x="139.013672"/>
      </g>
     </g>
    </g>
    <g id="ytick_9">
     <g id="line2d_58">
      <g>
       <use xlink:href="#m9a546ad76b" x="183.018583" y="23.058262" style="stroke: #000000; stroke-width: 0.8"/>
      </g>
     </g>
     <g id="text_18">
      <!-- 0.50 -->
      <g transform="translate(190.018583 25.205606) scale(0.06 -0.06)">
       <use xlink:href="#ArialMT-30"/>
       <use xlink:href="#ArialMT-2e" x="55.615234"/>
       <use xlink:href="#ArialMT-35" x="83.398438"/>
       <use xlink:href="#ArialMT-30" x="139.013672"/>
      </g>
     </g>
    </g>
    <g id="text_19">
     <!-- Aldiri RNA-seq -->
     <g style="fill: #ffa500" transform="translate(212.189051 33.631557) rotate(-270) scale(0.07 -0.07)">
      <defs>
       <path id="ArialMT-41" d="M -9 0 
L 1750 4581 
L 2403 4581 
L 4278 0 
L 3588 0 
L 3053 1388 
L 1138 1388 
L 634 0 
L -9 0 
z
M 1313 1881 
L 2866 1881 
L 2388 3150 
Q 2169 3728 2063 4100 
Q 1975 3659 1816 3225 
L 1313 1881 
z
" transform="scale(0.015625)"/>
       <path id="ArialMT-64" d="M 2575 0 
L 2575 419 
Q 2259 -75 1647 -75 
Q 1250 -75 917 144 
Q 584 363 401 755 
Q 219 1147 219 1656 
Q 219 2153 384 2558 
Q 550 2963 881 3178 
Q 1213 3394 1622 3394 
Q 1922 3394 2156 3267 
Q 2391 3141 2538 2938 
L 2538 4581 
L 3097 4581 
L 3097 0 
L 2575 0 
z
M 797 1656 
Q 797 1019 1065 703 
Q 1334 388 1700 388 
Q 2069 388 2326 689 
Q 2584 991 2584 1609 
Q 2584 2291 2321 2609 
Q 2059 2928 1675 2928 
Q 1300 2928 1048 2622 
Q 797 2316 797 1656 
z
" transform="scale(0.015625)"/>
       <path id="ArialMT-4e" d="M 488 0 
L 488 4581 
L 1109 4581 
L 3516 984 
L 3516 4581 
L 4097 4581 
L 4097 0 
L 3475 0 
L 1069 3600 
L 1069 0 
L 488 0 
z
" transform="scale(0.015625)"/>
      </defs>
      <use xlink:href="#ArialMT-41"/>
      <use xlink:href="#ArialMT-6c" x="66.699219"/>
      <use xlink:href="#ArialMT-64" x="88.916016"/>
      <use xlink:href="#ArialMT-69" x="144.53125"/>
      <use xlink:href="#ArialMT-72" x="166.748047"/>
      <use xlink:href="#ArialMT-69" x="200.048828"/>
      <use xlink:href="#ArialMT-20" x="222.265625"/>
      <use xlink:href="#ArialMT-52" x="250.048828"/>
      <use xlink:href="#ArialMT-4e" x="322.265625"/>
      <use xlink:href="#ArialMT-41" x="394.482422"/>
      <use xlink:href="#ArialMT-2d" x="461.181641"/>
      <use xlink:href="#ArialMT-73" x="494.482422"/>
      <use xlink:href="#ArialMT-65" x="544.482422"/>
      <use xlink:href="#ArialMT-71" x="600.097656"/>
     </g>
    </g>
   </g>
   <g id="line2d_59">
    <path d="M 40.491584 93.064045 
L 48.425054 77.856426 
L 54.375157 66.951884 
L 59.003015 58.913288 
L 62.96975 52.411122 
L 66.936485 46.330732 
L 70.242098 41.629379 
L 73.54771 37.297598 
L 76.853323 33.370241 
L 79.497813 30.54296 
L 82.142303 28.01466 
L 84.786793 25.803182 
L 87.431284 23.926372 
L 89.414651 22.749124 
L 91.398019 21.777691 
L 93.381386 21.019601 
L 95.364754 20.482382 
L 97.348121 20.173562 
L 99.331489 20.100669 
L 101.314857 20.27123 
L 103.298224 20.692773 
L 105.281592 21.372826 
L 107.264959 22.317771 
L 109.248327 23.50762 
L 111.892817 25.394726 
L 115.19843 28.078438 
L 123.1319 34.735716 
L 125.77639 36.62859 
L 127.759758 37.824207 
L 129.743125 38.78061 
L 131.726493 39.50038 
L 133.709861 40.007311 
L 135.693228 40.325324 
L 138.337718 40.49682 
L 140.982208 40.431702 
L 144.287821 40.103954 
L 148.915679 39.383731 
L 154.865781 38.456223 
L 158.171394 38.157291 
L 160.815884 38.125105 
L 163.460374 38.338315 
L 165.443742 38.693377 
L 167.42711 39.242296 
L 169.410477 40.008994 
L 171.393845 41.017396 
L 172.054967 41.411377 
L 172.054967 41.411377 
" clip-path="url(#pfcc01d425e)" style="fill: none; stroke: #ffa500; stroke-linecap: square"/>
   </g>
   <g id="patch_14">
    <path d="M 29.527969 96.712333 
L 29.527969 16.45 
" style="fill: none; stroke: #000000; stroke-width: 0.8; stroke-linejoin: miter; stroke-linecap: square"/>
   </g>
   <g id="patch_15">
    <path d="M 183.018583 96.712333 
L 183.018583 16.45 
" style="fill: none; stroke: #000000; stroke-width: 0.8; stroke-linejoin: miter; stroke-linecap: square"/>
   </g>
   <g id="patch_16">
    <path d="M 29.527969 96.712333 
L 183.018583 96.712333 
" style="fill: none; stroke: #000000; stroke-width: 0.8; stroke-linejoin: miter; stroke-linecap: square"/>
   </g>
   <g id="patch_17">
    <path d="M 29.527969 16.45 
L 183.018583 16.45 
" style="fill: none; stroke: #000000; stroke-width: 0.8; stroke-linejoin: miter; stroke-linecap: square"/>
   </g>
  </g>
 </g>
 <defs>
  <clipPath id="pfcc01d425e">
   <rect x="29.527969" y="16.45" width="153.490614" height="80.262333"/>
  </clipPath>
 </defs>
</svg>
