<?xml version="1.0" encoding="utf-8" standalone="no"?>
<!DOCTYPE svg PUBLIC "-//W3C//DTD SVG 1.1//EN"
  "http://www.w3.org/Graphics/SVG/1.1/DTD/svg11.dtd">
<svg xmlns:xlink="http://www.w3.org/1999/xlink" width="440.39952pt" height="109.19952pt" viewBox="0 0 440.39952 109.19952" xmlns="http://www.w3.org/2000/svg" version="1.1">
 <metadata>
  <rdf:RDF xmlns:dc="http://purl.org/dc/elements/1.1/" xmlns:cc="http://creativecommons.org/ns#" xmlns:rdf="http://www.w3.org/1999/02/22-rdf-syntax-ns#">
   <cc:Work>
    <dc:type rdf:resource="http://purl.org/dc/dcmitype/StillImage"/>
    <dc:date>2024-02-03T12:34:10.184649</dc:date>
    <dc:format>image/svg+xml</dc:format>
    <dc:creator>
     <cc:Agent>
      <dc:title>Matplotlib v3.7.2, https://matplotlib.org/</dc:title>
     </cc:Agent>
    </dc:creator>
   </cc:Work>
  </rdf:RDF>
 </metadata>
 <defs>
  <style type="text/css">*{stroke-linejoin: round; stroke-linecap: butt}</style>
 </defs>
 <g id="figure_1">
  <g id="patch_1">
   <path d="M 0 109.19952 
L 440.39952 109.19952 
L 440.39952 0 
L 0 0 
z
" style="fill: #ffffff"/>
  </g>
  <g id="axes_1">
   <g id="patch_2">
    <path d="M 33.509438 89.512333 
L 85.487904 89.512333 
L 85.487904 16.210469 
L 33.509438 16.210469 
z
" style="fill: #ffffff"/>
   </g>
   <g id="patch_3">
    <path d="M 39.284823 86.458088 
L 50.835593 86.458088 
L 50.835593 71.186867 
L 39.284823 71.186867 
z
" clip-path="url(#p91a65014d6)" style="fill: #cb3335; opacity: 0.4"/>
   </g>
   <g id="patch_4">
    <path d="M 53.723286 86.458088 
L 65.274056 86.458088 
L 65.274056 65.273086 
L 53.723286 65.273086 
z
" clip-path="url(#p91a65014d6)" style="fill: #477ca8; opacity: 0.4"/>
   </g>
   <g id="patch_5">
    <path d="M 68.161748 86.458088 
L 79.712519 86.458088 
L 79.712519 40.522254 
L 68.161748 40.522254 
z
" clip-path="url(#p91a65014d6)" style="fill: #59a257; opacity: 0.4"/>
   </g>
   <g id="matplotlib.axis_1">
    <g id="xtick_1">
     <g id="line2d_1">
      <defs>
       <path id="ma6ecabc13d" d="M 0 0 
L 0 3.5 
" style="stroke: #000000; stroke-width: 0.8"/>
      </defs>
      <g>
       <use xlink:href="#ma6ecabc13d" x="45.060208" y="89.512333" style="stroke: #000000; stroke-width: 0.8"/>
      </g>
     </g>
     <g id="text_1">
      <!-- empty -->
      <g transform="translate(36.891302 100.736708) scale(0.06 -0.06)">
       <defs>
        <path id="ArialMT-65" d="M 2694 1069 
L 3275 997 
Q 3138 488 2766 206 
Q 2394 -75 1816 -75 
Q 1088 -75 661 373 
Q 234 822 234 1631 
Q 234 2469 665 2931 
Q 1097 3394 1784 3394 
Q 2450 3394 2872 2941 
Q 3294 2488 3294 1666 
Q 3294 1616 3291 1516 
L 816 1516 
Q 847 969 1125 678 
Q 1403 388 1819 388 
Q 2128 388 2347 550 
Q 2566 713 2694 1069 
z
M 847 1978 
L 2700 1978 
Q 2663 2397 2488 2606 
Q 2219 2931 1791 2931 
Q 1403 2931 1139 2672 
Q 875 2413 847 1978 
z
" transform="scale(0.015625)"/>
        <path id="ArialMT-6d" d="M 422 0 
L 422 3319 
L 925 3319 
L 925 2853 
Q 1081 3097 1340 3245 
Q 1600 3394 1931 3394 
Q 2300 3394 2536 3241 
Q 2772 3088 2869 2813 
Q 3263 3394 3894 3394 
Q 4388 3394 4653 3120 
Q 4919 2847 4919 2278 
L 4919 0 
L 4359 0 
L 4359 2091 
Q 4359 2428 4304 2576 
Q 4250 2725 4106 2815 
Q 3963 2906 3769 2906 
Q 3419 2906 3187 2673 
Q 2956 2441 2956 1928 
L 2956 0 
L 2394 0 
L 2394 2156 
Q 2394 2531 2256 2718 
Q 2119 2906 1806 2906 
Q 1569 2906 1367 2781 
Q 1166 2656 1075 2415 
Q 984 2175 984 1722 
L 984 0 
L 422 0 
z
" transform="scale(0.015625)"/>
        <path id="ArialMT-70" d="M 422 -1272 
L 422 3319 
L 934 3319 
L 934 2888 
Q 1116 3141 1344 3267 
Q 1572 3394 1897 3394 
Q 2322 3394 2647 3175 
Q 2972 2956 3137 2557 
Q 3303 2159 3303 1684 
Q 3303 1175 3120 767 
Q 2938 359 2589 142 
Q 2241 -75 1856 -75 
Q 1575 -75 1351 44 
Q 1128 163 984 344 
L 984 -1272 
L 422 -1272 
z
M 931 1641 
Q 931 1000 1190 694 
Q 1450 388 1819 388 
Q 2194 388 2461 705 
Q 2728 1022 2728 1688 
Q 2728 2322 2467 2637 
Q 2206 2953 1844 2953 
Q 1484 2953 1207 2617 
Q 931 2281 931 1641 
z
" transform="scale(0.015625)"/>
        <path id="ArialMT-74" d="M 1650 503 
L 1731 6 
Q 1494 -44 1306 -44 
Q 1000 -44 831 53 
Q 663 150 594 308 
Q 525 466 525 972 
L 525 2881 
L 113 2881 
L 113 3319 
L 525 3319 
L 525 4141 
L 1084 4478 
L 1084 3319 
L 1650 3319 
L 1650 2881 
L 1084 2881 
L 1084 941 
Q 1084 700 1114 631 
Q 1144 563 1211 522 
Q 1278 481 1403 481 
Q 1497 481 1650 503 
z
" transform="scale(0.015625)"/>
        <path id="ArialMT-79" d="M 397 -1278 
L 334 -750 
Q 519 -800 656 -800 
Q 844 -800 956 -737 
Q 1069 -675 1141 -563 
Q 1194 -478 1313 -144 
Q 1328 -97 1363 -6 
L 103 3319 
L 709 3319 
L 1400 1397 
Q 1534 1031 1641 628 
Q 1738 1016 1872 1384 
L 2581 3319 
L 3144 3319 
L 1881 -56 
Q 1678 -603 1566 -809 
Q 1416 -1088 1222 -1217 
Q 1028 -1347 759 -1347 
Q 597 -1347 397 -1278 
z
" transform="scale(0.015625)"/>
       </defs>
       <use xlink:href="#ArialMT-65"/>
       <use xlink:href="#ArialMT-6d" x="55.615234"/>
       <use xlink:href="#ArialMT-70" x="138.916016"/>
       <use xlink:href="#ArialMT-74" x="194.53125"/>
       <use xlink:href="#ArialMT-79" x="222.314453"/>
      </g>
     </g>
    </g>
    <g id="xtick_2">
     <g id="line2d_2">
      <g>
       <use xlink:href="#ma6ecabc13d" x="59.498671" y="89.512333" style="stroke: #000000; stroke-width: 0.8"/>
      </g>
     </g>
     <g id="text_2">
      <!-- WT -->
      <g transform="translate(54.834608 100.80702) scale(0.06 -0.06)">
       <defs>
        <path id="ArialMT-57" d="M 1294 0 
L 78 4581 
L 700 4581 
L 1397 1578 
Q 1509 1106 1591 641 
Q 1766 1375 1797 1488 
L 2669 4581 
L 3400 4581 
L 4056 2263 
Q 4303 1400 4413 641 
Q 4500 1075 4641 1638 
L 5359 4581 
L 5969 4581 
L 4713 0 
L 4128 0 
L 3163 3491 
Q 3041 3928 3019 4028 
Q 2947 3713 2884 3491 
L 1913 0 
L 1294 0 
z
" transform="scale(0.015625)"/>
        <path id="ArialMT-54" d="M 1659 0 
L 1659 4041 
L 150 4041 
L 150 4581 
L 3781 4581 
L 3781 4041 
L 2266 4041 
L 2266 0 
L 1659 0 
z
" transform="scale(0.015625)"/>
       </defs>
       <use xlink:href="#ArialMT-57"/>
       <use xlink:href="#ArialMT-54" x="94.384766"/>
      </g>
     </g>
    </g>
    <g id="xtick_3">
     <g id="line2d_3">
      <g>
       <use xlink:href="#ma6ecabc13d" x="73.937134" y="89.512333" style="stroke: #000000; stroke-width: 0.8"/>
      </g>
     </g>
     <g id="text_3">
      <!-- K88N -->
      <g transform="translate(66.432915 100.80702) scale(0.06 -0.06)">
       <defs>
        <path id="ArialMT-4b" d="M 469 0 
L 469 4581 
L 1075 4581 
L 1075 2309 
L 3350 4581 
L 4172 4581 
L 2250 2725 
L 4256 0 
L 3456 0 
L 1825 2319 
L 1075 1588 
L 1075 0 
L 469 0 
z
" transform="scale(0.015625)"/>
        <path id="ArialMT-38" d="M 1131 2484 
Q 781 2613 612 2850 
Q 444 3088 444 3419 
Q 444 3919 803 4259 
Q 1163 4600 1759 4600 
Q 2359 4600 2725 4251 
Q 3091 3903 3091 3403 
Q 3091 3084 2923 2848 
Q 2756 2613 2416 2484 
Q 2838 2347 3058 2040 
Q 3278 1734 3278 1309 
Q 3278 722 2862 322 
Q 2447 -78 1769 -78 
Q 1091 -78 675 323 
Q 259 725 259 1325 
Q 259 1772 486 2073 
Q 713 2375 1131 2484 
z
M 1019 3438 
Q 1019 3113 1228 2906 
Q 1438 2700 1772 2700 
Q 2097 2700 2305 2904 
Q 2513 3109 2513 3406 
Q 2513 3716 2298 3927 
Q 2084 4138 1766 4138 
Q 1444 4138 1231 3931 
Q 1019 3725 1019 3438 
z
M 838 1322 
Q 838 1081 952 856 
Q 1066 631 1291 507 
Q 1516 384 1775 384 
Q 2178 384 2440 643 
Q 2703 903 2703 1303 
Q 2703 1709 2433 1975 
Q 2163 2241 1756 2241 
Q 1359 2241 1098 1978 
Q 838 1716 838 1322 
z
" transform="scale(0.015625)"/>
        <path id="ArialMT-4e" d="M 488 0 
L 488 4581 
L 1109 4581 
L 3516 984 
L 3516 4581 
L 4097 4581 
L 4097 0 
L 3475 0 
L 1069 3600 
L 1069 0 
L 488 0 
z
" transform="scale(0.015625)"/>
       </defs>
       <use xlink:href="#ArialMT-4b"/>
       <use xlink:href="#ArialMT-38" x="66.699219"/>
       <use xlink:href="#ArialMT-38" x="122.314453"/>
       <use xlink:href="#ArialMT-4e" x="177.929688"/>
      </g>
     </g>
    </g>
   </g>
   <g id="matplotlib.axis_2">
    <g id="ytick_1">
     <g id="line2d_4">
      <defs>
       <path id="mba71b5bdf3" d="M 0 0 
L -3.5 0 
" style="stroke: #000000; stroke-width: 0.8"/>
      </defs>
      <g>
       <use xlink:href="#mba71b5bdf3" x="33.509438" y="86.458088" style="stroke: #000000; stroke-width: 0.8"/>
      </g>
     </g>
     <g id="text_4">
      <!-- 0 -->
      <g transform="translate(23.172875 88.605432) scale(0.06 -0.06)">
       <defs>
        <path id="ArialMT-30" d="M 266 2259 
Q 266 3072 433 3567 
Q 600 4063 929 4331 
Q 1259 4600 1759 4600 
Q 2128 4600 2406 4451 
Q 2684 4303 2865 4023 
Q 3047 3744 3150 3342 
Q 3253 2941 3253 2259 
Q 3253 1453 3087 958 
Q 2922 463 2592 192 
Q 2263 -78 1759 -78 
Q 1097 -78 719 397 
Q 266 969 266 2259 
z
M 844 2259 
Q 844 1131 1108 757 
Q 1372 384 1759 384 
Q 2147 384 2411 759 
Q 2675 1134 2675 2259 
Q 2675 3391 2411 3762 
Q 2147 4134 1753 4134 
Q 1366 4134 1134 3806 
Q 844 3388 844 2259 
z
" transform="scale(0.015625)"/>
       </defs>
       <use xlink:href="#ArialMT-30"/>
      </g>
     </g>
    </g>
    <g id="ytick_2">
     <g id="line2d_5">
      <g>
       <use xlink:href="#mba71b5bdf3" x="33.509438" y="71.186867" style="stroke: #000000; stroke-width: 0.8"/>
      </g>
     </g>
     <g id="text_5">
      <!-- 1 -->
      <g transform="translate(23.172875 73.33421) scale(0.06 -0.06)">
       <defs>
        <path id="ArialMT-31" d="M 2384 0 
L 1822 0 
L 1822 3584 
Q 1619 3391 1289 3197 
Q 959 3003 697 2906 
L 697 3450 
Q 1169 3672 1522 3987 
Q 1875 4303 2022 4600 
L 2384 4600 
L 2384 0 
z
" transform="scale(0.015625)"/>
       </defs>
       <use xlink:href="#ArialMT-31"/>
      </g>
     </g>
    </g>
    <g id="ytick_3">
     <g id="line2d_6">
      <g>
       <use xlink:href="#mba71b5bdf3" x="33.509438" y="55.915645" style="stroke: #000000; stroke-width: 0.8"/>
      </g>
     </g>
     <g id="text_6">
      <!-- 2 -->
      <g transform="translate(23.172875 58.062989) scale(0.06 -0.06)">
       <defs>
        <path id="ArialMT-32" d="M 3222 541 
L 3222 0 
L 194 0 
Q 188 203 259 391 
Q 375 700 629 1000 
Q 884 1300 1366 1694 
Q 2113 2306 2375 2664 
Q 2638 3022 2638 3341 
Q 2638 3675 2398 3904 
Q 2159 4134 1775 4134 
Q 1369 4134 1125 3890 
Q 881 3647 878 3216 
L 300 3275 
Q 359 3922 746 4261 
Q 1134 4600 1788 4600 
Q 2447 4600 2831 4234 
Q 3216 3869 3216 3328 
Q 3216 3053 3103 2787 
Q 2991 2522 2730 2228 
Q 2469 1934 1863 1422 
Q 1356 997 1212 845 
Q 1069 694 975 541 
L 3222 541 
z
" transform="scale(0.015625)"/>
       </defs>
       <use xlink:href="#ArialMT-32"/>
      </g>
     </g>
    </g>
    <g id="ytick_4">
     <g id="line2d_7">
      <g>
       <use xlink:href="#mba71b5bdf3" x="33.509438" y="40.644423" style="stroke: #000000; stroke-width: 0.8"/>
      </g>
     </g>
     <g id="text_7">
      <!-- 3 -->
      <g transform="translate(23.172875 42.791767) scale(0.06 -0.06)">
       <defs>
        <path id="ArialMT-33" d="M 269 1209 
L 831 1284 
Q 928 806 1161 595 
Q 1394 384 1728 384 
Q 2125 384 2398 659 
Q 2672 934 2672 1341 
Q 2672 1728 2419 1979 
Q 2166 2231 1775 2231 
Q 1616 2231 1378 2169 
L 1441 2663 
Q 1497 2656 1531 2656 
Q 1891 2656 2178 2843 
Q 2466 3031 2466 3422 
Q 2466 3731 2256 3934 
Q 2047 4138 1716 4138 
Q 1388 4138 1169 3931 
Q 950 3725 888 3313 
L 325 3413 
Q 428 3978 793 4289 
Q 1159 4600 1703 4600 
Q 2078 4600 2393 4439 
Q 2709 4278 2876 4000 
Q 3044 3722 3044 3409 
Q 3044 3113 2884 2869 
Q 2725 2625 2413 2481 
Q 2819 2388 3044 2092 
Q 3269 1797 3269 1353 
Q 3269 753 2831 336 
Q 2394 -81 1725 -81 
Q 1122 -81 723 278 
Q 325 638 269 1209 
z
" transform="scale(0.015625)"/>
       </defs>
       <use xlink:href="#ArialMT-33"/>
      </g>
     </g>
    </g>
    <g id="ytick_5">
     <g id="line2d_8">
      <g>
       <use xlink:href="#mba71b5bdf3" x="33.509438" y="25.373202" style="stroke: #000000; stroke-width: 0.8"/>
      </g>
     </g>
     <g id="text_8">
      <!-- 4 -->
      <g transform="translate(23.172875 27.520545) scale(0.06 -0.06)">
       <defs>
        <path id="ArialMT-34" d="M 2069 0 
L 2069 1097 
L 81 1097 
L 81 1613 
L 2172 4581 
L 2631 4581 
L 2631 1613 
L 3250 1613 
L 3250 1097 
L 2631 1097 
L 2631 0 
L 2069 0 
z
M 2069 1613 
L 2069 3678 
L 634 1613 
L 2069 1613 
z
" transform="scale(0.015625)"/>
       </defs>
       <use xlink:href="#ArialMT-34"/>
      </g>
     </g>
    </g>
    <g id="text_9">
     <!-- Luciferase activity -->
     <g transform="translate(12.295781 80.677104) rotate(-90) scale(0.07 -0.07)">
      <defs>
       <path id="ArialMT-4c" d="M 469 0 
L 469 4581 
L 1075 4581 
L 1075 541 
L 3331 541 
L 3331 0 
L 469 0 
z
" transform="scale(0.015625)"/>
       <path id="ArialMT-75" d="M 2597 0 
L 2597 488 
Q 2209 -75 1544 -75 
Q 1250 -75 995 37 
Q 741 150 617 320 
Q 494 491 444 738 
Q 409 903 409 1263 
L 409 3319 
L 972 3319 
L 972 1478 
Q 972 1038 1006 884 
Q 1059 663 1231 536 
Q 1403 409 1656 409 
Q 1909 409 2131 539 
Q 2353 669 2445 892 
Q 2538 1116 2538 1541 
L 2538 3319 
L 3100 3319 
L 3100 0 
L 2597 0 
z
" transform="scale(0.015625)"/>
       <path id="ArialMT-63" d="M 2588 1216 
L 3141 1144 
Q 3050 572 2676 248 
Q 2303 -75 1759 -75 
Q 1078 -75 664 370 
Q 250 816 250 1647 
Q 250 2184 428 2587 
Q 606 2991 970 3192 
Q 1334 3394 1763 3394 
Q 2303 3394 2647 3120 
Q 2991 2847 3088 2344 
L 2541 2259 
Q 2463 2594 2264 2762 
Q 2066 2931 1784 2931 
Q 1359 2931 1093 2626 
Q 828 2322 828 1663 
Q 828 994 1084 691 
Q 1341 388 1753 388 
Q 2084 388 2306 591 
Q 2528 794 2588 1216 
z
" transform="scale(0.015625)"/>
       <path id="ArialMT-69" d="M 425 3934 
L 425 4581 
L 988 4581 
L 988 3934 
L 425 3934 
z
M 425 0 
L 425 3319 
L 988 3319 
L 988 0 
L 425 0 
z
" transform="scale(0.015625)"/>
       <path id="ArialMT-66" d="M 556 0 
L 556 2881 
L 59 2881 
L 59 3319 
L 556 3319 
L 556 3672 
Q 556 4006 616 4169 
Q 697 4388 901 4523 
Q 1106 4659 1475 4659 
Q 1713 4659 2000 4603 
L 1916 4113 
Q 1741 4144 1584 4144 
Q 1328 4144 1222 4034 
Q 1116 3925 1116 3625 
L 1116 3319 
L 1763 3319 
L 1763 2881 
L 1116 2881 
L 1116 0 
L 556 0 
z
" transform="scale(0.015625)"/>
       <path id="ArialMT-72" d="M 416 0 
L 416 3319 
L 922 3319 
L 922 2816 
Q 1116 3169 1280 3281 
Q 1444 3394 1641 3394 
Q 1925 3394 2219 3213 
L 2025 2691 
Q 1819 2813 1613 2813 
Q 1428 2813 1281 2702 
Q 1134 2591 1072 2394 
Q 978 2094 978 1738 
L 978 0 
L 416 0 
z
" transform="scale(0.015625)"/>
       <path id="ArialMT-61" d="M 2588 409 
Q 2275 144 1986 34 
Q 1697 -75 1366 -75 
Q 819 -75 525 192 
Q 231 459 231 875 
Q 231 1119 342 1320 
Q 453 1522 633 1644 
Q 813 1766 1038 1828 
Q 1203 1872 1538 1913 
Q 2219 1994 2541 2106 
Q 2544 2222 2544 2253 
Q 2544 2597 2384 2738 
Q 2169 2928 1744 2928 
Q 1347 2928 1158 2789 
Q 969 2650 878 2297 
L 328 2372 
Q 403 2725 575 2942 
Q 747 3159 1072 3276 
Q 1397 3394 1825 3394 
Q 2250 3394 2515 3294 
Q 2781 3194 2906 3042 
Q 3031 2891 3081 2659 
Q 3109 2516 3109 2141 
L 3109 1391 
Q 3109 606 3145 398 
Q 3181 191 3288 0 
L 2700 0 
Q 2613 175 2588 409 
z
M 2541 1666 
Q 2234 1541 1622 1453 
Q 1275 1403 1131 1340 
Q 988 1278 909 1158 
Q 831 1038 831 891 
Q 831 666 1001 516 
Q 1172 366 1500 366 
Q 1825 366 2078 508 
Q 2331 650 2450 897 
Q 2541 1088 2541 1459 
L 2541 1666 
z
" transform="scale(0.015625)"/>
       <path id="ArialMT-73" d="M 197 991 
L 753 1078 
Q 800 744 1014 566 
Q 1228 388 1613 388 
Q 2000 388 2187 545 
Q 2375 703 2375 916 
Q 2375 1106 2209 1216 
Q 2094 1291 1634 1406 
Q 1016 1563 777 1677 
Q 538 1791 414 1992 
Q 291 2194 291 2438 
Q 291 2659 392 2848 
Q 494 3038 669 3163 
Q 800 3259 1026 3326 
Q 1253 3394 1513 3394 
Q 1903 3394 2198 3281 
Q 2494 3169 2634 2976 
Q 2775 2784 2828 2463 
L 2278 2388 
Q 2241 2644 2061 2787 
Q 1881 2931 1553 2931 
Q 1166 2931 1000 2803 
Q 834 2675 834 2503 
Q 834 2394 903 2306 
Q 972 2216 1119 2156 
Q 1203 2125 1616 2013 
Q 2213 1853 2448 1751 
Q 2684 1650 2818 1456 
Q 2953 1263 2953 975 
Q 2953 694 2789 445 
Q 2625 197 2315 61 
Q 2006 -75 1616 -75 
Q 969 -75 630 194 
Q 291 463 197 991 
z
" transform="scale(0.015625)"/>
       <path id="ArialMT-20" transform="scale(0.015625)"/>
       <path id="ArialMT-76" d="M 1344 0 
L 81 3319 
L 675 3319 
L 1388 1331 
Q 1503 1009 1600 663 
Q 1675 925 1809 1294 
L 2547 3319 
L 3125 3319 
L 1869 0 
L 1344 0 
z
" transform="scale(0.015625)"/>
      </defs>
      <use xlink:href="#ArialMT-4c"/>
      <use xlink:href="#ArialMT-75" x="55.615234"/>
      <use xlink:href="#ArialMT-63" x="111.230469"/>
      <use xlink:href="#ArialMT-69" x="161.230469"/>
      <use xlink:href="#ArialMT-66" x="183.447266"/>
      <use xlink:href="#ArialMT-65" x="211.230469"/>
      <use xlink:href="#ArialMT-72" x="266.845703"/>
      <use xlink:href="#ArialMT-61" x="300.146484"/>
      <use xlink:href="#ArialMT-73" x="355.761719"/>
      <use xlink:href="#ArialMT-65" x="405.761719"/>
      <use xlink:href="#ArialMT-20" x="461.376953"/>
      <use xlink:href="#ArialMT-61" x="489.160156"/>
      <use xlink:href="#ArialMT-63" x="544.775391"/>
      <use xlink:href="#ArialMT-74" x="594.775391"/>
      <use xlink:href="#ArialMT-69" x="622.558594"/>
      <use xlink:href="#ArialMT-76" x="644.775391"/>
      <use xlink:href="#ArialMT-69" x="694.775391"/>
      <use xlink:href="#ArialMT-74" x="716.992188"/>
      <use xlink:href="#ArialMT-79" x="744.775391"/>
     </g>
     <!-- FC/WT -->
     <g transform="translate(19.781625 63.940541) rotate(-90) scale(0.07 -0.07)">
      <defs>
       <path id="ArialMT-46" d="M 525 0 
L 525 4581 
L 3616 4581 
L 3616 4041 
L 1131 4041 
L 1131 2622 
L 3281 2622 
L 3281 2081 
L 1131 2081 
L 1131 0 
L 525 0 
z
" transform="scale(0.015625)"/>
       <path id="ArialMT-43" d="M 3763 1606 
L 4369 1453 
Q 4178 706 3683 314 
Q 3188 -78 2472 -78 
Q 1731 -78 1267 223 
Q 803 525 561 1097 
Q 319 1669 319 2325 
Q 319 3041 592 3573 
Q 866 4106 1370 4382 
Q 1875 4659 2481 4659 
Q 3169 4659 3637 4309 
Q 4106 3959 4291 3325 
L 3694 3184 
Q 3534 3684 3231 3912 
Q 2928 4141 2469 4141 
Q 1941 4141 1586 3887 
Q 1231 3634 1087 3207 
Q 944 2781 944 2328 
Q 944 1744 1114 1308 
Q 1284 872 1643 656 
Q 2003 441 2422 441 
Q 2931 441 3284 734 
Q 3638 1028 3763 1606 
z
" transform="scale(0.015625)"/>
       <path id="ArialMT-2f" d="M 0 -78 
L 1328 4659 
L 1778 4659 
L 453 -78 
L 0 -78 
z
" transform="scale(0.015625)"/>
      </defs>
      <use xlink:href="#ArialMT-46"/>
      <use xlink:href="#ArialMT-43" x="61.083984"/>
      <use xlink:href="#ArialMT-2f" x="133.300781"/>
      <use xlink:href="#ArialMT-57" x="161.083984"/>
      <use xlink:href="#ArialMT-54" x="255.46875"/>
     </g>
    </g>
   </g>
   <g id="line2d_9">
    <path d="M -1 78.822477 
L 231.02761 78.822477 
" clip-path="url(#p91a65014d6)" style="fill: none; stroke-dasharray: 6.4,1.6,1,1.6; stroke-dashoffset: 0; stroke: #808080"/>
   </g>
   <g id="line2d_10">
    <path d="M -1 63.551256 
L 231.02761 63.551256 
" clip-path="url(#p91a65014d6)" style="fill: none; stroke-dasharray: 6.4,1.6,1,1.6; stroke-dashoffset: 0; stroke: #808080"/>
   </g>
   <g id="patch_6">
    <path d="M 33.509438 89.512333 
L 33.509438 16.210469 
" style="fill: none; stroke: #000000; stroke-width: 0.8; stroke-linejoin: miter; stroke-linecap: square"/>
   </g>
   <g id="patch_7">
    <path d="M 85.487904 89.512333 
L 85.487904 16.210469 
" style="fill: none; stroke: #000000; stroke-width: 0.8; stroke-linejoin: miter; stroke-linecap: square"/>
   </g>
   <g id="patch_8">
    <path d="M 33.509438 89.512333 
L 85.487904 89.512333 
" style="fill: none; stroke: #000000; stroke-width: 0.8; stroke-linejoin: miter; stroke-linecap: square"/>
   </g>
   <g id="patch_9">
    <path d="M 33.509438 16.210469 
L 85.487904 16.210469 
" style="fill: none; stroke: #000000; stroke-width: 0.8; stroke-linejoin: miter; stroke-linecap: square"/>
   </g>
   <g id="PathCollection_1">
    <defs>
     <path id="C0_0_b1b0ca4a80" d="M 0 2 
C 0.530406 2 1.03916 1.789267 1.414214 1.414214 
C 1.789267 1.03916 2 0.530406 2 -0 
C 2 -0.530406 1.789267 -1.03916 1.414214 -1.414214 
C 1.03916 -1.789267 0.530406 -2 0 -2 
C -0.530406 -2 -1.03916 -1.789267 -1.414214 -1.414214 
C -1.789267 -1.03916 -2 -0.530406 -2 0 
C -2 0.530406 -1.789267 1.03916 -1.414214 1.414214 
C -1.03916 1.789267 -0.530406 2 0 2 
z
"/>
    </defs>
    <g clip-path="url(#p91a65014d6)">
     <use xlink:href="#C0_0_b1b0ca4a80" x="44.942059" y="71.186867" style="fill: #e41a1c; stroke: #000000"/>
    </g>
    <g clip-path="url(#p91a65014d6)">
     <use xlink:href="#C0_0_b1b0ca4a80" x="43.909304" y="71.186867" style="fill: #e41a1c; stroke: #000000"/>
    </g>
    <g clip-path="url(#p91a65014d6)">
     <use xlink:href="#C0_0_b1b0ca4a80" x="44.565833" y="71.186867" style="fill: #e41a1c; stroke: #000000"/>
    </g>
    <g clip-path="url(#p91a65014d6)">
     <use xlink:href="#C0_0_b1b0ca4a80" x="46.547233" y="71.186867" style="fill: #e41a1c; stroke: #000000"/>
    </g>
   </g>
   <g id="PathCollection_2">
    <defs>
     <path id="C1_0_9319b2c862" d="M 0 2 
C 0.530406 2 1.03916 1.789267 1.414214 1.414214 
C 1.789267 1.03916 2 0.530406 2 -0 
C 2 -0.530406 1.789267 -1.03916 1.414214 -1.414214 
C 1.03916 -1.789267 0.530406 -2 0 -2 
C -0.530406 -2 -1.03916 -1.789267 -1.414214 -1.414214 
C -1.789267 -1.03916 -2 -0.530406 -2 0 
C -2 0.530406 -1.789267 1.03916 -1.414214 1.414214 
C -1.03916 1.789267 -0.530406 2 0 2 
z
"/>
    </defs>
    <g clip-path="url(#p91a65014d6)">
     <use xlink:href="#C1_0_9319b2c862" x="61.499054" y="63.368001" style="fill: #377eb8; stroke: #000000"/>
    </g>
    <g clip-path="url(#p91a65014d6)">
     <use xlink:href="#C1_0_9319b2c862" x="56.855819" y="67.903554" style="fill: #377eb8; stroke: #000000"/>
    </g>
    <g clip-path="url(#p91a65014d6)">
     <use xlink:href="#C1_0_9319b2c862" x="56.95981" y="67.491231" style="fill: #377eb8; stroke: #000000"/>
    </g>
    <g clip-path="url(#p91a65014d6)">
     <use xlink:href="#C1_0_9319b2c862" x="60.700467" y="62.329558" style="fill: #377eb8; stroke: #000000"/>
    </g>
   </g>
   <g id="PathCollection_3">
    <defs>
     <path id="C2_0_a149342393" d="M 0 2 
C 0.530406 2 1.03916 1.789267 1.414214 1.414214 
C 1.789267 1.03916 2 0.530406 2 -0 
C 2 -0.530406 1.789267 -1.03916 1.414214 -1.414214 
C 1.03916 -1.789267 0.530406 -2 0 -2 
C -0.530406 -2 -1.03916 -1.789267 -1.414214 -1.414214 
C -1.789267 -1.03916 -2 -0.530406 -2 0 
C -2 0.530406 -1.789267 1.03916 -1.414214 1.414214 
C -1.03916 1.789267 -0.530406 2 0 2 
z
"/>
    </defs>
    <g clip-path="url(#p91a65014d6)">
     <use xlink:href="#C2_0_a149342393" x="74.34398" y="36.429566" style="fill: #4daf4a; stroke: #000000"/>
    </g>
    <g clip-path="url(#p91a65014d6)">
     <use xlink:href="#C2_0_a149342393" x="74.394066" y="26.320017" style="fill: #4daf4a; stroke: #000000"/>
    </g>
    <g clip-path="url(#p91a65014d6)">
     <use xlink:href="#C2_0_a149342393" x="73.165694" y="50.433276" style="fill: #4daf4a; stroke: #000000"/>
    </g>
    <g clip-path="url(#p91a65014d6)">
     <use xlink:href="#C2_0_a149342393" x="71.186177" y="48.906154" style="fill: #4daf4a; stroke: #000000"/>
    </g>
   </g>
   <g id="text_10">
    <!-- BAT1-WT -->
    <g transform="translate(44.396718 12.210469) scale(0.07 -0.07)">
     <defs>
      <path id="ArialMT-42" d="M 469 0 
L 469 4581 
L 2188 4581 
Q 2713 4581 3030 4442 
Q 3347 4303 3526 4014 
Q 3706 3725 3706 3409 
Q 3706 3116 3547 2856 
Q 3388 2597 3066 2438 
Q 3481 2316 3704 2022 
Q 3928 1728 3928 1328 
Q 3928 1006 3792 729 
Q 3656 453 3456 303 
Q 3256 153 2954 76 
Q 2653 0 2216 0 
L 469 0 
z
M 1075 2656 
L 2066 2656 
Q 2469 2656 2644 2709 
Q 2875 2778 2992 2937 
Q 3109 3097 3109 3338 
Q 3109 3566 3000 3739 
Q 2891 3913 2687 3977 
Q 2484 4041 1991 4041 
L 1075 4041 
L 1075 2656 
z
M 1075 541 
L 2216 541 
Q 2509 541 2628 563 
Q 2838 600 2978 687 
Q 3119 775 3209 942 
Q 3300 1109 3300 1328 
Q 3300 1584 3169 1773 
Q 3038 1963 2805 2039 
Q 2572 2116 2134 2116 
L 1075 2116 
L 1075 541 
z
" transform="scale(0.015625)"/>
      <path id="ArialMT-41" d="M -9 0 
L 1750 4581 
L 2403 4581 
L 4278 0 
L 3588 0 
L 3053 1388 
L 1138 1388 
L 634 0 
L -9 0 
z
M 1313 1881 
L 2866 1881 
L 2388 3150 
Q 2169 3728 2063 4100 
Q 1975 3659 1816 3225 
L 1313 1881 
z
" transform="scale(0.015625)"/>
      <path id="ArialMT-2d" d="M 203 1375 
L 203 1941 
L 1931 1941 
L 1931 1375 
L 203 1375 
z
" transform="scale(0.015625)"/>
     </defs>
     <use xlink:href="#ArialMT-42"/>
     <use xlink:href="#ArialMT-41" x="66.699219"/>
     <use xlink:href="#ArialMT-54" x="126.023438"/>
     <use xlink:href="#ArialMT-31" x="187.107422"/>
     <use xlink:href="#ArialMT-2d" x="242.722656"/>
     <use xlink:href="#ArialMT-57" x="276.023438"/>
     <use xlink:href="#ArialMT-54" x="370.408203"/>
    </g>
   </g>
  </g>
  <g id="axes_2">
   <g id="patch_10">
    <path d="M 120.437341 89.512333 
L 172.415808 89.512333 
L 172.415808 16.210469 
L 120.437341 16.210469 
z
" style="fill: #ffffff"/>
   </g>
   <g id="patch_11">
    <path d="M 126.212727 86.458088 
L 137.763497 86.458088 
L 137.763497 71.186867 
L 126.212727 71.186867 
z
" clip-path="url(#p966481f7be)" style="fill: #cb3335; opacity: 0.4"/>
   </g>
   <g id="patch_12">
    <path d="M 140.65119 86.458088 
L 152.20196 86.458088 
L 152.20196 59.42039 
L 140.65119 59.42039 
z
" clip-path="url(#p966481f7be)" style="fill: #477ca8; opacity: 0.4"/>
   </g>
   <g id="patch_13">
    <path d="M 155.089652 86.458088 
L 166.640423 86.458088 
L 166.640423 64.524796 
L 155.089652 64.524796 
z
" clip-path="url(#p966481f7be)" style="fill: #59a257; opacity: 0.4"/>
   </g>
   <g id="matplotlib.axis_3">
    <g id="xtick_4">
     <g id="line2d_11">
      <g>
       <use xlink:href="#ma6ecabc13d" x="131.988112" y="89.512333" style="stroke: #000000; stroke-width: 0.8"/>
      </g>
     </g>
     <g id="text_11">
      <!-- empty -->
      <g transform="translate(123.819206 100.736708) scale(0.06 -0.06)">
       <use xlink:href="#ArialMT-65"/>
       <use xlink:href="#ArialMT-6d" x="55.615234"/>
       <use xlink:href="#ArialMT-70" x="138.916016"/>
       <use xlink:href="#ArialMT-74" x="194.53125"/>
       <use xlink:href="#ArialMT-79" x="222.314453"/>
      </g>
     </g>
    </g>
    <g id="xtick_5">
     <g id="line2d_12">
      <g>
       <use xlink:href="#ma6ecabc13d" x="146.426575" y="89.512333" style="stroke: #000000; stroke-width: 0.8"/>
      </g>
     </g>
     <g id="text_12">
      <!-- WT -->
      <g transform="translate(141.762512 100.80702) scale(0.06 -0.06)">
       <use xlink:href="#ArialMT-57"/>
       <use xlink:href="#ArialMT-54" x="94.384766"/>
      </g>
     </g>
    </g>
    <g id="xtick_6">
     <g id="line2d_13">
      <g>
       <use xlink:href="#ma6ecabc13d" x="160.865038" y="89.512333" style="stroke: #000000; stroke-width: 0.8"/>
      </g>
     </g>
     <g id="text_13">
      <!-- K88N -->
      <g transform="translate(153.360819 100.80702) scale(0.06 -0.06)">
       <use xlink:href="#ArialMT-4b"/>
       <use xlink:href="#ArialMT-38" x="66.699219"/>
       <use xlink:href="#ArialMT-38" x="122.314453"/>
       <use xlink:href="#ArialMT-4e" x="177.929688"/>
      </g>
     </g>
    </g>
   </g>
   <g id="matplotlib.axis_4">
    <g id="ytick_6">
     <g id="line2d_14">
      <g>
       <use xlink:href="#mba71b5bdf3" x="120.437341" y="86.458088" style="stroke: #000000; stroke-width: 0.8"/>
      </g>
     </g>
     <g id="text_14">
      <!-- 0 -->
      <g transform="translate(110.100779 88.605432) scale(0.06 -0.06)">
       <use xlink:href="#ArialMT-30"/>
      </g>
     </g>
    </g>
    <g id="ytick_7">
     <g id="line2d_15">
      <g>
       <use xlink:href="#mba71b5bdf3" x="120.437341" y="71.186867" style="stroke: #000000; stroke-width: 0.8"/>
      </g>
     </g>
     <g id="text_15">
      <!-- 1 -->
      <g transform="translate(110.100779 73.33421) scale(0.06 -0.06)">
       <use xlink:href="#ArialMT-31"/>
      </g>
     </g>
    </g>
    <g id="ytick_8">
     <g id="line2d_16">
      <g>
       <use xlink:href="#mba71b5bdf3" x="120.437341" y="55.915645" style="stroke: #000000; stroke-width: 0.8"/>
      </g>
     </g>
     <g id="text_16">
      <!-- 2 -->
      <g transform="translate(110.100779 58.062989) scale(0.06 -0.06)">
       <use xlink:href="#ArialMT-32"/>
      </g>
     </g>
    </g>
    <g id="ytick_9">
     <g id="line2d_17">
      <g>
       <use xlink:href="#mba71b5bdf3" x="120.437341" y="40.644423" style="stroke: #000000; stroke-width: 0.8"/>
      </g>
     </g>
     <g id="text_17">
      <!-- 3 -->
      <g transform="translate(110.100779 42.791767) scale(0.06 -0.06)">
       <use xlink:href="#ArialMT-33"/>
      </g>
     </g>
    </g>
    <g id="ytick_10">
     <g id="line2d_18">
      <g>
       <use xlink:href="#mba71b5bdf3" x="120.437341" y="25.373202" style="stroke: #000000; stroke-width: 0.8"/>
      </g>
     </g>
     <g id="text_18">
      <!-- 4 -->
      <g transform="translate(110.100779 27.520545) scale(0.06 -0.06)">
       <use xlink:href="#ArialMT-34"/>
      </g>
     </g>
    </g>
    <g id="text_19">
     <!-- Luciferase activity -->
     <g transform="translate(99.223685 80.677104) rotate(-90) scale(0.07 -0.07)">
      <use xlink:href="#ArialMT-4c"/>
      <use xlink:href="#ArialMT-75" x="55.615234"/>
      <use xlink:href="#ArialMT-63" x="111.230469"/>
      <use xlink:href="#ArialMT-69" x="161.230469"/>
      <use xlink:href="#ArialMT-66" x="183.447266"/>
      <use xlink:href="#ArialMT-65" x="211.230469"/>
      <use xlink:href="#ArialMT-72" x="266.845703"/>
      <use xlink:href="#ArialMT-61" x="300.146484"/>
      <use xlink:href="#ArialMT-73" x="355.761719"/>
      <use xlink:href="#ArialMT-65" x="405.761719"/>
      <use xlink:href="#ArialMT-20" x="461.376953"/>
      <use xlink:href="#ArialMT-61" x="489.160156"/>
      <use xlink:href="#ArialMT-63" x="544.775391"/>
      <use xlink:href="#ArialMT-74" x="594.775391"/>
      <use xlink:href="#ArialMT-69" x="622.558594"/>
      <use xlink:href="#ArialMT-76" x="644.775391"/>
      <use xlink:href="#ArialMT-69" x="694.775391"/>
      <use xlink:href="#ArialMT-74" x="716.992188"/>
      <use xlink:href="#ArialMT-79" x="744.775391"/>
     </g>
     <!-- FC/WT -->
     <g transform="translate(106.709529 63.940541) rotate(-90) scale(0.07 -0.07)">
      <use xlink:href="#ArialMT-46"/>
      <use xlink:href="#ArialMT-43" x="61.083984"/>
      <use xlink:href="#ArialMT-2f" x="133.300781"/>
      <use xlink:href="#ArialMT-57" x="161.083984"/>
      <use xlink:href="#ArialMT-54" x="255.46875"/>
     </g>
    </g>
   </g>
   <g id="line2d_19">
    <path d="M 73.656722 78.822477 
L 317.955514 78.822477 
" clip-path="url(#p966481f7be)" style="fill: none; stroke-dasharray: 6.4,1.6,1,1.6; stroke-dashoffset: 0; stroke: #808080"/>
   </g>
   <g id="line2d_20">
    <path d="M 73.656722 63.551256 
L 317.955514 63.551256 
" clip-path="url(#p966481f7be)" style="fill: none; stroke-dasharray: 6.4,1.6,1,1.6; stroke-dashoffset: 0; stroke: #808080"/>
   </g>
   <g id="patch_14">
    <path d="M 120.437341 89.512333 
L 120.437341 16.210469 
" style="fill: none; stroke: #000000; stroke-width: 0.8; stroke-linejoin: miter; stroke-linecap: square"/>
   </g>
   <g id="patch_15">
    <path d="M 172.415808 89.512333 
L 172.415808 16.210469 
" style="fill: none; stroke: #000000; stroke-width: 0.8; stroke-linejoin: miter; stroke-linecap: square"/>
   </g>
   <g id="patch_16">
    <path d="M 120.437341 89.512333 
L 172.415808 89.512333 
" style="fill: none; stroke: #000000; stroke-width: 0.8; stroke-linejoin: miter; stroke-linecap: square"/>
   </g>
   <g id="patch_17">
    <path d="M 120.437341 16.210469 
L 172.415808 16.210469 
" style="fill: none; stroke: #000000; stroke-width: 0.8; stroke-linejoin: miter; stroke-linecap: square"/>
   </g>
   <g id="PathCollection_4">
    <defs>
     <path id="C3_0_1c575202c4" d="M 0 2 
C 0.530406 2 1.03916 1.789267 1.414214 1.414214 
C 1.789267 1.03916 2 0.530406 2 -0 
C 2 -0.530406 1.789267 -1.03916 1.414214 -1.414214 
C 1.03916 -1.789267 0.530406 -2 0 -2 
C -0.530406 -2 -1.03916 -1.789267 -1.414214 -1.414214 
C -1.789267 -1.03916 -2 -0.530406 -2 0 
C -2 0.530406 -1.789267 1.03916 -1.414214 1.414214 
C -1.03916 1.789267 -0.530406 2 0 2 
z
"/>
    </defs>
    <g clip-path="url(#p966481f7be)">
     <use xlink:href="#C3_0_1c575202c4" x="132.643469" y="71.186867" style="fill: #e41a1c; stroke: #000000"/>
    </g>
    <g clip-path="url(#p966481f7be)">
     <use xlink:href="#C3_0_1c575202c4" x="129.326818" y="71.186867" style="fill: #e41a1c; stroke: #000000"/>
    </g>
    <g clip-path="url(#p966481f7be)">
     <use xlink:href="#C3_0_1c575202c4" x="134.675" y="71.186867" style="fill: #e41a1c; stroke: #000000"/>
    </g>
    <g clip-path="url(#p966481f7be)">
     <use xlink:href="#C3_0_1c575202c4" x="130.899519" y="71.186867" style="fill: #e41a1c; stroke: #000000"/>
    </g>
   </g>
   <g id="PathCollection_5">
    <defs>
     <path id="C4_0_df3fd577ae" d="M 0 2 
C 0.530406 2 1.03916 1.789267 1.414214 1.414214 
C 1.789267 1.03916 2 0.530406 2 -0 
C 2 -0.530406 1.789267 -1.03916 1.414214 -1.414214 
C 1.03916 -1.789267 0.530406 -2 0 -2 
C -0.530406 -2 -1.03916 -1.789267 -1.414214 -1.414214 
C -1.789267 -1.03916 -2 -0.530406 -2 0 
C -2 0.530406 -1.789267 1.03916 -1.414214 1.414214 
C -1.03916 1.789267 -0.530406 2 0 2 
z
"/>
    </defs>
    <g clip-path="url(#p966481f7be)">
     <use xlink:href="#C4_0_df3fd577ae" x="148.913393" y="58.450668" style="fill: #377eb8; stroke: #000000"/>
    </g>
    <g clip-path="url(#p966481f7be)">
     <use xlink:href="#C4_0_df3fd577ae" x="146.596379" y="60.161045" style="fill: #377eb8; stroke: #000000"/>
    </g>
    <g clip-path="url(#p966481f7be)">
     <use xlink:href="#C4_0_df3fd577ae" x="143.587002" y="61.077318" style="fill: #377eb8; stroke: #000000"/>
    </g>
    <g clip-path="url(#p966481f7be)">
     <use xlink:href="#C4_0_df3fd577ae" x="145.479195" y="57.992531" style="fill: #377eb8; stroke: #000000"/>
    </g>
   </g>
   <g id="PathCollection_6">
    <defs>
     <path id="C5_0_f969b0eb2a" d="M 0 2 
C 0.530406 2 1.03916 1.789267 1.414214 1.414214 
C 1.789267 1.03916 2 0.530406 2 -0 
C 2 -0.530406 1.789267 -1.03916 1.414214 -1.414214 
C 1.03916 -1.789267 0.530406 -2 0 -2 
C -0.530406 -2 -1.03916 -1.789267 -1.414214 -1.414214 
C -1.789267 -1.03916 -2 -0.530406 -2 0 
C -2 0.530406 -1.789267 1.03916 -1.414214 1.414214 
C -1.03916 1.789267 -0.530406 2 0 2 
z
"/>
    </defs>
    <g clip-path="url(#p966481f7be)">
     <use xlink:href="#C5_0_f969b0eb2a" x="162.468713" y="65.124192" style="fill: #4daf4a; stroke: #000000"/>
    </g>
    <g clip-path="url(#p966481f7be)">
     <use xlink:href="#C5_0_f969b0eb2a" x="162.810609" y="65.154734" style="fill: #4daf4a; stroke: #000000"/>
    </g>
    <g clip-path="url(#p966481f7be)">
     <use xlink:href="#C5_0_f969b0eb2a" x="162.097648" y="63.23056" style="fill: #4daf4a; stroke: #000000"/>
    </g>
    <g clip-path="url(#p966481f7be)">
     <use xlink:href="#C5_0_f969b0eb2a" x="162.128339" y="64.589699" style="fill: #4daf4a; stroke: #000000"/>
    </g>
   </g>
   <g id="text_20">
    <!-- BAT1-P5GA -->
    <g transform="translate(127.428137 12.210469) scale(0.07 -0.07)">
     <defs>
      <path id="ArialMT-50" d="M 494 0 
L 494 4581 
L 2222 4581 
Q 2678 4581 2919 4538 
Q 3256 4481 3484 4323 
Q 3713 4166 3852 3881 
Q 3991 3597 3991 3256 
Q 3991 2672 3619 2267 
Q 3247 1863 2275 1863 
L 1100 1863 
L 1100 0 
L 494 0 
z
M 1100 2403 
L 2284 2403 
Q 2872 2403 3119 2622 
Q 3366 2841 3366 3238 
Q 3366 3525 3220 3729 
Q 3075 3934 2838 4000 
Q 2684 4041 2272 4041 
L 1100 4041 
L 1100 2403 
z
" transform="scale(0.015625)"/>
      <path id="ArialMT-35" d="M 266 1200 
L 856 1250 
Q 922 819 1161 601 
Q 1400 384 1738 384 
Q 2144 384 2425 690 
Q 2706 997 2706 1503 
Q 2706 1984 2436 2262 
Q 2166 2541 1728 2541 
Q 1456 2541 1237 2417 
Q 1019 2294 894 2097 
L 366 2166 
L 809 4519 
L 3088 4519 
L 3088 3981 
L 1259 3981 
L 1013 2750 
Q 1425 3038 1878 3038 
Q 2478 3038 2890 2622 
Q 3303 2206 3303 1553 
Q 3303 931 2941 478 
Q 2500 -78 1738 -78 
Q 1113 -78 717 272 
Q 322 622 266 1200 
z
" transform="scale(0.015625)"/>
      <path id="ArialMT-47" d="M 2638 1797 
L 2638 2334 
L 4578 2338 
L 4578 638 
Q 4131 281 3656 101 
Q 3181 -78 2681 -78 
Q 2006 -78 1454 211 
Q 903 500 622 1047 
Q 341 1594 341 2269 
Q 341 2938 620 3517 
Q 900 4097 1425 4378 
Q 1950 4659 2634 4659 
Q 3131 4659 3532 4498 
Q 3934 4338 4162 4050 
Q 4391 3763 4509 3300 
L 3963 3150 
Q 3859 3500 3706 3700 
Q 3553 3900 3268 4020 
Q 2984 4141 2638 4141 
Q 2222 4141 1919 4014 
Q 1616 3888 1430 3681 
Q 1244 3475 1141 3228 
Q 966 2803 966 2306 
Q 966 1694 1177 1281 
Q 1388 869 1791 669 
Q 2194 469 2647 469 
Q 3041 469 3416 620 
Q 3791 772 3984 944 
L 3984 1797 
L 2638 1797 
z
" transform="scale(0.015625)"/>
     </defs>
     <use xlink:href="#ArialMT-42"/>
     <use xlink:href="#ArialMT-41" x="66.699219"/>
     <use xlink:href="#ArialMT-54" x="126.023438"/>
     <use xlink:href="#ArialMT-31" x="187.107422"/>
     <use xlink:href="#ArialMT-2d" x="242.722656"/>
     <use xlink:href="#ArialMT-50" x="276.023438"/>
     <use xlink:href="#ArialMT-35" x="342.722656"/>
     <use xlink:href="#ArialMT-47" x="398.337891"/>
     <use xlink:href="#ArialMT-41" x="476.121094"/>
    </g>
   </g>
  </g>
  <g id="axes_3">
   <g id="patch_18">
    <path d="M 207.365245 89.512333 
L 259.343712 89.512333 
L 259.343712 16.210469 
L 207.365245 16.210469 
z
" style="fill: #ffffff"/>
   </g>
   <g id="patch_19">
    <path d="M 213.140631 86.458088 
L 224.691401 86.458088 
L 224.691401 71.186867 
L 213.140631 71.186867 
z
" clip-path="url(#p4e5729ffd6)" style="fill: #cb3335; opacity: 0.4"/>
   </g>
   <g id="patch_20">
    <path d="M 227.579094 86.458088 
L 239.129864 86.458088 
L 239.129864 71.013793 
L 227.579094 71.013793 
z
" clip-path="url(#p4e5729ffd6)" style="fill: #477ca8; opacity: 0.4"/>
   </g>
   <g id="patch_21">
    <path d="M 242.017556 86.458088 
L 253.568327 86.458088 
L 253.568327 72.019148 
L 242.017556 72.019148 
z
" clip-path="url(#p4e5729ffd6)" style="fill: #59a257; opacity: 0.4"/>
   </g>
   <g id="matplotlib.axis_5">
    <g id="xtick_7">
     <g id="line2d_21">
      <g>
       <use xlink:href="#ma6ecabc13d" x="218.916016" y="89.512333" style="stroke: #000000; stroke-width: 0.8"/>
      </g>
     </g>
     <g id="text_21">
      <!-- empty -->
      <g transform="translate(210.74711 100.736708) scale(0.06 -0.06)">
       <use xlink:href="#ArialMT-65"/>
       <use xlink:href="#ArialMT-6d" x="55.615234"/>
       <use xlink:href="#ArialMT-70" x="138.916016"/>
       <use xlink:href="#ArialMT-74" x="194.53125"/>
       <use xlink:href="#ArialMT-79" x="222.314453"/>
      </g>
     </g>
    </g>
    <g id="xtick_8">
     <g id="line2d_22">
      <g>
       <use xlink:href="#ma6ecabc13d" x="233.354479" y="89.512333" style="stroke: #000000; stroke-width: 0.8"/>
      </g>
     </g>
     <g id="text_22">
      <!-- WT -->
      <g transform="translate(228.690416 100.80702) scale(0.06 -0.06)">
       <use xlink:href="#ArialMT-57"/>
       <use xlink:href="#ArialMT-54" x="94.384766"/>
      </g>
     </g>
    </g>
    <g id="xtick_9">
     <g id="line2d_23">
      <g>
       <use xlink:href="#ma6ecabc13d" x="247.792942" y="89.512333" style="stroke: #000000; stroke-width: 0.8"/>
      </g>
     </g>
     <g id="text_23">
      <!-- K88N -->
      <g transform="translate(240.288723 100.80702) scale(0.06 -0.06)">
       <use xlink:href="#ArialMT-4b"/>
       <use xlink:href="#ArialMT-38" x="66.699219"/>
       <use xlink:href="#ArialMT-38" x="122.314453"/>
       <use xlink:href="#ArialMT-4e" x="177.929688"/>
      </g>
     </g>
    </g>
   </g>
   <g id="matplotlib.axis_6">
    <g id="ytick_11">
     <g id="line2d_24">
      <g>
       <use xlink:href="#mba71b5bdf3" x="207.365245" y="86.458088" style="stroke: #000000; stroke-width: 0.8"/>
      </g>
     </g>
     <g id="text_24">
      <!-- 0 -->
      <g transform="translate(197.028683 88.605432) scale(0.06 -0.06)">
       <use xlink:href="#ArialMT-30"/>
      </g>
     </g>
    </g>
    <g id="ytick_12">
     <g id="line2d_25">
      <g>
       <use xlink:href="#mba71b5bdf3" x="207.365245" y="71.186867" style="stroke: #000000; stroke-width: 0.8"/>
      </g>
     </g>
     <g id="text_25">
      <!-- 1 -->
      <g transform="translate(197.028683 73.33421) scale(0.06 -0.06)">
       <use xlink:href="#ArialMT-31"/>
      </g>
     </g>
    </g>
    <g id="ytick_13">
     <g id="line2d_26">
      <g>
       <use xlink:href="#mba71b5bdf3" x="207.365245" y="55.915645" style="stroke: #000000; stroke-width: 0.8"/>
      </g>
     </g>
     <g id="text_26">
      <!-- 2 -->
      <g transform="translate(197.028683 58.062989) scale(0.06 -0.06)">
       <use xlink:href="#ArialMT-32"/>
      </g>
     </g>
    </g>
    <g id="ytick_14">
     <g id="line2d_27">
      <g>
       <use xlink:href="#mba71b5bdf3" x="207.365245" y="40.644423" style="stroke: #000000; stroke-width: 0.8"/>
      </g>
     </g>
     <g id="text_27">
      <!-- 3 -->
      <g transform="translate(197.028683 42.791767) scale(0.06 -0.06)">
       <use xlink:href="#ArialMT-33"/>
      </g>
     </g>
    </g>
    <g id="ytick_15">
     <g id="line2d_28">
      <g>
       <use xlink:href="#mba71b5bdf3" x="207.365245" y="25.373202" style="stroke: #000000; stroke-width: 0.8"/>
      </g>
     </g>
     <g id="text_28">
      <!-- 4 -->
      <g transform="translate(197.028683 27.520545) scale(0.06 -0.06)">
       <use xlink:href="#ArialMT-34"/>
      </g>
     </g>
    </g>
    <g id="text_29">
     <!-- Luciferase activity -->
     <g transform="translate(186.151589 80.677104) rotate(-90) scale(0.07 -0.07)">
      <use xlink:href="#ArialMT-4c"/>
      <use xlink:href="#ArialMT-75" x="55.615234"/>
      <use xlink:href="#ArialMT-63" x="111.230469"/>
      <use xlink:href="#ArialMT-69" x="161.230469"/>
      <use xlink:href="#ArialMT-66" x="183.447266"/>
      <use xlink:href="#ArialMT-65" x="211.230469"/>
      <use xlink:href="#ArialMT-72" x="266.845703"/>
      <use xlink:href="#ArialMT-61" x="300.146484"/>
      <use xlink:href="#ArialMT-73" x="355.761719"/>
      <use xlink:href="#ArialMT-65" x="405.761719"/>
      <use xlink:href="#ArialMT-20" x="461.376953"/>
      <use xlink:href="#ArialMT-61" x="489.160156"/>
      <use xlink:href="#ArialMT-63" x="544.775391"/>
      <use xlink:href="#ArialMT-74" x="594.775391"/>
      <use xlink:href="#ArialMT-69" x="622.558594"/>
      <use xlink:href="#ArialMT-76" x="644.775391"/>
      <use xlink:href="#ArialMT-69" x="694.775391"/>
      <use xlink:href="#ArialMT-74" x="716.992188"/>
      <use xlink:href="#ArialMT-79" x="744.775391"/>
     </g>
     <!-- FC/WT -->
     <g transform="translate(193.637433 63.940541) rotate(-90) scale(0.07 -0.07)">
      <use xlink:href="#ArialMT-46"/>
      <use xlink:href="#ArialMT-43" x="61.083984"/>
      <use xlink:href="#ArialMT-2f" x="133.300781"/>
      <use xlink:href="#ArialMT-57" x="161.083984"/>
      <use xlink:href="#ArialMT-54" x="255.46875"/>
     </g>
    </g>
   </g>
   <g id="line2d_29">
    <path d="M 160.584626 78.822477 
L 404.883418 78.822477 
" clip-path="url(#p4e5729ffd6)" style="fill: none; stroke-dasharray: 6.4,1.6,1,1.6; stroke-dashoffset: 0; stroke: #808080"/>
   </g>
   <g id="line2d_30">
    <path d="M 160.584626 63.551256 
L 404.883418 63.551256 
" clip-path="url(#p4e5729ffd6)" style="fill: none; stroke-dasharray: 6.4,1.6,1,1.6; stroke-dashoffset: 0; stroke: #808080"/>
   </g>
   <g id="patch_22">
    <path d="M 207.365245 89.512333 
L 207.365245 16.210469 
" style="fill: none; stroke: #000000; stroke-width: 0.8; stroke-linejoin: miter; stroke-linecap: square"/>
   </g>
   <g id="patch_23">
    <path d="M 259.343712 89.512333 
L 259.343712 16.210469 
" style="fill: none; stroke: #000000; stroke-width: 0.8; stroke-linejoin: miter; stroke-linecap: square"/>
   </g>
   <g id="patch_24">
    <path d="M 207.365245 89.512333 
L 259.343712 89.512333 
" style="fill: none; stroke: #000000; stroke-width: 0.8; stroke-linejoin: miter; stroke-linecap: square"/>
   </g>
   <g id="patch_25">
    <path d="M 207.365245 16.210469 
L 259.343712 16.210469 
" style="fill: none; stroke: #000000; stroke-width: 0.8; stroke-linejoin: miter; stroke-linecap: square"/>
   </g>
   <g id="PathCollection_7">
    <defs>
     <path id="C6_0_1a84e37fe3" d="M 0 2 
C 0.530406 2 1.03916 1.789267 1.414214 1.414214 
C 1.789267 1.03916 2 0.530406 2 -0 
C 2 -0.530406 1.789267 -1.03916 1.414214 -1.414214 
C 1.03916 -1.789267 0.530406 -2 0 -2 
C -0.530406 -2 -1.03916 -1.789267 -1.414214 -1.414214 
C -1.789267 -1.03916 -2 -0.530406 -2 0 
C -2 0.530406 -1.789267 1.03916 -1.414214 1.414214 
C -1.03916 1.789267 -0.530406 2 0 2 
z
"/>
    </defs>
    <g clip-path="url(#p4e5729ffd6)">
     <use xlink:href="#C6_0_1a84e37fe3" x="219.378252" y="71.186867" style="fill: #e41a1c; stroke: #000000"/>
    </g>
    <g clip-path="url(#p4e5729ffd6)">
     <use xlink:href="#C6_0_1a84e37fe3" x="219.219963" y="71.186867" style="fill: #e41a1c; stroke: #000000"/>
    </g>
    <g clip-path="url(#p4e5729ffd6)">
     <use xlink:href="#C6_0_1a84e37fe3" x="219.090546" y="71.186867" style="fill: #e41a1c; stroke: #000000"/>
    </g>
    <g clip-path="url(#p4e5729ffd6)">
     <use xlink:href="#C6_0_1a84e37fe3" x="219.217226" y="71.186867" style="fill: #e41a1c; stroke: #000000"/>
    </g>
   </g>
   <g id="PathCollection_8">
    <defs>
     <path id="C7_0_473f7f2186" d="M 0 2 
C 0.530406 2 1.03916 1.789267 1.414214 1.414214 
C 1.789267 1.03916 2 0.530406 2 -0 
C 2 -0.530406 1.789267 -1.03916 1.414214 -1.414214 
C 1.03916 -1.789267 0.530406 -2 0 -2 
C -0.530406 -2 -1.03916 -1.789267 -1.414214 -1.414214 
C -1.789267 -1.03916 -2 -0.530406 -2 0 
C -2 0.530406 -1.789267 1.03916 -1.414214 1.414214 
C -1.03916 1.789267 -0.530406 2 0 2 
z
"/>
    </defs>
    <g clip-path="url(#p4e5729ffd6)">
     <use xlink:href="#C7_0_473f7f2186" x="233.342233" y="71.767173" style="fill: #377eb8; stroke: #000000"/>
    </g>
    <g clip-path="url(#p4e5729ffd6)">
     <use xlink:href="#C7_0_473f7f2186" x="233.13595" y="71.568647" style="fill: #377eb8; stroke: #000000"/>
    </g>
    <g clip-path="url(#p4e5729ffd6)">
     <use xlink:href="#C7_0_473f7f2186" x="232.352189" y="69.705558" style="fill: #377eb8; stroke: #000000"/>
    </g>
   </g>
   <g id="PathCollection_9">
    <defs>
     <path id="C8_0_76c86a37b4" d="M 0 2 
C 0.530406 2 1.03916 1.789267 1.414214 1.414214 
C 1.789267 1.03916 2 0.530406 2 -0 
C 2 -0.530406 1.789267 -1.03916 1.414214 -1.414214 
C 1.03916 -1.789267 0.530406 -2 0 -2 
C -0.530406 -2 -1.03916 -1.789267 -1.414214 -1.414214 
C -1.789267 -1.03916 -2 -0.530406 -2 0 
C -2 0.530406 -1.789267 1.03916 -1.414214 1.414214 
C -1.03916 1.789267 -0.530406 2 0 2 
z
"/>
    </defs>
    <g clip-path="url(#p4e5729ffd6)">
     <use xlink:href="#C8_0_76c86a37b4" x="247.849997" y="72.668175" style="fill: #4daf4a; stroke: #000000"/>
    </g>
    <g clip-path="url(#p4e5729ffd6)">
     <use xlink:href="#C8_0_76c86a37b4" x="247.05786" y="69.812457" style="fill: #4daf4a; stroke: #000000"/>
    </g>
    <g clip-path="url(#p4e5729ffd6)">
     <use xlink:href="#C8_0_76c86a37b4" x="248.261064" y="72.408564" style="fill: #4daf4a; stroke: #000000"/>
    </g>
    <g clip-path="url(#p4e5729ffd6)">
     <use xlink:href="#C8_0_76c86a37b4" x="248.581546" y="73.187397" style="fill: #4daf4a; stroke: #000000"/>
    </g>
   </g>
   <g id="text_30">
    <!-- BAT1-mAB -->
    <g transform="translate(216.109322 12.210469) scale(0.07 -0.07)">
     <use xlink:href="#ArialMT-42"/>
     <use xlink:href="#ArialMT-41" x="66.699219"/>
     <use xlink:href="#ArialMT-54" x="126.023438"/>
     <use xlink:href="#ArialMT-31" x="187.107422"/>
     <use xlink:href="#ArialMT-2d" x="242.722656"/>
     <use xlink:href="#ArialMT-6d" x="276.023438"/>
     <use xlink:href="#ArialMT-41" x="359.324219"/>
     <use xlink:href="#ArialMT-42" x="426.023438"/>
    </g>
   </g>
  </g>
  <g id="axes_4">
   <g id="patch_26">
    <path d="M 294.29315 89.512333 
L 346.271616 89.512333 
L 346.271616 16.210469 
L 294.29315 16.210469 
z
" style="fill: #ffffff"/>
   </g>
   <g id="patch_27">
    <path d="M 300.068535 86.458088 
L 311.619305 86.458088 
L 311.619305 71.186867 
L 300.068535 71.186867 
z
" clip-path="url(#p5a58397d51)" style="fill: #cb3335; opacity: 0.4"/>
   </g>
   <g id="patch_28">
    <path d="M 314.506998 86.458088 
L 326.057768 86.458088 
L 326.057768 49.998047 
L 314.506998 49.998047 
z
" clip-path="url(#p5a58397d51)" style="fill: #477ca8; opacity: 0.4"/>
   </g>
   <g id="patch_29">
    <path d="M 328.94546 86.458088 
L 340.496231 86.458088 
L 340.496231 64.463711 
L 328.94546 64.463711 
z
" clip-path="url(#p5a58397d51)" style="fill: #59a257; opacity: 0.4"/>
   </g>
   <g id="matplotlib.axis_7">
    <g id="xtick_10">
     <g id="line2d_31">
      <g>
       <use xlink:href="#ma6ecabc13d" x="305.84392" y="89.512333" style="stroke: #000000; stroke-width: 0.8"/>
      </g>
     </g>
     <g id="text_31">
      <!-- empty -->
      <g transform="translate(297.675014 100.736708) scale(0.06 -0.06)">
       <use xlink:href="#ArialMT-65"/>
       <use xlink:href="#ArialMT-6d" x="55.615234"/>
       <use xlink:href="#ArialMT-70" x="138.916016"/>
       <use xlink:href="#ArialMT-74" x="194.53125"/>
       <use xlink:href="#ArialMT-79" x="222.314453"/>
      </g>
     </g>
    </g>
    <g id="xtick_11">
     <g id="line2d_32">
      <g>
       <use xlink:href="#ma6ecabc13d" x="320.282383" y="89.512333" style="stroke: #000000; stroke-width: 0.8"/>
      </g>
     </g>
     <g id="text_32">
      <!-- WT -->
      <g transform="translate(315.61832 100.80702) scale(0.06 -0.06)">
       <use xlink:href="#ArialMT-57"/>
       <use xlink:href="#ArialMT-54" x="94.384766"/>
      </g>
     </g>
    </g>
    <g id="xtick_12">
     <g id="line2d_33">
      <g>
       <use xlink:href="#ma6ecabc13d" x="334.720846" y="89.512333" style="stroke: #000000; stroke-width: 0.8"/>
      </g>
     </g>
     <g id="text_33">
      <!-- K88N -->
      <g transform="translate(327.216627 100.80702) scale(0.06 -0.06)">
       <use xlink:href="#ArialMT-4b"/>
       <use xlink:href="#ArialMT-38" x="66.699219"/>
       <use xlink:href="#ArialMT-38" x="122.314453"/>
       <use xlink:href="#ArialMT-4e" x="177.929688"/>
      </g>
     </g>
    </g>
   </g>
   <g id="matplotlib.axis_8">
    <g id="ytick_16">
     <g id="line2d_34">
      <g>
       <use xlink:href="#mba71b5bdf3" x="294.29315" y="86.458088" style="stroke: #000000; stroke-width: 0.8"/>
      </g>
     </g>
     <g id="text_34">
      <!-- 0 -->
      <g transform="translate(283.956587 88.605432) scale(0.06 -0.06)">
       <use xlink:href="#ArialMT-30"/>
      </g>
     </g>
    </g>
    <g id="ytick_17">
     <g id="line2d_35">
      <g>
       <use xlink:href="#mba71b5bdf3" x="294.29315" y="71.186867" style="stroke: #000000; stroke-width: 0.8"/>
      </g>
     </g>
     <g id="text_35">
      <!-- 1 -->
      <g transform="translate(283.956587 73.33421) scale(0.06 -0.06)">
       <use xlink:href="#ArialMT-31"/>
      </g>
     </g>
    </g>
    <g id="ytick_18">
     <g id="line2d_36">
      <g>
       <use xlink:href="#mba71b5bdf3" x="294.29315" y="55.915645" style="stroke: #000000; stroke-width: 0.8"/>
      </g>
     </g>
     <g id="text_36">
      <!-- 2 -->
      <g transform="translate(283.956587 58.062989) scale(0.06 -0.06)">
       <use xlink:href="#ArialMT-32"/>
      </g>
     </g>
    </g>
    <g id="ytick_19">
     <g id="line2d_37">
      <g>
       <use xlink:href="#mba71b5bdf3" x="294.29315" y="40.644423" style="stroke: #000000; stroke-width: 0.8"/>
      </g>
     </g>
     <g id="text_37">
      <!-- 3 -->
      <g transform="translate(283.956587 42.791767) scale(0.06 -0.06)">
       <use xlink:href="#ArialMT-33"/>
      </g>
     </g>
    </g>
    <g id="ytick_20">
     <g id="line2d_38">
      <g>
       <use xlink:href="#mba71b5bdf3" x="294.29315" y="25.373202" style="stroke: #000000; stroke-width: 0.8"/>
      </g>
     </g>
     <g id="text_38">
      <!-- 4 -->
      <g transform="translate(283.956587 27.520545) scale(0.06 -0.06)">
       <use xlink:href="#ArialMT-34"/>
      </g>
     </g>
    </g>
    <g id="text_39">
     <!-- Luciferase activity -->
     <g transform="translate(273.079493 80.677104) rotate(-90) scale(0.07 -0.07)">
      <use xlink:href="#ArialMT-4c"/>
      <use xlink:href="#ArialMT-75" x="55.615234"/>
      <use xlink:href="#ArialMT-63" x="111.230469"/>
      <use xlink:href="#ArialMT-69" x="161.230469"/>
      <use xlink:href="#ArialMT-66" x="183.447266"/>
      <use xlink:href="#ArialMT-65" x="211.230469"/>
      <use xlink:href="#ArialMT-72" x="266.845703"/>
      <use xlink:href="#ArialMT-61" x="300.146484"/>
      <use xlink:href="#ArialMT-73" x="355.761719"/>
      <use xlink:href="#ArialMT-65" x="405.761719"/>
      <use xlink:href="#ArialMT-20" x="461.376953"/>
      <use xlink:href="#ArialMT-61" x="489.160156"/>
      <use xlink:href="#ArialMT-63" x="544.775391"/>
      <use xlink:href="#ArialMT-74" x="594.775391"/>
      <use xlink:href="#ArialMT-69" x="622.558594"/>
      <use xlink:href="#ArialMT-76" x="644.775391"/>
      <use xlink:href="#ArialMT-69" x="694.775391"/>
      <use xlink:href="#ArialMT-74" x="716.992188"/>
      <use xlink:href="#ArialMT-79" x="744.775391"/>
     </g>
     <!-- FC/WT -->
     <g transform="translate(280.565337 63.940541) rotate(-90) scale(0.07 -0.07)">
      <use xlink:href="#ArialMT-46"/>
      <use xlink:href="#ArialMT-43" x="61.083984"/>
      <use xlink:href="#ArialMT-2f" x="133.300781"/>
      <use xlink:href="#ArialMT-57" x="161.083984"/>
      <use xlink:href="#ArialMT-54" x="255.46875"/>
     </g>
    </g>
   </g>
   <g id="line2d_39">
    <path d="M 247.51253 78.822477 
L 441.39952 78.822477 
" clip-path="url(#p5a58397d51)" style="fill: none; stroke-dasharray: 6.4,1.6,1,1.6; stroke-dashoffset: 0; stroke: #808080"/>
   </g>
   <g id="line2d_40">
    <path d="M 247.51253 63.551256 
L 441.39952 63.551256 
" clip-path="url(#p5a58397d51)" style="fill: none; stroke-dasharray: 6.4,1.6,1,1.6; stroke-dashoffset: 0; stroke: #808080"/>
   </g>
   <g id="patch_30">
    <path d="M 294.29315 89.512333 
L 294.29315 16.210469 
" style="fill: none; stroke: #000000; stroke-width: 0.8; stroke-linejoin: miter; stroke-linecap: square"/>
   </g>
   <g id="patch_31">
    <path d="M 346.271616 89.512333 
L 346.271616 16.210469 
" style="fill: none; stroke: #000000; stroke-width: 0.8; stroke-linejoin: miter; stroke-linecap: square"/>
   </g>
   <g id="patch_32">
    <path d="M 294.29315 89.512333 
L 346.271616 89.512333 
" style="fill: none; stroke: #000000; stroke-width: 0.8; stroke-linejoin: miter; stroke-linecap: square"/>
   </g>
   <g id="patch_33">
    <path d="M 294.29315 16.210469 
L 346.271616 16.210469 
" style="fill: none; stroke: #000000; stroke-width: 0.8; stroke-linejoin: miter; stroke-linecap: square"/>
   </g>
   <g id="PathCollection_10">
    <defs>
     <path id="C9_0_17eba9b8a3" d="M 0 2 
C 0.530406 2 1.03916 1.789267 1.414214 1.414214 
C 1.789267 1.03916 2 0.530406 2 -0 
C 2 -0.530406 1.789267 -1.03916 1.414214 -1.414214 
C 1.03916 -1.789267 0.530406 -2 0 -2 
C -0.530406 -2 -1.03916 -1.789267 -1.414214 -1.414214 
C -1.789267 -1.03916 -2 -0.530406 -2 0 
C -2 0.530406 -1.789267 1.03916 -1.414214 1.414214 
C -1.03916 1.789267 -0.530406 2 0 2 
z
"/>
    </defs>
    <g clip-path="url(#p5a58397d51)">
     <use xlink:href="#C9_0_17eba9b8a3" x="307.624243" y="71.186867" style="fill: #e41a1c; stroke: #000000"/>
    </g>
    <g clip-path="url(#p5a58397d51)">
     <use xlink:href="#C9_0_17eba9b8a3" x="304.411751" y="71.186867" style="fill: #e41a1c; stroke: #000000"/>
    </g>
    <g clip-path="url(#p5a58397d51)">
     <use xlink:href="#C9_0_17eba9b8a3" x="305.965976" y="71.186867" style="fill: #e41a1c; stroke: #000000"/>
    </g>
    <g clip-path="url(#p5a58397d51)">
     <use xlink:href="#C9_0_17eba9b8a3" x="305.656639" y="71.186867" style="fill: #e41a1c; stroke: #000000"/>
    </g>
   </g>
   <g id="PathCollection_11">
    <defs>
     <path id="Ca_0_8667794ad2" d="M 0 2 
C 0.530406 2 1.03916 1.789267 1.414214 1.414214 
C 1.789267 1.03916 2 0.530406 2 -0 
C 2 -0.530406 1.789267 -1.03916 1.414214 -1.414214 
C 1.03916 -1.789267 0.530406 -2 0 -2 
C -0.530406 -2 -1.03916 -1.789267 -1.414214 -1.414214 
C -1.789267 -1.03916 -2 -0.530406 -2 0 
C -2 0.530406 -1.789267 1.03916 -1.414214 1.414214 
C -1.03916 1.789267 -0.530406 2 0 2 
z
"/>
    </defs>
    <g clip-path="url(#p5a58397d51)">
     <use xlink:href="#Ca_0_8667794ad2" x="321.716431" y="51.059396" style="fill: #377eb8; stroke: #000000"/>
    </g>
    <g clip-path="url(#p5a58397d51)">
     <use xlink:href="#Ca_0_8667794ad2" x="319.467632" y="52.846129" style="fill: #377eb8; stroke: #000000"/>
    </g>
    <g clip-path="url(#p5a58397d51)">
     <use xlink:href="#Ca_0_8667794ad2" x="317.555993" y="49.532274" style="fill: #377eb8; stroke: #000000"/>
    </g>
    <g clip-path="url(#p5a58397d51)">
     <use xlink:href="#Ca_0_8667794ad2" x="322.566791" y="46.554386" style="fill: #377eb8; stroke: #000000"/>
    </g>
   </g>
   <g id="PathCollection_12">
    <defs>
     <path id="Cb_0_c50de28aaa" d="M 0 2 
C 0.530406 2 1.03916 1.789267 1.414214 1.414214 
C 1.789267 1.03916 2 0.530406 2 -0 
C 2 -0.530406 1.789267 -1.03916 1.414214 -1.414214 
C 1.03916 -1.789267 0.530406 -2 0 -2 
C -0.530406 -2 -1.03916 -1.789267 -1.414214 -1.414214 
C -1.789267 -1.03916 -2 -0.530406 -2 0 
C -2 0.530406 -1.789267 1.03916 -1.414214 1.414214 
C -1.03916 1.789267 -0.530406 2 0 2 
z
"/>
    </defs>
    <g clip-path="url(#p5a58397d51)">
     <use xlink:href="#Cb_0_c50de28aaa" x="334.103979" y="62.253202" style="fill: #4daf4a; stroke: #000000"/>
    </g>
    <g clip-path="url(#p5a58397d51)">
     <use xlink:href="#Cb_0_c50de28aaa" x="336.285122" y="63.200018" style="fill: #4daf4a; stroke: #000000"/>
    </g>
    <g clip-path="url(#p5a58397d51)">
     <use xlink:href="#Cb_0_c50de28aaa" x="334.684724" y="65.551786" style="fill: #4daf4a; stroke: #000000"/>
    </g>
    <g clip-path="url(#p5a58397d51)">
     <use xlink:href="#Cb_0_c50de28aaa" x="334.693331" y="66.84984" style="fill: #4daf4a; stroke: #000000"/>
    </g>
   </g>
   <g id="text_40">
    <!-- BAT1-mA -->
    <g transform="translate(305.371836 12.210469) scale(0.07 -0.07)">
     <use xlink:href="#ArialMT-42"/>
     <use xlink:href="#ArialMT-41" x="66.699219"/>
     <use xlink:href="#ArialMT-54" x="126.023438"/>
     <use xlink:href="#ArialMT-31" x="187.107422"/>
     <use xlink:href="#ArialMT-2d" x="242.722656"/>
     <use xlink:href="#ArialMT-6d" x="276.023438"/>
     <use xlink:href="#ArialMT-41" x="359.324219"/>
    </g>
   </g>
  </g>
  <g id="axes_5">
   <g id="patch_34">
    <path d="M 381.221053 89.512333 
L 433.19952 89.512333 
L 433.19952 16.210469 
L 381.221053 16.210469 
z
" style="fill: #ffffff"/>
   </g>
   <g id="patch_35">
    <path d="M 386.996439 86.458088 
L 398.547209 86.458088 
L 398.547209 71.186867 
L 386.996439 71.186867 
z
" clip-path="url(#pea2e257c34)" style="fill: #cb3335; opacity: 0.4"/>
   </g>
   <g id="patch_36">
    <path d="M 401.434902 86.458088 
L 412.985672 86.458088 
L 412.985672 70.709641 
L 401.434902 70.709641 
z
" clip-path="url(#pea2e257c34)" style="fill: #477ca8; opacity: 0.4"/>
   </g>
   <g id="patch_37">
    <path d="M 415.873365 86.458088 
L 427.424135 86.458088 
L 427.424135 67.311794 
L 415.873365 67.311794 
z
" clip-path="url(#pea2e257c34)" style="fill: #59a257; opacity: 0.4"/>
   </g>
   <g id="matplotlib.axis_9">
    <g id="xtick_13">
     <g id="line2d_41">
      <g>
       <use xlink:href="#ma6ecabc13d" x="392.771824" y="89.512333" style="stroke: #000000; stroke-width: 0.8"/>
      </g>
     </g>
     <g id="text_41">
      <!-- empty -->
      <g transform="translate(384.602918 100.736708) scale(0.06 -0.06)">
       <use xlink:href="#ArialMT-65"/>
       <use xlink:href="#ArialMT-6d" x="55.615234"/>
       <use xlink:href="#ArialMT-70" x="138.916016"/>
       <use xlink:href="#ArialMT-74" x="194.53125"/>
       <use xlink:href="#ArialMT-79" x="222.314453"/>
      </g>
     </g>
    </g>
    <g id="xtick_14">
     <g id="line2d_42">
      <g>
       <use xlink:href="#ma6ecabc13d" x="407.210287" y="89.512333" style="stroke: #000000; stroke-width: 0.8"/>
      </g>
     </g>
     <g id="text_42">
      <!-- WT -->
      <g transform="translate(402.546224 100.80702) scale(0.06 -0.06)">
       <use xlink:href="#ArialMT-57"/>
       <use xlink:href="#ArialMT-54" x="94.384766"/>
      </g>
     </g>
    </g>
    <g id="xtick_15">
     <g id="line2d_43">
      <g>
       <use xlink:href="#ma6ecabc13d" x="421.64875" y="89.512333" style="stroke: #000000; stroke-width: 0.8"/>
      </g>
     </g>
     <g id="text_43">
      <!-- K88N -->
      <g transform="translate(414.144531 100.80702) scale(0.06 -0.06)">
       <use xlink:href="#ArialMT-4b"/>
       <use xlink:href="#ArialMT-38" x="66.699219"/>
       <use xlink:href="#ArialMT-38" x="122.314453"/>
       <use xlink:href="#ArialMT-4e" x="177.929688"/>
      </g>
     </g>
    </g>
   </g>
   <g id="matplotlib.axis_10">
    <g id="ytick_21">
     <g id="line2d_44">
      <g>
       <use xlink:href="#mba71b5bdf3" x="381.221053" y="86.458088" style="stroke: #000000; stroke-width: 0.8"/>
      </g>
     </g>
     <g id="text_44">
      <!-- 0 -->
      <g transform="translate(370.884491 88.605432) scale(0.06 -0.06)">
       <use xlink:href="#ArialMT-30"/>
      </g>
     </g>
    </g>
    <g id="ytick_22">
     <g id="line2d_45">
      <g>
       <use xlink:href="#mba71b5bdf3" x="381.221053" y="71.186867" style="stroke: #000000; stroke-width: 0.8"/>
      </g>
     </g>
     <g id="text_45">
      <!-- 1 -->
      <g transform="translate(370.884491 73.33421) scale(0.06 -0.06)">
       <use xlink:href="#ArialMT-31"/>
      </g>
     </g>
    </g>
    <g id="ytick_23">
     <g id="line2d_46">
      <g>
       <use xlink:href="#mba71b5bdf3" x="381.221053" y="55.915645" style="stroke: #000000; stroke-width: 0.8"/>
      </g>
     </g>
     <g id="text_46">
      <!-- 2 -->
      <g transform="translate(370.884491 58.062989) scale(0.06 -0.06)">
       <use xlink:href="#ArialMT-32"/>
      </g>
     </g>
    </g>
    <g id="ytick_24">
     <g id="line2d_47">
      <g>
       <use xlink:href="#mba71b5bdf3" x="381.221053" y="40.644423" style="stroke: #000000; stroke-width: 0.8"/>
      </g>
     </g>
     <g id="text_47">
      <!-- 3 -->
      <g transform="translate(370.884491 42.791767) scale(0.06 -0.06)">
       <use xlink:href="#ArialMT-33"/>
      </g>
     </g>
    </g>
    <g id="ytick_25">
     <g id="line2d_48">
      <g>
       <use xlink:href="#mba71b5bdf3" x="381.221053" y="25.373202" style="stroke: #000000; stroke-width: 0.8"/>
      </g>
     </g>
     <g id="text_48">
      <!-- 4 -->
      <g transform="translate(370.884491 27.520545) scale(0.06 -0.06)">
       <use xlink:href="#ArialMT-34"/>
      </g>
     </g>
    </g>
    <g id="text_49">
     <!-- Luciferase activity -->
     <g transform="translate(360.007397 80.677104) rotate(-90) scale(0.07 -0.07)">
      <use xlink:href="#ArialMT-4c"/>
      <use xlink:href="#ArialMT-75" x="55.615234"/>
      <use xlink:href="#ArialMT-63" x="111.230469"/>
      <use xlink:href="#ArialMT-69" x="161.230469"/>
      <use xlink:href="#ArialMT-66" x="183.447266"/>
      <use xlink:href="#ArialMT-65" x="211.230469"/>
      <use xlink:href="#ArialMT-72" x="266.845703"/>
      <use xlink:href="#ArialMT-61" x="300.146484"/>
      <use xlink:href="#ArialMT-73" x="355.761719"/>
      <use xlink:href="#ArialMT-65" x="405.761719"/>
      <use xlink:href="#ArialMT-20" x="461.376953"/>
      <use xlink:href="#ArialMT-61" x="489.160156"/>
      <use xlink:href="#ArialMT-63" x="544.775391"/>
      <use xlink:href="#ArialMT-74" x="594.775391"/>
      <use xlink:href="#ArialMT-69" x="622.558594"/>
      <use xlink:href="#ArialMT-76" x="644.775391"/>
      <use xlink:href="#ArialMT-69" x="694.775391"/>
      <use xlink:href="#ArialMT-74" x="716.992188"/>
      <use xlink:href="#ArialMT-79" x="744.775391"/>
     </g>
     <!-- FC/WT -->
     <g transform="translate(367.493241 63.940541) rotate(-90) scale(0.07 -0.07)">
      <use xlink:href="#ArialMT-46"/>
      <use xlink:href="#ArialMT-43" x="61.083984"/>
      <use xlink:href="#ArialMT-2f" x="133.300781"/>
      <use xlink:href="#ArialMT-57" x="161.083984"/>
      <use xlink:href="#ArialMT-54" x="255.46875"/>
     </g>
    </g>
   </g>
   <g id="line2d_49">
    <path d="M 334.440434 78.822477 
L 441.39952 78.822477 
" clip-path="url(#pea2e257c34)" style="fill: none; stroke-dasharray: 6.4,1.6,1,1.6; stroke-dashoffset: 0; stroke: #808080"/>
   </g>
   <g id="line2d_50">
    <path d="M 334.440434 63.551256 
L 441.39952 63.551256 
" clip-path="url(#pea2e257c34)" style="fill: none; stroke-dasharray: 6.4,1.6,1,1.6; stroke-dashoffset: 0; stroke: #808080"/>
   </g>
   <g id="patch_38">
    <path d="M 381.221053 89.512333 
L 381.221053 16.210469 
" style="fill: none; stroke: #000000; stroke-width: 0.8; stroke-linejoin: miter; stroke-linecap: square"/>
   </g>
   <g id="patch_39">
    <path d="M 433.19952 89.512333 
L 433.19952 16.210469 
" style="fill: none; stroke: #000000; stroke-width: 0.8; stroke-linejoin: miter; stroke-linecap: square"/>
   </g>
   <g id="patch_40">
    <path d="M 381.221053 89.512333 
L 433.19952 89.512333 
" style="fill: none; stroke: #000000; stroke-width: 0.8; stroke-linejoin: miter; stroke-linecap: square"/>
   </g>
   <g id="patch_41">
    <path d="M 381.221053 16.210469 
L 433.19952 16.210469 
" style="fill: none; stroke: #000000; stroke-width: 0.8; stroke-linejoin: miter; stroke-linecap: square"/>
   </g>
   <g id="PathCollection_13">
    <defs>
     <path id="Cc_0_f4e32a7d02" d="M 0 2 
C 0.530406 2 1.03916 1.789267 1.414214 1.414214 
C 1.789267 1.03916 2 0.530406 2 -0 
C 2 -0.530406 1.789267 -1.03916 1.414214 -1.414214 
C 1.03916 -1.789267 0.530406 -2 0 -2 
C -0.530406 -2 -1.03916 -1.789267 -1.414214 -1.414214 
C -1.789267 -1.03916 -2 -0.530406 -2 0 
C -2 0.530406 -1.789267 1.03916 -1.414214 1.414214 
C -1.03916 1.789267 -0.530406 2 0 2 
z
"/>
    </defs>
    <g clip-path="url(#pea2e257c34)">
     <use xlink:href="#Cc_0_f4e32a7d02" x="393.038788" y="71.186867" style="fill: #e41a1c; stroke: #000000"/>
    </g>
    <g clip-path="url(#pea2e257c34)">
     <use xlink:href="#Cc_0_f4e32a7d02" x="393.971161" y="71.186867" style="fill: #e41a1c; stroke: #000000"/>
    </g>
    <g clip-path="url(#pea2e257c34)">
     <use xlink:href="#Cc_0_f4e32a7d02" x="394.90202" y="71.186867" style="fill: #e41a1c; stroke: #000000"/>
    </g>
    <g clip-path="url(#pea2e257c34)">
     <use xlink:href="#Cc_0_f4e32a7d02" x="394.032837" y="71.186867" style="fill: #e41a1c; stroke: #000000"/>
    </g>
   </g>
   <g id="PathCollection_14">
    <defs>
     <path id="Cd_0_295fa7182f" d="M 0 2 
C 0.530406 2 1.03916 1.789267 1.414214 1.414214 
C 1.789267 1.03916 2 0.530406 2 -0 
C 2 -0.530406 1.789267 -1.03916 1.414214 -1.414214 
C 1.03916 -1.789267 0.530406 -2 0 -2 
C -0.530406 -2 -1.03916 -1.789267 -1.414214 -1.414214 
C -1.789267 -1.03916 -2 -0.530406 -2 0 
C -2 0.530406 -1.789267 1.03916 -1.414214 1.414214 
C -1.03916 1.789267 -0.530406 2 0 2 
z
"/>
    </defs>
    <g clip-path="url(#pea2e257c34)">
     <use xlink:href="#Cd_0_295fa7182f" x="404.793961" y="71.965699" style="fill: #377eb8; stroke: #000000"/>
    </g>
    <g clip-path="url(#pea2e257c34)">
     <use xlink:href="#Cd_0_295fa7182f" x="406.087077" y="73.844059" style="fill: #377eb8; stroke: #000000"/>
    </g>
    <g clip-path="url(#pea2e257c34)">
     <use xlink:href="#Cd_0_295fa7182f" x="407.107124" y="68.789285" style="fill: #377eb8; stroke: #000000"/>
    </g>
    <g clip-path="url(#pea2e257c34)">
     <use xlink:href="#Cd_0_295fa7182f" x="407.174032" y="68.239521" style="fill: #377eb8; stroke: #000000"/>
    </g>
   </g>
   <g id="PathCollection_15">
    <defs>
     <path id="Ce_0_54d4756e4f" d="M 0 2 
C 0.530406 2 1.03916 1.789267 1.414214 1.414214 
C 1.789267 1.03916 2 0.530406 2 -0 
C 2 -0.530406 1.789267 -1.03916 1.414214 -1.414214 
C 1.03916 -1.789267 0.530406 -2 0 -2 
C -0.530406 -2 -1.03916 -1.789267 -1.414214 -1.414214 
C -1.789267 -1.03916 -2 -0.530406 -2 0 
C -2 0.530406 -1.789267 1.03916 -1.414214 1.414214 
C -1.03916 1.789267 -0.530406 2 0 2 
z
"/>
    </defs>
    <g clip-path="url(#pea2e257c34)">
     <use xlink:href="#Ce_0_54d4756e4f" x="419.904671" y="67.567587" style="fill: #4daf4a; stroke: #000000"/>
    </g>
    <g clip-path="url(#pea2e257c34)">
     <use xlink:href="#Ce_0_54d4756e4f" x="421.413035" y="67.873011" style="fill: #4daf4a; stroke: #000000"/>
    </g>
    <g clip-path="url(#pea2e257c34)">
     <use xlink:href="#Ce_0_54d4756e4f" x="422.636265" y="67.934096" style="fill: #4daf4a; stroke: #000000"/>
    </g>
    <g clip-path="url(#pea2e257c34)">
     <use xlink:href="#Ce_0_54d4756e4f" x="420.254373" y="65.872481" style="fill: #4daf4a; stroke: #000000"/>
    </g>
   </g>
   <g id="text_50">
    <!-- BAT1-mB -->
    <g transform="translate(392.29974 12.210469) scale(0.07 -0.07)">
     <use xlink:href="#ArialMT-42"/>
     <use xlink:href="#ArialMT-41" x="66.699219"/>
     <use xlink:href="#ArialMT-54" x="126.023438"/>
     <use xlink:href="#ArialMT-31" x="187.107422"/>
     <use xlink:href="#ArialMT-2d" x="242.722656"/>
     <use xlink:href="#ArialMT-6d" x="276.023438"/>
     <use xlink:href="#ArialMT-42" x="359.324219"/>
    </g>
   </g>
  </g>
 </g>
 <defs>
  <clipPath id="p91a65014d6">
   <rect x="33.509438" y="16.210469" width="51.978466" height="73.301864"/>
  </clipPath>
  <clipPath id="p966481f7be">
   <rect x="120.437341" y="16.210469" width="51.978466" height="73.301864"/>
  </clipPath>
  <clipPath id="p4e5729ffd6">
   <rect x="207.365245" y="16.210469" width="51.978467" height="73.301864"/>
  </clipPath>
  <clipPath id="p5a58397d51">
   <rect x="294.29315" y="16.210469" width="51.978466" height="73.301864"/>
  </clipPath>
  <clipPath id="pea2e257c34">
   <rect x="381.221053" y="16.210469" width="51.978467" height="73.301864"/>
  </clipPath>
 </defs>
</svg>
