<?xml version="1.0" encoding="utf-8" standalone="no"?>
<!DOCTYPE svg PUBLIC "-//W3C//DTD SVG 1.1//EN"
  "http://www.w3.org/Graphics/SVG/1.1/DTD/svg11.dtd">
<svg xmlns:xlink="http://www.w3.org/1999/xlink" width="101.265625pt" height="64.097719pt" viewBox="0 0 101.265625 64.097719" xmlns="http://www.w3.org/2000/svg" version="1.1">
 <metadata>
  <rdf:RDF xmlns:dc="http://purl.org/dc/elements/1.1/" xmlns:cc="http://creativecommons.org/ns#" xmlns:rdf="http://www.w3.org/1999/02/22-rdf-syntax-ns#">
   <cc:Work>
    <dc:type rdf:resource="http://purl.org/dc/dcmitype/StillImage"/>
    <dc:date>2024-02-05T12:45:29.500566</dc:date>
    <dc:format>image/svg+xml</dc:format>
    <dc:creator>
     <cc:Agent>
      <dc:title>Matplotlib v3.6.3, https://matplotlib.org/</dc:title>
     </cc:Agent>
    </dc:creator>
   </cc:Work>
  </rdf:RDF>
 </metadata>
 <defs>
  <style type="text/css">*{stroke-linejoin: round; stroke-linecap: butt}</style>
 </defs>
 <g id="figure_1">
  <g id="patch_1">
   <path d="M -0 64.097719 
L 101.265625 64.097719 
L 101.265625 0 
L -0 0 
z
" style="fill: #ffffff"/>
  </g>
  <g id="axes_1">
   <g id="patch_2">
    <path d="M 27.105625 38.88 
L 94.065625 38.88 
L 94.065625 7.2 
L 27.105625 7.2 
z
" style="fill: #ffffff"/>
   </g>
   <g id="line2d_1">
    <path d="M 27.105625 38.88 
L 94.065625 38.88 
" clip-path="url(#pfe6878674b)" style="fill: none; stroke: #000000; stroke-width: 0.5; stroke-linecap: square"/>
   </g>
   <g id="patch_3">
    <path d="M 31.383678 38.70862 
L 31.383678 38.633531 
L 35.107134 38.633531 
L 35.107134 38.811039 
Q 34.563741 38.838371 33.532975 38.859185 
Q 32.504076 38.88 31.447167 38.88 
Q 30.106424 38.88 29.107403 38.850723 
Q 28.110249 38.821349 27.607937 38.766784 
Q 27.105625 38.712218 27.105625 38.648121 
Q 27.105625 38.578479 27.665824 38.5244 
Q 28.226023 38.470321 29.30534 38.441434 
Q 30.128832 38.419257 31.353801 38.419257 
Q 32.946634 38.419257 33.842952 38.454078 
Q 34.73927 38.488801 34.995095 38.550175 
L 33.280886 38.566905 
Q 33.099755 38.534127 32.59931 38.51516 
Q 32.100733 38.496096 31.353801 38.496096 
Q 30.222199 38.496096 29.553695 38.533543 
Q 28.885191 38.570893 28.885191 38.644425 
Q 28.885191 38.723793 29.561164 38.763477 
Q 30.239005 38.803064 31.336995 38.803064 
Q 31.880388 38.803064 32.425648 38.791975 
Q 32.970909 38.780887 33.361181 38.76513 
L 33.361181 38.70862 
L 31.383678 38.70862 
z
" clip-path="url(#pfe6878674b)" style="fill: #dc9514"/>
   </g>
   <g id="patch_4">
    <path d="M 35.107134 38.419257 
L 33.356097 38.419257 
L 32.65986 38.314427 
L 29.471092 38.314427 
L 28.813147 38.419257 
L 27.105625 38.419257 
L 30.210844 37.957944 
L 31.914886 37.957944 
L 35.107134 38.419257 
z
M 32.142903 38.236685 
L 31.044589 38.065493 
L 29.967161 38.236685 
L 32.142903 38.236685 
z
" clip-path="url(#pfe6878674b)" style="fill: #0e927b"/>
   </g>
   <g id="patch_5">
    <path d="M 33.30875 37.616988 
L 35.107134 37.671944 
Q 34.694127 37.817072 33.731781 37.887508 
Q 32.769435 37.957944 31.291832 37.957944 
Q 29.461369 37.957944 28.282494 37.83739 
Q 27.105625 37.716643 27.105625 37.507465 
Q 27.105625 37.286095 28.288509 37.1638 
Q 29.473398 37.041312 31.404106 37.041312 
Q 33.090217 37.041312 34.142783 37.13729 
Q 34.768308 37.19418 35.081071 37.300608 
L 33.246598 37.342986 
Q 33.082197 37.274098 32.564936 37.234236 
Q 32.04968 37.19418 31.309876 37.19418 
Q 30.289388 37.19418 29.651833 37.265003 
Q 29.016284 37.335632 29.016284 37.494113 
Q 29.016284 37.662269 29.641809 37.733672 
Q 30.269339 37.804882 31.271783 37.804882 
Q 32.011587 37.804882 32.542882 37.759601 
Q 33.076183 37.714321 33.30875 37.616988 
z
" clip-path="url(#pfe6878674b)" style="fill: #59a9d8"/>
   </g>
   <g id="patch_6">
    <path d="M 30.093002 37.041312 
L 30.093002 35.322211 
L 27.105625 35.322211 
L 27.105625 34.972158 
L 35.107134 34.972158 
L 35.107134 35.322211 
L 32.126352 35.322211 
L 32.126352 37.041312 
L 30.093002 37.041312 
z
" clip-path="url(#pfe6878674b)" style="fill: #1a1a1a"/>
   </g>
   <g id="patch_7">
    <path d="M 41.731391 38.879426 
L 43.529776 38.879519 
Q 43.116769 38.879763 42.154423 38.879882 
Q 41.192076 38.88 39.714473 38.88 
Q 37.88401 38.88 36.705136 38.879797 
Q 35.528267 38.879594 35.528267 38.879242 
Q 35.528267 38.87887 36.711151 38.878664 
Q 37.89604 38.878458 39.826747 38.878458 
Q 41.512858 38.878458 42.565425 38.878619 
Q 43.19095 38.878715 43.503712 38.878894 
L 41.66924 38.878965 
Q 41.504839 38.87885 40.987578 38.878782 
Q 40.472321 38.878715 39.732517 38.878715 
Q 38.712029 38.878715 38.074475 38.878834 
Q 37.438925 38.878953 37.438925 38.87922 
Q 37.438925 38.879503 38.06445 38.879623 
Q 38.69198 38.879742 39.694425 38.879742 
Q 40.434228 38.879742 40.965524 38.879666 
Q 41.498824 38.87959 41.731391 38.879426 
z
" clip-path="url(#pfe6878674b)" style="fill: #59a9d8"/>
   </g>
   <g id="patch_8">
    <path d="M 39.80632 38.877884 
L 39.80632 38.877633 
L 43.529776 38.877633 
L 43.529776 38.878227 
Q 42.986383 38.878319 41.955617 38.878388 
Q 40.926718 38.878458 39.869809 38.878458 
Q 38.529066 38.878458 37.530044 38.87836 
Q 36.53289 38.878262 36.030578 38.878079 
Q 35.528267 38.877896 35.528267 38.877682 
Q 35.528267 38.877449 36.088466 38.877268 
Q 36.648665 38.877087 37.727981 38.87699 
Q 38.551474 38.876916 39.776442 38.876916 
Q 41.369275 38.876916 42.265593 38.877032 
Q 43.161912 38.877149 43.417736 38.877354 
L 41.703527 38.87741 
Q 41.522396 38.8773 41.021952 38.877237 
Q 40.523374 38.877173 39.776442 38.877173 
Q 38.64484 38.877173 37.976336 38.877298 
Q 37.307832 38.877423 37.307832 38.877669 
Q 37.307832 38.877935 37.983806 38.878068 
Q 38.661646 38.8782 39.759636 38.8782 
Q 40.30303 38.8782 40.84829 38.878163 
Q 41.39355 38.878126 41.783822 38.878073 
L 41.783822 38.877884 
L 39.80632 38.877884 
z
" clip-path="url(#pfe6878674b)" style="fill: #dc9514"/>
   </g>
   <g id="patch_9">
    <path d="M 43.529776 38.876916 
L 41.778739 38.876916 
L 41.082501 38.600677 
L 37.893733 38.600677 
L 37.235789 38.876916 
L 35.528267 38.876916 
L 38.633486 37.661307 
L 40.337527 37.661307 
L 43.529776 38.876916 
z
M 40.565545 38.39582 
L 39.46723 37.94471 
L 38.389803 38.39582 
L 40.565545 38.39582 
z
" clip-path="url(#pfe6878674b)" style="fill: #0e927b"/>
   </g>
   <g id="patch_10">
    <path d="M 38.515643 37.661307 
L 38.515643 20.105392 
L 35.528267 20.105392 
L 35.528267 16.530553 
L 43.529776 16.530553 
L 43.529776 20.105392 
L 40.548994 20.105392 
L 40.548994 37.661307 
L 38.515643 37.661307 
z
" clip-path="url(#pfe6878674b)" style="fill: #1a1a1a"/>
   </g>
   <g id="patch_11">
    <path d="M 50.154033 38.87933 
L 51.952417 38.879438 
Q 51.53941 38.879723 50.577064 38.879862 
Q 49.614718 38.88 48.137115 38.88 
Q 46.306652 38.88 45.127777 38.879763 
Q 43.950908 38.879526 43.950908 38.879115 
Q 43.950908 38.878681 45.133792 38.878441 
Q 46.318681 38.8782 48.249389 38.8782 
Q 49.9355 38.8782 50.988066 38.878389 
Q 51.613591 38.8785 51.926354 38.878709 
L 50.091881 38.878792 
Q 49.92748 38.878657 49.410219 38.878579 
Q 48.894963 38.8785 48.155159 38.8785 
Q 47.134671 38.8785 46.497116 38.878639 
Q 45.861567 38.878778 45.861567 38.879089 
Q 45.861567 38.879419 46.487092 38.87956 
Q 47.114622 38.879699 48.117066 38.879699 
Q 48.85687 38.879699 49.388165 38.879611 
Q 49.921466 38.879522 50.154033 38.87933 
z
" clip-path="url(#pfe6878674b)" style="fill: #59a9d8"/>
   </g>
   <g id="patch_12">
    <path d="M 48.228961 38.877531 
L 48.228961 38.877237 
L 51.952417 38.877237 
L 51.952417 38.877931 
Q 51.409024 38.878037 50.378258 38.878119 
Q 49.349359 38.8782 48.29245 38.8782 
Q 46.951707 38.8782 45.952686 38.878086 
Q 44.955532 38.877971 44.45322 38.877758 
Q 43.950908 38.877545 43.950908 38.877294 
Q 43.950908 38.877022 44.511107 38.876811 
Q 45.071306 38.8766 46.150623 38.876487 
Q 46.974115 38.8764 48.199084 38.8764 
Q 49.791917 38.8764 50.688235 38.876536 
Q 51.584553 38.876672 51.840378 38.876912 
L 50.126169 38.876977 
Q 49.945038 38.876849 49.444593 38.876775 
Q 48.946016 38.8767 48.199084 38.8767 
Q 47.067482 38.8767 46.398978 38.876847 
Q 45.730474 38.876993 45.730474 38.87728 
Q 45.730474 38.87759 46.406447 38.877745 
Q 47.084288 38.8779 48.182278 38.8779 
Q 48.725671 38.8779 49.270931 38.877856 
Q 49.816192 38.877813 50.206464 38.877751 
L 50.206464 38.877531 
L 48.228961 38.877531 
z
" clip-path="url(#pfe6878674b)" style="fill: #dc9514"/>
   </g>
   <g id="patch_13">
    <path d="M 46.938285 38.8764 
L 46.938285 38.830866 
L 43.950908 38.830866 
L 43.950908 38.821594 
L 51.952417 38.821594 
L 51.952417 38.830866 
L 48.971635 38.830866 
L 48.971635 38.8764 
L 46.938285 38.8764 
z
" clip-path="url(#pfe6878674b)" style="fill: #1a1a1a"/>
   </g>
   <g id="patch_14">
    <path d="M 51.952417 38.821594 
L 50.20138 38.821594 
L 49.505143 32.907109 
L 46.316375 32.907109 
L 45.65843 38.821594 
L 43.950908 38.821594 
L 47.056127 12.79445 
L 48.760169 12.79445 
L 51.952417 38.821594 
z
M 48.988186 28.520958 
L 47.889872 18.862337 
L 46.812444 28.520958 
L 48.988186 28.520958 
z
" clip-path="url(#pfe6878674b)" style="fill: #0e927b"/>
   </g>
   <g id="patch_15">
    <path d="M 58.576674 38.879324 
L 60.375059 38.879433 
Q 59.962052 38.879721 58.999706 38.87986 
Q 58.037359 38.88 56.559756 38.88 
Q 54.729293 38.88 53.550419 38.879761 
Q 52.37355 38.879521 52.37355 38.879106 
Q 52.37355 38.878667 53.556434 38.878424 
Q 54.741323 38.878181 56.67203 38.878181 
Q 58.358141 38.878181 59.410708 38.878372 
Q 60.036233 38.878485 60.348995 38.878696 
L 58.514523 38.87878 
Q 58.350122 38.878643 57.832861 38.878564 
Q 57.317604 38.878485 56.5778 38.878485 
Q 55.557312 38.878485 54.919758 38.878625 
Q 54.284208 38.878765 54.284208 38.87908 
Q 54.284208 38.879413 54.909733 38.879555 
Q 55.537263 38.879696 56.539708 38.879696 
Q 57.279511 38.879696 57.810807 38.879606 
Q 58.344107 38.879517 58.576674 38.879324 
z
" clip-path="url(#pfe6878674b)" style="fill: #59a9d8"/>
   </g>
   <g id="patch_16">
    <path d="M 56.651603 38.877505 
L 56.651603 38.877209 
L 60.375059 38.877209 
L 60.375059 38.877909 
Q 59.831666 38.878017 58.8009 38.878099 
Q 57.772001 38.878181 56.715092 38.878181 
Q 55.374349 38.878181 54.375327 38.878066 
Q 53.378173 38.87795 52.875861 38.877735 
Q 52.37355 38.877519 52.37355 38.877266 
Q 52.37355 38.876991 52.933749 38.876778 
Q 53.493948 38.876564 54.573264 38.87645 
Q 55.396757 38.876363 56.621725 38.876363 
Q 58.214558 38.876363 59.110876 38.8765 
Q 60.007195 38.876637 60.263019 38.87688 
L 58.54881 38.876946 
Q 58.367679 38.876816 57.867235 38.876741 
Q 57.368658 38.876666 56.621725 38.876666 
Q 55.490123 38.876666 54.821619 38.876814 
Q 54.153115 38.876961 54.153115 38.877252 
Q 54.153115 38.877565 54.829089 38.877721 
Q 55.506929 38.877878 56.60492 38.877878 
Q 57.148313 38.877878 57.693573 38.877834 
Q 58.238833 38.87779 58.629105 38.877728 
L 58.629105 38.877505 
L 56.651603 38.877505 
z
" clip-path="url(#pfe6878674b)" style="fill: #dc9514"/>
   </g>
   <g id="patch_17">
    <path d="M 55.360926 38.876363 
L 55.360926 38.874655 
L 52.37355 38.874655 
L 52.37355 38.874307 
L 60.375059 38.874307 
L 60.375059 38.874655 
L 57.394277 38.874655 
L 57.394277 38.876363 
L 55.360926 38.876363 
z
" clip-path="url(#pfe6878674b)" style="fill: #1a1a1a"/>
   </g>
   <g id="patch_18">
    <path d="M 60.375059 38.874307 
L 58.624022 38.874307 
L 57.927784 32.886236 
L 54.739016 32.886236 
L 54.081072 38.874307 
L 52.37355 38.874307 
L 55.478769 12.523343 
L 57.18281 12.523343 
L 60.375059 38.874307 
z
M 57.410828 28.445515 
L 56.312513 18.666724 
L 55.235086 28.445515 
L 57.410828 28.445515 
z
" clip-path="url(#pfe6878674b)" style="fill: #0e927b"/>
   </g>
   <g id="patch_19">
    <path d="M 66.999316 38.879338 
L 68.7977 38.879445 
Q 68.384693 38.879726 67.422347 38.879863 
Q 66.460001 38.88 64.982398 38.88 
Q 63.151935 38.88 61.973061 38.879766 
Q 60.796191 38.879531 60.796191 38.879125 
Q 60.796191 38.878695 61.979075 38.878458 
Q 63.163964 38.87822 65.094672 38.87822 
Q 66.780783 38.87822 67.833349 38.878406 
Q 68.458874 38.878517 68.771637 38.878723 
L 66.937164 38.878806 
Q 66.772763 38.878672 66.255502 38.878595 
Q 65.740246 38.878517 65.000442 38.878517 
Q 63.979954 38.878517 63.342399 38.878654 
Q 62.70685 38.878791 62.70685 38.879099 
Q 62.70685 38.879426 63.332375 38.879564 
Q 63.959905 38.879703 64.962349 38.879703 
Q 65.702153 38.879703 66.233448 38.879615 
Q 66.766749 38.879527 66.999316 38.879338 
z
" clip-path="url(#pfe6878674b)" style="fill: #59a9d8"/>
   </g>
   <g id="patch_20">
    <path d="M 65.074244 38.877558 
L 65.074244 38.877268 
L 68.7977 38.877268 
L 68.7977 38.877954 
Q 68.254307 38.878059 67.223541 38.87814 
Q 66.194642 38.87822 65.137733 38.87822 
Q 63.79699 38.87822 62.797969 38.878107 
Q 61.800815 38.877993 61.298503 38.877783 
Q 60.796191 38.877572 60.796191 38.877324 
Q 60.796191 38.877055 61.35639 38.876846 
Q 61.916589 38.876637 62.995906 38.876526 
Q 63.819398 38.87644 65.044367 38.87644 
Q 66.6372 38.87644 67.533518 38.876574 
Q 68.429836 38.876709 68.685661 38.876946 
L 66.971452 38.87701 
Q 66.790321 38.876884 66.289876 38.87681 
Q 65.791299 38.876737 65.044367 38.876737 
Q 63.912765 38.876737 63.244261 38.876881 
Q 62.575757 38.877026 62.575757 38.87731 
Q 62.575757 38.877616 63.25173 38.87777 
Q 63.929571 38.877923 65.027561 38.877923 
Q 65.570954 38.877923 66.116214 38.87788 
Q 66.661475 38.877837 67.051747 38.877776 
L 67.051747 38.877558 
L 65.074244 38.877558 
z
" clip-path="url(#pfe6878674b)" style="fill: #dc9514"/>
   </g>
   <g id="patch_21">
    <path d="M 68.7977 38.87644 
L 67.046663 38.87644 
L 66.350426 38.848593 
L 63.161658 38.848593 
L 62.503713 38.87644 
L 60.796191 38.87644 
L 63.90141 38.753899 
L 65.605452 38.753899 
L 68.7977 38.87644 
z
M 65.833469 38.827943 
L 64.735155 38.782468 
L 63.657727 38.827943 
L 65.833469 38.827943 
z
" clip-path="url(#pfe6878674b)" style="fill: #0e927b"/>
   </g>
   <g id="patch_22">
    <path d="M 63.783568 38.753899 
L 63.783568 17.425052 
L 60.796191 17.425052 
L 60.796191 13.081947 
L 68.7977 13.081947 
L 68.7977 17.425052 
L 65.816918 17.425052 
L 65.816918 38.753899 
L 63.783568 38.753899 
z
" clip-path="url(#pfe6878674b)" style="fill: #1a1a1a"/>
   </g>
   <g id="patch_23">
    <path d="M 73.496886 38.821409 
L 73.496886 38.795738 
L 77.220342 38.795738 
L 77.220342 38.856424 
Q 76.676949 38.865768 75.646183 38.872884 
Q 74.617284 38.88 73.560375 38.88 
Q 72.219632 38.88 71.22061 38.869991 
Q 70.223456 38.859949 69.721144 38.841294 
Q 69.218833 38.822639 69.218833 38.800726 
Q 69.218833 38.776917 69.779032 38.758428 
Q 70.339231 38.73994 71.418547 38.730064 
Q 72.24204 38.722482 73.467009 38.722482 
Q 75.059841 38.722482 75.95616 38.734387 
Q 76.852478 38.746258 77.108302 38.76724 
L 75.394093 38.77296 
Q 75.212962 38.761754 74.712518 38.755269 
Q 74.213941 38.748752 73.467009 38.748752 
Q 72.335406 38.748752 71.666902 38.761554 
Q 70.998398 38.774323 70.998398 38.799462 
Q 70.998398 38.826596 71.674372 38.840163 
Q 72.352212 38.853697 73.450203 38.853697 
Q 73.993596 38.853697 74.538856 38.849906 
Q 75.084116 38.846116 75.474388 38.840729 
L 75.474388 38.821409 
L 73.496886 38.821409 
z
" clip-path="url(#pfe6878674b)" style="fill: #dc9514"/>
   </g>
   <g id="patch_24">
    <path d="M 77.220342 38.722482 
L 75.469305 38.722482 
L 74.773067 38.61578 
L 71.584299 38.61578 
L 70.926355 38.722482 
L 69.218833 38.722482 
L 72.324052 38.25293 
L 74.028093 38.25293 
L 77.220342 38.722482 
z
M 74.256111 38.53665 
L 73.157796 38.3624 
L 72.080369 38.53665 
L 74.256111 38.53665 
z
" clip-path="url(#pfe6878674b)" style="fill: #0e927b"/>
   </g>
   <g id="patch_25">
    <path d="M 72.206209 38.25293 
L 72.206209 37.438382 
L 69.218833 37.438382 
L 69.218833 37.272519 
L 77.220342 37.272519 
L 77.220342 37.438382 
L 74.23956 37.438382 
L 74.23956 38.25293 
L 72.206209 38.25293 
z
" clip-path="url(#pfe6878674b)" style="fill: #1a1a1a"/>
   </g>
   <g id="patch_26">
    <path d="M 75.421957 30.574823 
L 77.220342 31.654361 
Q 76.807335 34.505253 75.844989 35.888886 
Q 74.882642 37.272519 73.405039 37.272519 
Q 71.574576 37.272519 70.395702 34.904378 
Q 69.218833 32.532435 69.218833 28.42335 
Q 69.218833 24.074789 70.401717 21.672437 
Q 71.586606 19.266284 73.517313 19.266284 
Q 75.203424 19.266284 76.255991 21.151674 
Q 76.881516 22.269224 77.194278 24.359878 
L 75.359806 25.192339 
Q 75.195405 23.839115 74.678144 23.05607 
Q 74.162887 22.269224 73.423083 22.269224 
Q 72.402595 22.269224 71.765041 23.660459 
Q 71.129491 25.047893 71.129491 28.161068 
Q 71.129491 31.464301 71.755016 32.86694 
Q 72.382546 34.265778 73.384991 34.265778 
Q 74.124794 34.265778 74.65609 33.3763 
Q 75.18939 32.486821 75.421957 30.574823 
z
" clip-path="url(#pfe6878674b)" style="fill: #59a9d8"/>
   </g>
   <g id="patch_27">
    <path d="M 81.919527 38.866947 
L 81.919527 38.861228 
L 85.642983 38.861228 
L 85.642983 38.874748 
Q 85.09959 38.876829 84.068824 38.878415 
Q 83.039925 38.88 81.983017 38.88 
Q 80.642274 38.88 79.643252 38.87777 
Q 78.646098 38.875533 78.143786 38.871377 
Q 77.641474 38.867221 77.641474 38.862339 
Q 77.641474 38.857035 78.201673 38.852917 
Q 78.761872 38.848798 79.841189 38.846598 
Q 80.664681 38.844909 81.88965 38.844909 
Q 83.482483 38.844909 84.378801 38.847561 
Q 85.275119 38.850205 85.530944 38.85488 
L 83.816735 38.856154 
Q 83.635604 38.853657 83.135159 38.852213 
Q 82.636582 38.850761 81.88965 38.850761 
Q 80.758048 38.850761 80.089544 38.853613 
Q 79.42104 38.856458 79.42104 38.862058 
Q 79.42104 38.868103 80.097013 38.871125 
Q 80.774854 38.87414 81.872844 38.87414 
Q 82.416237 38.87414 82.961497 38.873296 
Q 83.506758 38.872451 83.89703 38.871251 
L 83.89703 38.866947 
L 81.919527 38.866947 
z
" clip-path="url(#pfe6878674b)" style="fill: #dc9514"/>
   </g>
   <g id="patch_28">
    <path d="M 85.642983 38.844909 
L 83.891946 38.844909 
L 83.195709 38.81671 
L 80.006941 38.81671 
L 79.348997 38.844909 
L 77.641474 38.844909 
L 80.746693 38.720819 
L 82.450735 38.720819 
L 85.642983 38.844909 
z
M 82.678752 38.795798 
L 81.580438 38.749749 
L 80.50301 38.795798 
L 82.678752 38.795798 
z
" clip-path="url(#pfe6878674b)" style="fill: #0e927b"/>
   </g>
   <g id="patch_29">
    <path d="M 80.628851 38.720819 
L 80.628851 37.042875 
L 77.641474 37.042875 
L 77.641474 36.701202 
L 85.642983 36.701202 
L 85.642983 37.042875 
L 82.662201 37.042875 
L 82.662201 38.720819 
L 80.628851 38.720819 
z
" clip-path="url(#pfe6878674b)" style="fill: #1a1a1a"/>
   </g>
   <g id="patch_30">
    <path d="M 83.844599 30.463684 
L 85.642983 31.46905 
Q 85.229976 34.124066 84.26763 35.412634 
Q 83.305284 36.701202 81.827681 36.701202 
Q 79.997218 36.701202 78.818344 34.495769 
Q 77.641474 32.286795 77.641474 28.460032 
Q 77.641474 24.410247 78.824358 22.172953 
Q 80.009247 19.932119 81.939955 19.932119 
Q 83.626066 19.932119 84.678632 21.68797 
Q 85.304157 22.728736 85.61692 24.675748 
L 83.782447 25.451013 
Q 83.618046 24.190765 83.100785 23.461521 
Q 82.585529 22.728736 81.845725 22.728736 
Q 80.825237 22.728736 80.187682 24.024384 
Q 79.552133 25.316492 79.552133 28.21577 
Q 79.552133 31.292049 80.177658 32.598317 
Q 80.805188 33.901045 81.807632 33.901045 
Q 82.547436 33.901045 83.078731 33.07268 
Q 83.612032 32.244315 83.844599 30.463684 
z
" clip-path="url(#pfe6878674b)" style="fill: #59a9d8"/>
   </g>
   <g id="patch_31">
    <path d="M 90.342169 38.795534 
L 90.342169 38.758526 
L 94.065625 38.758526 
L 94.065625 38.846012 
Q 93.522232 38.859483 92.491466 38.869741 
Q 91.462567 38.88 90.405658 38.88 
Q 89.064915 38.88 88.065893 38.865571 
Q 87.068739 38.851094 86.566427 38.8242 
Q 86.064116 38.797307 86.064116 38.765716 
Q 86.064116 38.731393 86.624315 38.70474 
Q 87.184514 38.678086 88.26383 38.663849 
Q 89.087323 38.652919 90.312292 38.652919 
Q 91.905124 38.652919 92.801443 38.670081 
Q 93.697761 38.687194 93.953585 38.717443 
L 92.239376 38.725688 
Q 92.058245 38.709533 91.557801 38.700186 
Q 91.059224 38.69079 90.312292 38.69079 
Q 89.180689 38.69079 88.512185 38.709246 
Q 87.843681 38.727654 87.843681 38.763895 
Q 87.843681 38.803012 88.519655 38.822571 
Q 89.197495 38.842081 90.295486 38.842081 
Q 90.838879 38.842081 91.384139 38.836616 
Q 91.929399 38.831151 92.319671 38.823386 
L 92.319671 38.795534 
L 90.342169 38.795534 
z
" clip-path="url(#pfe6878674b)" style="fill: #dc9514"/>
   </g>
   <g id="patch_32">
    <path d="M 94.065625 38.652919 
L 92.314588 38.652919 
L 91.61835 38.499766 
L 88.429582 38.499766 
L 87.771638 38.652919 
L 86.064116 38.652919 
L 89.169335 37.978957 
L 90.873376 37.978957 
L 94.065625 38.652919 
z
M 91.101394 38.386188 
L 90.003079 38.136082 
L 88.925652 38.386188 
L 91.101394 38.386188 
z
" clip-path="url(#pfe6878674b)" style="fill: #0e927b"/>
   </g>
   <g id="patch_33">
    <path d="M 89.051492 37.978957 
L 89.051492 36.132065 
L 86.064116 36.132065 
L 86.064116 35.75599 
L 94.065625 35.75599 
L 94.065625 36.132065 
L 91.084843 36.132065 
L 91.084843 37.978957 
L 89.051492 37.978957 
z
" clip-path="url(#pfe6878674b)" style="fill: #1a1a1a"/>
   </g>
   <g id="patch_34">
    <path d="M 92.26724 33.885221 
L 94.065625 34.186753 
Q 93.652618 34.98305 92.690272 35.36952 
Q 91.727925 35.75599 90.250322 35.75599 
Q 88.419859 35.75599 87.240985 35.094532 
Q 86.064116 34.432012 86.064116 33.284282 
Q 86.064116 32.069662 87.247 31.398649 
Q 88.431889 30.726573 90.362596 30.726573 
Q 92.048707 30.726573 93.101274 31.253192 
Q 93.726799 31.56534 94.039561 32.149292 
L 92.205089 32.381811 
Q 92.040688 32.003835 91.523427 31.785118 
Q 91.00817 31.56534 90.268366 31.56534 
Q 89.247878 31.56534 88.610324 31.953934 
Q 87.974774 32.341465 87.974774 33.211022 
Q 87.974774 34.133666 88.600299 34.525445 
Q 89.227829 34.916161 90.230274 34.916161 
Q 90.970077 34.916161 91.501373 34.667716 
Q 92.034673 34.419272 92.26724 33.885221 
z
" clip-path="url(#pfe6878674b)" style="fill: #59a9d8"/>
   </g>
   <g id="matplotlib.axis_1">
    <g id="xtick_1">
     <g id="text_1">
      <!-- 1 -->
      <g transform="translate(29.438098 45.674687) scale(0.06 -0.06)">
       <defs>
        <path id="ArialMT-31" d="M 2384 0 
L 1822 0 
L 1822 3584 
Q 1619 3391 1289 3197 
Q 959 3003 697 2906 
L 697 3450 
Q 1169 3672 1522 3987 
Q 1875 4303 2022 4600 
L 2384 4600 
L 2384 0 
z
" transform="scale(0.015625)"/>
       </defs>
       <use xlink:href="#ArialMT-31"/>
      </g>
     </g>
    </g>
    <g id="xtick_2">
     <g id="text_2">
      <!-- 2 -->
      <g transform="translate(37.86074 45.674687) scale(0.06 -0.06)">
       <defs>
        <path id="ArialMT-32" d="M 3222 541 
L 3222 0 
L 194 0 
Q 188 203 259 391 
Q 375 700 629 1000 
Q 884 1300 1366 1694 
Q 2113 2306 2375 2664 
Q 2638 3022 2638 3341 
Q 2638 3675 2398 3904 
Q 2159 4134 1775 4134 
Q 1369 4134 1125 3890 
Q 881 3647 878 3216 
L 300 3275 
Q 359 3922 746 4261 
Q 1134 4600 1788 4600 
Q 2447 4600 2831 4234 
Q 3216 3869 3216 3328 
Q 3216 3053 3103 2787 
Q 2991 2522 2730 2228 
Q 2469 1934 1863 1422 
Q 1356 997 1212 845 
Q 1069 694 975 541 
L 3222 541 
z
" transform="scale(0.015625)"/>
       </defs>
       <use xlink:href="#ArialMT-32"/>
      </g>
     </g>
    </g>
    <g id="xtick_3">
     <g id="text_3">
      <!-- 3 -->
      <g transform="translate(46.283381 45.674687) scale(0.06 -0.06)">
       <defs>
        <path id="ArialMT-33" d="M 269 1209 
L 831 1284 
Q 928 806 1161 595 
Q 1394 384 1728 384 
Q 2125 384 2398 659 
Q 2672 934 2672 1341 
Q 2672 1728 2419 1979 
Q 2166 2231 1775 2231 
Q 1616 2231 1378 2169 
L 1441 2663 
Q 1497 2656 1531 2656 
Q 1891 2656 2178 2843 
Q 2466 3031 2466 3422 
Q 2466 3731 2256 3934 
Q 2047 4138 1716 4138 
Q 1388 4138 1169 3931 
Q 950 3725 888 3313 
L 325 3413 
Q 428 3978 793 4289 
Q 1159 4600 1703 4600 
Q 2078 4600 2393 4439 
Q 2709 4278 2876 4000 
Q 3044 3722 3044 3409 
Q 3044 3113 2884 2869 
Q 2725 2625 2413 2481 
Q 2819 2388 3044 2092 
Q 3269 1797 3269 1353 
Q 3269 753 2831 336 
Q 2394 -81 1725 -81 
Q 1122 -81 723 278 
Q 325 638 269 1209 
z
" transform="scale(0.015625)"/>
       </defs>
       <use xlink:href="#ArialMT-33"/>
      </g>
     </g>
    </g>
    <g id="xtick_4">
     <g id="text_4">
      <!-- 4 -->
      <g transform="translate(54.706023 45.674687) scale(0.06 -0.06)">
       <defs>
        <path id="ArialMT-34" d="M 2069 0 
L 2069 1097 
L 81 1097 
L 81 1613 
L 2172 4581 
L 2631 4581 
L 2631 1613 
L 3250 1613 
L 3250 1097 
L 2631 1097 
L 2631 0 
L 2069 0 
z
M 2069 1613 
L 2069 3678 
L 634 1613 
L 2069 1613 
z
" transform="scale(0.015625)"/>
       </defs>
       <use xlink:href="#ArialMT-34"/>
      </g>
     </g>
    </g>
    <g id="xtick_5">
     <g id="text_5">
      <!-- 5 -->
      <g transform="translate(63.128665 45.674687) scale(0.06 -0.06)">
       <defs>
        <path id="ArialMT-35" d="M 266 1200 
L 856 1250 
Q 922 819 1161 601 
Q 1400 384 1738 384 
Q 2144 384 2425 690 
Q 2706 997 2706 1503 
Q 2706 1984 2436 2262 
Q 2166 2541 1728 2541 
Q 1456 2541 1237 2417 
Q 1019 2294 894 2097 
L 366 2166 
L 809 4519 
L 3088 4519 
L 3088 3981 
L 1259 3981 
L 1013 2750 
Q 1425 3038 1878 3038 
Q 2478 3038 2890 2622 
Q 3303 2206 3303 1553 
Q 3303 931 2941 478 
Q 2500 -78 1738 -78 
Q 1113 -78 717 272 
Q 322 622 266 1200 
z
" transform="scale(0.015625)"/>
       </defs>
       <use xlink:href="#ArialMT-35"/>
      </g>
     </g>
    </g>
    <g id="xtick_6">
     <g id="text_6">
      <!-- 6 -->
      <g transform="translate(71.551306 45.674687) scale(0.06 -0.06)">
       <defs>
        <path id="ArialMT-36" d="M 3184 3459 
L 2625 3416 
Q 2550 3747 2413 3897 
Q 2184 4138 1850 4138 
Q 1581 4138 1378 3988 
Q 1113 3794 959 3422 
Q 806 3050 800 2363 
Q 1003 2672 1297 2822 
Q 1591 2972 1913 2972 
Q 2475 2972 2870 2558 
Q 3266 2144 3266 1488 
Q 3266 1056 3080 686 
Q 2894 316 2569 119 
Q 2244 -78 1831 -78 
Q 1128 -78 684 439 
Q 241 956 241 2144 
Q 241 3472 731 4075 
Q 1159 4600 1884 4600 
Q 2425 4600 2770 4297 
Q 3116 3994 3184 3459 
z
M 888 1484 
Q 888 1194 1011 928 
Q 1134 663 1356 523 
Q 1578 384 1822 384 
Q 2178 384 2434 671 
Q 2691 959 2691 1453 
Q 2691 1928 2437 2201 
Q 2184 2475 1800 2475 
Q 1419 2475 1153 2201 
Q 888 1928 888 1484 
z
" transform="scale(0.015625)"/>
       </defs>
       <use xlink:href="#ArialMT-36"/>
      </g>
     </g>
    </g>
    <g id="xtick_7">
     <g id="text_7">
      <!-- 7 -->
      <g transform="translate(79.973948 45.674687) scale(0.06 -0.06)">
       <defs>
        <path id="ArialMT-37" d="M 303 3981 
L 303 4522 
L 3269 4522 
L 3269 4084 
Q 2831 3619 2401 2847 
Q 1972 2075 1738 1259 
Q 1569 684 1522 0 
L 944 0 
Q 953 541 1156 1306 
Q 1359 2072 1739 2783 
Q 2119 3494 2547 3981 
L 303 3981 
z
" transform="scale(0.015625)"/>
       </defs>
       <use xlink:href="#ArialMT-37"/>
      </g>
     </g>
    </g>
    <g id="xtick_8">
     <g id="text_8">
      <!-- 8 -->
      <g transform="translate(88.396589 45.674687) scale(0.06 -0.06)">
       <defs>
        <path id="ArialMT-38" d="M 1131 2484 
Q 781 2613 612 2850 
Q 444 3088 444 3419 
Q 444 3919 803 4259 
Q 1163 4600 1759 4600 
Q 2359 4600 2725 4251 
Q 3091 3903 3091 3403 
Q 3091 3084 2923 2848 
Q 2756 2613 2416 2484 
Q 2838 2347 3058 2040 
Q 3278 1734 3278 1309 
Q 3278 722 2862 322 
Q 2447 -78 1769 -78 
Q 1091 -78 675 323 
Q 259 725 259 1325 
Q 259 1772 486 2073 
Q 713 2375 1131 2484 
z
M 1019 3438 
Q 1019 3113 1228 2906 
Q 1438 2700 1772 2700 
Q 2097 2700 2305 2904 
Q 2513 3109 2513 3406 
Q 2513 3716 2298 3927 
Q 2084 4138 1766 4138 
Q 1444 4138 1231 3931 
Q 1019 3725 1019 3438 
z
M 838 1322 
Q 838 1081 952 856 
Q 1066 631 1291 507 
Q 1516 384 1775 384 
Q 2178 384 2440 643 
Q 2703 903 2703 1303 
Q 2703 1709 2433 1975 
Q 2163 2241 1756 2241 
Q 1359 2241 1098 1978 
Q 838 1716 838 1322 
z
" transform="scale(0.015625)"/>
       </defs>
       <use xlink:href="#ArialMT-38"/>
      </g>
     </g>
    </g>
   </g>
   <g id="matplotlib.axis_2">
    <g id="ytick_1">
     <g id="line2d_2">
      <defs>
       <path id="m0c8edb1bee" d="M 0 0 
L -3.5 0 
" style="stroke: #000000; stroke-width: 0.8"/>
      </defs>
      <g>
       <use xlink:href="#m0c8edb1bee" x="27.105625" y="38.88" style="stroke: #000000; stroke-width: 0.8"/>
      </g>
     </g>
     <g id="text_9">
      <!-- 0 -->
      <g transform="translate(16.769063 41.027344) scale(0.06 -0.06)">
       <defs>
        <path id="ArialMT-30" d="M 266 2259 
Q 266 3072 433 3567 
Q 600 4063 929 4331 
Q 1259 4600 1759 4600 
Q 2128 4600 2406 4451 
Q 2684 4303 2865 4023 
Q 3047 3744 3150 3342 
Q 3253 2941 3253 2259 
Q 3253 1453 3087 958 
Q 2922 463 2592 192 
Q 2263 -78 1759 -78 
Q 1097 -78 719 397 
Q 266 969 266 2259 
z
M 844 2259 
Q 844 1131 1108 757 
Q 1372 384 1759 384 
Q 2147 384 2411 759 
Q 2675 1134 2675 2259 
Q 2675 3391 2411 3762 
Q 2147 4134 1753 4134 
Q 1366 4134 1134 3806 
Q 844 3388 844 2259 
z
" transform="scale(0.015625)"/>
       </defs>
       <use xlink:href="#ArialMT-30"/>
      </g>
     </g>
    </g>
    <g id="ytick_2">
     <g id="line2d_3">
      <g>
       <use xlink:href="#m0c8edb1bee" x="27.105625" y="12.48" style="stroke: #000000; stroke-width: 0.8"/>
      </g>
     </g>
     <g id="text_10">
      <!-- 2 -->
      <g transform="translate(16.769063 14.627344) scale(0.06 -0.06)">
       <use xlink:href="#ArialMT-32"/>
      </g>
     </g>
    </g>
    <g id="text_11">
     <!-- IC (bits) -->
     <g transform="translate(12.295781 35.289453) rotate(-90) scale(0.07 -0.07)">
      <defs>
       <path id="ArialMT-49" d="M 597 0 
L 597 4581 
L 1203 4581 
L 1203 0 
L 597 0 
z
" transform="scale(0.015625)"/>
       <path id="ArialMT-43" d="M 3763 1606 
L 4369 1453 
Q 4178 706 3683 314 
Q 3188 -78 2472 -78 
Q 1731 -78 1267 223 
Q 803 525 561 1097 
Q 319 1669 319 2325 
Q 319 3041 592 3573 
Q 866 4106 1370 4382 
Q 1875 4659 2481 4659 
Q 3169 4659 3637 4309 
Q 4106 3959 4291 3325 
L 3694 3184 
Q 3534 3684 3231 3912 
Q 2928 4141 2469 4141 
Q 1941 4141 1586 3887 
Q 1231 3634 1087 3207 
Q 944 2781 944 2328 
Q 944 1744 1114 1308 
Q 1284 872 1643 656 
Q 2003 441 2422 441 
Q 2931 441 3284 734 
Q 3638 1028 3763 1606 
z
" transform="scale(0.015625)"/>
       <path id="ArialMT-20" transform="scale(0.015625)"/>
       <path id="ArialMT-28" d="M 1497 -1347 
Q 1031 -759 709 28 
Q 388 816 388 1659 
Q 388 2403 628 3084 
Q 909 3875 1497 4659 
L 1900 4659 
Q 1522 4009 1400 3731 
Q 1209 3300 1100 2831 
Q 966 2247 966 1656 
Q 966 153 1900 -1347 
L 1497 -1347 
z
" transform="scale(0.015625)"/>
       <path id="ArialMT-62" d="M 941 0 
L 419 0 
L 419 4581 
L 981 4581 
L 981 2947 
Q 1338 3394 1891 3394 
Q 2197 3394 2470 3270 
Q 2744 3147 2920 2923 
Q 3097 2700 3197 2384 
Q 3297 2069 3297 1709 
Q 3297 856 2875 390 
Q 2453 -75 1863 -75 
Q 1275 -75 941 416 
L 941 0 
z
M 934 1684 
Q 934 1088 1097 822 
Q 1363 388 1816 388 
Q 2184 388 2453 708 
Q 2722 1028 2722 1663 
Q 2722 2313 2464 2622 
Q 2206 2931 1841 2931 
Q 1472 2931 1203 2611 
Q 934 2291 934 1684 
z
" transform="scale(0.015625)"/>
       <path id="ArialMT-69" d="M 425 3934 
L 425 4581 
L 988 4581 
L 988 3934 
L 425 3934 
z
M 425 0 
L 425 3319 
L 988 3319 
L 988 0 
L 425 0 
z
" transform="scale(0.015625)"/>
       <path id="ArialMT-74" d="M 1650 503 
L 1731 6 
Q 1494 -44 1306 -44 
Q 1000 -44 831 53 
Q 663 150 594 308 
Q 525 466 525 972 
L 525 2881 
L 113 2881 
L 113 3319 
L 525 3319 
L 525 4141 
L 1084 4478 
L 1084 3319 
L 1650 3319 
L 1650 2881 
L 1084 2881 
L 1084 941 
Q 1084 700 1114 631 
Q 1144 563 1211 522 
Q 1278 481 1403 481 
Q 1497 481 1650 503 
z
" transform="scale(0.015625)"/>
       <path id="ArialMT-73" d="M 197 991 
L 753 1078 
Q 800 744 1014 566 
Q 1228 388 1613 388 
Q 2000 388 2187 545 
Q 2375 703 2375 916 
Q 2375 1106 2209 1216 
Q 2094 1291 1634 1406 
Q 1016 1563 777 1677 
Q 538 1791 414 1992 
Q 291 2194 291 2438 
Q 291 2659 392 2848 
Q 494 3038 669 3163 
Q 800 3259 1026 3326 
Q 1253 3394 1513 3394 
Q 1903 3394 2198 3281 
Q 2494 3169 2634 2976 
Q 2775 2784 2828 2463 
L 2278 2388 
Q 2241 2644 2061 2787 
Q 1881 2931 1553 2931 
Q 1166 2931 1000 2803 
Q 834 2675 834 2503 
Q 834 2394 903 2306 
Q 972 2216 1119 2156 
Q 1203 2125 1616 2013 
Q 2213 1853 2448 1751 
Q 2684 1650 2818 1456 
Q 2953 1263 2953 975 
Q 2953 694 2789 445 
Q 2625 197 2315 61 
Q 2006 -75 1616 -75 
Q 969 -75 630 194 
Q 291 463 197 991 
z
" transform="scale(0.015625)"/>
       <path id="ArialMT-29" d="M 791 -1347 
L 388 -1347 
Q 1322 153 1322 1656 
Q 1322 2244 1188 2822 
Q 1081 3291 891 3722 
Q 769 4003 388 4659 
L 791 4659 
Q 1378 3875 1659 3084 
Q 1900 2403 1900 1659 
Q 1900 816 1576 28 
Q 1253 -759 791 -1347 
z
" transform="scale(0.015625)"/>
      </defs>
      <use xlink:href="#ArialMT-49"/>
      <use xlink:href="#ArialMT-43" x="27.783203"/>
      <use xlink:href="#ArialMT-20" x="100"/>
      <use xlink:href="#ArialMT-28" x="127.783203"/>
      <use xlink:href="#ArialMT-62" x="161.083984"/>
      <use xlink:href="#ArialMT-69" x="216.699219"/>
      <use xlink:href="#ArialMT-74" x="238.916016"/>
      <use xlink:href="#ArialMT-73" x="266.699219"/>
      <use xlink:href="#ArialMT-29" x="316.699219"/>
     </g>
    </g>
   </g>
   <g id="patch_35">
    <path d="M 27.105625 38.88 
L 27.105625 7.2 
" style="fill: none; stroke: #000000; stroke-linejoin: miter; stroke-linecap: square"/>
   </g>
   <g id="patch_36">
    <path d="M 27.105625 38.88 
L 94.065625 38.88 
" style="fill: none; stroke: #000000; stroke-linejoin: miter; stroke-linecap: square"/>
   </g>
  </g>
  <g id="axes_2">
   <g id="text_12">
    <!-- E-value 3.3e-015 -->
    <g transform="translate(40.75625 55.506469) scale(0.07 -0.07)">
     <defs>
      <path id="Arial-ItalicMT-45" d="M 288 0 
L 1247 4581 
L 4553 4581 
L 4444 4059 
L 1750 4059 
L 1450 2634 
L 4075 2634 
L 3966 2113 
L 1341 2113 
L 1009 519 
L 3894 519 
L 3784 0 
L 288 0 
z
" transform="scale(0.015625)"/>
      <path id="Arial-ItalicMT-2d" d="M 297 1375 
L 416 1941 
L 2141 1941 
L 2025 1375 
L 297 1375 
z
" transform="scale(0.015625)"/>
      <path id="Arial-ItalicMT-76" d="M 1050 0 
L 506 3319 
L 1056 3319 
L 1341 1491 
Q 1388 1191 1456 513 
Q 1619 866 1872 1322 
L 2981 3319 
L 3578 3319 
L 1678 0 
L 1050 0 
z
" transform="scale(0.015625)"/>
      <path id="Arial-ItalicMT-61" d="M 2450 413 
Q 2156 159 1884 42 
Q 1613 -75 1303 -75 
Q 844 -75 562 195 
Q 281 466 281 888 
Q 281 1166 407 1380 
Q 534 1594 743 1723 
Q 953 1853 1256 1909 
Q 1447 1947 1980 1969 
Q 2513 1991 2744 2081 
Q 2809 2313 2809 2466 
Q 2809 2663 2666 2775 
Q 2469 2931 2091 2931 
Q 1734 2931 1507 2773 
Q 1281 2616 1178 2325 
L 606 2375 
Q 781 2869 1161 3131 
Q 1541 3394 2119 3394 
Q 2734 3394 3094 3100 
Q 3369 2881 3369 2531 
Q 3369 2266 3291 1916 
L 3106 1091 
Q 3019 697 3019 450 
Q 3019 294 3088 0 
L 2516 0 
Q 2469 163 2450 413 
z
M 2659 1681 
Q 2541 1634 2405 1609 
Q 2269 1584 1950 1556 
Q 1456 1513 1253 1445 
Q 1050 1378 947 1231 
Q 844 1084 844 906 
Q 844 669 1008 516 
Q 1172 363 1475 363 
Q 1756 363 2015 511 
Q 2275 659 2425 925 
Q 2575 1191 2659 1681 
z
" transform="scale(0.015625)"/>
      <path id="Arial-ItalicMT-6c" d="M 169 0 
L 1125 4581 
L 1691 4581 
L 734 0 
L 169 0 
z
" transform="scale(0.015625)"/>
      <path id="Arial-ItalicMT-75" d="M 2478 600 
Q 1881 -75 1256 -75 
Q 872 -75 636 145 
Q 400 366 400 684 
Q 400 894 506 1403 
L 906 3319 
L 1472 3319 
L 1028 1197 
Q 972 931 972 784 
Q 972 597 1086 492 
Q 1200 388 1422 388 
Q 1659 388 1886 503 
Q 2113 619 2277 816 
Q 2441 1013 2544 1281 
Q 2613 1453 2703 1884 
L 3003 3319 
L 3569 3319 
L 2875 0 
L 2353 0 
L 2478 600 
z
" transform="scale(0.015625)"/>
      <path id="Arial-ItalicMT-65" d="M 2650 1128 
L 3200 1072 
Q 3081 663 2654 294 
Q 2228 -75 1638 -75 
Q 1269 -75 961 95 
Q 653 266 492 591 
Q 331 916 331 1331 
Q 331 1875 582 2386 
Q 834 2897 1234 3145 
Q 1634 3394 2100 3394 
Q 2694 3394 3048 3025 
Q 3403 2656 3403 2019 
Q 3403 1775 3359 1519 
L 916 1519 
Q 903 1422 903 1344 
Q 903 878 1117 633 
Q 1331 388 1641 388 
Q 1931 388 2212 578 
Q 2494 769 2650 1128 
z
M 1006 1950 
L 2869 1950 
Q 2872 2038 2872 2075 
Q 2872 2500 2659 2726 
Q 2447 2953 2113 2953 
Q 1750 2953 1451 2703 
Q 1153 2453 1006 1950 
z
" transform="scale(0.015625)"/>
      <path id="Arial-ItalicMT-20" transform="scale(0.015625)"/>
      <path id="Arial-ItalicMT-33" d="M 350 1200 
L 900 1269 
Q 963 788 1177 580 
Q 1391 372 1738 372 
Q 2156 372 2461 672 
Q 2766 972 2766 1359 
Q 2766 1697 2537 1917 
Q 2309 2138 1925 2138 
Q 1881 2138 1744 2125 
L 1841 2597 
Q 1922 2584 1997 2584 
Q 2481 2584 2742 2820 
Q 3003 3056 3003 3400 
Q 3003 3716 2789 3931 
Q 2575 4147 2266 4147 
Q 1963 4147 1720 3926 
Q 1478 3706 1409 3303 
L 853 3416 
Q 991 3981 1381 4290 
Q 1772 4600 2306 4600 
Q 2869 4600 3217 4259 
Q 3566 3919 3566 3422 
Q 3566 3059 3377 2789 
Q 3188 2519 2809 2341 
Q 3078 2181 3211 1956 
Q 3344 1731 3344 1441 
Q 3344 825 2883 373 
Q 2422 -78 1781 -78 
Q 1159 -78 776 270 
Q 394 619 350 1200 
z
" transform="scale(0.015625)"/>
      <path id="Arial-ItalicMT-2e" d="M 369 0 
L 503 641 
L 1144 641 
L 1006 0 
L 369 0 
z
" transform="scale(0.015625)"/>
      <path id="Arial-ItalicMT-30" d="M 453 1503 
Q 453 2084 626 2684 
Q 800 3284 1012 3643 
Q 1225 4003 1453 4206 
Q 1681 4409 1901 4504 
Q 2122 4600 2391 4600 
Q 2916 4600 3267 4209 
Q 3619 3819 3619 3081 
Q 3619 2322 3375 1578 
Q 3088 697 2575 256 
Q 2181 -78 1678 -78 
Q 1163 -78 808 326 
Q 453 731 453 1503 
z
M 1000 1359 
Q 1000 938 1141 700 
Q 1331 372 1706 372 
Q 2034 372 2303 669 
Q 2691 1088 2886 1895 
Q 3081 2703 3081 3216 
Q 3081 3709 2892 3928 
Q 2703 4147 2394 4147 
Q 2169 4147 1973 4031 
Q 1778 3916 1600 3634 
Q 1347 3238 1159 2447 
Q 1000 1772 1000 1359 
z
" transform="scale(0.015625)"/>
      <path id="Arial-ItalicMT-31" d="M 1541 0 
L 2266 3459 
Q 1797 3091 947 2869 
L 1053 3381 
Q 1475 3550 1886 3822 
Q 2297 4094 2503 4297 
Q 2628 4422 2741 4600 
L 3069 4600 
L 2109 0 
L 1541 0 
z
" transform="scale(0.015625)"/>
      <path id="Arial-ItalicMT-35" d="M 447 1309 
L 1022 1366 
Q 1016 1244 1016 1219 
Q 1016 1013 1120 803 
Q 1225 594 1404 483 
Q 1584 372 1784 372 
Q 2047 372 2319 553 
Q 2591 734 2759 1081 
Q 2928 1428 2928 1769 
Q 2928 2153 2701 2384 
Q 2475 2616 2106 2616 
Q 1859 2616 1639 2497 
Q 1419 2378 1228 2141 
L 734 2175 
L 1425 4519 
L 3663 4519 
L 3553 4000 
L 1813 4000 
L 1469 2834 
Q 1663 2975 1867 3045 
Q 2072 3116 2288 3116 
Q 2813 3116 3150 2769 
Q 3488 2422 3488 1819 
Q 3488 1291 3256 845 
Q 3025 400 2620 161 
Q 2216 -78 1747 -78 
Q 1353 -78 1050 100 
Q 747 278 595 590 
Q 444 903 444 1216 
Q 444 1247 447 1309 
z
" transform="scale(0.015625)"/>
     </defs>
     <use xlink:href="#Arial-ItalicMT-45"/>
     <use xlink:href="#Arial-ItalicMT-2d" x="66.699219"/>
     <use xlink:href="#Arial-ItalicMT-76" x="100"/>
     <use xlink:href="#Arial-ItalicMT-61" x="150"/>
     <use xlink:href="#Arial-ItalicMT-6c" x="205.615234"/>
     <use xlink:href="#Arial-ItalicMT-75" x="227.832031"/>
     <use xlink:href="#Arial-ItalicMT-65" x="283.447266"/>
     <use xlink:href="#Arial-ItalicMT-20" x="339.0625"/>
     <use xlink:href="#Arial-ItalicMT-33" x="366.845703"/>
     <use xlink:href="#Arial-ItalicMT-2e" x="422.460938"/>
     <use xlink:href="#Arial-ItalicMT-33" x="450.244141"/>
     <use xlink:href="#Arial-ItalicMT-65" x="505.859375"/>
     <use xlink:href="#Arial-ItalicMT-2d" x="561.474609"/>
     <use xlink:href="#Arial-ItalicMT-30" x="594.775391"/>
     <use xlink:href="#Arial-ItalicMT-31" x="650.390625"/>
     <use xlink:href="#Arial-ItalicMT-35" x="706.005859"/>
    </g>
   </g>
  </g>
 </g>
 <defs>
  <clipPath id="pfe6878674b">
   <rect x="27.105625" y="7.2" width="66.96" height="31.68"/>
  </clipPath>
 </defs>
</svg>
