<?xml version="1.0" encoding="utf-8" standalone="no"?>
<!DOCTYPE svg PUBLIC "-//W3C//DTD SVG 1.1//EN"
  "http://www.w3.org/Graphics/SVG/1.1/DTD/svg11.dtd">
<svg xmlns:xlink="http://www.w3.org/1999/xlink" width="84.525625pt" height="53.273719pt" viewBox="0 0 84.525625 53.273719" xmlns="http://www.w3.org/2000/svg" version="1.1">
 <metadata>
  <rdf:RDF xmlns:dc="http://purl.org/dc/elements/1.1/" xmlns:cc="http://creativecommons.org/ns#" xmlns:rdf="http://www.w3.org/1999/02/22-rdf-syntax-ns#">
   <cc:Work>
    <dc:type rdf:resource="http://purl.org/dc/dcmitype/StillImage"/>
    <dc:date>2024-02-05T13:54:51.475828</dc:date>
    <dc:format>image/svg+xml</dc:format>
    <dc:creator>
     <cc:Agent>
      <dc:title>Matplotlib v3.6.3, https://matplotlib.org/</dc:title>
     </cc:Agent>
    </dc:creator>
   </cc:Work>
  </rdf:RDF>
 </metadata>
 <defs>
  <style type="text/css">*{stroke-linejoin: round; stroke-linecap: butt}</style>
 </defs>
 <g id="figure_1">
  <g id="patch_1">
   <path d="M 0 53.273719 
L 84.525625 53.273719 
L 84.525625 0 
L 0 0 
z
" style="fill: #ffffff"/>
  </g>
  <g id="axes_1">
   <g id="patch_2">
    <path d="M 27.105625 30.96 
L 77.325625 30.96 
L 77.325625 7.2 
L 27.105625 7.2 
z
" style="fill: #ffffff"/>
   </g>
   <g id="line2d_1">
    <path d="M 27.105625 30.96 
L 77.325625 30.96 
" clip-path="url(#pec191c0883)" style="fill: none; stroke: #000000; stroke-width: 0.5; stroke-linecap: square"/>
   </g>
   <g id="patch_3">
    <path d="M 32.43624 30.96 
L 31.269697 30.96 
L 30.805862 30.927641 
L 28.681502 30.927641 
L 28.243178 30.96 
L 27.105625 30.96 
L 29.174326 30.8176 
L 30.30956 30.8176 
L 32.43624 30.96 
z
M 30.461465 30.903643 
L 29.729767 30.850799 
L 29.011984 30.903643 
L 30.461465 30.903643 
z
" clip-path="url(#pec191c0883)" style="fill: #0e927b"/>
   </g>
   <g id="patch_4">
    <path d="M 29.955669 30.539341 
L 29.955669 30.417425 
L 32.43624 30.417425 
L 32.43624 30.705633 
Q 32.07423 30.750009 31.387533 30.783805 
Q 30.702079 30.8176 29.997965 30.8176 
Q 29.104761 30.8176 28.439212 30.770065 
Q 27.774906 30.722373 27.440266 30.633779 
Q 27.105625 30.545184 27.105625 30.441114 
Q 27.105625 30.328042 27.47883 30.240237 
Q 27.852035 30.152432 28.571077 30.105529 
Q 29.119689 30.069523 29.935765 30.069523 
Q 30.996911 30.069523 31.59404 30.126059 
Q 32.191168 30.182437 32.361598 30.282086 
L 31.219591 30.309249 
Q 31.098921 30.256029 30.765524 30.225234 
Q 30.433372 30.194282 29.935765 30.194282 
Q 29.18189 30.194282 28.736532 30.255082 
Q 28.291174 30.315724 28.291174 30.435113 
Q 28.291174 30.563977 28.741508 30.628409 
Q 29.193086 30.692684 29.924568 30.692684 
Q 30.286577 30.692684 30.649831 30.674681 
Q 31.013084 30.656677 31.273083 30.631094 
L 31.273083 30.539341 
L 29.955669 30.539341 
z
" clip-path="url(#pec191c0883)" style="fill: #dc9514"/>
   </g>
   <g id="patch_5">
    <path d="M 31.238154 29.659651 
L 32.43624 29.725715 
Q 32.161094 29.900178 31.519978 29.98485 
Q 30.878861 30.069523 29.894481 30.069523 
Q 28.675024 30.069523 27.889657 29.924603 
Q 27.105625 29.779449 27.105625 29.52799 
Q 27.105625 29.261876 27.893664 29.114862 
Q 28.683038 28.967615 29.969278 28.967615 
Q 31.092567 28.967615 31.793788 29.082993 
Q 32.210513 29.151383 32.418876 29.279322 
L 31.196748 29.330265 
Q 31.087224 29.247454 30.742624 29.199534 
Q 30.39936 29.151383 29.906502 29.151383 
Q 29.226651 29.151383 28.801912 29.236521 
Q 28.378508 29.321426 28.378508 29.511939 
Q 28.378508 29.714084 28.795233 29.79992 
Q 29.213295 29.885523 29.881124 29.885523 
Q 30.373982 29.885523 30.727932 29.83109 
Q 31.083217 29.776658 31.238154 29.659651 
z
" clip-path="url(#pec191c0883)" style="fill: #59a9d8"/>
   </g>
   <g id="patch_6">
    <path d="M 29.095819 28.967615 
L 29.095819 26.73987 
L 27.105625 26.73987 
L 27.105625 26.286243 
L 32.43624 26.286243 
L 32.43624 26.73987 
L 30.450439 26.73987 
L 30.450439 28.967615 
L 29.095819 28.967615 
z
" clip-path="url(#pec191c0883)" style="fill: #1a1a1a"/>
   </g>
   <g id="patch_7">
    <path d="M 36.849327 30.907923 
L 38.047413 30.916317 
Q 37.772267 30.938483 37.131151 30.949242 
Q 36.490034 30.96 35.505654 30.96 
Q 34.286197 30.96 33.50083 30.941587 
Q 32.716798 30.923144 32.716798 30.891194 
Q 32.716798 30.857383 33.504837 30.838704 
Q 34.294211 30.819995 35.580451 30.819995 
Q 36.70374 30.819995 37.404961 30.834654 
Q 37.821686 30.843344 38.030049 30.859599 
L 36.807921 30.866072 
Q 36.698397 30.85555 36.353797 30.849462 
Q 36.010533 30.843344 35.517675 30.843344 
Q 34.837824 30.843344 34.413085 30.854161 
Q 33.989681 30.864949 33.989681 30.889155 
Q 33.989681 30.914839 34.406407 30.925745 
Q 34.824468 30.936621 35.492297 30.936621 
Q 35.985155 30.936621 36.339105 30.929705 
Q 36.69439 30.922789 36.849327 30.907923 
z
" clip-path="url(#pec191c0883)" style="fill: #59a9d8"/>
   </g>
   <g id="patch_8">
    <path d="M 35.566842 30.75678 
L 35.566842 30.729084 
L 38.047413 30.729084 
L 38.047413 30.794558 
Q 37.685404 30.80464 36.998706 30.812317 
Q 36.313252 30.819995 35.609139 30.819995 
Q 34.715934 30.819995 34.050385 30.809196 
Q 33.38608 30.798361 33.051439 30.778235 
Q 32.716798 30.758108 32.716798 30.734465 
Q 32.716798 30.708778 33.090003 30.68883 
Q 33.463209 30.668883 34.182251 30.658228 
Q 34.730862 30.650048 35.546938 30.650048 
Q 36.608085 30.650048 37.205213 30.662892 
Q 37.802341 30.675699 37.972772 30.698338 
L 36.830764 30.704508 
Q 36.710094 30.692418 36.376697 30.685422 
Q 36.044545 30.67839 35.546938 30.67839 
Q 34.793063 30.67839 34.347705 30.692203 
Q 33.902347 30.705979 33.902347 30.733102 
Q 33.902347 30.762377 34.352681 30.777015 
Q 34.804259 30.791616 35.535742 30.791616 
Q 35.897751 30.791616 36.261004 30.787527 
Q 36.624257 30.783437 36.884256 30.777625 
L 36.884256 30.75678 
L 35.566842 30.75678 
z
" clip-path="url(#pec191c0883)" style="fill: #dc9514"/>
   </g>
   <g id="patch_9">
    <path d="M 38.047413 30.650048 
L 36.88087 30.650048 
L 36.417036 30.602896 
L 34.292675 30.602896 
L 33.854352 30.650048 
L 32.716798 30.650048 
L 34.785499 30.442551 
L 35.920733 30.442551 
L 38.047413 30.650048 
z
M 36.072639 30.567928 
L 35.34094 30.490926 
L 34.623157 30.567928 
L 36.072639 30.567928 
z
" clip-path="url(#pec191c0883)" style="fill: #0e927b"/>
   </g>
   <g id="patch_10">
    <path d="M 34.706992 30.442551 
L 34.706992 30.158873 
L 32.716798 30.158873 
L 32.716798 30.101108 
L 38.047413 30.101108 
L 38.047413 30.158873 
L 36.061612 30.158873 
L 36.061612 30.442551 
L 34.706992 30.442551 
z
" clip-path="url(#pec191c0883)" style="fill: #1a1a1a"/>
   </g>
   <g id="patch_11">
    <path d="M 42.4605 30.959529 
L 43.658586 30.959605 
Q 43.38344 30.959806 42.742324 30.959903 
Q 42.101208 30.96 41.116827 30.96 
Q 39.897371 30.96 39.112003 30.959834 
Q 38.327971 30.959667 38.327971 30.959378 
Q 38.327971 30.959073 39.11601 30.958904 
Q 39.905384 30.958735 41.191624 30.958735 
Q 42.314913 30.958735 43.016134 30.958867 
Q 43.43286 30.958946 43.641222 30.959093 
L 42.419094 30.959151 
Q 42.30957 30.959056 41.96497 30.959001 
Q 41.621706 30.958946 41.128848 30.958946 
Q 40.448998 30.958946 40.024258 30.959043 
Q 39.600854 30.959141 39.600854 30.95936 
Q 39.600854 30.959592 40.01758 30.95969 
Q 40.435641 30.959789 41.10347 30.959789 
Q 41.596329 30.959789 41.950278 30.959726 
Q 42.305563 30.959664 42.4605 30.959529 
z
" clip-path="url(#pec191c0883)" style="fill: #59a9d8"/>
   </g>
   <g id="patch_12">
    <path d="M 41.178015 30.958264 
L 41.178015 30.958058 
L 43.658586 30.958058 
L 43.658586 30.958545 
Q 43.296577 30.95862 42.609879 30.958678 
Q 41.924426 30.958735 41.220312 30.958735 
Q 40.327107 30.958735 39.661558 30.958654 
Q 38.997253 30.958574 38.662612 30.958424 
Q 38.327971 30.958274 38.327971 30.958098 
Q 38.327971 30.957907 38.701177 30.957758 
Q 39.074382 30.95761 39.793424 30.95753 
Q 40.342036 30.957469 41.158111 30.957469 
Q 42.219258 30.957469 42.816386 30.957565 
Q 43.413514 30.95766 43.583945 30.957829 
L 42.441937 30.957875 
Q 42.321267 30.957785 41.987871 30.957733 
Q 41.655718 30.95768 41.158111 30.95768 
Q 40.404236 30.95768 39.958878 30.957783 
Q 39.51352 30.957886 39.51352 30.958088 
Q 39.51352 30.958306 39.963854 30.958415 
Q 40.415433 30.958523 41.146915 30.958523 
Q 41.508924 30.958523 41.872177 30.958493 
Q 42.23543 30.958463 42.49543 30.958419 
L 42.49543 30.958264 
L 41.178015 30.958264 
z
" clip-path="url(#pec191c0883)" style="fill: #dc9514"/>
   </g>
   <g id="patch_13">
    <path d="M 43.658586 30.957469 
L 42.492043 30.957469 
L 42.028209 30.957155 
L 39.903848 30.957155 
L 39.465525 30.957469 
L 38.327971 30.957469 
L 40.396672 30.956086 
L 41.531906 30.956086 
L 43.658586 30.957469 
z
M 41.683812 30.956922 
L 40.952113 30.956408 
L 40.23433 30.956922 
L 41.683812 30.956922 
z
" clip-path="url(#pec191c0883)" style="fill: #0e927b"/>
   </g>
   <g id="patch_14">
    <path d="M 40.318165 30.956086 
L 40.318165 14.534007 
L 38.327971 14.534007 
L 38.327971 11.190047 
L 43.658586 11.190047 
L 43.658586 14.534007 
L 41.672786 14.534007 
L 41.672786 30.956086 
L 40.318165 30.956086 
z
" clip-path="url(#pec191c0883)" style="fill: #1a1a1a"/>
   </g>
   <g id="patch_15">
    <path d="M 48.071673 30.959529 
L 49.269759 30.959605 
Q 48.994613 30.959806 48.353497 30.959903 
Q 47.712381 30.96 46.728 30.96 
Q 45.508544 30.96 44.723176 30.959834 
Q 43.939145 30.959667 43.939145 30.959378 
Q 43.939145 30.959073 44.727183 30.958904 
Q 45.516558 30.958735 46.802797 30.958735 
Q 47.926086 30.958735 48.627307 30.958867 
Q 49.044033 30.958946 49.252396 30.959093 
L 48.030268 30.959151 
Q 47.920744 30.959056 47.576144 30.959001 
Q 47.232879 30.958946 46.740021 30.958946 
Q 46.060171 30.958946 45.635431 30.959043 
Q 45.212027 30.959141 45.212027 30.95936 
Q 45.212027 30.959592 45.628753 30.95969 
Q 46.046814 30.959789 46.714644 30.959789 
Q 47.207502 30.959789 47.561451 30.959726 
Q 47.916737 30.959664 48.071673 30.959529 
z
" clip-path="url(#pec191c0883)" style="fill: #59a9d8"/>
   </g>
   <g id="patch_16">
    <path d="M 46.789188 30.958264 
L 46.789188 30.958058 
L 49.269759 30.958058 
L 49.269759 30.958545 
Q 48.90775 30.95862 48.221052 30.958678 
Q 47.535599 30.958735 46.831485 30.958735 
Q 45.938281 30.958735 45.272731 30.958654 
Q 44.608426 30.958574 44.273785 30.958424 
Q 43.939145 30.958274 43.939145 30.958098 
Q 43.939145 30.957907 44.31235 30.957758 
Q 44.685555 30.95761 45.404597 30.95753 
Q 45.953209 30.957469 46.769284 30.957469 
Q 47.830431 30.957469 48.427559 30.957565 
Q 49.024688 30.95766 49.195118 30.957829 
L 48.05311 30.957875 
Q 47.93244 30.957785 47.599044 30.957733 
Q 47.266891 30.95768 46.769284 30.95768 
Q 46.01541 30.95768 45.570051 30.957783 
Q 45.124693 30.957886 45.124693 30.958088 
Q 45.124693 30.958306 45.575027 30.958415 
Q 46.026606 30.958523 46.758088 30.958523 
Q 47.120097 30.958523 47.48335 30.958493 
Q 47.846603 30.958463 48.106603 30.958419 
L 48.106603 30.958264 
L 46.789188 30.958264 
z
" clip-path="url(#pec191c0883)" style="fill: #dc9514"/>
   </g>
   <g id="patch_17">
    <path d="M 45.929338 30.957469 
L 45.929338 30.95632 
L 43.939145 30.95632 
L 43.939145 30.956086 
L 49.269759 30.956086 
L 49.269759 30.95632 
L 47.283959 30.95632 
L 47.283959 30.957469 
L 45.929338 30.957469 
z
" clip-path="url(#pec191c0883)" style="fill: #1a1a1a"/>
   </g>
   <g id="patch_18">
    <path d="M 49.269759 30.956086 
L 48.103216 30.956086 
L 47.639382 26.464392 
L 45.515021 26.464392 
L 45.076698 30.956086 
L 43.939145 30.956086 
L 46.007845 11.190047 
L 47.143079 11.190047 
L 49.269759 30.956086 
z
M 47.294985 23.133377 
L 46.563287 15.798239 
L 45.845503 23.133377 
L 47.294985 23.133377 
z
" clip-path="url(#pec191c0883)" style="fill: #0e927b"/>
   </g>
   <g id="patch_19">
    <path d="M 53.682846 30.959529 
L 54.880932 30.959605 
Q 54.605787 30.959806 53.96467 30.959903 
Q 53.323554 30.96 52.339173 30.96 
Q 51.119717 30.96 50.334349 30.959834 
Q 49.550318 30.959667 49.550318 30.959378 
Q 49.550318 30.959073 50.338356 30.958904 
Q 51.127731 30.958735 52.41397 30.958735 
Q 53.537259 30.958735 54.23848 30.958867 
Q 54.655206 30.958946 54.863569 30.959093 
L 53.641441 30.959151 
Q 53.531917 30.959056 53.187317 30.959001 
Q 52.844052 30.958946 52.351194 30.958946 
Q 51.671344 30.958946 51.246604 30.959043 
Q 50.823201 30.959141 50.823201 30.95936 
Q 50.823201 30.959592 51.239926 30.95969 
Q 51.657987 30.959789 52.325817 30.959789 
Q 52.818675 30.959789 53.172625 30.959726 
Q 53.52791 30.959664 53.682846 30.959529 
z
" clip-path="url(#pec191c0883)" style="fill: #59a9d8"/>
   </g>
   <g id="patch_20">
    <path d="M 52.400362 30.958264 
L 52.400362 30.958058 
L 54.880932 30.958058 
L 54.880932 30.958545 
Q 54.518923 30.95862 53.832226 30.958678 
Q 53.146772 30.958735 52.442658 30.958735 
Q 51.549454 30.958735 50.883904 30.958654 
Q 50.219599 30.958574 49.884958 30.958424 
Q 49.550318 30.958274 49.550318 30.958098 
Q 49.550318 30.957907 49.923523 30.957758 
Q 50.296728 30.95761 51.01577 30.95753 
Q 51.564382 30.957469 52.380457 30.957469 
Q 53.441604 30.957469 54.038732 30.957565 
Q 54.635861 30.95766 54.806291 30.957829 
L 53.664283 30.957875 
Q 53.543614 30.957785 53.210217 30.957733 
Q 52.878064 30.95768 52.380457 30.95768 
Q 51.626583 30.95768 51.181225 30.957783 
Q 50.735866 30.957886 50.735866 30.958088 
Q 50.735866 30.958306 51.186201 30.958415 
Q 51.637779 30.958523 52.369261 30.958523 
Q 52.73127 30.958523 53.094523 30.958493 
Q 53.457776 30.958463 53.717776 30.958419 
L 53.717776 30.958264 
L 52.400362 30.958264 
z
" clip-path="url(#pec191c0883)" style="fill: #dc9514"/>
   </g>
   <g id="patch_21">
    <path d="M 51.540511 30.957469 
L 51.540511 30.95632 
L 49.550318 30.95632 
L 49.550318 30.956086 
L 54.880932 30.956086 
L 54.880932 30.95632 
L 52.895132 30.95632 
L 52.895132 30.957469 
L 51.540511 30.957469 
z
" clip-path="url(#pec191c0883)" style="fill: #1a1a1a"/>
   </g>
   <g id="patch_22">
    <path d="M 54.880932 30.956086 
L 53.714389 30.956086 
L 53.250555 26.464392 
L 51.126194 26.464392 
L 50.687871 30.956086 
L 49.550318 30.956086 
L 51.619018 11.190047 
L 52.754252 11.190047 
L 54.880932 30.956086 
z
M 52.906158 23.133377 
L 52.17446 15.798239 
L 51.456676 23.133377 
L 52.906158 23.133377 
z
" clip-path="url(#pec191c0883)" style="fill: #0e927b"/>
   </g>
   <g id="patch_23">
    <path d="M 59.294019 30.959529 
L 60.492105 30.959605 
Q 60.21696 30.959806 59.575843 30.959903 
Q 58.934727 30.96 57.950347 30.96 
Q 56.73089 30.96 55.945523 30.959834 
Q 55.161491 30.959667 55.161491 30.959378 
Q 55.161491 30.959073 55.94953 30.958904 
Q 56.738904 30.958735 58.025144 30.958735 
Q 59.148433 30.958735 59.849654 30.958867 
Q 60.266379 30.958946 60.474742 30.959093 
L 59.252614 30.959151 
Q 59.14309 30.959056 58.79849 30.959001 
Q 58.455226 30.958946 57.962368 30.958946 
Q 57.282517 30.958946 56.857778 30.959043 
Q 56.434374 30.959141 56.434374 30.95936 
Q 56.434374 30.959592 56.851099 30.95969 
Q 57.269161 30.959789 57.93699 30.959789 
Q 58.429848 30.959789 58.783798 30.959726 
Q 59.139083 30.959664 59.294019 30.959529 
z
" clip-path="url(#pec191c0883)" style="fill: #59a9d8"/>
   </g>
   <g id="patch_24">
    <path d="M 58.011535 30.958264 
L 58.011535 30.958058 
L 60.492105 30.958058 
L 60.492105 30.958545 
Q 60.130096 30.95862 59.443399 30.958678 
Q 58.757945 30.958735 58.053831 30.958735 
Q 57.160627 30.958735 56.495078 30.958654 
Q 55.830772 30.958574 55.496132 30.958424 
Q 55.161491 30.958274 55.161491 30.958098 
Q 55.161491 30.957907 55.534696 30.957758 
Q 55.907901 30.95761 56.626943 30.95753 
Q 57.175555 30.957469 57.99163 30.957469 
Q 59.052777 30.957469 59.649906 30.957565 
Q 60.247034 30.95766 60.417464 30.957829 
L 59.275456 30.957875 
Q 59.154787 30.957785 58.82139 30.957733 
Q 58.489237 30.95768 57.99163 30.95768 
Q 57.237756 30.95768 56.792398 30.957783 
Q 56.347039 30.957886 56.347039 30.958088 
Q 56.347039 30.958306 56.797374 30.958415 
Q 57.248952 30.958523 57.980434 30.958523 
Q 58.342443 30.958523 58.705696 30.958493 
Q 59.06895 30.958463 59.328949 30.958419 
L 59.328949 30.958264 
L 58.011535 30.958264 
z
" clip-path="url(#pec191c0883)" style="fill: #dc9514"/>
   </g>
   <g id="patch_25">
    <path d="M 60.492105 30.957469 
L 59.325562 30.957469 
L 58.861728 30.957155 
L 56.737368 30.957155 
L 56.299044 30.957469 
L 55.161491 30.957469 
L 57.230191 30.956086 
L 58.365426 30.956086 
L 60.492105 30.957469 
z
M 58.517331 30.956922 
L 57.785633 30.956408 
L 57.067849 30.956922 
L 58.517331 30.956922 
z
" clip-path="url(#pec191c0883)" style="fill: #0e927b"/>
   </g>
   <g id="patch_26">
    <path d="M 57.151685 30.956086 
L 57.151685 14.534007 
L 55.161491 14.534007 
L 55.161491 11.190047 
L 60.492105 11.190047 
L 60.492105 14.534007 
L 58.506305 14.534007 
L 58.506305 30.956086 
L 57.151685 30.956086 
z
" clip-path="url(#pec191c0883)" style="fill: #1a1a1a"/>
   </g>
   <g id="patch_27">
    <path d="M 63.622708 30.959553 
L 63.622708 30.959357 
L 66.103279 30.959357 
L 66.103279 30.95982 
Q 65.74127 30.959891 65.054572 30.959946 
Q 64.369118 30.96 63.665005 30.96 
Q 62.7718 30.96 62.106251 30.959924 
Q 61.441945 30.959847 61.107305 30.959705 
Q 60.772664 30.959562 60.772664 30.959395 
Q 60.772664 30.959214 61.145869 30.959073 
Q 61.519075 30.958931 62.238117 30.958856 
Q 62.786728 30.958798 63.602804 30.958798 
Q 64.663951 30.958798 65.261079 30.958889 
Q 65.858207 30.95898 66.028638 30.95914 
L 64.88663 30.959183 
Q 64.76596 30.959098 64.432563 30.959048 
Q 64.100411 30.958999 63.602804 30.958999 
Q 62.848929 30.958999 62.403571 30.959096 
Q 61.958213 30.959194 61.958213 30.959386 
Q 61.958213 30.959593 62.408547 30.959696 
Q 62.860125 30.959799 63.591608 30.959799 
Q 63.953617 30.959799 64.31687 30.95977 
Q 64.680123 30.959741 64.940122 30.9597 
L 64.940122 30.959553 
L 63.622708 30.959553 
z
" clip-path="url(#pec191c0883)" style="fill: #dc9514"/>
   </g>
   <g id="patch_28">
    <path d="M 66.103279 30.958798 
L 64.936736 30.958798 
L 64.472901 30.9585 
L 62.348541 30.9585 
L 61.910217 30.958798 
L 60.772664 30.958798 
L 62.841365 30.957484 
L 63.976599 30.957484 
L 66.103279 30.958798 
z
M 64.128505 30.958278 
L 63.396806 30.95779 
L 62.679023 30.958278 
L 64.128505 30.958278 
z
" clip-path="url(#pec191c0883)" style="fill: #0e927b"/>
   </g>
   <g id="patch_29">
    <path d="M 62.762858 30.957484 
L 62.762858 30.751668 
L 60.772664 30.751668 
L 60.772664 30.709759 
L 66.103279 30.709759 
L 66.103279 30.751668 
L 64.117478 30.751668 
L 64.117478 30.957484 
L 62.762858 30.957484 
z
" clip-path="url(#pec191c0883)" style="fill: #1a1a1a"/>
   </g>
   <g id="patch_30">
    <path d="M 64.905193 23.818449 
L 66.103279 24.929193 
Q 65.828133 27.862498 65.187017 29.286129 
Q 64.5459 30.709759 63.56152 30.709759 
Q 62.342063 30.709759 61.556696 28.273161 
Q 60.772664 25.832651 60.772664 21.604782 
Q 60.772664 17.130514 61.560703 14.658716 
Q 62.350077 12.183007 63.636317 12.183007 
Q 64.759606 12.183007 65.460827 14.122899 
Q 65.877552 15.272755 66.085915 17.423845 
L 64.863787 18.28037 
Q 64.754263 16.888028 64.409663 16.082347 
Q 64.066399 15.272755 63.573541 15.272755 
Q 62.89369 15.272755 62.468951 16.704207 
Q 62.045547 18.131749 62.045547 21.334918 
Q 62.045547 24.73364 62.462273 26.176826 
Q 62.880334 27.6161 63.548163 27.6161 
Q 64.041021 27.6161 64.394971 26.700909 
Q 64.750256 25.785718 64.905193 23.818449 
z
" clip-path="url(#pec191c0883)" style="fill: #59a9d8"/>
   </g>
   <g id="patch_31">
    <path d="M 71.714452 30.96 
L 70.547909 30.96 
L 70.084075 30.93577 
L 67.959714 30.93577 
L 67.521391 30.96 
L 66.383837 30.96 
L 68.452538 30.853373 
L 69.587772 30.853373 
L 71.714452 30.96 
z
M 69.739678 30.917801 
L 69.007979 30.878232 
L 68.290196 30.917801 
L 69.739678 30.917801 
z
" clip-path="url(#pec191c0883)" style="fill: #0e927b"/>
   </g>
   <g id="patch_32">
    <path d="M 69.233881 30.641628 
L 69.233881 30.548854 
L 71.714452 30.548854 
L 71.714452 30.76817 
Q 71.352443 30.801939 70.665745 30.827656 
Q 69.980292 30.853373 69.276178 30.853373 
Q 68.382973 30.853373 67.717424 30.817201 
Q 67.053119 30.780909 66.718478 30.713492 
Q 66.383837 30.646074 66.383837 30.56688 
Q 66.383837 30.480836 66.757043 30.414019 
Q 67.130248 30.347203 67.84929 30.311511 
Q 68.397901 30.284112 69.213977 30.284112 
Q 70.275124 30.284112 70.872252 30.327134 
Q 71.46938 30.370036 71.639811 30.445865 
L 70.497803 30.466535 
Q 70.377133 30.426037 70.043736 30.402603 
Q 69.711584 30.379049 69.213977 30.379049 
Q 68.460102 30.379049 68.014744 30.425316 
Q 67.569386 30.471462 67.569386 30.562313 
Q 67.569386 30.660375 68.01972 30.709406 
Q 68.471298 30.758316 69.202781 30.758316 
Q 69.56479 30.758316 69.928043 30.744616 
Q 70.291296 30.730917 70.551296 30.711449 
L 70.551296 30.641628 
L 69.233881 30.641628 
z
" clip-path="url(#pec191c0883)" style="fill: #dc9514"/>
   </g>
   <g id="patch_33">
    <path d="M 68.374031 30.284112 
L 68.374031 29.006452 
L 66.383837 29.006452 
L 66.383837 28.746288 
L 71.714452 28.746288 
L 71.714452 29.006452 
L 69.728651 29.006452 
L 69.728651 30.284112 
L 68.374031 30.284112 
z
" clip-path="url(#pec191c0883)" style="fill: #1a1a1a"/>
   </g>
   <g id="patch_34">
    <path d="M 70.516366 25.973608 
L 71.714452 26.42051 
Q 71.439306 27.600708 70.79819 28.173498 
Q 70.157074 28.746288 69.172693 28.746288 
Q 67.953236 28.746288 67.167869 27.765936 
Q 66.383837 26.784011 66.383837 25.082952 
Q 66.383837 23.282755 67.171876 22.288242 
Q 67.96125 21.292154 69.24749 21.292154 
Q 70.370779 21.292154 71.072 22.072659 
Q 71.488725 22.535296 71.697088 23.400775 
L 70.47496 23.745393 
Q 70.365436 23.185192 70.020836 22.861031 
Q 69.677572 22.535296 69.184714 22.535296 
Q 68.504864 22.535296 68.080124 23.111233 
Q 67.65672 23.685597 67.65672 24.974373 
Q 67.65672 26.34183 68.073446 26.922488 
Q 68.491507 27.501572 69.159336 27.501572 
Q 69.652195 27.501572 70.006144 27.13335 
Q 70.361429 26.765128 70.516366 25.973608 
z
" clip-path="url(#pec191c0883)" style="fill: #59a9d8"/>
   </g>
   <g id="patch_35">
    <path d="M 77.325625 30.96 
L 76.159082 30.96 
L 75.695248 30.891607 
L 73.570887 30.891607 
L 73.132564 30.96 
L 71.99501 30.96 
L 74.063711 30.65903 
L 75.198945 30.65903 
L 77.325625 30.96 
z
M 75.350851 30.840887 
L 74.619152 30.729198 
L 73.901369 30.840887 
L 75.350851 30.840887 
z
" clip-path="url(#pec191c0883)" style="fill: #0e927b"/>
   </g>
   <g id="patch_36">
    <path d="M 74.845054 30.503561 
L 74.845054 30.435444 
L 77.325625 30.435444 
L 77.325625 30.596472 
Q 76.963616 30.621266 76.276918 30.640148 
Q 75.591465 30.65903 74.887351 30.65903 
Q 73.994146 30.65903 73.328597 30.632472 
Q 72.664292 30.605825 72.329651 30.556325 
Q 71.99501 30.506825 71.99501 30.448679 
Q 71.99501 30.385503 72.368216 30.336444 
Q 72.741421 30.287386 73.460463 30.26118 
Q 74.009075 30.241062 74.82515 30.241062 
Q 75.886297 30.241062 76.483425 30.27265 
Q 77.080554 30.30415 77.250984 30.359826 
L 76.108976 30.375003 
Q 75.988306 30.345268 75.65491 30.328062 
Q 75.322757 30.310768 74.82515 30.310768 
Q 74.071276 30.310768 73.625917 30.344738 
Q 73.180559 30.37862 73.180559 30.445326 
Q 73.180559 30.517325 73.630893 30.553325 
Q 74.082472 30.589237 74.813954 30.589237 
Q 75.175963 30.589237 75.539216 30.579178 
Q 75.902469 30.569119 76.162469 30.554825 
L 76.162469 30.503561 
L 74.845054 30.503561 
z
" clip-path="url(#pec191c0883)" style="fill: #dc9514"/>
   </g>
   <g id="patch_37">
    <path d="M 73.985204 30.241062 
L 73.985204 29.468236 
L 71.99501 29.468236 
L 71.99501 29.310868 
L 77.325625 29.310868 
L 77.325625 29.468236 
L 75.339825 29.468236 
L 75.339825 30.241062 
L 73.985204 30.241062 
z
" clip-path="url(#pec191c0883)" style="fill: #1a1a1a"/>
   </g>
   <g id="patch_38">
    <path d="M 76.127539 28.561068 
L 77.325625 28.681921 
Q 77.050479 29.001076 76.409363 29.155972 
Q 75.768247 29.310868 74.783866 29.310868 
Q 73.56441 29.310868 72.779042 29.045757 
Q 71.99501 28.780221 71.99501 28.320213 
Q 71.99501 27.833396 72.783049 27.564455 
Q 73.572424 27.295088 74.858663 27.295088 
Q 75.981952 27.295088 76.683173 27.506156 
Q 77.099899 27.631265 77.308261 27.865311 
L 76.086134 27.958504 
Q 75.97661 27.807012 75.63201 27.719351 
Q 75.288745 27.631265 74.795887 27.631265 
Q 74.116037 27.631265 73.691297 27.787012 
Q 73.267893 27.942334 73.267893 28.290851 
Q 73.267893 28.660644 73.684619 28.817668 
Q 74.10268 28.974267 74.77051 28.974267 
Q 75.263368 28.974267 75.617317 28.874691 
Q 75.972603 28.775114 76.127539 28.561068 
z
" clip-path="url(#pec191c0883)" style="fill: #59a9d8"/>
   </g>
   <g id="matplotlib.axis_1">
    <g id="xtick_1">
     <g id="text_1">
      <!-- 1 -->
      <g transform="translate(28.102651 37.754688) scale(0.06 -0.06)">
       <defs>
        <path id="ArialMT-31" d="M 2384 0 
L 1822 0 
L 1822 3584 
Q 1619 3391 1289 3197 
Q 959 3003 697 2906 
L 697 3450 
Q 1169 3672 1522 3987 
Q 1875 4303 2022 4600 
L 2384 4600 
L 2384 0 
z
" transform="scale(0.015625)"/>
       </defs>
       <use xlink:href="#ArialMT-31"/>
      </g>
     </g>
    </g>
    <g id="xtick_2">
     <g id="text_2">
      <!-- 2 -->
      <g transform="translate(33.713824 37.754688) scale(0.06 -0.06)">
       <defs>
        <path id="ArialMT-32" d="M 3222 541 
L 3222 0 
L 194 0 
Q 188 203 259 391 
Q 375 700 629 1000 
Q 884 1300 1366 1694 
Q 2113 2306 2375 2664 
Q 2638 3022 2638 3341 
Q 2638 3675 2398 3904 
Q 2159 4134 1775 4134 
Q 1369 4134 1125 3890 
Q 881 3647 878 3216 
L 300 3275 
Q 359 3922 746 4261 
Q 1134 4600 1788 4600 
Q 2447 4600 2831 4234 
Q 3216 3869 3216 3328 
Q 3216 3053 3103 2787 
Q 2991 2522 2730 2228 
Q 2469 1934 1863 1422 
Q 1356 997 1212 845 
Q 1069 694 975 541 
L 3222 541 
z
" transform="scale(0.015625)"/>
       </defs>
       <use xlink:href="#ArialMT-32"/>
      </g>
     </g>
    </g>
    <g id="xtick_3">
     <g id="text_3">
      <!-- 3 -->
      <g transform="translate(39.324997 37.754688) scale(0.06 -0.06)">
       <defs>
        <path id="ArialMT-33" d="M 269 1209 
L 831 1284 
Q 928 806 1161 595 
Q 1394 384 1728 384 
Q 2125 384 2398 659 
Q 2672 934 2672 1341 
Q 2672 1728 2419 1979 
Q 2166 2231 1775 2231 
Q 1616 2231 1378 2169 
L 1441 2663 
Q 1497 2656 1531 2656 
Q 1891 2656 2178 2843 
Q 2466 3031 2466 3422 
Q 2466 3731 2256 3934 
Q 2047 4138 1716 4138 
Q 1388 4138 1169 3931 
Q 950 3725 888 3313 
L 325 3413 
Q 428 3978 793 4289 
Q 1159 4600 1703 4600 
Q 2078 4600 2393 4439 
Q 2709 4278 2876 4000 
Q 3044 3722 3044 3409 
Q 3044 3113 2884 2869 
Q 2725 2625 2413 2481 
Q 2819 2388 3044 2092 
Q 3269 1797 3269 1353 
Q 3269 753 2831 336 
Q 2394 -81 1725 -81 
Q 1122 -81 723 278 
Q 325 638 269 1209 
z
" transform="scale(0.015625)"/>
       </defs>
       <use xlink:href="#ArialMT-33"/>
      </g>
     </g>
    </g>
    <g id="xtick_4">
     <g id="text_4">
      <!-- 4 -->
      <g transform="translate(44.936171 37.754688) scale(0.06 -0.06)">
       <defs>
        <path id="ArialMT-34" d="M 2069 0 
L 2069 1097 
L 81 1097 
L 81 1613 
L 2172 4581 
L 2631 4581 
L 2631 1613 
L 3250 1613 
L 3250 1097 
L 2631 1097 
L 2631 0 
L 2069 0 
z
M 2069 1613 
L 2069 3678 
L 634 1613 
L 2069 1613 
z
" transform="scale(0.015625)"/>
       </defs>
       <use xlink:href="#ArialMT-34"/>
      </g>
     </g>
    </g>
    <g id="xtick_5">
     <g id="text_5">
      <!-- 5 -->
      <g transform="translate(50.547344 37.754688) scale(0.06 -0.06)">
       <defs>
        <path id="ArialMT-35" d="M 266 1200 
L 856 1250 
Q 922 819 1161 601 
Q 1400 384 1738 384 
Q 2144 384 2425 690 
Q 2706 997 2706 1503 
Q 2706 1984 2436 2262 
Q 2166 2541 1728 2541 
Q 1456 2541 1237 2417 
Q 1019 2294 894 2097 
L 366 2166 
L 809 4519 
L 3088 4519 
L 3088 3981 
L 1259 3981 
L 1013 2750 
Q 1425 3038 1878 3038 
Q 2478 3038 2890 2622 
Q 3303 2206 3303 1553 
Q 3303 931 2941 478 
Q 2500 -78 1738 -78 
Q 1113 -78 717 272 
Q 322 622 266 1200 
z
" transform="scale(0.015625)"/>
       </defs>
       <use xlink:href="#ArialMT-35"/>
      </g>
     </g>
    </g>
    <g id="xtick_6">
     <g id="text_6">
      <!-- 6 -->
      <g transform="translate(56.158517 37.754688) scale(0.06 -0.06)">
       <defs>
        <path id="ArialMT-36" d="M 3184 3459 
L 2625 3416 
Q 2550 3747 2413 3897 
Q 2184 4138 1850 4138 
Q 1581 4138 1378 3988 
Q 1113 3794 959 3422 
Q 806 3050 800 2363 
Q 1003 2672 1297 2822 
Q 1591 2972 1913 2972 
Q 2475 2972 2870 2558 
Q 3266 2144 3266 1488 
Q 3266 1056 3080 686 
Q 2894 316 2569 119 
Q 2244 -78 1831 -78 
Q 1128 -78 684 439 
Q 241 956 241 2144 
Q 241 3472 731 4075 
Q 1159 4600 1884 4600 
Q 2425 4600 2770 4297 
Q 3116 3994 3184 3459 
z
M 888 1484 
Q 888 1194 1011 928 
Q 1134 663 1356 523 
Q 1578 384 1822 384 
Q 2178 384 2434 671 
Q 2691 959 2691 1453 
Q 2691 1928 2437 2201 
Q 2184 2475 1800 2475 
Q 1419 2475 1153 2201 
Q 888 1928 888 1484 
z
" transform="scale(0.015625)"/>
       </defs>
       <use xlink:href="#ArialMT-36"/>
      </g>
     </g>
    </g>
    <g id="xtick_7">
     <g id="text_7">
      <!-- 7 -->
      <g transform="translate(61.76969 37.754688) scale(0.06 -0.06)">
       <defs>
        <path id="ArialMT-37" d="M 303 3981 
L 303 4522 
L 3269 4522 
L 3269 4084 
Q 2831 3619 2401 2847 
Q 1972 2075 1738 1259 
Q 1569 684 1522 0 
L 944 0 
Q 953 541 1156 1306 
Q 1359 2072 1739 2783 
Q 2119 3494 2547 3981 
L 303 3981 
z
" transform="scale(0.015625)"/>
       </defs>
       <use xlink:href="#ArialMT-37"/>
      </g>
     </g>
    </g>
    <g id="xtick_8">
     <g id="text_8">
      <!-- 8 -->
      <g transform="translate(67.380863 37.754688) scale(0.06 -0.06)">
       <defs>
        <path id="ArialMT-38" d="M 1131 2484 
Q 781 2613 612 2850 
Q 444 3088 444 3419 
Q 444 3919 803 4259 
Q 1163 4600 1759 4600 
Q 2359 4600 2725 4251 
Q 3091 3903 3091 3403 
Q 3091 3084 2923 2848 
Q 2756 2613 2416 2484 
Q 2838 2347 3058 2040 
Q 3278 1734 3278 1309 
Q 3278 722 2862 322 
Q 2447 -78 1769 -78 
Q 1091 -78 675 323 
Q 259 725 259 1325 
Q 259 1772 486 2073 
Q 713 2375 1131 2484 
z
M 1019 3438 
Q 1019 3113 1228 2906 
Q 1438 2700 1772 2700 
Q 2097 2700 2305 2904 
Q 2513 3109 2513 3406 
Q 2513 3716 2298 3927 
Q 2084 4138 1766 4138 
Q 1444 4138 1231 3931 
Q 1019 3725 1019 3438 
z
M 838 1322 
Q 838 1081 952 856 
Q 1066 631 1291 507 
Q 1516 384 1775 384 
Q 2178 384 2440 643 
Q 2703 903 2703 1303 
Q 2703 1709 2433 1975 
Q 2163 2241 1756 2241 
Q 1359 2241 1098 1978 
Q 838 1716 838 1322 
z
" transform="scale(0.015625)"/>
       </defs>
       <use xlink:href="#ArialMT-38"/>
      </g>
     </g>
    </g>
    <g id="xtick_9">
     <g id="text_9">
      <!-- 9 -->
      <g transform="translate(72.992036 37.754688) scale(0.06 -0.06)">
       <defs>
        <path id="ArialMT-39" d="M 350 1059 
L 891 1109 
Q 959 728 1153 556 
Q 1347 384 1650 384 
Q 1909 384 2104 503 
Q 2300 622 2425 820 
Q 2550 1019 2634 1356 
Q 2719 1694 2719 2044 
Q 2719 2081 2716 2156 
Q 2547 1888 2255 1720 
Q 1963 1553 1622 1553 
Q 1053 1553 659 1965 
Q 266 2378 266 3053 
Q 266 3750 677 4175 
Q 1088 4600 1706 4600 
Q 2153 4600 2523 4359 
Q 2894 4119 3086 3673 
Q 3278 3228 3278 2384 
Q 3278 1506 3087 986 
Q 2897 466 2520 194 
Q 2144 -78 1638 -78 
Q 1100 -78 759 220 
Q 419 519 350 1059 
z
M 2653 3081 
Q 2653 3566 2395 3850 
Q 2138 4134 1775 4134 
Q 1400 4134 1122 3828 
Q 844 3522 844 3034 
Q 844 2597 1108 2323 
Q 1372 2050 1759 2050 
Q 2150 2050 2401 2323 
Q 2653 2597 2653 3081 
z
" transform="scale(0.015625)"/>
       </defs>
       <use xlink:href="#ArialMT-39"/>
      </g>
     </g>
    </g>
   </g>
   <g id="matplotlib.axis_2">
    <g id="ytick_1">
     <g id="line2d_2">
      <defs>
       <path id="m2a1a8f25a8" d="M 0 0 
L -3.5 0 
" style="stroke: #000000; stroke-width: 0.8"/>
      </defs>
      <g>
       <use xlink:href="#m2a1a8f25a8" x="27.105625" y="30.96" style="stroke: #000000; stroke-width: 0.8"/>
      </g>
     </g>
     <g id="text_10">
      <!-- 0 -->
      <g transform="translate(16.769062 33.107344) scale(0.06 -0.06)">
       <defs>
        <path id="ArialMT-30" d="M 266 2259 
Q 266 3072 433 3567 
Q 600 4063 929 4331 
Q 1259 4600 1759 4600 
Q 2128 4600 2406 4451 
Q 2684 4303 2865 4023 
Q 3047 3744 3150 3342 
Q 3253 2941 3253 2259 
Q 3253 1453 3087 958 
Q 2922 463 2592 192 
Q 2263 -78 1759 -78 
Q 1097 -78 719 397 
Q 266 969 266 2259 
z
M 844 2259 
Q 844 1131 1108 757 
Q 1372 384 1759 384 
Q 2147 384 2411 759 
Q 2675 1134 2675 2259 
Q 2675 3391 2411 3762 
Q 2147 4134 1753 4134 
Q 1366 4134 1134 3806 
Q 844 3388 844 2259 
z
" transform="scale(0.015625)"/>
       </defs>
       <use xlink:href="#ArialMT-30"/>
      </g>
     </g>
    </g>
    <g id="ytick_2">
     <g id="line2d_3">
      <g>
       <use xlink:href="#m2a1a8f25a8" x="27.105625" y="11.16" style="stroke: #000000; stroke-width: 0.8"/>
      </g>
     </g>
     <g id="text_11">
      <!-- 2 -->
      <g transform="translate(16.769062 13.307344) scale(0.06 -0.06)">
       <use xlink:href="#ArialMT-32"/>
      </g>
     </g>
    </g>
    <g id="text_12">
     <!-- IC (bits) -->
     <g transform="translate(12.295781 31.329453) rotate(-90) scale(0.07 -0.07)">
      <defs>
       <path id="ArialMT-49" d="M 597 0 
L 597 4581 
L 1203 4581 
L 1203 0 
L 597 0 
z
" transform="scale(0.015625)"/>
       <path id="ArialMT-43" d="M 3763 1606 
L 4369 1453 
Q 4178 706 3683 314 
Q 3188 -78 2472 -78 
Q 1731 -78 1267 223 
Q 803 525 561 1097 
Q 319 1669 319 2325 
Q 319 3041 592 3573 
Q 866 4106 1370 4382 
Q 1875 4659 2481 4659 
Q 3169 4659 3637 4309 
Q 4106 3959 4291 3325 
L 3694 3184 
Q 3534 3684 3231 3912 
Q 2928 4141 2469 4141 
Q 1941 4141 1586 3887 
Q 1231 3634 1087 3207 
Q 944 2781 944 2328 
Q 944 1744 1114 1308 
Q 1284 872 1643 656 
Q 2003 441 2422 441 
Q 2931 441 3284 734 
Q 3638 1028 3763 1606 
z
" transform="scale(0.015625)"/>
       <path id="ArialMT-20" transform="scale(0.015625)"/>
       <path id="ArialMT-28" d="M 1497 -1347 
Q 1031 -759 709 28 
Q 388 816 388 1659 
Q 388 2403 628 3084 
Q 909 3875 1497 4659 
L 1900 4659 
Q 1522 4009 1400 3731 
Q 1209 3300 1100 2831 
Q 966 2247 966 1656 
Q 966 153 1900 -1347 
L 1497 -1347 
z
" transform="scale(0.015625)"/>
       <path id="ArialMT-62" d="M 941 0 
L 419 0 
L 419 4581 
L 981 4581 
L 981 2947 
Q 1338 3394 1891 3394 
Q 2197 3394 2470 3270 
Q 2744 3147 2920 2923 
Q 3097 2700 3197 2384 
Q 3297 2069 3297 1709 
Q 3297 856 2875 390 
Q 2453 -75 1863 -75 
Q 1275 -75 941 416 
L 941 0 
z
M 934 1684 
Q 934 1088 1097 822 
Q 1363 388 1816 388 
Q 2184 388 2453 708 
Q 2722 1028 2722 1663 
Q 2722 2313 2464 2622 
Q 2206 2931 1841 2931 
Q 1472 2931 1203 2611 
Q 934 2291 934 1684 
z
" transform="scale(0.015625)"/>
       <path id="ArialMT-69" d="M 425 3934 
L 425 4581 
L 988 4581 
L 988 3934 
L 425 3934 
z
M 425 0 
L 425 3319 
L 988 3319 
L 988 0 
L 425 0 
z
" transform="scale(0.015625)"/>
       <path id="ArialMT-74" d="M 1650 503 
L 1731 6 
Q 1494 -44 1306 -44 
Q 1000 -44 831 53 
Q 663 150 594 308 
Q 525 466 525 972 
L 525 2881 
L 113 2881 
L 113 3319 
L 525 3319 
L 525 4141 
L 1084 4478 
L 1084 3319 
L 1650 3319 
L 1650 2881 
L 1084 2881 
L 1084 941 
Q 1084 700 1114 631 
Q 1144 563 1211 522 
Q 1278 481 1403 481 
Q 1497 481 1650 503 
z
" transform="scale(0.015625)"/>
       <path id="ArialMT-73" d="M 197 991 
L 753 1078 
Q 800 744 1014 566 
Q 1228 388 1613 388 
Q 2000 388 2187 545 
Q 2375 703 2375 916 
Q 2375 1106 2209 1216 
Q 2094 1291 1634 1406 
Q 1016 1563 777 1677 
Q 538 1791 414 1992 
Q 291 2194 291 2438 
Q 291 2659 392 2848 
Q 494 3038 669 3163 
Q 800 3259 1026 3326 
Q 1253 3394 1513 3394 
Q 1903 3394 2198 3281 
Q 2494 3169 2634 2976 
Q 2775 2784 2828 2463 
L 2278 2388 
Q 2241 2644 2061 2787 
Q 1881 2931 1553 2931 
Q 1166 2931 1000 2803 
Q 834 2675 834 2503 
Q 834 2394 903 2306 
Q 972 2216 1119 2156 
Q 1203 2125 1616 2013 
Q 2213 1853 2448 1751 
Q 2684 1650 2818 1456 
Q 2953 1263 2953 975 
Q 2953 694 2789 445 
Q 2625 197 2315 61 
Q 2006 -75 1616 -75 
Q 969 -75 630 194 
Q 291 463 197 991 
z
" transform="scale(0.015625)"/>
       <path id="ArialMT-29" d="M 791 -1347 
L 388 -1347 
Q 1322 153 1322 1656 
Q 1322 2244 1188 2822 
Q 1081 3291 891 3722 
Q 769 4003 388 4659 
L 791 4659 
Q 1378 3875 1659 3084 
Q 1900 2403 1900 1659 
Q 1900 816 1576 28 
Q 1253 -759 791 -1347 
z
" transform="scale(0.015625)"/>
      </defs>
      <use xlink:href="#ArialMT-49"/>
      <use xlink:href="#ArialMT-43" x="27.783203"/>
      <use xlink:href="#ArialMT-20" x="100"/>
      <use xlink:href="#ArialMT-28" x="127.783203"/>
      <use xlink:href="#ArialMT-62" x="161.083984"/>
      <use xlink:href="#ArialMT-69" x="216.699219"/>
      <use xlink:href="#ArialMT-74" x="238.916016"/>
      <use xlink:href="#ArialMT-73" x="266.699219"/>
      <use xlink:href="#ArialMT-29" x="316.699219"/>
     </g>
    </g>
   </g>
   <g id="patch_39">
    <path d="M 27.105625 30.96 
L 27.105625 7.2 
" style="fill: none; stroke: #000000; stroke-linejoin: miter; stroke-linecap: square"/>
   </g>
   <g id="patch_40">
    <path d="M 27.105625 30.96 
L 77.325625 30.96 
" style="fill: none; stroke: #000000; stroke-linejoin: miter; stroke-linecap: square"/>
   </g>
  </g>
  <g id="axes_2">
   <g id="text_13">
    <!-- E-value 1.1e-010 -->
    <g transform="translate(24.01625 44.682469) scale(0.07 -0.07)">
     <defs>
      <path id="Arial-ItalicMT-45" d="M 288 0 
L 1247 4581 
L 4553 4581 
L 4444 4059 
L 1750 4059 
L 1450 2634 
L 4075 2634 
L 3966 2113 
L 1341 2113 
L 1009 519 
L 3894 519 
L 3784 0 
L 288 0 
z
" transform="scale(0.015625)"/>
      <path id="Arial-ItalicMT-2d" d="M 297 1375 
L 416 1941 
L 2141 1941 
L 2025 1375 
L 297 1375 
z
" transform="scale(0.015625)"/>
      <path id="Arial-ItalicMT-76" d="M 1050 0 
L 506 3319 
L 1056 3319 
L 1341 1491 
Q 1388 1191 1456 513 
Q 1619 866 1872 1322 
L 2981 3319 
L 3578 3319 
L 1678 0 
L 1050 0 
z
" transform="scale(0.015625)"/>
      <path id="Arial-ItalicMT-61" d="M 2450 413 
Q 2156 159 1884 42 
Q 1613 -75 1303 -75 
Q 844 -75 562 195 
Q 281 466 281 888 
Q 281 1166 407 1380 
Q 534 1594 743 1723 
Q 953 1853 1256 1909 
Q 1447 1947 1980 1969 
Q 2513 1991 2744 2081 
Q 2809 2313 2809 2466 
Q 2809 2663 2666 2775 
Q 2469 2931 2091 2931 
Q 1734 2931 1507 2773 
Q 1281 2616 1178 2325 
L 606 2375 
Q 781 2869 1161 3131 
Q 1541 3394 2119 3394 
Q 2734 3394 3094 3100 
Q 3369 2881 3369 2531 
Q 3369 2266 3291 1916 
L 3106 1091 
Q 3019 697 3019 450 
Q 3019 294 3088 0 
L 2516 0 
Q 2469 163 2450 413 
z
M 2659 1681 
Q 2541 1634 2405 1609 
Q 2269 1584 1950 1556 
Q 1456 1513 1253 1445 
Q 1050 1378 947 1231 
Q 844 1084 844 906 
Q 844 669 1008 516 
Q 1172 363 1475 363 
Q 1756 363 2015 511 
Q 2275 659 2425 925 
Q 2575 1191 2659 1681 
z
" transform="scale(0.015625)"/>
      <path id="Arial-ItalicMT-6c" d="M 169 0 
L 1125 4581 
L 1691 4581 
L 734 0 
L 169 0 
z
" transform="scale(0.015625)"/>
      <path id="Arial-ItalicMT-75" d="M 2478 600 
Q 1881 -75 1256 -75 
Q 872 -75 636 145 
Q 400 366 400 684 
Q 400 894 506 1403 
L 906 3319 
L 1472 3319 
L 1028 1197 
Q 972 931 972 784 
Q 972 597 1086 492 
Q 1200 388 1422 388 
Q 1659 388 1886 503 
Q 2113 619 2277 816 
Q 2441 1013 2544 1281 
Q 2613 1453 2703 1884 
L 3003 3319 
L 3569 3319 
L 2875 0 
L 2353 0 
L 2478 600 
z
" transform="scale(0.015625)"/>
      <path id="Arial-ItalicMT-65" d="M 2650 1128 
L 3200 1072 
Q 3081 663 2654 294 
Q 2228 -75 1638 -75 
Q 1269 -75 961 95 
Q 653 266 492 591 
Q 331 916 331 1331 
Q 331 1875 582 2386 
Q 834 2897 1234 3145 
Q 1634 3394 2100 3394 
Q 2694 3394 3048 3025 
Q 3403 2656 3403 2019 
Q 3403 1775 3359 1519 
L 916 1519 
Q 903 1422 903 1344 
Q 903 878 1117 633 
Q 1331 388 1641 388 
Q 1931 388 2212 578 
Q 2494 769 2650 1128 
z
M 1006 1950 
L 2869 1950 
Q 2872 2038 2872 2075 
Q 2872 2500 2659 2726 
Q 2447 2953 2113 2953 
Q 1750 2953 1451 2703 
Q 1153 2453 1006 1950 
z
" transform="scale(0.015625)"/>
      <path id="Arial-ItalicMT-20" transform="scale(0.015625)"/>
      <path id="Arial-ItalicMT-31" d="M 1541 0 
L 2266 3459 
Q 1797 3091 947 2869 
L 1053 3381 
Q 1475 3550 1886 3822 
Q 2297 4094 2503 4297 
Q 2628 4422 2741 4600 
L 3069 4600 
L 2109 0 
L 1541 0 
z
" transform="scale(0.015625)"/>
      <path id="Arial-ItalicMT-2e" d="M 369 0 
L 503 641 
L 1144 641 
L 1006 0 
L 369 0 
z
" transform="scale(0.015625)"/>
      <path id="Arial-ItalicMT-30" d="M 453 1503 
Q 453 2084 626 2684 
Q 800 3284 1012 3643 
Q 1225 4003 1453 4206 
Q 1681 4409 1901 4504 
Q 2122 4600 2391 4600 
Q 2916 4600 3267 4209 
Q 3619 3819 3619 3081 
Q 3619 2322 3375 1578 
Q 3088 697 2575 256 
Q 2181 -78 1678 -78 
Q 1163 -78 808 326 
Q 453 731 453 1503 
z
M 1000 1359 
Q 1000 938 1141 700 
Q 1331 372 1706 372 
Q 2034 372 2303 669 
Q 2691 1088 2886 1895 
Q 3081 2703 3081 3216 
Q 3081 3709 2892 3928 
Q 2703 4147 2394 4147 
Q 2169 4147 1973 4031 
Q 1778 3916 1600 3634 
Q 1347 3238 1159 2447 
Q 1000 1772 1000 1359 
z
" transform="scale(0.015625)"/>
     </defs>
     <use xlink:href="#Arial-ItalicMT-45"/>
     <use xlink:href="#Arial-ItalicMT-2d" x="66.699219"/>
     <use xlink:href="#Arial-ItalicMT-76" x="100"/>
     <use xlink:href="#Arial-ItalicMT-61" x="150"/>
     <use xlink:href="#Arial-ItalicMT-6c" x="205.615234"/>
     <use xlink:href="#Arial-ItalicMT-75" x="227.832031"/>
     <use xlink:href="#Arial-ItalicMT-65" x="283.447266"/>
     <use xlink:href="#Arial-ItalicMT-20" x="339.0625"/>
     <use xlink:href="#Arial-ItalicMT-31" x="366.845703"/>
     <use xlink:href="#Arial-ItalicMT-2e" x="422.460938"/>
     <use xlink:href="#Arial-ItalicMT-31" x="450.244141"/>
     <use xlink:href="#Arial-ItalicMT-65" x="505.859375"/>
     <use xlink:href="#Arial-ItalicMT-2d" x="561.474609"/>
     <use xlink:href="#Arial-ItalicMT-30" x="594.775391"/>
     <use xlink:href="#Arial-ItalicMT-31" x="650.390625"/>
     <use xlink:href="#Arial-ItalicMT-30" x="706.005859"/>
    </g>
   </g>
  </g>
 </g>
 <defs>
  <clipPath id="pec191c0883">
   <rect x="27.105625" y="7.2" width="50.22" height="23.76"/>
  </clipPath>
 </defs>
</svg>
