<?xml version="1.0" encoding="utf-8" standalone="no"?>
<!DOCTYPE svg PUBLIC "-//W3C//DTD SVG 1.1//EN"
  "http://www.w3.org/Graphics/SVG/1.1/DTD/svg11.dtd">
<svg xmlns:xlink="http://www.w3.org/1999/xlink" width="90.80039pt" height="114.192pt" viewBox="0 0 90.80039 114.192" xmlns="http://www.w3.org/2000/svg" version="1.1">
 <metadata>
  <rdf:RDF xmlns:dc="http://purl.org/dc/elements/1.1/" xmlns:cc="http://creativecommons.org/ns#" xmlns:rdf="http://www.w3.org/1999/02/22-rdf-syntax-ns#">
   <cc:Work>
    <dc:type rdf:resource="http://purl.org/dc/dcmitype/StillImage"/>
    <dc:date>2024-02-05T14:03:30.838722</dc:date>
    <dc:format>image/svg+xml</dc:format>
    <dc:creator>
     <cc:Agent>
      <dc:title>Matplotlib v3.6.3, https://matplotlib.org/</dc:title>
     </cc:Agent>
    </dc:creator>
   </cc:Work>
  </rdf:RDF>
 </metadata>
 <defs>
  <style type="text/css">*{stroke-linejoin: round; stroke-linecap: butt}</style>
 </defs>
 <g id="figure_1">
  <g id="patch_1">
   <path d="M 0 114.192 
L 90.80039 114.192 
L 90.80039 0 
L 0 0 
z
" style="fill: #ffffff"/>
  </g>
  <g id="axes_1">
   <g id="patch_2">
    <path d="M 27.105625 38.143256 
L 82.905625 38.143256 
L 82.905625 7.2 
L 27.105625 7.2 
z
" style="fill: #ffffff"/>
   </g>
   <g id="line2d_1">
    <path d="M 27.105625 38.143256 
L 82.905625 38.143256 
" clip-path="url(#peaa1fc6237)" style="fill: none; stroke: #000000; stroke-width: 0.5; stroke-linecap: square"/>
   </g>
   <g id="patch_3">
    <path d="M 29.693945 38.109911 
L 29.693945 38.095301 
L 31.946721 38.095301 
L 31.946721 38.129838 
Q 31.617956 38.135156 30.994319 38.139206 
Q 30.371811 38.143256 29.732357 38.143256 
Q 28.921177 38.143256 28.316746 38.13756 
Q 27.713445 38.131844 27.409535 38.121228 
Q 27.105625 38.110611 27.105625 38.09814 
Q 27.105625 38.08459 27.444558 38.074068 
Q 27.783491 38.063546 28.436503 38.057926 
Q 28.934735 38.053611 29.675868 38.053611 
Q 30.639569 38.053611 31.181862 38.060386 
Q 31.724155 38.067142 31.878934 38.079083 
L 30.841799 38.082338 
Q 30.73221 38.075961 30.42943 38.07227 
Q 30.127779 38.068561 29.675868 38.068561 
Q 28.991223 38.068561 28.586763 38.075847 
Q 28.182303 38.083114 28.182303 38.097421 
Q 28.182303 38.112863 28.591282 38.120584 
Q 29.001391 38.128287 29.6657 38.128287 
Q 29.994466 38.128287 30.324361 38.126129 
Q 30.654256 38.123972 30.890379 38.120906 
L 30.890379 38.109911 
L 29.693945 38.109911 
z
" clip-path="url(#peaa1fc6237)" style="fill: #dc9514"/>
   </g>
   <g id="patch_4">
    <path d="M 30.858657 37.951406 
L 31.946721 37.967879 
Q 31.696842 38.011383 31.114601 38.032497 
Q 30.532359 38.053611 29.638376 38.053611 
Q 28.530904 38.053611 27.817658 38.017474 
Q 27.105625 37.981278 27.105625 37.918575 
Q 27.105625 37.852217 27.821297 37.815557 
Q 28.538182 37.77884 29.706304 37.77884 
Q 30.72644 37.77884 31.363266 37.807611 
Q 31.741723 37.824664 31.930952 37.856567 
L 30.821054 37.86927 
Q 30.721588 37.84862 30.408633 37.836671 
Q 30.096891 37.824664 29.649293 37.824664 
Q 29.031874 37.824664 28.646139 37.845894 
Q 28.261617 37.867066 28.261617 37.914572 
Q 28.261617 37.964979 28.640074 37.986383 
Q 29.019744 38.007729 29.626246 38.007729 
Q 30.073844 38.007729 30.39529 37.994155 
Q 30.717949 37.980582 30.858657 37.951406 
z
" clip-path="url(#peaa1fc6237)" style="fill: #59a9d8"/>
   </g>
   <g id="patch_5">
    <path d="M 31.946721 37.77884 
L 30.887303 37.77884 
L 30.466064 37.42856 
L 28.536786 37.42856 
L 28.138715 37.77884 
L 27.105625 37.77884 
L 28.984354 36.237404 
L 30.015337 36.237404 
L 31.946721 37.77884 
z
M 30.153293 37.168794 
L 29.488788 36.59677 
L 28.83692 37.168794 
L 30.153293 37.168794 
z
" clip-path="url(#peaa1fc6237)" style="fill: #0e927b"/>
   </g>
   <g id="patch_6">
    <path d="M 28.913056 36.237404 
L 28.913056 22.476968 
L 27.105625 22.476968 
L 27.105625 19.674988 
L 31.946721 19.674988 
L 31.946721 22.476968 
L 30.14328 22.476968 
L 30.14328 36.237404 
L 28.913056 36.237404 
z
" clip-path="url(#peaa1fc6237)" style="fill: #1a1a1a"/>
   </g>
   <g id="patch_7">
    <path d="M 35.954547 38.143177 
L 37.042611 38.14319 
Q 36.792733 38.143223 36.210491 38.14324 
Q 35.62825 38.143256 34.734266 38.143256 
Q 33.626794 38.143256 32.913548 38.143228 
Q 32.201515 38.1432 32.201515 38.143152 
Q 32.201515 38.1431 32.917187 38.143072 
Q 33.634072 38.143044 34.802194 38.143044 
Q 35.82233 38.143044 36.459157 38.143066 
Q 36.837614 38.143079 37.026842 38.143104 
L 35.916944 38.143114 
Q 35.817478 38.143098 35.504523 38.143088 
Q 35.192781 38.143079 34.745183 38.143079 
Q 34.127765 38.143079 33.74203 38.143096 
Q 33.357507 38.143112 33.357507 38.143149 
Q 33.357507 38.143187 33.735964 38.143204 
Q 34.115635 38.14322 34.722136 38.14322 
Q 35.169734 38.14322 35.49118 38.14321 
Q 35.813839 38.143199 35.954547 38.143177 
z
" clip-path="url(#peaa1fc6237)" style="fill: #59a9d8"/>
   </g>
   <g id="patch_8">
    <path d="M 34.789835 38.04968 
L 34.789835 38.008773 
L 37.042611 38.008773 
L 37.042611 38.105476 
Q 36.713846 38.120365 36.090209 38.131704 
Q 35.467702 38.143044 34.828248 38.143044 
Q 34.017068 38.143044 33.412637 38.127095 
Q 32.809336 38.111092 32.505426 38.081366 
Q 32.201515 38.05164 32.201515 38.016721 
Q 32.201515 37.978782 32.540449 37.949321 
Q 32.879382 37.91986 33.532393 37.904123 
Q 34.030625 37.892042 34.771759 37.892042 
Q 35.735459 37.892042 36.277752 37.911011 
Q 36.820045 37.929928 36.974825 37.963363 
L 35.937689 37.972477 
Q 35.828101 37.95462 35.52532 37.944287 
Q 35.22367 37.933902 34.771759 37.933902 
Q 34.087114 37.933902 33.682654 37.954302 
Q 33.278193 37.974649 33.278193 38.014708 
Q 33.278193 38.057946 33.687173 38.079565 
Q 34.097282 38.101131 34.761591 38.101131 
Q 35.090356 38.101131 35.420251 38.09509 
Q 35.750146 38.089049 35.986269 38.080465 
L 35.986269 38.04968 
L 34.789835 38.04968 
z
" clip-path="url(#peaa1fc6237)" style="fill: #dc9514"/>
   </g>
   <g id="patch_9">
    <path d="M 34.008947 37.892042 
L 34.008947 36.592689 
L 32.201515 36.592689 
L 32.201515 36.328107 
L 37.042611 36.328107 
L 37.042611 36.592689 
L 35.23917 36.592689 
L 35.23917 37.892042 
L 34.008947 37.892042 
z
" clip-path="url(#peaa1fc6237)" style="fill: #1a1a1a"/>
   </g>
   <g id="patch_10">
    <path d="M 37.042611 36.328107 
L 35.983194 36.328107 
L 35.561954 32.360425 
L 33.632677 32.360425 
L 33.234605 36.328107 
L 32.201515 36.328107 
L 34.080244 18.868021 
L 35.111228 18.868021 
L 37.042611 36.328107 
z
M 35.249184 29.418014 
L 34.584678 22.938611 
L 33.93281 29.418014 
L 35.249184 29.418014 
z
" clip-path="url(#peaa1fc6237)" style="fill: #0e927b"/>
   </g>
   <g id="patch_11">
    <path d="M 39.885726 38.138585 
L 39.885726 38.136538 
L 42.138502 38.136538 
L 42.138502 38.141376 
Q 41.809737 38.142121 41.186099 38.142688 
Q 40.563592 38.143256 39.924138 38.143256 
Q 39.112958 38.143256 38.508527 38.142458 
Q 37.905226 38.141657 37.601316 38.14017 
Q 37.297406 38.138683 37.297406 38.136936 
Q 37.297406 38.135038 37.636339 38.133564 
Q 37.975272 38.13209 38.628284 38.131302 
Q 39.126515 38.130698 39.867649 38.130698 
Q 40.831349 38.130698 41.373642 38.131647 
Q 41.915936 38.132593 42.070715 38.134266 
L 41.033579 38.134722 
Q 40.923991 38.133829 40.621211 38.133312 
Q 40.31956 38.132792 39.867649 38.132792 
Q 39.183004 38.132792 38.778544 38.133813 
Q 38.374084 38.134831 38.374084 38.136835 
Q 38.374084 38.138998 38.783063 38.14008 
Q 39.193172 38.141159 39.857481 38.141159 
Q 40.186246 38.141159 40.516141 38.140857 
Q 40.846036 38.140554 41.08216 38.140125 
L 41.08216 38.138585 
L 39.885726 38.138585 
z
" clip-path="url(#peaa1fc6237)" style="fill: #dc9514"/>
   </g>
   <g id="patch_12">
    <path d="M 41.050438 38.101481 
L 42.138502 38.10619 
Q 41.888623 38.118626 41.306381 38.124662 
Q 40.72414 38.130698 39.830157 38.130698 
Q 38.722685 38.130698 38.009439 38.120367 
Q 37.297406 38.11002 37.297406 38.092095 
Q 37.297406 38.073125 38.013078 38.062646 
Q 38.729963 38.052149 39.898085 38.052149 
Q 40.91822 38.052149 41.555047 38.060374 
Q 41.933504 38.065249 42.122733 38.074369 
L 41.012835 38.078001 
Q 40.913368 38.072097 40.600414 38.068681 
Q 40.288672 38.065249 39.841074 38.065249 
Q 39.223655 38.065249 38.83792 38.071318 
Q 38.453398 38.07737 38.453398 38.090951 
Q 38.453398 38.105361 38.831855 38.111479 
Q 39.211525 38.117582 39.818027 38.117582 
Q 40.265625 38.117582 40.587071 38.113701 
Q 40.909729 38.109821 41.050438 38.101481 
z
" clip-path="url(#peaa1fc6237)" style="fill: #59a9d8"/>
   </g>
   <g id="patch_13">
    <path d="M 39.104837 38.052149 
L 39.104837 37.968682 
L 37.297406 37.968682 
L 37.297406 37.951686 
L 42.138502 37.951686 
L 42.138502 37.968682 
L 40.33506 37.968682 
L 40.33506 38.052149 
L 39.104837 38.052149 
z
" clip-path="url(#peaa1fc6237)" style="fill: #1a1a1a"/>
   </g>
   <g id="patch_14">
    <path d="M 42.138502 37.951686 
L 41.079084 37.951686 
L 40.657845 32.355523 
L 38.728567 32.355523 
L 38.330496 37.951686 
L 37.297406 37.951686 
L 39.176134 13.325343 
L 40.207118 13.325343 
L 42.138502 37.951686 
z
M 40.345074 28.205439 
L 39.680569 19.066651 
L 39.028701 28.205439 
L 40.345074 28.205439 
z
" clip-path="url(#peaa1fc6237)" style="fill: #0e927b"/>
   </g>
   <g id="patch_15">
    <path d="M 46.146328 37.978997 
L 47.234392 38.005472 
Q 46.984513 38.075389 46.402272 38.109323 
Q 45.82003 38.143256 44.926047 38.143256 
Q 43.818575 38.143256 43.105329 38.085178 
Q 42.393296 38.027006 42.393296 37.926232 
Q 42.393296 37.819585 43.108968 37.760668 
Q 43.825853 37.701658 44.993975 37.701658 
Q 46.014111 37.701658 46.650938 37.747896 
Q 47.029395 37.775304 47.218623 37.826577 
L 46.108725 37.846992 
Q 46.009259 37.813805 45.696304 37.794601 
Q 45.384562 37.775304 44.936964 37.775304 
Q 44.319545 37.775304 43.93381 37.809424 
Q 43.549288 37.84345 43.549288 37.9198 
Q 43.549288 38.000811 43.927745 38.03521 
Q 44.307415 38.069516 44.913917 38.069516 
Q 45.361515 38.069516 45.682961 38.047702 
Q 46.00562 38.025888 46.146328 37.978997 
z
" clip-path="url(#peaa1fc6237)" style="fill: #59a9d8"/>
   </g>
   <g id="patch_16">
    <path d="M 44.981616 37.498534 
L 44.981616 37.409537 
L 47.234392 37.409537 
L 47.234392 37.619924 
Q 46.905627 37.652318 46.28199 37.676988 
Q 45.659483 37.701658 45.020029 37.701658 
Q 44.208848 37.701658 43.604418 37.666958 
Q 43.001116 37.632144 42.697206 37.567471 
Q 42.393296 37.502799 42.393296 37.426829 
Q 42.393296 37.344289 42.732229 37.280193 
Q 43.071163 37.216097 43.724174 37.181859 
Q 44.222406 37.155575 44.96354 37.155575 
Q 45.92724 37.155575 46.469533 37.196845 
Q 47.011826 37.238001 47.166605 37.310742 
L 46.12947 37.330571 
Q 46.019881 37.291721 45.717101 37.269241 
Q 45.415451 37.246647 44.96354 37.246647 
Q 44.278895 37.246647 43.874434 37.291029 
Q 43.469974 37.335297 43.469974 37.422449 
Q 43.469974 37.516517 43.878953 37.563552 
Q 44.289063 37.610471 44.953372 37.610471 
Q 45.282137 37.610471 45.612032 37.597329 
Q 45.941927 37.584187 46.17805 37.565512 
L 46.17805 37.498534 
L 44.981616 37.498534 
z
" clip-path="url(#peaa1fc6237)" style="fill: #dc9514"/>
   </g>
   <g id="patch_17">
    <path d="M 47.234392 37.155575 
L 46.174975 37.155575 
L 45.753735 36.884431 
L 43.824458 36.884431 
L 43.426386 37.155575 
L 42.393296 37.155575 
L 44.272025 35.962383 
L 45.303009 35.962383 
L 47.234392 37.155575 
z
M 45.440965 36.683351 
L 44.776459 36.24056 
L 44.124591 36.683351 
L 45.440965 36.683351 
z
" clip-path="url(#peaa1fc6237)" style="fill: #0e927b"/>
   </g>
   <g id="patch_18">
    <path d="M 44.200727 35.962383 
L 44.200727 24.720505 
L 42.393296 24.720505 
L 42.393296 22.431368 
L 47.234392 22.431368 
L 47.234392 24.720505 
L 45.430951 24.720505 
L 45.430951 35.962383 
L 44.200727 35.962383 
z
" clip-path="url(#peaa1fc6237)" style="fill: #1a1a1a"/>
   </g>
   <g id="patch_19">
    <path d="M 52.330283 38.143256 
L 51.270865 38.143256 
L 50.849625 38.104249 
L 48.920348 38.104249 
L 48.522277 38.143256 
L 47.489187 38.143256 
L 49.367915 37.971603 
L 50.398899 37.971603 
L 52.330283 38.143256 
z
M 50.536855 38.075322 
L 49.87235 38.011622 
L 49.220481 38.075322 
L 50.536855 38.075322 
z
" clip-path="url(#peaa1fc6237)" style="fill: #0e927b"/>
   </g>
   <g id="patch_20">
    <path d="M 51.242219 37.90084 
L 52.330283 37.912246 
Q 52.080404 37.942366 51.498162 37.956985 
Q 50.915921 37.971603 50.021937 37.971603 
Q 48.914465 37.971603 48.20122 37.946583 
Q 47.489187 37.921523 47.489187 37.878109 
Q 47.489187 37.832166 48.204859 37.806784 
Q 48.921743 37.781362 50.089866 37.781362 
Q 51.110001 37.781362 51.746828 37.801282 
Q 52.125285 37.813089 52.314513 37.835178 
L 51.204616 37.843973 
Q 51.105149 37.829676 50.792194 37.821403 
Q 50.480453 37.813089 50.032854 37.813089 
Q 49.415436 37.813089 49.029701 37.827788 
Q 48.645179 37.842447 48.645179 37.875338 
Q 48.645179 37.910238 49.023636 37.925057 
Q 49.403306 37.939836 50.009807 37.939836 
Q 50.457406 37.939836 50.778851 37.930439 
Q 51.10151 37.921041 51.242219 37.90084 
z
" clip-path="url(#peaa1fc6237)" style="fill: #59a9d8"/>
   </g>
   <g id="patch_21">
    <path d="M 50.077507 37.672741 
L 50.077507 37.625149 
L 52.330283 37.625149 
L 52.330283 37.737655 
Q 52.001517 37.754978 51.37788 37.76817 
Q 50.755373 37.781362 50.115919 37.781362 
Q 49.304739 37.781362 48.700308 37.762807 
Q 48.097007 37.744189 47.793097 37.709605 
Q 47.489187 37.675022 47.489187 37.634396 
Q 47.489187 37.590257 47.82812 37.555981 
Q 48.167053 37.521706 48.820064 37.503397 
Q 49.318296 37.489341 50.05943 37.489341 
Q 51.02313 37.489341 51.565423 37.511411 
Q 52.107716 37.533419 52.262496 37.572318 
L 51.22536 37.582921 
Q 51.115772 37.562146 50.812992 37.550125 
Q 50.511341 37.538042 50.05943 37.538042 
Q 49.374785 37.538042 48.970325 37.561776 
Q 48.565864 37.585449 48.565864 37.632054 
Q 48.565864 37.682358 48.974844 37.707509 
Q 49.384953 37.7326 50.049262 37.7326 
Q 50.378027 37.7326 50.707922 37.725572 
Q 51.037817 37.718544 51.273941 37.708557 
L 51.273941 37.672741 
L 50.077507 37.672741 
z
" clip-path="url(#peaa1fc6237)" style="fill: #dc9514"/>
   </g>
   <g id="patch_22">
    <path d="M 49.296618 37.489341 
L 49.296618 37.162019 
L 47.489187 37.162019 
L 47.489187 37.095368 
L 52.330283 37.095368 
L 52.330283 37.162019 
L 50.526841 37.162019 
L 50.526841 37.489341 
L 49.296618 37.489341 
z
" clip-path="url(#peaa1fc6237)" style="fill: #1a1a1a"/>
   </g>
   <g id="patch_23">
    <path d="M 56.338109 38.003078 
L 57.426173 38.025672 
Q 57.176294 38.085339 56.594053 38.114297 
Q 56.011811 38.143256 55.117828 38.143256 
Q 54.010356 38.143256 53.29711 38.093692 
Q 52.585077 38.044049 52.585077 37.958049 
Q 52.585077 37.867036 53.300749 37.816757 
Q 54.017634 37.766398 55.185756 37.766398 
Q 56.205892 37.766398 56.842718 37.805858 
Q 57.221175 37.829247 57.410404 37.873003 
L 56.300506 37.890426 
Q 56.20104 37.862104 55.888085 37.845715 
Q 55.576343 37.829247 55.128745 37.829247 
Q 54.511326 37.829247 54.125591 37.858365 
Q 53.741069 37.887403 53.741069 37.952559 
Q 53.741069 38.021694 54.119526 38.05105 
Q 54.499196 38.080327 55.105698 38.080327 
Q 55.553296 38.080327 55.874742 38.061711 
Q 56.197401 38.043094 56.338109 38.003078 
z
" clip-path="url(#peaa1fc6237)" style="fill: #59a9d8"/>
   </g>
   <g id="patch_24">
    <path d="M 55.173397 37.62622 
L 55.173397 37.564802 
L 57.426173 37.564802 
L 57.426173 37.709992 
Q 57.097408 37.732348 56.473771 37.749373 
Q 55.851263 37.766398 55.211809 37.766398 
Q 54.400629 37.766398 53.796198 37.742451 
Q 53.192897 37.718425 52.888987 37.673794 
Q 52.585077 37.629163 52.585077 37.576736 
Q 52.585077 37.519773 52.92401 37.47554 
Q 53.262943 37.431307 53.915955 37.407678 
Q 54.414187 37.38954 55.15532 37.38954 
Q 56.119021 37.38954 56.661314 37.418021 
Q 57.203607 37.446422 57.358386 37.496622 
L 56.321251 37.510306 
Q 56.211662 37.483496 55.908882 37.467982 
Q 55.607231 37.452389 55.15532 37.452389 
Q 54.470675 37.452389 54.066215 37.483018 
Q 53.661755 37.513568 53.661755 37.573712 
Q 53.661755 37.63863 54.070734 37.671089 
Q 54.480843 37.703469 55.145153 37.703469 
Q 55.473918 37.703469 55.803813 37.694399 
Q 56.133708 37.68533 56.369831 37.672442 
L 56.369831 37.62622 
L 55.173397 37.62622 
z
" clip-path="url(#peaa1fc6237)" style="fill: #dc9514"/>
   </g>
   <g id="patch_25">
    <path d="M 57.426173 37.38954 
L 56.366755 37.38954 
L 55.945516 36.948043 
L 54.016239 36.948043 
L 53.618167 37.38954 
L 52.585077 37.38954 
L 54.463806 35.4467 
L 55.494789 35.4467 
L 57.426173 37.38954 
z
M 55.632745 36.620631 
L 54.96824 35.899647 
L 54.316372 36.620631 
L 55.632745 36.620631 
z
" clip-path="url(#peaa1fc6237)" style="fill: #0e927b"/>
   </g>
   <g id="patch_26">
    <path d="M 54.392508 35.4467 
L 54.392508 33.832544 
L 52.585077 33.832544 
L 52.585077 33.50386 
L 57.426173 33.50386 
L 57.426173 33.832544 
L 55.622732 33.832544 
L 55.622732 35.4467 
L 54.392508 35.4467 
z
" clip-path="url(#peaa1fc6237)" style="fill: #1a1a1a"/>
   </g>
   <g id="patch_27">
    <path d="M 59.488399 38.143256 
L 59.488399 38.000643 
L 57.680967 38.000643 
L 57.680967 37.971603 
L 62.522063 37.971603 
L 62.522063 38.000643 
L 60.718622 38.000643 
L 60.718622 38.143256 
L 59.488399 38.143256 
z
" clip-path="url(#peaa1fc6237)" style="fill: #1a1a1a"/>
   </g>
   <g id="patch_28">
    <path d="M 60.269287 37.90084 
L 60.269287 37.869836 
L 62.522063 37.869836 
L 62.522063 37.943129 
Q 62.193298 37.954415 61.569661 37.963009 
Q 60.947154 37.971603 60.3077 37.971603 
Q 59.49652 37.971603 58.892089 37.959515 
Q 58.288788 37.947387 57.984878 37.924856 
Q 57.680967 37.902326 57.680967 37.87586 
Q 57.680967 37.847105 58.019901 37.824776 
Q 58.358834 37.802447 59.011845 37.790519 
Q 59.510077 37.781362 60.251211 37.781362 
Q 61.214911 37.781362 61.757204 37.79574 
Q 62.299497 37.810077 62.454277 37.835419 
L 61.417141 37.842326 
Q 61.307553 37.828792 61.004772 37.820961 
Q 60.703122 37.813089 60.251211 37.813089 
Q 59.566566 37.813089 59.162106 37.828551 
Q 58.757645 37.843973 58.757645 37.874334 
Q 58.757645 37.907105 59.166625 37.923491 
Q 59.576734 37.939836 60.241043 37.939836 
Q 60.569808 37.939836 60.899703 37.935258 
Q 61.229598 37.93068 61.465722 37.924174 
L 61.465722 37.90084 
L 60.269287 37.90084 
z
" clip-path="url(#peaa1fc6237)" style="fill: #dc9514"/>
   </g>
   <g id="patch_29">
    <path d="M 61.433999 37.672741 
L 62.522063 37.690248 
Q 62.272185 37.736484 61.689943 37.758923 
Q 61.107702 37.781362 60.213718 37.781362 
Q 59.106246 37.781362 58.393 37.742956 
Q 57.680967 37.704489 57.680967 37.637849 
Q 57.680967 37.567324 58.396639 37.528364 
Q 59.113524 37.489341 60.281646 37.489341 
Q 61.301782 37.489341 61.938609 37.519918 
Q 62.317066 37.538042 62.506294 37.571948 
L 61.396396 37.585449 
Q 61.29693 37.563502 60.983975 37.550803 
Q 60.672233 37.538042 60.224635 37.538042 
Q 59.607217 37.538042 59.221482 37.560605 
Q 58.83696 37.583106 58.83696 37.633595 
Q 58.83696 37.687166 59.215417 37.709914 
Q 59.595087 37.7326 60.201588 37.7326 
Q 60.649186 37.7326 60.970632 37.718174 
Q 61.293291 37.703749 61.433999 37.672741 
z
" clip-path="url(#peaa1fc6237)" style="fill: #59a9d8"/>
   </g>
   <g id="patch_30">
    <path d="M 62.522063 37.489341 
L 61.462646 37.489341 
L 61.041406 37.399813 
L 59.112129 37.399813 
L 58.714058 37.489341 
L 57.680967 37.489341 
L 59.559696 37.095368 
L 60.59068 37.095368 
L 62.522063 37.489341 
z
M 60.728636 37.33342 
L 60.06413 37.187217 
L 59.412262 37.33342 
L 60.728636 37.33342 
z
" clip-path="url(#peaa1fc6237)" style="fill: #0e927b"/>
   </g>
   <g id="patch_31">
    <path d="M 65.365178 37.978997 
L 65.365178 37.907028 
L 67.617954 37.907028 
L 67.617954 38.077161 
Q 67.289189 38.103356 66.665551 38.123306 
Q 66.043044 38.143256 65.40359 38.143256 
Q 64.59241 38.143256 63.987979 38.115196 
Q 63.384678 38.087042 63.080768 38.034744 
Q 62.776858 37.982446 62.776858 37.921012 
Q 62.776858 37.854264 63.115791 37.802432 
Q 63.454724 37.7506 64.107736 37.722912 
Q 64.605967 37.701658 65.347101 37.701658 
Q 66.310801 37.701658 66.853095 37.735031 
Q 67.395388 37.768312 67.550167 37.827136 
L 66.513032 37.84317 
Q 66.403443 37.811754 66.100663 37.793576 
Q 65.799012 37.775304 65.347101 37.775304 
Q 64.662456 37.775304 64.257996 37.811195 
Q 63.853536 37.846992 63.853536 37.917469 
Q 63.853536 37.993539 64.262515 38.031574 
Q 64.672624 38.069516 65.336933 38.069516 
Q 65.665699 38.069516 65.995594 38.058889 
Q 66.325488 38.048261 66.561612 38.033159 
L 66.561612 37.978997 
L 65.365178 37.978997 
z
" clip-path="url(#peaa1fc6237)" style="fill: #dc9514"/>
   </g>
   <g id="patch_32">
    <path d="M 66.52989 37.498534 
L 67.617954 37.531273 
Q 67.368075 37.617734 66.785834 37.659696 
Q 66.203592 37.701658 65.309609 37.701658 
Q 64.202137 37.701658 63.488891 37.629838 
Q 62.776858 37.557903 62.776858 37.433285 
Q 62.776858 37.301405 63.49253 37.228548 
Q 64.209415 37.155575 65.377537 37.155575 
Q 66.397673 37.155575 67.034499 37.212754 
Q 67.412956 37.246647 67.602185 37.310051 
L 66.492287 37.335297 
Q 66.392821 37.294257 66.079866 37.27051 
Q 65.768124 37.246647 65.320526 37.246647 
Q 64.703107 37.246647 64.317372 37.288839 
Q 63.93285 37.330916 63.93285 37.425331 
Q 63.93285 37.525509 64.311307 37.568048 
Q 64.690977 37.610471 65.297479 37.610471 
Q 65.745077 37.610471 66.066523 37.583495 
Q 66.389181 37.55652 66.52989 37.498534 
z
" clip-path="url(#peaa1fc6237)" style="fill: #59a9d8"/>
   </g>
   <g id="patch_33">
    <path d="M 64.584289 37.155575 
L 64.584289 36.164244 
L 62.776858 36.164244 
L 62.776858 35.962383 
L 67.617954 35.962383 
L 67.617954 36.164244 
L 65.814513 36.164244 
L 65.814513 37.155575 
L 64.584289 37.155575 
z
" clip-path="url(#peaa1fc6237)" style="fill: #1a1a1a"/>
   </g>
   <g id="patch_34">
    <path d="M 67.617954 35.962383 
L 66.558536 35.962383 
L 66.137297 32.887555 
L 64.208019 32.887555 
L 63.809948 35.962383 
L 62.776858 35.962383 
L 64.655586 22.431368 
L 65.68657 22.431368 
L 67.617954 35.962383 
z
M 65.824526 30.607279 
L 65.160021 25.585947 
L 64.508153 30.607279 
L 65.824526 30.607279 
z
" clip-path="url(#peaa1fc6237)" style="fill: #0e927b"/>
   </g>
   <g id="patch_35">
    <path d="M 71.62578 38.138585 
L 72.713844 38.139338 
Q 72.463966 38.141326 71.881724 38.142291 
Q 71.299482 38.143256 70.405499 38.143256 
Q 69.298027 38.143256 68.584781 38.141604 
Q 67.872748 38.13995 67.872748 38.137084 
Q 67.872748 38.134051 68.58842 38.132376 
Q 69.305305 38.130698 70.473427 38.130698 
Q 71.493563 38.130698 72.13039 38.132013 
Q 72.508847 38.132792 72.698075 38.13425 
L 71.588177 38.134831 
Q 71.488711 38.133887 71.175756 38.133341 
Q 70.864014 38.132792 70.416416 38.132792 
Q 69.798997 38.132792 69.413262 38.133763 
Q 69.02874 38.13473 69.02874 38.136901 
Q 69.02874 38.139205 69.407197 38.140183 
Q 69.786867 38.141159 70.393369 38.141159 
Q 70.840967 38.141159 71.162413 38.140539 
Q 71.485072 38.139918 71.62578 38.138585 
z
" clip-path="url(#peaa1fc6237)" style="fill: #59a9d8"/>
   </g>
   <g id="patch_36">
    <path d="M 70.461068 38.101481 
L 70.461068 38.088679 
L 72.713844 38.088679 
L 72.713844 38.118941 
Q 72.385079 38.123601 71.761442 38.127149 
Q 71.138935 38.130698 70.499481 38.130698 
Q 69.6883 38.130698 69.08387 38.125707 
Q 68.480568 38.120699 68.176658 38.111397 
Q 67.872748 38.102094 67.872748 38.091167 
Q 67.872748 38.079294 68.211681 38.070074 
Q 68.550615 38.060855 69.203626 38.05593 
Q 69.701858 38.052149 70.442992 38.052149 
Q 71.406692 38.052149 71.948985 38.058086 
Q 72.491278 38.064005 72.646058 38.074469 
L 71.608922 38.077321 
Q 71.499334 38.071733 71.196553 38.068499 
Q 70.894903 38.065249 70.442992 38.065249 
Q 69.758347 38.065249 69.353886 38.071633 
Q 68.949426 38.078001 68.949426 38.090536 
Q 68.949426 38.104067 69.358405 38.110833 
Q 69.768515 38.117582 70.432824 38.117582 
Q 70.761589 38.117582 71.091484 38.115691 
Q 71.421379 38.113801 71.657502 38.111115 
L 71.657502 38.101481 
L 70.461068 38.101481 
z
" clip-path="url(#peaa1fc6237)" style="fill: #dc9514"/>
   </g>
   <g id="patch_37">
    <path d="M 72.713844 38.052149 
L 71.654427 38.052149 
L 71.233187 38.02932 
L 69.30391 38.02932 
L 68.905838 38.052149 
L 67.872748 38.052149 
L 69.751477 37.951686 
L 70.782461 37.951686 
L 72.713844 38.052149 
z
M 70.920417 38.01239 
L 70.255911 37.975108 
L 69.604043 38.01239 
L 70.920417 38.01239 
z
" clip-path="url(#peaa1fc6237)" style="fill: #0e927b"/>
   </g>
   <g id="patch_38">
    <path d="M 69.680179 37.951686 
L 69.680179 17.491554 
L 67.872748 17.491554 
L 67.872748 13.325343 
L 72.713844 13.325343 
L 72.713844 17.491554 
L 70.910403 17.491554 
L 70.910403 37.951686 
L 69.680179 37.951686 
z
" clip-path="url(#peaa1fc6237)" style="fill: #1a1a1a"/>
   </g>
   <g id="patch_39">
    <path d="M 75.556959 38.143177 
L 75.556959 38.143142 
L 77.809735 38.143142 
L 77.809735 38.143224 
Q 77.480969 38.143237 76.857332 38.143246 
Q 76.234825 38.143256 75.595371 38.143256 
Q 74.784191 38.143256 74.17976 38.143242 
Q 73.576459 38.143229 73.272549 38.143204 
Q 72.968639 38.143179 72.968639 38.143149 
Q 72.968639 38.143117 73.307572 38.143092 
Q 73.646505 38.143067 74.299516 38.143054 
Q 74.797748 38.143044 75.538882 38.143044 
Q 76.502582 38.143044 77.044875 38.14306 
Q 77.587168 38.143076 77.741948 38.143104 
L 76.704812 38.143112 
Q 76.595224 38.143097 76.292444 38.143088 
Q 75.990793 38.143079 75.538882 38.143079 
Q 74.854237 38.143079 74.449777 38.143096 
Q 74.045317 38.143114 74.045317 38.143147 
Q 74.045317 38.143184 74.454296 38.143202 
Q 74.864405 38.14322 75.528714 38.14322 
Q 75.857479 38.14322 76.187374 38.143215 
Q 76.517269 38.14321 76.753393 38.143203 
L 76.753393 38.143177 
L 75.556959 38.143177 
z
" clip-path="url(#peaa1fc6237)" style="fill: #dc9514"/>
   </g>
   <g id="patch_40">
    <path d="M 76.721671 38.04968 
L 77.809735 38.064728 
Q 77.559856 38.104469 76.977614 38.123756 
Q 76.395373 38.143044 75.501389 38.143044 
Q 74.393917 38.143044 73.680672 38.110033 
Q 72.968639 38.076968 72.968639 38.019689 
Q 72.968639 37.959071 73.684311 37.925583 
Q 74.401196 37.892042 75.569318 37.892042 
Q 76.589453 37.892042 77.22628 37.918324 
Q 77.604737 37.933902 77.793966 37.963045 
L 76.684068 37.974649 
Q 76.584601 37.955786 76.271646 37.94487 
Q 75.959905 37.933902 75.512306 37.933902 
Q 74.894888 37.933902 74.509153 37.953295 
Q 74.124631 37.972636 74.124631 38.016033 
Q 74.124631 38.062079 74.503088 38.081631 
Q 74.882758 38.101131 75.489259 38.101131 
Q 75.936858 38.101131 76.258303 38.088732 
Q 76.580962 38.076332 76.721671 38.04968 
z
" clip-path="url(#peaa1fc6237)" style="fill: #59a9d8"/>
   </g>
   <g id="patch_41">
    <path d="M 77.809735 37.892042 
L 76.750317 37.892042 
L 76.329077 37.536649 
L 74.3998 37.536649 
L 74.001729 37.892042 
L 72.968639 37.892042 
L 74.847367 36.328107 
L 75.878351 36.328107 
L 77.809735 37.892042 
z
M 76.016307 37.273091 
L 75.351802 36.692718 
L 74.699933 37.273091 
L 76.016307 37.273091 
z
" clip-path="url(#peaa1fc6237)" style="fill: #0e927b"/>
   </g>
   <g id="patch_42">
    <path d="M 74.77607 36.328107 
L 74.77607 21.821867 
L 72.968639 21.821867 
L 72.968639 18.868021 
L 77.809735 18.868021 
L 77.809735 21.821867 
L 76.006293 21.821867 
L 76.006293 36.328107 
L 74.77607 36.328107 
z
" clip-path="url(#peaa1fc6237)" style="fill: #1a1a1a"/>
   </g>
   <g id="patch_43">
    <path d="M 81.817561 38.109911 
L 82.905625 38.115286 
Q 82.655746 38.129479 82.073505 38.136367 
Q 81.491263 38.143256 80.59728 38.143256 
Q 79.489808 38.143256 78.776562 38.131466 
Q 78.064529 38.119657 78.064529 38.0992 
Q 78.064529 38.07755 78.780201 38.06559 
Q 79.497086 38.053611 80.665208 38.053611 
Q 81.685344 38.053611 82.32217 38.062997 
Q 82.700627 38.068561 82.889856 38.07897 
L 81.779958 38.083114 
Q 81.680492 38.076377 81.367537 38.072478 
Q 81.055795 38.068561 80.608197 38.068561 
Q 79.990778 38.068561 79.605043 38.075487 
Q 79.220521 38.082395 79.220521 38.097894 
Q 79.220521 38.114339 79.598978 38.121322 
Q 79.978648 38.128287 80.58515 38.128287 
Q 81.032748 38.128287 81.354194 38.123858 
Q 81.676853 38.11943 81.817561 38.109911 
z
" clip-path="url(#peaa1fc6237)" style="fill: #59a9d8"/>
   </g>
   <g id="patch_44">
    <path d="M 80.652849 37.951406 
L 80.652849 37.906626 
L 82.905625 37.906626 
L 82.905625 38.012485 
Q 82.57686 38.028785 81.953223 38.041198 
Q 81.330715 38.053611 80.691261 38.053611 
Q 79.880081 38.053611 79.27565 38.036151 
Q 78.672349 38.018634 78.368439 37.986093 
Q 78.064529 37.953552 78.064529 37.915326 
Q 78.064529 37.873795 78.403462 37.841544 
Q 78.742396 37.809293 79.395407 37.792065 
Q 79.893639 37.77884 80.634773 37.77884 
Q 81.598473 37.77884 82.140766 37.799606 
Q 82.683059 37.820314 82.837838 37.856915 
L 81.800703 37.866892 
Q 81.691114 37.847344 81.388334 37.836033 
Q 81.086683 37.824664 80.634773 37.824664 
Q 79.950127 37.824664 79.545667 37.846996 
Q 79.141207 37.86927 79.141207 37.913122 
Q 79.141207 37.960454 79.550186 37.984121 
Q 79.960295 38.007729 80.624605 38.007729 
Q 80.95337 38.007729 81.283265 38.001116 
Q 81.61316 37.994503 81.849283 37.985107 
L 81.849283 37.951406 
L 80.652849 37.951406 
z
" clip-path="url(#peaa1fc6237)" style="fill: #dc9514"/>
   </g>
   <g id="patch_45">
    <path d="M 79.87196 37.77884 
L 79.87196 36.49818 
L 78.064529 36.49818 
L 78.064529 36.237404 
L 82.905625 36.237404 
L 82.905625 36.49818 
L 81.102184 36.49818 
L 81.102184 37.77884 
L 79.87196 37.77884 
z
" clip-path="url(#peaa1fc6237)" style="fill: #1a1a1a"/>
   </g>
   <g id="patch_46">
    <path d="M 82.905625 36.237404 
L 81.846207 36.237404 
L 81.424968 32.473712 
L 79.495691 32.473712 
L 79.097619 36.237404 
L 78.064529 36.237404 
L 79.943258 19.674988 
L 80.974242 19.674988 
L 82.905625 36.237404 
z
M 81.112197 29.682578 
L 80.447692 23.536298 
L 79.795824 29.682578 
L 81.112197 29.682578 
z
" clip-path="url(#peaa1fc6237)" style="fill: #0e927b"/>
   </g>
   <g id="matplotlib.axis_1">
    <g id="xtick_1">
     <g id="text_1">
      <!-- 1 -->
      <g transform="translate(27.857892 44.937943) scale(0.06 -0.06)">
       <defs>
        <path id="ArialMT-31" d="M 2384 0 
L 1822 0 
L 1822 3584 
Q 1619 3391 1289 3197 
Q 959 3003 697 2906 
L 697 3450 
Q 1169 3672 1522 3987 
Q 1875 4303 2022 4600 
L 2384 4600 
L 2384 0 
z
" transform="scale(0.015625)"/>
       </defs>
       <use xlink:href="#ArialMT-31"/>
      </g>
     </g>
    </g>
    <g id="xtick_2">
     <g id="text_2">
      <!-- 2 -->
      <g transform="translate(32.953782 44.937943) scale(0.06 -0.06)">
       <defs>
        <path id="ArialMT-32" d="M 3222 541 
L 3222 0 
L 194 0 
Q 188 203 259 391 
Q 375 700 629 1000 
Q 884 1300 1366 1694 
Q 2113 2306 2375 2664 
Q 2638 3022 2638 3341 
Q 2638 3675 2398 3904 
Q 2159 4134 1775 4134 
Q 1369 4134 1125 3890 
Q 881 3647 878 3216 
L 300 3275 
Q 359 3922 746 4261 
Q 1134 4600 1788 4600 
Q 2447 4600 2831 4234 
Q 3216 3869 3216 3328 
Q 3216 3053 3103 2787 
Q 2991 2522 2730 2228 
Q 2469 1934 1863 1422 
Q 1356 997 1212 845 
Q 1069 694 975 541 
L 3222 541 
z
" transform="scale(0.015625)"/>
       </defs>
       <use xlink:href="#ArialMT-32"/>
      </g>
     </g>
    </g>
    <g id="xtick_3">
     <g id="text_3">
      <!-- 3 -->
      <g transform="translate(38.049673 44.937943) scale(0.06 -0.06)">
       <defs>
        <path id="ArialMT-33" d="M 269 1209 
L 831 1284 
Q 928 806 1161 595 
Q 1394 384 1728 384 
Q 2125 384 2398 659 
Q 2672 934 2672 1341 
Q 2672 1728 2419 1979 
Q 2166 2231 1775 2231 
Q 1616 2231 1378 2169 
L 1441 2663 
Q 1497 2656 1531 2656 
Q 1891 2656 2178 2843 
Q 2466 3031 2466 3422 
Q 2466 3731 2256 3934 
Q 2047 4138 1716 4138 
Q 1388 4138 1169 3931 
Q 950 3725 888 3313 
L 325 3413 
Q 428 3978 793 4289 
Q 1159 4600 1703 4600 
Q 2078 4600 2393 4439 
Q 2709 4278 2876 4000 
Q 3044 3722 3044 3409 
Q 3044 3113 2884 2869 
Q 2725 2625 2413 2481 
Q 2819 2388 3044 2092 
Q 3269 1797 3269 1353 
Q 3269 753 2831 336 
Q 2394 -81 1725 -81 
Q 1122 -81 723 278 
Q 325 638 269 1209 
z
" transform="scale(0.015625)"/>
       </defs>
       <use xlink:href="#ArialMT-33"/>
      </g>
     </g>
    </g>
    <g id="xtick_4">
     <g id="text_4">
      <!-- 4 -->
      <g transform="translate(43.145563 44.937943) scale(0.06 -0.06)">
       <defs>
        <path id="ArialMT-34" d="M 2069 0 
L 2069 1097 
L 81 1097 
L 81 1613 
L 2172 4581 
L 2631 4581 
L 2631 1613 
L 3250 1613 
L 3250 1097 
L 2631 1097 
L 2631 0 
L 2069 0 
z
M 2069 1613 
L 2069 3678 
L 634 1613 
L 2069 1613 
z
" transform="scale(0.015625)"/>
       </defs>
       <use xlink:href="#ArialMT-34"/>
      </g>
     </g>
    </g>
    <g id="xtick_5">
     <g id="text_5">
      <!-- 5 -->
      <g transform="translate(48.241453 44.937943) scale(0.06 -0.06)">
       <defs>
        <path id="ArialMT-35" d="M 266 1200 
L 856 1250 
Q 922 819 1161 601 
Q 1400 384 1738 384 
Q 2144 384 2425 690 
Q 2706 997 2706 1503 
Q 2706 1984 2436 2262 
Q 2166 2541 1728 2541 
Q 1456 2541 1237 2417 
Q 1019 2294 894 2097 
L 366 2166 
L 809 4519 
L 3088 4519 
L 3088 3981 
L 1259 3981 
L 1013 2750 
Q 1425 3038 1878 3038 
Q 2478 3038 2890 2622 
Q 3303 2206 3303 1553 
Q 3303 931 2941 478 
Q 2500 -78 1738 -78 
Q 1113 -78 717 272 
Q 322 622 266 1200 
z
" transform="scale(0.015625)"/>
       </defs>
       <use xlink:href="#ArialMT-35"/>
      </g>
     </g>
    </g>
    <g id="xtick_6">
     <g id="text_6">
      <!-- 6 -->
      <g transform="translate(53.337344 44.937943) scale(0.06 -0.06)">
       <defs>
        <path id="ArialMT-36" d="M 3184 3459 
L 2625 3416 
Q 2550 3747 2413 3897 
Q 2184 4138 1850 4138 
Q 1581 4138 1378 3988 
Q 1113 3794 959 3422 
Q 806 3050 800 2363 
Q 1003 2672 1297 2822 
Q 1591 2972 1913 2972 
Q 2475 2972 2870 2558 
Q 3266 2144 3266 1488 
Q 3266 1056 3080 686 
Q 2894 316 2569 119 
Q 2244 -78 1831 -78 
Q 1128 -78 684 439 
Q 241 956 241 2144 
Q 241 3472 731 4075 
Q 1159 4600 1884 4600 
Q 2425 4600 2770 4297 
Q 3116 3994 3184 3459 
z
M 888 1484 
Q 888 1194 1011 928 
Q 1134 663 1356 523 
Q 1578 384 1822 384 
Q 2178 384 2434 671 
Q 2691 959 2691 1453 
Q 2691 1928 2437 2201 
Q 2184 2475 1800 2475 
Q 1419 2475 1153 2201 
Q 888 1928 888 1484 
z
" transform="scale(0.015625)"/>
       </defs>
       <use xlink:href="#ArialMT-36"/>
      </g>
     </g>
    </g>
    <g id="xtick_7">
     <g id="text_7">
      <!-- 7 -->
      <g transform="translate(58.433234 44.937943) scale(0.06 -0.06)">
       <defs>
        <path id="ArialMT-37" d="M 303 3981 
L 303 4522 
L 3269 4522 
L 3269 4084 
Q 2831 3619 2401 2847 
Q 1972 2075 1738 1259 
Q 1569 684 1522 0 
L 944 0 
Q 953 541 1156 1306 
Q 1359 2072 1739 2783 
Q 2119 3494 2547 3981 
L 303 3981 
z
" transform="scale(0.015625)"/>
       </defs>
       <use xlink:href="#ArialMT-37"/>
      </g>
     </g>
    </g>
    <g id="xtick_8">
     <g id="text_8">
      <!-- 8 -->
      <g transform="translate(63.529125 44.937943) scale(0.06 -0.06)">
       <defs>
        <path id="ArialMT-38" d="M 1131 2484 
Q 781 2613 612 2850 
Q 444 3088 444 3419 
Q 444 3919 803 4259 
Q 1163 4600 1759 4600 
Q 2359 4600 2725 4251 
Q 3091 3903 3091 3403 
Q 3091 3084 2923 2848 
Q 2756 2613 2416 2484 
Q 2838 2347 3058 2040 
Q 3278 1734 3278 1309 
Q 3278 722 2862 322 
Q 2447 -78 1769 -78 
Q 1091 -78 675 323 
Q 259 725 259 1325 
Q 259 1772 486 2073 
Q 713 2375 1131 2484 
z
M 1019 3438 
Q 1019 3113 1228 2906 
Q 1438 2700 1772 2700 
Q 2097 2700 2305 2904 
Q 2513 3109 2513 3406 
Q 2513 3716 2298 3927 
Q 2084 4138 1766 4138 
Q 1444 4138 1231 3931 
Q 1019 3725 1019 3438 
z
M 838 1322 
Q 838 1081 952 856 
Q 1066 631 1291 507 
Q 1516 384 1775 384 
Q 2178 384 2440 643 
Q 2703 903 2703 1303 
Q 2703 1709 2433 1975 
Q 2163 2241 1756 2241 
Q 1359 2241 1098 1978 
Q 838 1716 838 1322 
z
" transform="scale(0.015625)"/>
       </defs>
       <use xlink:href="#ArialMT-38"/>
      </g>
     </g>
    </g>
    <g id="xtick_9">
     <g id="text_9">
      <!-- 9 -->
      <g transform="translate(68.625015 44.937943) scale(0.06 -0.06)">
       <defs>
        <path id="ArialMT-39" d="M 350 1059 
L 891 1109 
Q 959 728 1153 556 
Q 1347 384 1650 384 
Q 1909 384 2104 503 
Q 2300 622 2425 820 
Q 2550 1019 2634 1356 
Q 2719 1694 2719 2044 
Q 2719 2081 2716 2156 
Q 2547 1888 2255 1720 
Q 1963 1553 1622 1553 
Q 1053 1553 659 1965 
Q 266 2378 266 3053 
Q 266 3750 677 4175 
Q 1088 4600 1706 4600 
Q 2153 4600 2523 4359 
Q 2894 4119 3086 3673 
Q 3278 3228 3278 2384 
Q 3278 1506 3087 986 
Q 2897 466 2520 194 
Q 2144 -78 1638 -78 
Q 1100 -78 759 220 
Q 419 519 350 1059 
z
M 2653 3081 
Q 2653 3566 2395 3850 
Q 2138 4134 1775 4134 
Q 1400 4134 1122 3828 
Q 844 3522 844 3034 
Q 844 2597 1108 2323 
Q 1372 2050 1759 2050 
Q 2150 2050 2401 2323 
Q 2653 2597 2653 3081 
z
" transform="scale(0.015625)"/>
       </defs>
       <use xlink:href="#ArialMT-39"/>
      </g>
     </g>
    </g>
    <g id="xtick_10">
     <g id="text_10">
      <!-- 10 -->
      <g transform="translate(72.052624 44.937943) scale(0.06 -0.06)">
       <defs>
        <path id="ArialMT-30" d="M 266 2259 
Q 266 3072 433 3567 
Q 600 4063 929 4331 
Q 1259 4600 1759 4600 
Q 2128 4600 2406 4451 
Q 2684 4303 2865 4023 
Q 3047 3744 3150 3342 
Q 3253 2941 3253 2259 
Q 3253 1453 3087 958 
Q 2922 463 2592 192 
Q 2263 -78 1759 -78 
Q 1097 -78 719 397 
Q 266 969 266 2259 
z
M 844 2259 
Q 844 1131 1108 757 
Q 1372 384 1759 384 
Q 2147 384 2411 759 
Q 2675 1134 2675 2259 
Q 2675 3391 2411 3762 
Q 2147 4134 1753 4134 
Q 1366 4134 1134 3806 
Q 844 3388 844 2259 
z
" transform="scale(0.015625)"/>
       </defs>
       <use xlink:href="#ArialMT-31"/>
       <use xlink:href="#ArialMT-30" x="55.615234"/>
      </g>
     </g>
    </g>
    <g id="xtick_11">
     <g id="text_11">
      <!-- 11 -->
      <g transform="translate(77.369765 44.937943) scale(0.06 -0.06)">
       <use xlink:href="#ArialMT-31"/>
       <use xlink:href="#ArialMT-31" x="48.240234"/>
      </g>
     </g>
    </g>
   </g>
   <g id="matplotlib.axis_2">
    <g id="ytick_1">
     <g id="line2d_2">
      <defs>
       <path id="m7a1228cd8c" d="M 0 0 
L -3.5 0 
" style="stroke: #000000; stroke-width: 0.8"/>
      </defs>
      <g>
       <use xlink:href="#m7a1228cd8c" x="27.105625" y="38.143256" style="stroke: #000000; stroke-width: 0.8"/>
      </g>
     </g>
     <g id="text_12">
      <!-- 0 -->
      <g transform="translate(16.769063 40.2906) scale(0.06 -0.06)">
       <use xlink:href="#ArialMT-30"/>
      </g>
     </g>
    </g>
    <g id="ytick_2">
     <g id="line2d_3">
      <g>
       <use xlink:href="#m7a1228cd8c" x="27.105625" y="12.357209" style="stroke: #000000; stroke-width: 0.8"/>
      </g>
     </g>
     <g id="text_13">
      <!-- 2 -->
      <g transform="translate(16.769063 14.504553) scale(0.06 -0.06)">
       <use xlink:href="#ArialMT-32"/>
      </g>
     </g>
    </g>
    <g id="text_14">
     <!-- IC (bits) -->
     <g transform="translate(12.295781 34.921081) rotate(-90) scale(0.07 -0.07)">
      <defs>
       <path id="ArialMT-49" d="M 597 0 
L 597 4581 
L 1203 4581 
L 1203 0 
L 597 0 
z
" transform="scale(0.015625)"/>
       <path id="ArialMT-43" d="M 3763 1606 
L 4369 1453 
Q 4178 706 3683 314 
Q 3188 -78 2472 -78 
Q 1731 -78 1267 223 
Q 803 525 561 1097 
Q 319 1669 319 2325 
Q 319 3041 592 3573 
Q 866 4106 1370 4382 
Q 1875 4659 2481 4659 
Q 3169 4659 3637 4309 
Q 4106 3959 4291 3325 
L 3694 3184 
Q 3534 3684 3231 3912 
Q 2928 4141 2469 4141 
Q 1941 4141 1586 3887 
Q 1231 3634 1087 3207 
Q 944 2781 944 2328 
Q 944 1744 1114 1308 
Q 1284 872 1643 656 
Q 2003 441 2422 441 
Q 2931 441 3284 734 
Q 3638 1028 3763 1606 
z
" transform="scale(0.015625)"/>
       <path id="ArialMT-20" transform="scale(0.015625)"/>
       <path id="ArialMT-28" d="M 1497 -1347 
Q 1031 -759 709 28 
Q 388 816 388 1659 
Q 388 2403 628 3084 
Q 909 3875 1497 4659 
L 1900 4659 
Q 1522 4009 1400 3731 
Q 1209 3300 1100 2831 
Q 966 2247 966 1656 
Q 966 153 1900 -1347 
L 1497 -1347 
z
" transform="scale(0.015625)"/>
       <path id="ArialMT-62" d="M 941 0 
L 419 0 
L 419 4581 
L 981 4581 
L 981 2947 
Q 1338 3394 1891 3394 
Q 2197 3394 2470 3270 
Q 2744 3147 2920 2923 
Q 3097 2700 3197 2384 
Q 3297 2069 3297 1709 
Q 3297 856 2875 390 
Q 2453 -75 1863 -75 
Q 1275 -75 941 416 
L 941 0 
z
M 934 1684 
Q 934 1088 1097 822 
Q 1363 388 1816 388 
Q 2184 388 2453 708 
Q 2722 1028 2722 1663 
Q 2722 2313 2464 2622 
Q 2206 2931 1841 2931 
Q 1472 2931 1203 2611 
Q 934 2291 934 1684 
z
" transform="scale(0.015625)"/>
       <path id="ArialMT-69" d="M 425 3934 
L 425 4581 
L 988 4581 
L 988 3934 
L 425 3934 
z
M 425 0 
L 425 3319 
L 988 3319 
L 988 0 
L 425 0 
z
" transform="scale(0.015625)"/>
       <path id="ArialMT-74" d="M 1650 503 
L 1731 6 
Q 1494 -44 1306 -44 
Q 1000 -44 831 53 
Q 663 150 594 308 
Q 525 466 525 972 
L 525 2881 
L 113 2881 
L 113 3319 
L 525 3319 
L 525 4141 
L 1084 4478 
L 1084 3319 
L 1650 3319 
L 1650 2881 
L 1084 2881 
L 1084 941 
Q 1084 700 1114 631 
Q 1144 563 1211 522 
Q 1278 481 1403 481 
Q 1497 481 1650 503 
z
" transform="scale(0.015625)"/>
       <path id="ArialMT-73" d="M 197 991 
L 753 1078 
Q 800 744 1014 566 
Q 1228 388 1613 388 
Q 2000 388 2187 545 
Q 2375 703 2375 916 
Q 2375 1106 2209 1216 
Q 2094 1291 1634 1406 
Q 1016 1563 777 1677 
Q 538 1791 414 1992 
Q 291 2194 291 2438 
Q 291 2659 392 2848 
Q 494 3038 669 3163 
Q 800 3259 1026 3326 
Q 1253 3394 1513 3394 
Q 1903 3394 2198 3281 
Q 2494 3169 2634 2976 
Q 2775 2784 2828 2463 
L 2278 2388 
Q 2241 2644 2061 2787 
Q 1881 2931 1553 2931 
Q 1166 2931 1000 2803 
Q 834 2675 834 2503 
Q 834 2394 903 2306 
Q 972 2216 1119 2156 
Q 1203 2125 1616 2013 
Q 2213 1853 2448 1751 
Q 2684 1650 2818 1456 
Q 2953 1263 2953 975 
Q 2953 694 2789 445 
Q 2625 197 2315 61 
Q 2006 -75 1616 -75 
Q 969 -75 630 194 
Q 291 463 197 991 
z
" transform="scale(0.015625)"/>
       <path id="ArialMT-29" d="M 791 -1347 
L 388 -1347 
Q 1322 153 1322 1656 
Q 1322 2244 1188 2822 
Q 1081 3291 891 3722 
Q 769 4003 388 4659 
L 791 4659 
Q 1378 3875 1659 3084 
Q 1900 2403 1900 1659 
Q 1900 816 1576 28 
Q 1253 -759 791 -1347 
z
" transform="scale(0.015625)"/>
      </defs>
      <use xlink:href="#ArialMT-49"/>
      <use xlink:href="#ArialMT-43" x="27.783203"/>
      <use xlink:href="#ArialMT-20" x="100"/>
      <use xlink:href="#ArialMT-28" x="127.783203"/>
      <use xlink:href="#ArialMT-62" x="161.083984"/>
      <use xlink:href="#ArialMT-69" x="216.699219"/>
      <use xlink:href="#ArialMT-74" x="238.916016"/>
      <use xlink:href="#ArialMT-73" x="266.699219"/>
      <use xlink:href="#ArialMT-29" x="316.699219"/>
     </g>
    </g>
   </g>
   <g id="patch_47">
    <path d="M 27.105625 38.143256 
L 27.105625 7.2 
" style="fill: none; stroke: #000000; stroke-linejoin: miter; stroke-linecap: square"/>
   </g>
   <g id="patch_48">
    <path d="M 27.105625 38.143256 
L 82.905625 38.143256 
" style="fill: none; stroke: #000000; stroke-linejoin: miter; stroke-linecap: square"/>
   </g>
  </g>
  <g id="axes_2">
   <g id="text_15">
    <!-- E-value 1.3e-043 -->
    <g transform="translate(29.59625 53.210283) scale(0.07 -0.07)">
     <defs>
      <path id="Arial-ItalicMT-45" d="M 288 0 
L 1247 4581 
L 4553 4581 
L 4444 4059 
L 1750 4059 
L 1450 2634 
L 4075 2634 
L 3966 2113 
L 1341 2113 
L 1009 519 
L 3894 519 
L 3784 0 
L 288 0 
z
" transform="scale(0.015625)"/>
      <path id="Arial-ItalicMT-2d" d="M 297 1375 
L 416 1941 
L 2141 1941 
L 2025 1375 
L 297 1375 
z
" transform="scale(0.015625)"/>
      <path id="Arial-ItalicMT-76" d="M 1050 0 
L 506 3319 
L 1056 3319 
L 1341 1491 
Q 1388 1191 1456 513 
Q 1619 866 1872 1322 
L 2981 3319 
L 3578 3319 
L 1678 0 
L 1050 0 
z
" transform="scale(0.015625)"/>
      <path id="Arial-ItalicMT-61" d="M 2450 413 
Q 2156 159 1884 42 
Q 1613 -75 1303 -75 
Q 844 -75 562 195 
Q 281 466 281 888 
Q 281 1166 407 1380 
Q 534 1594 743 1723 
Q 953 1853 1256 1909 
Q 1447 1947 1980 1969 
Q 2513 1991 2744 2081 
Q 2809 2313 2809 2466 
Q 2809 2663 2666 2775 
Q 2469 2931 2091 2931 
Q 1734 2931 1507 2773 
Q 1281 2616 1178 2325 
L 606 2375 
Q 781 2869 1161 3131 
Q 1541 3394 2119 3394 
Q 2734 3394 3094 3100 
Q 3369 2881 3369 2531 
Q 3369 2266 3291 1916 
L 3106 1091 
Q 3019 697 3019 450 
Q 3019 294 3088 0 
L 2516 0 
Q 2469 163 2450 413 
z
M 2659 1681 
Q 2541 1634 2405 1609 
Q 2269 1584 1950 1556 
Q 1456 1513 1253 1445 
Q 1050 1378 947 1231 
Q 844 1084 844 906 
Q 844 669 1008 516 
Q 1172 363 1475 363 
Q 1756 363 2015 511 
Q 2275 659 2425 925 
Q 2575 1191 2659 1681 
z
" transform="scale(0.015625)"/>
      <path id="Arial-ItalicMT-6c" d="M 169 0 
L 1125 4581 
L 1691 4581 
L 734 0 
L 169 0 
z
" transform="scale(0.015625)"/>
      <path id="Arial-ItalicMT-75" d="M 2478 600 
Q 1881 -75 1256 -75 
Q 872 -75 636 145 
Q 400 366 400 684 
Q 400 894 506 1403 
L 906 3319 
L 1472 3319 
L 1028 1197 
Q 972 931 972 784 
Q 972 597 1086 492 
Q 1200 388 1422 388 
Q 1659 388 1886 503 
Q 2113 619 2277 816 
Q 2441 1013 2544 1281 
Q 2613 1453 2703 1884 
L 3003 3319 
L 3569 3319 
L 2875 0 
L 2353 0 
L 2478 600 
z
" transform="scale(0.015625)"/>
      <path id="Arial-ItalicMT-65" d="M 2650 1128 
L 3200 1072 
Q 3081 663 2654 294 
Q 2228 -75 1638 -75 
Q 1269 -75 961 95 
Q 653 266 492 591 
Q 331 916 331 1331 
Q 331 1875 582 2386 
Q 834 2897 1234 3145 
Q 1634 3394 2100 3394 
Q 2694 3394 3048 3025 
Q 3403 2656 3403 2019 
Q 3403 1775 3359 1519 
L 916 1519 
Q 903 1422 903 1344 
Q 903 878 1117 633 
Q 1331 388 1641 388 
Q 1931 388 2212 578 
Q 2494 769 2650 1128 
z
M 1006 1950 
L 2869 1950 
Q 2872 2038 2872 2075 
Q 2872 2500 2659 2726 
Q 2447 2953 2113 2953 
Q 1750 2953 1451 2703 
Q 1153 2453 1006 1950 
z
" transform="scale(0.015625)"/>
      <path id="Arial-ItalicMT-20" transform="scale(0.015625)"/>
      <path id="Arial-ItalicMT-31" d="M 1541 0 
L 2266 3459 
Q 1797 3091 947 2869 
L 1053 3381 
Q 1475 3550 1886 3822 
Q 2297 4094 2503 4297 
Q 2628 4422 2741 4600 
L 3069 4600 
L 2109 0 
L 1541 0 
z
" transform="scale(0.015625)"/>
      <path id="Arial-ItalicMT-2e" d="M 369 0 
L 503 641 
L 1144 641 
L 1006 0 
L 369 0 
z
" transform="scale(0.015625)"/>
      <path id="Arial-ItalicMT-33" d="M 350 1200 
L 900 1269 
Q 963 788 1177 580 
Q 1391 372 1738 372 
Q 2156 372 2461 672 
Q 2766 972 2766 1359 
Q 2766 1697 2537 1917 
Q 2309 2138 1925 2138 
Q 1881 2138 1744 2125 
L 1841 2597 
Q 1922 2584 1997 2584 
Q 2481 2584 2742 2820 
Q 3003 3056 3003 3400 
Q 3003 3716 2789 3931 
Q 2575 4147 2266 4147 
Q 1963 4147 1720 3926 
Q 1478 3706 1409 3303 
L 853 3416 
Q 991 3981 1381 4290 
Q 1772 4600 2306 4600 
Q 2869 4600 3217 4259 
Q 3566 3919 3566 3422 
Q 3566 3059 3377 2789 
Q 3188 2519 2809 2341 
Q 3078 2181 3211 1956 
Q 3344 1731 3344 1441 
Q 3344 825 2883 373 
Q 2422 -78 1781 -78 
Q 1159 -78 776 270 
Q 394 619 350 1200 
z
" transform="scale(0.015625)"/>
      <path id="Arial-ItalicMT-30" d="M 453 1503 
Q 453 2084 626 2684 
Q 800 3284 1012 3643 
Q 1225 4003 1453 4206 
Q 1681 4409 1901 4504 
Q 2122 4600 2391 4600 
Q 2916 4600 3267 4209 
Q 3619 3819 3619 3081 
Q 3619 2322 3375 1578 
Q 3088 697 2575 256 
Q 2181 -78 1678 -78 
Q 1163 -78 808 326 
Q 453 731 453 1503 
z
M 1000 1359 
Q 1000 938 1141 700 
Q 1331 372 1706 372 
Q 2034 372 2303 669 
Q 2691 1088 2886 1895 
Q 3081 2703 3081 3216 
Q 3081 3709 2892 3928 
Q 2703 4147 2394 4147 
Q 2169 4147 1973 4031 
Q 1778 3916 1600 3634 
Q 1347 3238 1159 2447 
Q 1000 1772 1000 1359 
z
" transform="scale(0.015625)"/>
      <path id="Arial-ItalicMT-34" d="M 1913 0 
L 2159 1169 
L 291 1169 
L 409 1728 
L 2975 4581 
L 3438 4581 
L 2828 1669 
L 3472 1669 
L 3369 1169 
L 2725 1169 
L 2478 0 
L 1913 0 
z
M 2263 1669 
L 2663 3581 
L 956 1669 
L 2263 1669 
z
" transform="scale(0.015625)"/>
     </defs>
     <use xlink:href="#Arial-ItalicMT-45"/>
     <use xlink:href="#Arial-ItalicMT-2d" x="66.699219"/>
     <use xlink:href="#Arial-ItalicMT-76" x="100"/>
     <use xlink:href="#Arial-ItalicMT-61" x="150"/>
     <use xlink:href="#Arial-ItalicMT-6c" x="205.615234"/>
     <use xlink:href="#Arial-ItalicMT-75" x="227.832031"/>
     <use xlink:href="#Arial-ItalicMT-65" x="283.447266"/>
     <use xlink:href="#Arial-ItalicMT-20" x="339.0625"/>
     <use xlink:href="#Arial-ItalicMT-31" x="366.845703"/>
     <use xlink:href="#Arial-ItalicMT-2e" x="422.460938"/>
     <use xlink:href="#Arial-ItalicMT-33" x="450.244141"/>
     <use xlink:href="#Arial-ItalicMT-65" x="505.859375"/>
     <use xlink:href="#Arial-ItalicMT-2d" x="561.474609"/>
     <use xlink:href="#Arial-ItalicMT-30" x="594.775391"/>
     <use xlink:href="#Arial-ItalicMT-34" x="650.390625"/>
     <use xlink:href="#Arial-ItalicMT-33" x="706.005859"/>
    </g>
   </g>
  </g>
  <g id="axes_3">
   <g id="patch_49">
    <path d="M 27.105625 89.199628 
L 82.905625 89.199628 
L 82.905625 58.256372 
L 27.105625 58.256372 
z
" style="fill: #ffffff"/>
   </g>
   <g id="line2d_4">
    <path d="M 27.105625 89.199628 
L 82.905625 89.199628 
" clip-path="url(#p42a7274c7b)" style="fill: none; stroke: #000000; stroke-width: 0.5; stroke-linecap: square"/>
   </g>
   <g id="patch_50">
    <path d="M 31.235846 89.109328 
L 32.433263 89.123883 
Q 32.158271 89.162319 31.517513 89.180973 
Q 30.876755 89.199628 29.892924 89.199628 
Q 28.674148 89.199628 27.889219 89.1677 
Q 27.105625 89.135721 27.105625 89.080322 
Q 27.105625 89.021693 27.893224 88.989304 
Q 28.682157 88.956864 29.967679 88.956864 
Q 31.090341 88.956864 31.79117 88.982283 
Q 32.207663 88.99735 32.415909 89.025537 
L 31.194464 89.03676 
Q 31.085001 89.018516 30.740593 89.007959 
Q 30.397521 88.99735 29.904938 88.99735 
Q 29.225467 88.99735 28.800965 89.016107 
Q 28.377797 89.034813 28.377797 89.076785 
Q 28.377797 89.12132 28.79429 89.140231 
Q 29.212118 89.15909 29.879574 89.15909 
Q 30.372157 89.15909 30.725909 89.147098 
Q 31.080996 89.135106 31.235846 89.109328 
z
" clip-path="url(#p42a7274c7b)" style="fill: #59a9d8"/>
   </g>
   <g id="patch_51">
    <path d="M 29.094708 88.956864 
L 29.094708 88.345996 
L 27.105625 88.345996 
L 27.105625 88.221607 
L 32.433263 88.221607 
L 32.433263 88.345996 
L 30.448572 88.345996 
L 30.448572 88.956864 
L 29.094708 88.956864 
z
" clip-path="url(#p42a7274c7b)" style="fill: #1a1a1a"/>
   </g>
   <g id="patch_52">
    <path d="M 32.433263 88.221607 
L 31.267372 88.221607 
L 30.803796 87.965783 
L 28.680622 87.965783 
L 28.242543 88.221607 
L 27.105625 88.221607 
L 29.17317 87.095832 
L 30.307771 87.095832 
L 32.433263 88.221607 
z
M 30.459592 87.776065 
L 29.728302 87.358291 
L 29.010919 87.776065 
L 30.459592 87.776065 
z
" clip-path="url(#p42a7274c7b)" style="fill: #0e927b"/>
   </g>
   <g id="patch_53">
    <path d="M 29.954078 86.259052 
L 29.954078 85.892426 
L 32.433263 85.892426 
L 32.433263 86.759125 
Q 32.071456 86.892573 31.385142 86.994202 
Q 30.700071 87.095832 29.996351 87.095832 
Q 29.103645 87.095832 28.438467 86.952886 
Q 27.774533 86.809465 27.440079 86.543044 
Q 27.105625 86.276623 27.105625 85.963662 
Q 27.105625 85.623631 27.478622 85.359584 
Q 27.851619 85.095538 28.570259 84.954491 
Q 29.118565 84.846213 29.934184 84.846213 
Q 30.994739 84.846213 31.591534 85.016229 
Q 32.188329 85.185769 32.358664 85.485434 
L 31.217293 85.567117 
Q 31.096691 85.407075 30.763481 85.314468 
Q 30.431513 85.221387 29.934184 85.221387 
Q 29.180731 85.221387 28.735621 85.404225 
Q 28.290512 85.586588 28.290512 85.945615 
Q 28.290512 86.333137 28.740594 86.526897 
Q 29.191921 86.720183 29.922994 86.720183 
Q 30.284801 86.720183 30.647852 86.666044 
Q 31.010902 86.611905 31.270756 86.534971 
L 31.270756 86.259052 
L 29.954078 86.259052 
z
" clip-path="url(#p42a7274c7b)" style="fill: #dc9514"/>
   </g>
   <g id="patch_54">
    <path d="M 38.041303 89.199628 
L 36.875412 89.199628 
L 36.411837 89.140794 
L 34.288662 89.140794 
L 33.850583 89.199628 
L 32.713665 89.199628 
L 34.781211 88.940726 
L 35.915811 88.940726 
L 38.041303 89.199628 
z
M 36.067632 89.097164 
L 35.336342 89.001086 
L 34.618959 89.097164 
L 36.067632 89.097164 
z
" clip-path="url(#p42a7274c7b)" style="fill: #0e927b"/>
   </g>
   <g id="patch_55">
    <path d="M 35.562118 88.742584 
L 35.562118 88.65577 
L 38.041303 88.65577 
L 38.041303 88.860997 
Q 37.679496 88.892596 36.993182 88.916661 
Q 36.308111 88.940726 35.604391 88.940726 
Q 34.711685 88.940726 34.046507 88.906878 
Q 33.382573 88.872917 33.048119 88.809831 
Q 32.713665 88.746745 32.713665 88.672638 
Q 32.713665 88.592122 33.086662 88.529598 
Q 33.459659 88.467074 34.178299 88.433675 
Q 34.726605 88.408036 35.542225 88.408036 
Q 36.602779 88.408036 37.199574 88.448294 
Q 37.796369 88.48844 37.966704 88.559398 
L 36.825334 88.57874 
Q 36.704731 88.540843 36.371521 88.518915 
Q 36.039554 88.496874 35.542225 88.496874 
Q 34.788771 88.496874 34.343661 88.540168 
Q 33.898552 88.58335 33.898552 88.668365 
Q 33.898552 88.760127 34.348635 88.806007 
Q 34.799961 88.851776 35.531035 88.851776 
Q 35.892842 88.851776 36.255892 88.838956 
Q 36.618942 88.826137 36.878797 88.807919 
L 36.878797 88.742584 
L 35.562118 88.742584 
z
" clip-path="url(#p42a7274c7b)" style="fill: #dc9514"/>
   </g>
   <g id="patch_56">
    <path d="M 34.702748 88.408036 
L 34.702748 87.205296 
L 32.713665 87.205296 
L 32.713665 86.960387 
L 38.041303 86.960387 
L 38.041303 87.205296 
L 36.056612 87.205296 
L 36.056612 88.408036 
L 34.702748 88.408036 
z
" clip-path="url(#p42a7274c7b)" style="fill: #1a1a1a"/>
   </g>
   <g id="patch_57">
    <path d="M 36.843886 86.269992 
L 38.041303 86.38127 
Q 37.766311 86.675139 37.125553 86.817763 
Q 36.484795 86.960387 35.500964 86.960387 
Q 34.282188 86.960387 33.497259 86.71628 
Q 32.713665 86.471781 32.713665 86.048219 
Q 32.713665 85.599971 33.501264 85.352338 
Q 34.290198 85.104312 35.575719 85.104312 
Q 36.698381 85.104312 37.39921 85.298658 
Q 37.815703 85.413854 38.02395 85.629358 
L 36.802504 85.715168 
Q 36.693041 85.575678 36.348634 85.494962 
Q 36.005561 85.413854 35.512978 85.413854 
Q 34.833507 85.413854 34.409005 85.557262 
Q 33.985837 85.700278 33.985837 86.021183 
Q 33.985837 86.361679 34.40233 86.506262 
Q 34.820158 86.650454 35.487615 86.650454 
Q 35.980198 86.650454 36.33395 86.558767 
Q 36.689036 86.46708 36.843886 86.269992 
z
" clip-path="url(#p42a7274c7b)" style="fill: #59a9d8"/>
   </g>
   <g id="patch_58">
    <path d="M 42.451927 89.199446 
L 43.649344 89.199475 
Q 43.374351 89.199553 42.733593 89.19959 
Q 42.092835 89.199628 41.109004 89.199628 
Q 39.890228 89.199628 39.105299 89.199564 
Q 38.321705 89.199499 38.321705 89.199387 
Q 38.321705 89.199269 39.109304 89.199204 
Q 39.898238 89.199138 41.183759 89.199138 
Q 42.306421 89.199138 43.00725 89.19919 
Q 43.423743 89.19922 43.63199 89.199277 
L 42.410544 89.199299 
Q 42.301081 89.199263 41.956674 89.199241 
Q 41.613601 89.19922 41.121018 89.19922 
Q 40.441547 89.19922 40.017045 89.199258 
Q 39.593878 89.199295 39.593878 89.19938 
Q 39.593878 89.19947 40.01037 89.199508 
Q 40.428198 89.199546 41.095655 89.199546 
Q 41.588238 89.199546 41.94199 89.199522 
Q 42.297077 89.199498 42.451927 89.199446 
z
" clip-path="url(#p42a7274c7b)" style="fill: #59a9d8"/>
   </g>
   <g id="patch_59">
    <path d="M 41.170158 89.198956 
L 41.170158 89.198876 
L 43.649344 89.198876 
L 43.649344 89.199065 
Q 43.287537 89.199094 42.601222 89.199116 
Q 41.916152 89.199138 41.212431 89.199138 
Q 40.319725 89.199138 39.654547 89.199107 
Q 38.990613 89.199076 38.656159 89.199018 
Q 38.321705 89.19896 38.321705 89.198892 
Q 38.321705 89.198818 38.694702 89.19876 
Q 39.067699 89.198703 39.78634 89.198672 
Q 40.334645 89.198649 41.150265 89.198649 
Q 42.210819 89.198649 42.807614 89.198686 
Q 43.404409 89.198722 43.574744 89.198788 
L 42.433374 89.198805 
Q 42.312772 89.198771 41.979561 89.19875 
Q 41.647594 89.19873 41.150265 89.19873 
Q 40.396811 89.19873 39.951702 89.19877 
Q 39.506592 89.19881 39.506592 89.198888 
Q 39.506592 89.198972 39.956675 89.199014 
Q 40.408001 89.199056 41.139075 89.199056 
Q 41.500882 89.199056 41.863932 89.199045 
Q 42.226982 89.199033 42.486837 89.199016 
L 42.486837 89.198956 
L 41.170158 89.198956 
z
" clip-path="url(#p42a7274c7b)" style="fill: #dc9514"/>
   </g>
   <g id="patch_60">
    <path d="M 43.649344 89.198649 
L 42.483452 89.198649 
L 42.019877 89.198508 
L 39.896702 89.198508 
L 39.458624 89.198649 
L 38.321705 89.198649 
L 40.389251 89.19803 
L 41.523851 89.19803 
L 43.649344 89.198649 
z
M 41.675672 89.198404 
L 40.944382 89.198174 
L 40.227 89.198404 
L 41.675672 89.198404 
z
" clip-path="url(#p42a7274c7b)" style="fill: #0e927b"/>
   </g>
   <g id="patch_61">
    <path d="M 40.310788 89.19803 
L 40.310788 67.787064 
L 38.321705 67.787064 
L 38.321705 63.427237 
L 43.649344 63.427237 
L 43.649344 67.787064 
L 41.664652 67.787064 
L 41.664652 89.19803 
L 40.310788 89.19803 
z
" clip-path="url(#p42a7274c7b)" style="fill: #1a1a1a"/>
   </g>
   <g id="patch_62">
    <path d="M 46.778198 89.199449 
L 46.778198 89.199371 
L 49.257384 89.199371 
L 49.257384 89.199556 
Q 48.895577 89.199585 48.209263 89.199606 
Q 47.524192 89.199628 46.820471 89.199628 
Q 45.927765 89.199628 45.262588 89.199597 
Q 44.598653 89.199567 44.264199 89.19951 
Q 43.929746 89.199453 43.929746 89.199386 
Q 43.929746 89.199314 44.302742 89.199257 
Q 44.675739 89.199201 45.39438 89.199171 
Q 45.942685 89.199148 46.758305 89.199148 
Q 47.818859 89.199148 48.415654 89.199184 
Q 49.012449 89.19922 49.182784 89.199284 
L 48.041414 89.199301 
Q 47.920812 89.199267 47.587601 89.199248 
Q 47.255634 89.199228 46.758305 89.199228 
Q 46.004851 89.199228 45.559742 89.199267 
Q 45.114632 89.199306 45.114632 89.199382 
Q 45.114632 89.199465 45.564715 89.199506 
Q 46.016041 89.199548 46.747115 89.199548 
Q 47.108922 89.199548 47.471972 89.199536 
Q 47.835023 89.199525 48.094877 89.199508 
L 48.094877 89.199449 
L 46.778198 89.199449 
z
" clip-path="url(#p42a7274c7b)" style="fill: #dc9514"/>
   </g>
   <g id="patch_63">
    <path d="M 45.918828 89.199148 
L 45.918828 89.198643 
L 43.929746 89.198643 
L 43.929746 89.198541 
L 49.257384 89.198541 
L 49.257384 89.198643 
L 47.272692 89.198643 
L 47.272692 89.199148 
L 45.918828 89.199148 
z
" clip-path="url(#p42a7274c7b)" style="fill: #1a1a1a"/>
   </g>
   <g id="patch_64">
    <path d="M 48.059967 89.160041 
L 49.257384 89.166246 
Q 48.982392 89.182634 48.341633 89.190587 
Q 47.700875 89.198541 46.717044 89.198541 
Q 45.498268 89.198541 44.71334 89.184928 
Q 43.929746 89.171294 43.929746 89.147674 
Q 43.929746 89.122677 44.717344 89.108868 
Q 45.506278 89.095037 46.791799 89.095037 
Q 47.914461 89.095037 48.615291 89.105874 
Q 49.031783 89.112298 49.24003 89.124316 
L 48.018584 89.129101 
Q 47.909122 89.121322 47.564714 89.116821 
Q 47.221641 89.112298 46.729058 89.112298 
Q 46.049588 89.112298 45.625085 89.120295 
Q 45.201918 89.128271 45.201918 89.146166 
Q 45.201918 89.165154 45.618411 89.173216 
Q 46.036238 89.181257 46.703695 89.181257 
Q 47.196278 89.181257 47.55003 89.176144 
Q 47.905117 89.171031 48.059967 89.160041 
z
" clip-path="url(#p42a7274c7b)" style="fill: #59a9d8"/>
   </g>
   <g id="patch_65">
    <path d="M 49.257384 89.095037 
L 48.091492 89.095037 
L 47.627917 83.373671 
L 45.504742 83.373671 
L 45.066664 89.095037 
L 43.929746 89.095037 
L 45.997291 63.917731 
L 47.131891 63.917731 
L 49.257384 89.095037 
z
M 47.283712 79.130737 
L 46.552422 69.787489 
L 45.83504 79.130737 
L 47.283712 79.130737 
z
" clip-path="url(#p42a7274c7b)" style="fill: #0e927b"/>
   </g>
   <g id="patch_66">
    <path d="M 53.668007 89.199446 
L 54.865424 89.199475 
Q 54.590432 89.199553 53.949674 89.19959 
Q 53.308915 89.199628 52.325084 89.199628 
Q 51.106309 89.199628 50.32138 89.199564 
Q 49.537786 89.199499 49.537786 89.199387 
Q 49.537786 89.199269 50.325385 89.199204 
Q 51.114318 89.199138 52.399839 89.199138 
Q 53.522501 89.199138 54.223331 89.19919 
Q 54.639824 89.19922 54.84807 89.199277 
L 53.626625 89.199299 
Q 53.517162 89.199263 53.172754 89.199241 
Q 52.829682 89.19922 52.337099 89.19922 
Q 51.657628 89.19922 51.233125 89.199258 
Q 50.809958 89.199295 50.809958 89.19938 
Q 50.809958 89.19947 51.226451 89.199508 
Q 51.644279 89.199546 52.311735 89.199546 
Q 52.804318 89.199546 53.15807 89.199522 
Q 53.513157 89.199498 53.668007 89.199446 
z
" clip-path="url(#p42a7274c7b)" style="fill: #59a9d8"/>
   </g>
   <g id="patch_67">
    <path d="M 52.386238 89.198956 
L 52.386238 89.198876 
L 54.865424 89.198876 
L 54.865424 89.199065 
Q 54.503617 89.199094 53.817303 89.199116 
Q 53.132232 89.199138 52.428511 89.199138 
Q 51.535806 89.199138 50.870628 89.199107 
Q 50.206693 89.199076 49.87224 89.199018 
Q 49.537786 89.19896 49.537786 89.198892 
Q 49.537786 89.198818 49.910783 89.19876 
Q 50.283779 89.198703 51.00242 89.198672 
Q 51.550725 89.198649 52.366345 89.198649 
Q 53.4269 89.198649 54.023694 89.198686 
Q 54.620489 89.198722 54.790825 89.198788 
L 53.649454 89.198805 
Q 53.528852 89.198771 53.195641 89.19875 
Q 52.863674 89.19873 52.366345 89.19873 
Q 51.612892 89.19873 51.167782 89.19877 
Q 50.722672 89.19881 50.722672 89.198888 
Q 50.722672 89.198972 51.172755 89.199014 
Q 51.624081 89.199056 52.355155 89.199056 
Q 52.716962 89.199056 53.080012 89.199045 
Q 53.443063 89.199033 53.702917 89.199016 
L 53.702917 89.198956 
L 52.386238 89.198956 
z
" clip-path="url(#p42a7274c7b)" style="fill: #dc9514"/>
   </g>
   <g id="patch_68">
    <path d="M 51.526868 89.198649 
L 51.526868 89.198135 
L 49.537786 89.198135 
L 49.537786 89.19803 
L 54.865424 89.19803 
L 54.865424 89.198135 
L 52.880732 89.198135 
L 52.880732 89.198649 
L 51.526868 89.198649 
z
" clip-path="url(#p42a7274c7b)" style="fill: #1a1a1a"/>
   </g>
   <g id="patch_69">
    <path d="M 54.865424 89.19803 
L 53.699532 89.19803 
L 53.235957 83.341799 
L 51.112783 83.341799 
L 50.674704 89.19803 
L 49.537786 89.19803 
L 51.605331 63.427237 
L 52.739932 63.427237 
L 54.865424 89.19803 
z
M 52.891753 78.998849 
L 52.160463 69.435359 
L 51.44308 78.998849 
L 52.891753 78.998849 
z
" clip-path="url(#p42a7274c7b)" style="fill: #0e927b"/>
   </g>
   <g id="patch_70">
    <path d="M 59.276047 89.199446 
L 60.473464 89.199475 
Q 60.198472 89.199553 59.557714 89.19959 
Q 58.916956 89.199628 57.933125 89.199628 
Q 56.714349 89.199628 55.92942 89.199564 
Q 55.145826 89.199499 55.145826 89.199387 
Q 55.145826 89.199269 55.933425 89.199204 
Q 56.722358 89.199138 58.00788 89.199138 
Q 59.130542 89.199138 59.831371 89.19919 
Q 60.247864 89.19922 60.45611 89.199277 
L 59.234665 89.199299 
Q 59.125202 89.199263 58.780794 89.199241 
Q 58.437722 89.19922 57.945139 89.19922 
Q 57.265668 89.19922 56.841166 89.199258 
Q 56.417998 89.199295 56.417998 89.19938 
Q 56.417998 89.19947 56.834491 89.199508 
Q 57.252319 89.199546 57.919775 89.199546 
Q 58.412358 89.199546 58.76611 89.199522 
Q 59.121197 89.199498 59.276047 89.199446 
z
" clip-path="url(#p42a7274c7b)" style="fill: #59a9d8"/>
   </g>
   <g id="patch_71">
    <path d="M 57.994279 89.198956 
L 57.994279 89.198876 
L 60.473464 89.198876 
L 60.473464 89.199065 
Q 60.111657 89.199094 59.425343 89.199116 
Q 58.740272 89.199138 58.036552 89.199138 
Q 57.143846 89.199138 56.478668 89.199107 
Q 55.814734 89.199076 55.48028 89.199018 
Q 55.145826 89.19896 55.145826 89.198892 
Q 55.145826 89.198818 55.518823 89.19876 
Q 55.89182 89.198703 56.61046 89.198672 
Q 57.158766 89.198649 57.974385 89.198649 
Q 59.03494 89.198649 59.631735 89.198686 
Q 60.22853 89.198722 60.398865 89.198788 
L 59.257494 89.198805 
Q 59.136892 89.198771 58.803682 89.19875 
Q 58.471714 89.19873 57.974385 89.19873 
Q 57.220932 89.19873 56.775822 89.19877 
Q 56.330713 89.19881 56.330713 89.198888 
Q 56.330713 89.198972 56.780795 89.199014 
Q 57.232122 89.199056 57.963195 89.199056 
Q 58.325002 89.199056 58.688053 89.199045 
Q 59.051103 89.199033 59.310957 89.199016 
L 59.310957 89.198956 
L 57.994279 89.198956 
z
" clip-path="url(#p42a7274c7b)" style="fill: #dc9514"/>
   </g>
   <g id="patch_72">
    <path d="M 60.473464 89.198649 
L 59.307573 89.198649 
L 58.843997 89.198508 
L 56.720823 89.198508 
L 56.282744 89.198649 
L 55.145826 89.198649 
L 57.213371 89.19803 
L 58.347972 89.19803 
L 60.473464 89.198649 
z
M 58.499793 89.198404 
L 57.768503 89.198174 
L 57.05112 89.198404 
L 58.499793 89.198404 
z
" clip-path="url(#p42a7274c7b)" style="fill: #0e927b"/>
   </g>
   <g id="patch_73">
    <path d="M 57.134909 89.19803 
L 57.134909 67.787064 
L 55.145826 67.787064 
L 55.145826 63.427237 
L 60.473464 63.427237 
L 60.473464 67.787064 
L 58.488773 67.787064 
L 58.488773 89.19803 
L 57.134909 89.19803 
z
" clip-path="url(#p42a7274c7b)" style="fill: #1a1a1a"/>
   </g>
   <g id="patch_74">
    <path d="M 64.884087 89.199449 
L 66.081504 89.199478 
Q 65.806512 89.199554 65.165754 89.199591 
Q 64.524996 89.199628 63.541165 89.199628 
Q 62.322389 89.199628 61.53746 89.199565 
Q 60.753866 89.199501 60.753866 89.199392 
Q 60.753866 89.199276 61.541465 89.199212 
Q 62.330399 89.199148 63.61592 89.199148 
Q 64.738582 89.199148 65.439411 89.199198 
Q 65.855904 89.199228 66.064151 89.199283 
L 64.842705 89.199306 
Q 64.733242 89.19927 64.388835 89.199249 
Q 64.045762 89.199228 63.553179 89.199228 
Q 62.873708 89.199228 62.449206 89.199265 
Q 62.026038 89.199302 62.026038 89.199385 
Q 62.026038 89.199473 62.442531 89.19951 
Q 62.860359 89.199548 63.527816 89.199548 
Q 64.020399 89.199548 64.374151 89.199524 
Q 64.729237 89.1995 64.884087 89.199449 
z
" clip-path="url(#p42a7274c7b)" style="fill: #59a9d8"/>
   </g>
   <g id="patch_75">
    <path d="M 66.081504 89.199148 
L 64.915613 89.199148 
L 64.452038 89.19901 
L 62.328863 89.19901 
L 61.890784 89.199148 
L 60.753866 89.199148 
L 62.821412 89.198541 
L 63.956012 89.198541 
L 66.081504 89.199148 
z
M 64.107833 89.198907 
L 63.376543 89.198682 
L 62.65916 89.198907 
L 64.107833 89.198907 
z
" clip-path="url(#p42a7274c7b)" style="fill: #0e927b"/>
   </g>
   <g id="patch_76">
    <path d="M 63.602319 89.160041 
L 63.602319 89.143172 
L 66.081504 89.143172 
L 66.081504 89.183049 
Q 65.719697 89.189189 65.033383 89.193865 
Q 64.348312 89.198541 63.644592 89.198541 
Q 62.751886 89.198541 62.086708 89.191964 
Q 61.422774 89.185365 61.08832 89.173107 
Q 60.753866 89.160849 60.753866 89.14645 
Q 60.753866 89.130805 61.126863 89.118657 
Q 61.49986 89.106508 62.2185 89.100018 
Q 62.766806 89.095037 63.582426 89.095037 
Q 64.64298 89.095037 65.239775 89.102859 
Q 65.83657 89.110659 66.006905 89.124447 
L 64.865535 89.128205 
Q 64.744932 89.120842 64.411722 89.116581 
Q 64.079755 89.112298 63.582426 89.112298 
Q 62.828972 89.112298 62.383862 89.120711 
Q 61.938753 89.129101 61.938753 89.14562 
Q 61.938753 89.163449 62.388836 89.172364 
Q 62.840162 89.181257 63.571236 89.181257 
Q 63.933043 89.181257 64.296093 89.178766 
Q 64.659143 89.176275 64.918998 89.172736 
L 64.918998 89.160041 
L 63.602319 89.160041 
z
" clip-path="url(#p42a7274c7b)" style="fill: #dc9514"/>
   </g>
   <g id="patch_77">
    <path d="M 62.742949 89.095037 
L 62.742949 68.177153 
L 60.753866 68.177153 
L 60.753866 63.917731 
L 66.081504 63.917731 
L 66.081504 68.177153 
L 64.096813 68.177153 
L 64.096813 89.095037 
L 62.742949 89.095037 
z
" clip-path="url(#p42a7274c7b)" style="fill: #1a1a1a"/>
   </g>
   <g id="patch_78">
    <path d="M 70.492128 89.199446 
L 71.689545 89.199475 
Q 71.414552 89.199553 70.773794 89.19959 
Q 70.133036 89.199628 69.149205 89.199628 
Q 67.930429 89.199628 67.1455 89.199564 
Q 66.361906 89.199499 66.361906 89.199387 
Q 66.361906 89.199269 67.149505 89.199204 
Q 67.938439 89.199138 69.22396 89.199138 
Q 70.346622 89.199138 71.047451 89.19919 
Q 71.463944 89.19922 71.672191 89.199277 
L 70.450745 89.199299 
Q 70.341282 89.199263 69.996875 89.199241 
Q 69.653802 89.19922 69.161219 89.19922 
Q 68.481748 89.19922 68.057246 89.199258 
Q 67.634079 89.199295 67.634079 89.19938 
Q 67.634079 89.19947 68.050571 89.199508 
Q 68.468399 89.199546 69.135856 89.199546 
Q 69.628439 89.199546 69.982191 89.199522 
Q 70.337278 89.199498 70.492128 89.199446 
z
" clip-path="url(#p42a7274c7b)" style="fill: #59a9d8"/>
   </g>
   <g id="patch_79">
    <path d="M 69.210359 89.198956 
L 69.210359 89.198876 
L 71.689545 89.198876 
L 71.689545 89.199065 
Q 71.327738 89.199094 70.641423 89.199116 
Q 69.956353 89.199138 69.252632 89.199138 
Q 68.359926 89.199138 67.694748 89.199107 
Q 67.030814 89.199076 66.69636 89.199018 
Q 66.361906 89.19896 66.361906 89.198892 
Q 66.361906 89.198818 66.734903 89.19876 
Q 67.1079 89.198703 67.826541 89.198672 
Q 68.374846 89.198649 69.190466 89.198649 
Q 70.25102 89.198649 70.847815 89.198686 
Q 71.44461 89.198722 71.614945 89.198788 
L 70.473575 89.198805 
Q 70.352973 89.198771 70.019762 89.19875 
Q 69.687795 89.19873 69.190466 89.19873 
Q 68.437012 89.19873 67.991903 89.19877 
Q 67.546793 89.19881 67.546793 89.198888 
Q 67.546793 89.198972 67.996876 89.199014 
Q 68.448202 89.199056 69.179276 89.199056 
Q 69.541083 89.199056 69.904133 89.199045 
Q 70.267183 89.199033 70.527038 89.199016 
L 70.527038 89.198956 
L 69.210359 89.198956 
z
" clip-path="url(#p42a7274c7b)" style="fill: #dc9514"/>
   </g>
   <g id="patch_80">
    <path d="M 68.350989 89.198649 
L 68.350989 89.198135 
L 66.361906 89.198135 
L 66.361906 89.19803 
L 71.689545 89.19803 
L 71.689545 89.198135 
L 69.704853 89.198135 
L 69.704853 89.198649 
L 68.350989 89.198649 
z
" clip-path="url(#p42a7274c7b)" style="fill: #1a1a1a"/>
   </g>
   <g id="patch_81">
    <path d="M 71.689545 89.19803 
L 70.523653 89.19803 
L 70.060078 83.341799 
L 67.936903 83.341799 
L 67.498825 89.19803 
L 66.361906 89.19803 
L 68.429452 63.427237 
L 69.564052 63.427237 
L 71.689545 89.19803 
z
M 69.715873 78.998849 
L 68.984583 69.435359 
L 68.267201 78.998849 
L 69.715873 78.998849 
z
" clip-path="url(#p42a7274c7b)" style="fill: #0e927b"/>
   </g>
   <g id="patch_82">
    <path d="M 73.959029 89.199628 
L 73.959029 88.984526 
L 71.969947 88.984526 
L 71.969947 88.940726 
L 77.297585 88.940726 
L 77.297585 88.984526 
L 75.312893 88.984526 
L 75.312893 89.199628 
L 73.959029 89.199628 
z
" clip-path="url(#p42a7274c7b)" style="fill: #1a1a1a"/>
   </g>
   <g id="patch_83">
    <path d="M 76.100168 88.742584 
L 77.297585 88.774521 
Q 77.022593 88.85886 76.381834 88.899793 
Q 75.741076 88.940726 74.757245 88.940726 
Q 73.53847 88.940726 72.753541 88.870668 
Q 71.969947 88.800497 71.969947 88.678936 
Q 71.969947 88.550289 72.757545 88.479219 
Q 73.546479 88.408036 74.832 88.408036 
Q 75.954662 88.408036 76.655492 88.463813 
Q 77.071984 88.496874 77.280231 88.558723 
L 76.058785 88.58335 
Q 75.949323 88.543317 75.604915 88.520152 
Q 75.261842 88.496874 74.769259 88.496874 
Q 74.089789 88.496874 73.665286 88.538032 
Q 73.242119 88.579077 73.242119 88.671176 
Q 73.242119 88.768898 73.658612 88.810393 
Q 74.076439 88.851776 74.743896 88.851776 
Q 75.236479 88.851776 75.590231 88.825462 
Q 75.945318 88.799148 76.100168 88.742584 
z
" clip-path="url(#p42a7274c7b)" style="fill: #59a9d8"/>
   </g>
   <g id="patch_84">
    <path d="M 77.297585 88.408036 
L 76.131693 88.408036 
L 75.668118 88.079068 
L 73.544943 88.079068 
L 73.106865 88.408036 
L 71.969947 88.408036 
L 74.037492 86.960387 
L 75.172092 86.960387 
L 77.297585 88.408036 
z
M 75.323913 87.835107 
L 74.592623 87.297888 
L 73.875241 87.835107 
L 75.323913 87.835107 
z
" clip-path="url(#p42a7274c7b)" style="fill: #0e927b"/>
   </g>
   <g id="patch_85">
    <path d="M 74.818399 86.269992 
L 74.818399 85.967503 
L 77.297585 85.967503 
L 77.297585 86.682583 
Q 76.935778 86.792686 76.249464 86.876537 
Q 75.564393 86.960387 74.860672 86.960387 
Q 73.967966 86.960387 73.302789 86.842448 
Q 72.638854 86.724117 72.3044 86.504303 
Q 71.969947 86.284489 71.969947 86.026277 
Q 71.969947 85.74573 72.342943 85.527875 
Q 72.71594 85.310021 73.434581 85.193649 
Q 73.982886 85.104312 74.798506 85.104312 
Q 75.85906 85.104312 76.455855 85.244586 
Q 77.05265 85.384467 77.222985 85.631709 
L 76.081615 85.699103 
Q 75.961013 85.567058 75.627802 85.490652 
Q 75.295835 85.413854 74.798506 85.413854 
Q 74.045052 85.413854 73.599943 85.564707 
Q 73.154833 85.715168 73.154833 86.011387 
Q 73.154833 86.331116 73.604916 86.490981 
Q 74.056242 86.650454 74.787316 86.650454 
Q 75.149123 86.650454 75.512173 86.605786 
Q 75.875224 86.561118 76.135078 86.497642 
L 76.135078 86.269992 
L 74.818399 86.269992 
z
" clip-path="url(#p42a7274c7b)" style="fill: #dc9514"/>
   </g>
   <g id="patch_86">
    <path d="M 80.426439 89.109328 
L 80.426439 89.069764 
L 82.905625 89.069764 
L 82.905625 89.163293 
Q 82.543818 89.177694 81.857504 89.188661 
Q 81.172433 89.199628 80.468712 89.199628 
Q 79.576007 89.199628 78.910829 89.184202 
Q 78.246894 89.168725 77.912441 89.139975 
Q 77.577987 89.111224 77.577987 89.077452 
Q 77.577987 89.040758 77.950984 89.012264 
Q 78.32398 88.98377 79.042621 88.968549 
Q 79.590926 88.956864 80.406546 88.956864 
Q 81.467101 88.956864 82.063895 88.975211 
Q 82.66069 88.993507 82.831026 89.025844 
L 81.689655 89.034659 
Q 81.569053 89.017388 81.235842 89.007395 
Q 80.903875 88.99735 80.406546 88.99735 
Q 79.653093 88.99735 79.207983 89.017081 
Q 78.762873 89.03676 78.762873 89.075504 
Q 78.762873 89.117323 79.212956 89.138232 
Q 79.664282 89.15909 80.395356 89.15909 
Q 80.757163 89.15909 81.120213 89.153248 
Q 81.483264 89.147406 81.743118 89.139104 
L 81.743118 89.109328 
L 80.426439 89.109328 
z
" clip-path="url(#p42a7274c7b)" style="fill: #dc9514"/>
   </g>
   <g id="patch_87">
    <path d="M 82.905625 88.956864 
L 81.739733 88.956864 
L 81.276158 88.789782 
L 79.152984 88.789782 
L 78.714905 88.956864 
L 77.577987 88.956864 
L 79.645532 88.221607 
L 80.780133 88.221607 
L 82.905625 88.956864 
z
M 80.931954 88.665875 
L 80.200664 88.393023 
L 79.483281 88.665875 
L 80.931954 88.665875 
z
" clip-path="url(#p42a7274c7b)" style="fill: #0e927b"/>
   </g>
   <g id="patch_88">
    <path d="M 79.567069 88.221607 
L 79.567069 87.286287 
L 77.577987 87.286287 
L 77.577987 87.095832 
L 82.905625 87.095832 
L 82.905625 87.286287 
L 80.920933 87.286287 
L 80.920933 88.221607 
L 79.567069 88.221607 
z
" clip-path="url(#p42a7274c7b)" style="fill: #1a1a1a"/>
   </g>
   <g id="patch_89">
    <path d="M 81.708208 86.259052 
L 82.905625 86.393924 
Q 82.630633 86.750102 81.989875 86.922967 
Q 81.349116 87.095832 80.365285 87.095832 
Q 79.14651 87.095832 78.361581 86.799967 
Q 77.577987 86.503627 77.577987 85.990256 
Q 77.577987 85.446966 78.365586 85.146827 
Q 79.154519 84.846213 80.440041 84.846213 
Q 81.562702 84.846213 82.263532 85.081766 
Q 82.680025 85.221387 82.888271 85.482584 
L 81.666826 85.586588 
Q 81.557363 85.417522 81.212955 85.319692 
Q 80.869883 85.221387 80.3773 85.221387 
Q 79.697829 85.221387 79.273326 85.395202 
Q 78.850159 85.568542 78.850159 85.957488 
Q 78.850159 86.370179 79.266652 86.545418 
Q 79.68448 86.720183 80.351936 86.720183 
Q 80.844519 86.720183 81.198271 86.609055 
Q 81.553358 86.497928 81.708208 86.259052 
z
" clip-path="url(#p42a7274c7b)" style="fill: #59a9d8"/>
   </g>
   <g id="matplotlib.axis_3">
    <g id="xtick_12">
     <g id="text_16">
      <!-- 1 -->
      <g transform="translate(28.101163 95.994315) scale(0.06 -0.06)">
       <use xlink:href="#ArialMT-31"/>
      </g>
     </g>
    </g>
    <g id="xtick_13">
     <g id="text_17">
      <!-- 2 -->
      <g transform="translate(33.709203 95.994315) scale(0.06 -0.06)">
       <use xlink:href="#ArialMT-32"/>
      </g>
     </g>
    </g>
    <g id="xtick_14">
     <g id="text_18">
      <!-- 3 -->
      <g transform="translate(39.317243 95.994315) scale(0.06 -0.06)">
       <use xlink:href="#ArialMT-33"/>
      </g>
     </g>
    </g>
    <g id="xtick_15">
     <g id="text_19">
      <!-- 4 -->
      <g transform="translate(44.925283 95.994315) scale(0.06 -0.06)">
       <use xlink:href="#ArialMT-34"/>
      </g>
     </g>
    </g>
    <g id="xtick_16">
     <g id="text_20">
      <!-- 5 -->
      <g transform="translate(50.533324 95.994315) scale(0.06 -0.06)">
       <use xlink:href="#ArialMT-35"/>
      </g>
     </g>
    </g>
    <g id="xtick_17">
     <g id="text_21">
      <!-- 6 -->
      <g transform="translate(56.141364 95.994315) scale(0.06 -0.06)">
       <use xlink:href="#ArialMT-36"/>
      </g>
     </g>
    </g>
    <g id="xtick_18">
     <g id="text_22">
      <!-- 7 -->
      <g transform="translate(61.749404 95.994315) scale(0.06 -0.06)">
       <use xlink:href="#ArialMT-37"/>
      </g>
     </g>
    </g>
    <g id="xtick_19">
     <g id="text_23">
      <!-- 8 -->
      <g transform="translate(67.357444 95.994315) scale(0.06 -0.06)">
       <use xlink:href="#ArialMT-38"/>
      </g>
     </g>
    </g>
    <g id="xtick_20">
     <g id="text_24">
      <!-- 9 -->
      <g transform="translate(72.965484 95.994315) scale(0.06 -0.06)">
       <use xlink:href="#ArialMT-39"/>
      </g>
     </g>
    </g>
    <g id="xtick_21">
     <g id="text_25">
      <!-- 10 -->
      <g transform="translate(76.905243 95.994315) scale(0.06 -0.06)">
       <use xlink:href="#ArialMT-31"/>
       <use xlink:href="#ArialMT-30" x="55.615234"/>
      </g>
     </g>
    </g>
   </g>
   <g id="matplotlib.axis_4">
    <g id="ytick_3">
     <g id="line2d_5">
      <g>
       <use xlink:href="#m7a1228cd8c" x="27.105625" y="89.199628" style="stroke: #000000; stroke-width: 0.8"/>
      </g>
     </g>
     <g id="text_26">
      <!-- 0 -->
      <g transform="translate(16.769063 91.346972) scale(0.06 -0.06)">
       <use xlink:href="#ArialMT-30"/>
      </g>
     </g>
    </g>
    <g id="ytick_4">
     <g id="line2d_6">
      <g>
       <use xlink:href="#m7a1228cd8c" x="27.105625" y="63.413581" style="stroke: #000000; stroke-width: 0.8"/>
      </g>
     </g>
     <g id="text_27">
      <!-- 2 -->
      <g transform="translate(16.769063 65.560925) scale(0.06 -0.06)">
       <use xlink:href="#ArialMT-32"/>
      </g>
     </g>
    </g>
    <g id="text_28">
     <!-- IC (bits) -->
     <g transform="translate(12.295781 85.977453) rotate(-90) scale(0.07 -0.07)">
      <use xlink:href="#ArialMT-49"/>
      <use xlink:href="#ArialMT-43" x="27.783203"/>
      <use xlink:href="#ArialMT-20" x="100"/>
      <use xlink:href="#ArialMT-28" x="127.783203"/>
      <use xlink:href="#ArialMT-62" x="161.083984"/>
      <use xlink:href="#ArialMT-69" x="216.699219"/>
      <use xlink:href="#ArialMT-74" x="238.916016"/>
      <use xlink:href="#ArialMT-73" x="266.699219"/>
      <use xlink:href="#ArialMT-29" x="316.699219"/>
     </g>
    </g>
   </g>
   <g id="patch_90">
    <path d="M 27.105625 89.199628 
L 27.105625 58.256372 
" style="fill: none; stroke: #000000; stroke-linejoin: miter; stroke-linecap: square"/>
   </g>
   <g id="patch_91">
    <path d="M 27.105625 89.199628 
L 82.905625 89.199628 
" style="fill: none; stroke: #000000; stroke-linejoin: miter; stroke-linecap: square"/>
   </g>
  </g>
  <g id="axes_4">
   <g id="text_29">
    <!-- E-value 1.5e-036 -->
    <g transform="translate(29.59625 104.266655) scale(0.07 -0.07)">
     <defs>
      <path id="Arial-ItalicMT-35" d="M 447 1309 
L 1022 1366 
Q 1016 1244 1016 1219 
Q 1016 1013 1120 803 
Q 1225 594 1404 483 
Q 1584 372 1784 372 
Q 2047 372 2319 553 
Q 2591 734 2759 1081 
Q 2928 1428 2928 1769 
Q 2928 2153 2701 2384 
Q 2475 2616 2106 2616 
Q 1859 2616 1639 2497 
Q 1419 2378 1228 2141 
L 734 2175 
L 1425 4519 
L 3663 4519 
L 3553 4000 
L 1813 4000 
L 1469 2834 
Q 1663 2975 1867 3045 
Q 2072 3116 2288 3116 
Q 2813 3116 3150 2769 
Q 3488 2422 3488 1819 
Q 3488 1291 3256 845 
Q 3025 400 2620 161 
Q 2216 -78 1747 -78 
Q 1353 -78 1050 100 
Q 747 278 595 590 
Q 444 903 444 1216 
Q 444 1247 447 1309 
z
" transform="scale(0.015625)"/>
      <path id="Arial-ItalicMT-36" d="M 1288 2656 
Q 1525 2853 1761 2951 
Q 1997 3050 2228 3050 
Q 2750 3050 3090 2694 
Q 3431 2338 3431 1734 
Q 3431 956 2925 400 
Q 2488 -78 1863 -78 
Q 1294 -78 914 339 
Q 534 756 534 1528 
Q 534 2219 778 2956 
Q 966 3522 1242 3889 
Q 1519 4256 1830 4428 
Q 2141 4600 2531 4600 
Q 3000 4600 3297 4308 
Q 3594 4016 3634 3472 
L 3109 3422 
Q 3066 3794 2898 3959 
Q 2731 4125 2491 4125 
Q 2238 4125 1981 3928 
Q 1725 3731 1540 3345 
Q 1356 2959 1288 2656 
z
M 1091 1288 
Q 1091 900 1331 636 
Q 1572 372 1875 372 
Q 2088 372 2325 533 
Q 2563 694 2728 1022 
Q 2894 1350 2894 1675 
Q 2894 2094 2664 2345 
Q 2434 2597 2109 2597 
Q 1734 2597 1412 2230 
Q 1091 1863 1091 1288 
z
" transform="scale(0.015625)"/>
     </defs>
     <use xlink:href="#Arial-ItalicMT-45"/>
     <use xlink:href="#Arial-ItalicMT-2d" x="66.699219"/>
     <use xlink:href="#Arial-ItalicMT-76" x="100"/>
     <use xlink:href="#Arial-ItalicMT-61" x="150"/>
     <use xlink:href="#Arial-ItalicMT-6c" x="205.615234"/>
     <use xlink:href="#Arial-ItalicMT-75" x="227.832031"/>
     <use xlink:href="#Arial-ItalicMT-65" x="283.447266"/>
     <use xlink:href="#Arial-ItalicMT-20" x="339.0625"/>
     <use xlink:href="#Arial-ItalicMT-31" x="366.845703"/>
     <use xlink:href="#Arial-ItalicMT-2e" x="422.460938"/>
     <use xlink:href="#Arial-ItalicMT-35" x="450.244141"/>
     <use xlink:href="#Arial-ItalicMT-65" x="505.859375"/>
     <use xlink:href="#Arial-ItalicMT-2d" x="561.474609"/>
     <use xlink:href="#Arial-ItalicMT-30" x="594.775391"/>
     <use xlink:href="#Arial-ItalicMT-33" x="650.390625"/>
     <use xlink:href="#Arial-ItalicMT-36" x="706.005859"/>
    </g>
   </g>
  </g>
 </g>
 <defs>
  <clipPath id="peaa1fc6237">
   <rect x="27.105625" y="7.2" width="55.8" height="30.943256"/>
  </clipPath>
  <clipPath id="p42a7274c7b">
   <rect x="27.105625" y="58.256372" width="55.8" height="30.943256"/>
  </clipPath>
 </defs>
</svg>
