<?xml version="1.0" encoding="utf-8" standalone="no"?>
<!DOCTYPE svg PUBLIC "-//W3C//DTD SVG 1.1//EN"
  "http://www.w3.org/Graphics/SVG/1.1/DTD/svg11.dtd">
<svg xmlns:xlink="http://www.w3.org/1999/xlink" width="96.138335pt" height="64.097719pt" viewBox="0 0 96.138335 64.097719" xmlns="http://www.w3.org/2000/svg" version="1.1">
 <metadata>
  <rdf:RDF xmlns:dc="http://purl.org/dc/elements/1.1/" xmlns:cc="http://creativecommons.org/ns#" xmlns:rdf="http://www.w3.org/1999/02/22-rdf-syntax-ns#">
   <cc:Work>
    <dc:type rdf:resource="http://purl.org/dc/dcmitype/StillImage"/>
    <dc:date>2024-02-13T16:43:09.848401</dc:date>
    <dc:format>image/svg+xml</dc:format>
    <dc:creator>
     <cc:Agent>
      <dc:title>Matplotlib v3.6.3, https://matplotlib.org/</dc:title>
     </cc:Agent>
    </dc:creator>
   </cc:Work>
  </rdf:RDF>
 </metadata>
 <defs>
  <style type="text/css">*{stroke-linejoin: round; stroke-linecap: butt}</style>
 </defs>
 <g id="figure_1">
  <g id="patch_1">
   <path d="M 0 64.097719 
L 96.138335 64.097719 
L 96.138335 0 
L 0 0 
z
" style="fill: #ffffff"/>
  </g>
  <g id="axes_1">
   <g id="patch_2">
    <path d="M 27.105625 38.88 
L 88.485625 38.88 
L 88.485625 7.2 
L 27.105625 7.2 
z
" style="fill: #ffffff"/>
   </g>
   <g id="line2d_1">
    <path d="M 27.105625 38.88 
L 88.485625 38.88 
" clip-path="url(#p36e4ddb8d7)" style="fill: none; stroke: #000000; stroke-width: 0.5; stroke-linecap: square"/>
   </g>
   <g id="patch_3">
    <path d="M 29.952777 38.80808 
L 29.952777 38.77657 
L 32.43083 38.77657 
L 32.43083 38.851061 
Q 32.069189 38.86253 31.383188 38.871265 
Q 30.69843 38.88 29.995031 38.88 
Q 29.102732 38.88 28.437858 38.867714 
Q 27.774227 38.855387 27.439926 38.832489 
Q 27.105625 38.809591 27.105625 38.782692 
Q 27.105625 38.753467 27.478452 38.730773 
Q 27.851278 38.708078 28.56959 38.695956 
Q 29.117645 38.686649 29.932893 38.686649 
Q 30.992963 38.686649 31.589485 38.701262 
Q 32.186008 38.715834 32.356265 38.741589 
L 31.215416 38.74861 
Q 31.094869 38.734854 30.76181 38.726895 
Q 30.429995 38.718895 29.932893 38.718895 
Q 29.179783 38.718895 28.734877 38.73461 
Q 28.289971 38.750283 28.289971 38.781141 
Q 28.289971 38.814448 28.739848 38.831101 
Q 29.190968 38.847714 29.921708 38.847714 
Q 30.28335 38.847714 30.646234 38.843061 
Q 31.009119 38.838407 31.268854 38.831795 
L 31.268854 38.80808 
L 29.952777 38.80808 
z
" clip-path="url(#p36e4ddb8d7)" style="fill: #dc9514"/>
   </g>
   <g id="patch_4">
    <path d="M 31.23396 38.555119 
L 32.43083 38.576319 
Q 32.155964 38.632306 31.515498 38.659478 
Q 30.875033 38.686649 29.891651 38.686649 
Q 28.673432 38.686649 27.888861 38.640144 
Q 27.105625 38.593563 27.105625 38.512868 
Q 27.105625 38.427471 27.892864 38.380293 
Q 28.681437 38.333041 29.966372 38.333041 
Q 31.088521 38.333041 31.78903 38.370066 
Q 32.205333 38.392013 32.413485 38.43307 
L 31.192597 38.449418 
Q 31.083184 38.422843 30.738934 38.407465 
Q 30.396018 38.392013 29.90366 38.392013 
Q 29.224499 38.392013 28.800191 38.419334 
Q 28.377216 38.446581 28.377216 38.507718 
Q 28.377216 38.572587 28.793519 38.600132 
Q 29.211156 38.627603 29.878308 38.627603 
Q 30.370666 38.627603 30.724256 38.610135 
Q 31.079181 38.592667 31.23396 38.555119 
z
" clip-path="url(#p36e4ddb8d7)" style="fill: #59a9d8"/>
   </g>
   <g id="patch_5">
    <path d="M 32.43083 38.333041 
L 31.265471 38.333041 
L 30.802108 37.994667 
L 28.679903 37.994667 
L 28.242024 38.333041 
L 27.105625 38.333041 
L 29.172226 36.844 
L 30.306309 36.844 
L 32.43083 38.333041 
z
M 30.45806 37.74373 
L 29.727104 37.19115 
L 29.010049 37.74373 
L 30.45806 37.74373 
z
" clip-path="url(#p36e4ddb8d7)" style="fill: #0e927b"/>
   </g>
   <g id="patch_6">
    <path d="M 29.093799 36.844 
L 29.093799 23.519658 
L 27.105625 23.519658 
L 27.105625 20.806478 
L 32.43083 20.806478 
L 32.43083 23.519658 
L 30.447045 23.519658 
L 30.447045 36.844 
L 29.093799 36.844 
z
" clip-path="url(#p36e4ddb8d7)" style="fill: #1a1a1a"/>
   </g>
   <g id="patch_7">
    <path d="M 36.83944 38.879532 
L 38.03631 38.879607 
Q 37.761443 38.879806 37.120978 38.879903 
Q 36.480512 38.88 35.49713 38.88 
Q 34.278911 38.88 33.494341 38.879834 
Q 32.711104 38.879669 32.711104 38.879381 
Q 32.711104 38.879077 33.498344 38.878909 
Q 34.286917 38.878741 35.571851 38.878741 
Q 36.694001 38.878741 37.39451 38.878873 
Q 37.810813 38.878951 38.018964 38.879097 
L 36.798076 38.879155 
Q 36.688663 38.879061 36.344413 38.879006 
Q 36.001497 38.878951 35.509139 38.878951 
Q 34.829978 38.878951 34.40567 38.879048 
Q 33.982696 38.879145 33.982696 38.879363 
Q 33.982696 38.879594 34.398998 38.879692 
Q 34.816635 38.87979 35.483787 38.87979 
Q 35.976145 38.87979 36.329736 38.879728 
Q 36.68466 38.879665 36.83944 38.879532 
z
" clip-path="url(#p36e4ddb8d7)" style="fill: #59a9d8"/>
   </g>
   <g id="patch_8">
    <path d="M 35.558256 38.703387 
L 35.558256 38.626558 
L 38.03631 38.626558 
L 38.03631 38.808181 
Q 37.674668 38.836146 36.988667 38.857444 
Q 36.303909 38.878741 35.60051 38.878741 
Q 34.708212 38.878741 34.043338 38.848785 
Q 33.379707 38.818731 33.045406 38.7629 
Q 32.711104 38.70707 32.711104 38.641486 
Q 32.711104 38.57023 33.083931 38.514898 
Q 33.456757 38.459565 34.17507 38.430008 
Q 34.723125 38.407317 35.538372 38.407317 
Q 36.598442 38.407317 37.194965 38.442945 
Q 37.791487 38.478474 37.961745 38.54127 
L 36.820895 38.558388 
Q 36.700348 38.52485 36.36729 38.505443 
Q 36.035474 38.485937 35.538372 38.485937 
Q 34.785263 38.485937 34.340356 38.524252 
Q 33.89545 38.562468 33.89545 38.637705 
Q 33.89545 38.718913 34.345327 38.759516 
Q 34.796447 38.800021 35.527187 38.800021 
Q 35.888829 38.800021 36.251714 38.788676 
Q 36.614598 38.77733 36.874334 38.761208 
L 36.874334 38.703387 
L 35.558256 38.703387 
z
" clip-path="url(#p36e4ddb8d7)" style="fill: #dc9514"/>
   </g>
   <g id="patch_9">
    <path d="M 34.699279 38.407317 
L 34.699279 37.917762 
L 32.711104 37.917762 
L 32.711104 37.818076 
L 38.03631 37.818076 
L 38.03631 37.917762 
L 36.052525 37.917762 
L 36.052525 38.407317 
L 34.699279 38.407317 
z
" clip-path="url(#p36e4ddb8d7)" style="fill: #1a1a1a"/>
   </g>
   <g id="patch_10">
    <path d="M 38.03631 37.818076 
L 36.870951 37.818076 
L 36.407587 33.039118 
L 34.285382 33.039118 
L 33.847504 37.818076 
L 32.711104 37.818076 
L 34.777706 16.787908 
L 35.911788 16.787908 
L 38.03631 37.818076 
z
M 36.06354 29.495069 
L 35.332584 21.690815 
L 34.615529 29.495069 
L 36.06354 29.495069 
z
" clip-path="url(#p36e4ddb8d7)" style="fill: #0e927b"/>
   </g>
   <g id="patch_11">
    <path d="M 42.444919 38.862686 
L 43.641789 38.865477 
Q 43.366923 38.872847 42.726457 38.876423 
Q 42.085991 38.88 41.10261 38.88 
Q 39.884391 38.88 39.09982 38.873878 
Q 38.316584 38.867747 38.316584 38.857125 
Q 38.316584 38.845884 39.103823 38.839674 
Q 39.892396 38.833454 41.177331 38.833454 
Q 42.29948 38.833454 42.999989 38.838327 
Q 43.416292 38.841216 43.624443 38.846621 
L 42.403556 38.848773 
Q 42.294143 38.845274 41.949892 38.84325 
Q 41.606976 38.841216 41.114618 38.841216 
Q 40.435458 38.841216 40.011149 38.844813 
Q 39.588175 38.848399 39.588175 38.856447 
Q 39.588175 38.864986 40.004478 38.868612 
Q 40.422115 38.872228 41.089267 38.872228 
Q 41.581625 38.872228 41.935215 38.869928 
Q 42.29014 38.867629 42.444919 38.862686 
z
" clip-path="url(#p36e4ddb8d7)" style="fill: #59a9d8"/>
   </g>
   <g id="patch_12">
    <path d="M 41.163736 38.81614 
L 41.163736 38.808554 
L 43.641789 38.808554 
L 43.641789 38.826487 
Q 43.280148 38.829248 42.594147 38.831351 
Q 41.909389 38.833454 41.205989 38.833454 
Q 40.313691 38.833454 39.648817 38.830496 
Q 38.985186 38.827528 38.650885 38.822016 
Q 38.316584 38.816504 38.316584 38.810028 
Q 38.316584 38.802993 38.68941 38.797529 
Q 39.062237 38.792066 39.780549 38.789148 
Q 40.328604 38.786907 41.143852 38.786907 
Q 42.203922 38.786907 42.800444 38.790425 
Q 43.396967 38.793933 43.567224 38.800133 
L 42.426375 38.801823 
Q 42.305828 38.798512 41.972769 38.796596 
Q 41.640954 38.79467 41.143852 38.79467 
Q 40.390742 38.79467 39.945836 38.798453 
Q 39.500929 38.802226 39.500929 38.809655 
Q 39.500929 38.817673 39.950807 38.821682 
Q 40.401927 38.825681 41.132667 38.825681 
Q 41.494309 38.825681 41.857193 38.824561 
Q 42.220078 38.823441 42.479813 38.821849 
L 42.479813 38.81614 
L 41.163736 38.81614 
z
" clip-path="url(#p36e4ddb8d7)" style="fill: #dc9514"/>
   </g>
   <g id="patch_13">
    <path d="M 40.304758 38.786907 
L 40.304758 38.710451 
L 38.316584 38.710451 
L 38.316584 38.694883 
L 43.641789 38.694883 
L 43.641789 38.710451 
L 41.658004 38.710451 
L 41.658004 38.786907 
L 40.304758 38.786907 
z
" clip-path="url(#p36e4ddb8d7)" style="fill: #1a1a1a"/>
   </g>
   <g id="patch_14">
    <path d="M 43.641789 38.694883 
L 42.47643 38.694883 
L 42.013067 32.956991 
L 39.890862 32.956991 
L 39.452983 38.694883 
L 38.316584 38.694883 
L 40.383185 13.444853 
L 41.517268 13.444853 
L 43.641789 38.694883 
z
M 41.669019 28.701802 
L 40.938063 19.331566 
L 40.221008 28.701802 
L 41.669019 28.701802 
z
" clip-path="url(#p36e4ddb8d7)" style="fill: #0e927b"/>
   </g>
   <g id="patch_15">
    <path d="M 49.247269 38.88 
L 48.08191 38.88 
L 47.618546 38.824231 
L 45.496341 38.824231 
L 45.058462 38.88 
L 43.922063 38.88 
L 45.988665 38.634583 
L 47.122747 38.634583 
L 49.247269 38.88 
z
M 47.274499 38.782872 
L 46.543543 38.691799 
L 45.826488 38.782872 
L 47.274499 38.782872 
z
" clip-path="url(#p36e4ddb8d7)" style="fill: #0e927b"/>
   </g>
   <g id="patch_16">
    <path d="M 46.769215 38.413733 
L 46.769215 38.31697 
L 49.247269 38.31697 
L 49.247269 38.545716 
Q 48.885627 38.580937 48.199626 38.60776 
Q 47.514868 38.634583 46.811469 38.634583 
Q 45.919171 38.634583 45.254297 38.596855 
Q 44.590666 38.559003 44.256364 38.488686 
Q 43.922063 38.41837 43.922063 38.335771 
Q 43.922063 38.246027 44.29489 38.176338 
Q 44.667716 38.106648 45.386029 38.069422 
Q 45.934084 38.040845 46.749331 38.040845 
Q 47.809401 38.040845 48.405924 38.085717 
Q 49.002446 38.130463 49.172704 38.209553 
L 48.031854 38.231112 
Q 47.911307 38.188872 47.578249 38.16443 
Q 47.246433 38.139864 46.749331 38.139864 
Q 45.996222 38.139864 45.551315 38.18812 
Q 45.106409 38.236251 45.106409 38.331008 
Q 45.106409 38.433286 45.556286 38.484425 
Q 46.007406 38.535439 46.738146 38.535439 
Q 47.099788 38.535439 47.462673 38.52115 
Q 47.825557 38.506861 48.085293 38.486556 
L 48.085293 38.413733 
L 46.769215 38.413733 
z
" clip-path="url(#p36e4ddb8d7)" style="fill: #dc9514"/>
   </g>
   <g id="patch_17">
    <path d="M 48.050399 37.781074 
L 49.247269 37.822944 
Q 48.972402 37.933516 48.331937 37.98718 
Q 47.691471 38.040845 46.708089 38.040845 
Q 45.48987 38.040845 44.7053 37.948996 
Q 43.922063 37.857 43.922063 37.697629 
Q 43.922063 37.52897 44.709302 37.435795 
Q 45.497876 37.342472 46.78281 37.342472 
Q 47.904959 37.342472 48.605469 37.415597 
Q 49.021772 37.458941 49.229923 37.540028 
L 48.009035 37.572315 
Q 47.899622 37.51983 47.555372 37.489459 
Q 47.212456 37.458941 46.720098 37.458941 
Q 46.040937 37.458941 45.616629 37.512901 
Q 45.193655 37.566712 45.193655 37.687457 
Q 45.193655 37.815573 45.609957 37.869974 
Q 46.027594 37.924228 46.694746 37.924228 
Q 47.187104 37.924228 47.540695 37.88973 
Q 47.895619 37.855231 48.050399 37.781074 
z
" clip-path="url(#p36e4ddb8d7)" style="fill: #59a9d8"/>
   </g>
   <g id="patch_18">
    <path d="M 45.910238 37.342472 
L 45.910238 22.288453 
L 43.922063 22.288453 
L 43.922063 19.223065 
L 49.247269 19.223065 
L 49.247269 22.288453 
L 47.263483 22.288453 
L 47.263483 37.342472 
L 45.910238 37.342472 
z
" clip-path="url(#p36e4ddb8d7)" style="fill: #1a1a1a"/>
   </g>
   <g id="patch_19">
    <path d="M 51.515717 38.88 
L 51.515717 38.670763 
L 49.527543 38.670763 
L 49.527543 38.628158 
L 54.852748 38.628158 
L 54.852748 38.670763 
L 52.868963 38.670763 
L 52.868963 38.88 
L 51.515717 38.88 
z
" clip-path="url(#p36e4ddb8d7)" style="fill: #1a1a1a"/>
   </g>
   <g id="patch_20">
    <path d="M 54.852748 38.628158 
L 53.687389 38.628158 
L 53.224025 38.531991 
L 51.10182 38.531991 
L 50.663942 38.628158 
L 49.527543 38.628158 
L 51.594144 38.20497 
L 52.728226 38.20497 
L 54.852748 38.628158 
z
M 52.879978 38.460675 
L 52.149022 38.303631 
L 51.431967 38.460675 
L 52.879978 38.460675 
z
" clip-path="url(#p36e4ddb8d7)" style="fill: #0e927b"/>
   </g>
   <g id="patch_21">
    <path d="M 53.655878 37.824395 
L 54.852748 37.885736 
Q 54.577882 38.047729 53.937416 38.12635 
Q 53.29695 38.20497 52.313569 38.20497 
Q 51.095349 38.20497 50.310779 38.070408 
Q 49.527543 37.93563 49.527543 37.702144 
Q 49.527543 37.455051 50.314782 37.318545 
Q 51.103355 37.181823 52.38829 37.181823 
Q 53.510439 37.181823 54.210948 37.288955 
Q 54.627251 37.352456 54.835402 37.471251 
L 53.614515 37.518553 
Q 53.505102 37.44166 53.160851 37.397166 
Q 52.817935 37.352456 52.325577 37.352456 
Q 51.646417 37.352456 51.222108 37.431508 
Q 50.799134 37.510345 50.799134 37.687241 
Q 50.799134 37.874937 51.215437 37.954637 
Q 51.633074 38.034122 52.300226 38.034122 
Q 52.792584 38.034122 53.146174 37.98358 
Q 53.501099 37.933038 53.655878 37.824395 
z
" clip-path="url(#p36e4ddb8d7)" style="fill: #59a9d8"/>
   </g>
   <g id="patch_22">
    <path d="M 52.374695 36.786971 
L 52.374695 36.613971 
L 54.852748 36.613971 
L 54.852748 37.022941 
Q 54.491107 37.085911 53.805106 37.133867 
Q 53.120348 37.181823 52.416948 37.181823 
Q 51.52465 37.181823 50.859776 37.114371 
Q 50.196145 37.046695 49.861844 36.920979 
Q 49.527543 36.795263 49.527543 36.647585 
Q 49.527543 36.487135 49.900369 36.362539 
Q 50.273196 36.237943 50.991508 36.171387 
Q 51.539563 36.120294 52.354811 36.120294 
Q 53.414881 36.120294 54.011403 36.200519 
Q 54.607926 36.280521 54.778183 36.421923 
L 53.637334 36.460468 
Q 53.516787 36.384948 53.183728 36.34125 
Q 52.851913 36.297328 52.354811 36.297328 
Q 51.601701 36.297328 51.156795 36.383604 
Q 50.711888 36.469655 50.711888 36.63907 
Q 50.711888 36.82193 51.161766 36.91336 
Q 51.612886 37.004566 52.343626 37.004566 
Q 52.705268 37.004566 53.068152 36.979019 
Q 53.431036 36.953472 53.690772 36.917169 
L 53.690772 36.786971 
L 52.374695 36.786971 
z
" clip-path="url(#p36e4ddb8d7)" style="fill: #dc9514"/>
   </g>
   <g id="patch_23">
    <path d="M 57.980174 38.879693 
L 57.980174 38.879559 
L 60.458228 38.879559 
L 60.458228 38.879877 
Q 60.096586 38.879926 59.410585 38.879963 
Q 58.725827 38.88 58.022428 38.88 
Q 57.13013 38.88 56.465256 38.879948 
Q 55.801624 38.879895 55.467323 38.879797 
Q 55.133022 38.8797 55.133022 38.879585 
Q 55.133022 38.879461 55.505849 38.879364 
Q 55.878675 38.879267 56.596988 38.879215 
Q 57.145043 38.879176 57.96029 38.879176 
Q 59.02036 38.879176 59.616883 38.879238 
Q 60.213405 38.8793 60.383662 38.87941 
L 59.242813 38.87944 
Q 59.122266 38.879381 58.789208 38.879347 
Q 58.457392 38.879313 57.96029 38.879313 
Q 57.20718 38.879313 56.762274 38.87938 
Q 56.317368 38.879447 56.317368 38.879579 
Q 56.317368 38.879721 56.767245 38.879792 
Q 57.218365 38.879862 57.949105 38.879862 
Q 58.310747 38.879862 58.673631 38.879843 
Q 59.036516 38.879823 59.296252 38.879794 
L 59.296252 38.879693 
L 57.980174 38.879693 
z
" clip-path="url(#p36e4ddb8d7)" style="fill: #dc9514"/>
   </g>
   <g id="patch_24">
    <path d="M 60.458228 38.879176 
L 59.292868 38.879176 
L 58.829505 38.878942 
L 56.7073 38.878942 
L 56.269421 38.879176 
L 55.133022 38.879176 
L 57.199624 38.878149 
L 58.333706 38.878149 
L 60.458228 38.879176 
z
M 58.485457 38.878769 
L 57.754501 38.878388 
L 57.037446 38.878769 
L 58.485457 38.878769 
z
" clip-path="url(#p36e4ddb8d7)" style="fill: #0e927b"/>
   </g>
   <g id="patch_25">
    <path d="M 59.261357 37.166036 
L 60.458228 37.441995 
Q 60.183361 38.170761 59.542896 38.524455 
Q 58.90243 38.878149 57.919048 38.878149 
Q 56.700829 38.878149 55.916258 38.272788 
Q 55.133022 37.666455 55.133022 36.616061 
Q 55.133022 35.504451 55.920261 34.890344 
Q 56.708835 34.275266 57.993769 34.275266 
Q 59.115918 34.275266 59.816428 34.757223 
Q 60.23273 35.042899 60.440882 35.577327 
L 59.219994 35.790127 
Q 59.110581 35.444206 58.766331 35.244038 
Q 58.423415 35.042899 57.931057 35.042899 
Q 57.251896 35.042899 56.827588 35.398537 
Q 56.404614 35.753203 56.404614 36.549014 
Q 56.404614 37.393411 56.820916 37.751963 
Q 57.238553 38.109544 57.905705 38.109544 
Q 58.398063 38.109544 58.751653 37.882169 
Q 59.106578 37.654795 59.261357 37.166036 
z
" clip-path="url(#p36e4ddb8d7)" style="fill: #59a9d8"/>
   </g>
   <g id="patch_26">
    <path d="M 57.121197 34.275266 
L 57.121197 26.085575 
L 55.133022 26.085575 
L 55.133022 24.417942 
L 60.458228 24.417942 
L 60.458228 26.085575 
L 58.474442 26.085575 
L 58.474442 34.275266 
L 57.121197 34.275266 
z
" clip-path="url(#p36e4ddb8d7)" style="fill: #1a1a1a"/>
   </g>
   <g id="patch_27">
    <path d="M 63.585654 38.818736 
L 63.585654 38.791894 
L 66.063707 38.791894 
L 66.063707 38.855349 
Q 65.702065 38.865119 65.016065 38.872559 
Q 64.331307 38.88 63.627907 38.88 
Q 62.735609 38.88 62.070735 38.869534 
Q 61.407104 38.859034 61.072803 38.839528 
Q 60.738502 38.820023 60.738502 38.79711 
Q 60.738502 38.772215 61.111328 38.752883 
Q 61.484155 38.733551 62.202467 38.723225 
Q 62.750522 38.715298 63.565769 38.715298 
Q 64.62584 38.715298 65.222362 38.727745 
Q 65.818884 38.740158 65.989142 38.762097 
L 64.848293 38.768077 
Q 64.727745 38.75636 64.394687 38.74958 
Q 64.062872 38.742765 63.565769 38.742765 
Q 62.81266 38.742765 62.367754 38.756152 
Q 61.922847 38.769503 61.922847 38.795789 
Q 61.922847 38.82416 62.372725 38.838346 
Q 62.823845 38.852497 63.554585 38.852497 
Q 63.916226 38.852497 64.279111 38.848534 
Q 64.641995 38.84457 64.901731 38.838937 
L 64.901731 38.818736 
L 63.585654 38.818736 
z
" clip-path="url(#p36e4ddb8d7)" style="fill: #dc9514"/>
   </g>
   <g id="patch_28">
    <path d="M 64.866837 38.496802 
L 66.063707 38.53202 
Q 65.788841 38.625023 65.148375 38.67016 
Q 64.507909 38.715298 63.524528 38.715298 
Q 62.306308 38.715298 61.521738 38.638043 
Q 60.738502 38.560664 60.738502 38.426616 
Q 60.738502 38.284755 61.525741 38.206385 
Q 62.314314 38.12789 63.599249 38.12789 
Q 64.721398 38.12789 65.421907 38.189396 
Q 65.83821 38.225854 66.046361 38.294056 
L 64.825473 38.321213 
Q 64.716061 38.277067 64.37181 38.251522 
Q 64.028894 38.225854 63.536536 38.225854 
Q 62.857376 38.225854 62.433067 38.271239 
Q 62.010093 38.316501 62.010093 38.41806 
Q 62.010093 38.525819 62.426396 38.571577 
Q 62.844033 38.61721 63.511184 38.61721 
Q 64.003543 38.61721 64.357133 38.588193 
Q 64.712058 38.559176 64.866837 38.496802 
z
" clip-path="url(#p36e4ddb8d7)" style="fill: #59a9d8"/>
   </g>
   <g id="patch_29">
    <path d="M 62.726676 38.12789 
L 62.726676 37.452521 
L 60.738502 37.452521 
L 60.738502 37.314998 
L 66.063707 37.314998 
L 66.063707 37.452521 
L 64.079922 37.452521 
L 64.079922 38.12789 
L 62.726676 38.12789 
z
" clip-path="url(#p36e4ddb8d7)" style="fill: #1a1a1a"/>
   </g>
   <g id="patch_30">
    <path d="M 66.063707 37.314998 
L 64.898348 37.314998 
L 64.434984 37.113295 
L 62.312779 37.113295 
L 61.874901 37.314998 
L 60.738502 37.314998 
L 62.805103 36.427391 
L 63.939185 36.427391 
L 66.063707 37.314998 
z
M 64.090937 36.963714 
L 63.359981 36.634325 
L 62.642926 36.963714 
L 64.090937 36.963714 
z
" clip-path="url(#p36e4ddb8d7)" style="fill: #0e927b"/>
   </g>
   <g id="patch_31">
    <path d="M 69.191133 38.732539 
L 69.191133 38.66793 
L 71.669187 38.66793 
L 71.669187 38.820664 
Q 71.307545 38.844181 70.621544 38.86209 
Q 69.936786 38.88 69.233387 38.88 
Q 68.341089 38.88 67.676215 38.854809 
Q 67.012583 38.829535 66.678282 38.782585 
Q 66.343981 38.735635 66.343981 38.680484 
Q 66.343981 38.620562 66.716808 38.57403 
Q 67.089634 38.527499 67.807947 38.502643 
Q 68.356002 38.483561 69.171249 38.483561 
Q 70.231319 38.483561 70.827841 38.513522 
Q 71.424364 38.5434 71.594621 38.596208 
L 70.453772 38.610603 
Q 70.333225 38.582399 70.000167 38.56608 
Q 69.668351 38.549676 69.171249 38.549676 
Q 68.418139 38.549676 67.973233 38.581897 
Q 67.528327 38.614034 67.528327 38.677303 
Q 67.528327 38.745594 67.978204 38.77974 
Q 68.429324 38.813801 69.160064 38.813801 
Q 69.521706 38.813801 69.88459 38.804261 
Q 70.247475 38.79472 70.507211 38.781162 
L 70.507211 38.732539 
L 69.191133 38.732539 
z
" clip-path="url(#p36e4ddb8d7)" style="fill: #dc9514"/>
   </g>
   <g id="patch_32">
    <path d="M 70.472316 38.326311 
L 71.669187 38.351656 
Q 71.39432 38.418591 70.753854 38.451076 
Q 70.113389 38.483561 69.130007 38.483561 
Q 67.911788 38.483561 67.127217 38.427961 
Q 66.343981 38.372272 66.343981 38.275798 
Q 66.343981 38.173701 67.13122 38.117297 
Q 67.919794 38.060805 69.204728 38.060805 
Q 70.326877 38.060805 71.027387 38.105071 
Q 71.443689 38.131309 71.651841 38.180394 
L 70.430953 38.199939 
Q 70.32154 38.168167 69.97729 38.149783 
Q 69.634374 38.131309 69.142016 38.131309 
Q 68.462855 38.131309 68.038547 38.163973 
Q 67.615572 38.196547 67.615572 38.26964 
Q 67.615572 38.347194 68.031875 38.380126 
Q 68.449512 38.412968 69.116664 38.412968 
Q 69.609022 38.412968 69.962612 38.392085 
Q 70.317537 38.371201 70.472316 38.326311 
z
" clip-path="url(#p36e4ddb8d7)" style="fill: #59a9d8"/>
   </g>
   <g id="patch_33">
    <path d="M 68.332155 38.060805 
L 68.332155 36.613834 
L 66.343981 36.613834 
L 66.343981 36.319193 
L 71.669187 36.319193 
L 71.669187 36.613834 
L 69.685401 36.613834 
L 69.685401 38.060805 
L 68.332155 38.060805 
z
" clip-path="url(#p36e4ddb8d7)" style="fill: #1a1a1a"/>
   </g>
   <g id="patch_34">
    <path d="M 71.669187 36.319193 
L 70.503827 36.319193 
L 70.040464 33.522232 
L 67.918259 33.522232 
L 67.48038 36.319193 
L 66.343981 36.319193 
L 68.410583 24.010954 
L 69.544665 24.010954 
L 71.669187 36.319193 
z
M 69.696416 31.448021 
L 68.96546 26.880458 
L 68.248405 31.448021 
L 69.696416 31.448021 
z
" clip-path="url(#p36e4ddb8d7)" style="fill: #0e927b"/>
   </g>
   <g id="patch_35">
    <path d="M 76.077796 38.87945 
L 77.274666 38.879539 
Q 76.9998 38.879773 76.359334 38.879886 
Q 75.718868 38.88 74.735486 38.88 
Q 73.517267 38.88 72.732697 38.879806 
Q 71.949461 38.879611 71.949461 38.879274 
Q 71.949461 38.878917 72.7367 38.87872 
Q 73.525273 38.878523 74.810207 38.878523 
Q 75.932357 38.878523 76.632866 38.878677 
Q 77.049169 38.878769 77.25732 38.87894 
L 76.036432 38.879009 
Q 75.92702 38.878898 75.582769 38.878833 
Q 75.239853 38.878769 74.747495 38.878769 
Q 74.068335 38.878769 73.644026 38.878883 
Q 73.221052 38.878997 73.221052 38.879252 
Q 73.221052 38.879523 73.637355 38.879639 
Q 74.054992 38.879753 74.722143 38.879753 
Q 75.214501 38.879753 75.568092 38.87968 
Q 75.923017 38.879607 76.077796 38.87945 
z
" clip-path="url(#p36e4ddb8d7)" style="fill: #59a9d8"/>
   </g>
   <g id="patch_36">
    <path d="M 74.796612 38.877973 
L 74.796612 38.877732 
L 77.274666 38.877732 
L 77.274666 38.878301 
Q 76.913024 38.878389 76.227024 38.878456 
Q 75.542266 38.878523 74.838866 38.878523 
Q 73.946568 38.878523 73.281694 38.878429 
Q 72.618063 38.878334 72.283762 38.878159 
Q 71.949461 38.877985 71.949461 38.877779 
Q 71.949461 38.877556 72.322287 38.877382 
Q 72.695114 38.877209 73.413426 38.877116 
Q 73.961481 38.877045 74.776728 38.877045 
Q 75.836798 38.877045 76.433321 38.877157 
Q 77.029843 38.877268 77.200101 38.877465 
L 76.059252 38.877519 
Q 75.938704 38.877413 75.605646 38.877353 
Q 75.27383 38.877291 74.776728 38.877291 
Q 74.023619 38.877291 73.578713 38.877412 
Q 73.133806 38.877531 73.133806 38.877767 
Q 73.133806 38.878022 73.583684 38.878149 
Q 74.034804 38.878276 74.765544 38.878276 
Q 75.127185 38.878276 75.49007 38.87824 
Q 75.852954 38.878205 76.11269 38.878154 
L 76.11269 38.877973 
L 74.796612 38.877973 
z
" clip-path="url(#p36e4ddb8d7)" style="fill: #dc9514"/>
   </g>
   <g id="patch_37">
    <path d="M 77.274666 38.877045 
L 76.109307 38.877045 
L 75.645943 38.855734 
L 73.523738 38.855734 
L 73.08586 38.877045 
L 71.949461 38.877045 
L 74.016062 38.783265 
L 75.150144 38.783265 
L 77.274666 38.877045 
z
M 75.301896 38.83993 
L 74.57094 38.805128 
L 73.853885 38.83993 
L 75.301896 38.83993 
z
" clip-path="url(#p36e4ddb8d7)" style="fill: #0e927b"/>
   </g>
   <g id="patch_38">
    <path d="M 73.937635 38.783265 
L 73.937635 17.328285 
L 71.949461 17.328285 
L 71.949461 12.959496 
L 77.274666 12.959496 
L 77.274666 17.328285 
L 75.290881 17.328285 
L 75.290881 38.783265 
L 73.937635 38.783265 
z
" clip-path="url(#p36e4ddb8d7)" style="fill: #1a1a1a"/>
   </g>
   <g id="patch_39">
    <path d="M 81.683275 38.879474 
L 82.880146 38.879559 
Q 82.605279 38.879783 81.964813 38.879891 
Q 81.324348 38.88 80.340966 38.88 
Q 79.122747 38.88 78.338176 38.879814 
Q 77.55494 38.879628 77.55494 38.879305 
Q 77.55494 38.878963 78.342179 38.878775 
Q 79.130753 38.878586 80.415687 38.878586 
Q 81.537836 38.878586 82.238346 38.878734 
Q 82.654648 38.878822 82.8628 38.878986 
L 81.641912 38.879051 
Q 81.532499 38.878945 81.188249 38.878883 
Q 80.845333 38.878822 80.352975 38.878822 
Q 79.673814 38.878822 79.249506 38.878931 
Q 78.826531 38.87904 78.826531 38.879284 
Q 78.826531 38.879544 79.242834 38.879654 
Q 79.660471 38.879764 80.327623 38.879764 
Q 80.819981 38.879764 81.173571 38.879694 
Q 81.528496 38.879624 81.683275 38.879474 
z
" clip-path="url(#p36e4ddb8d7)" style="fill: #59a9d8"/>
   </g>
   <g id="patch_40">
    <path d="M 80.402092 38.87806 
L 80.402092 38.877829 
L 82.880146 38.877829 
L 82.880146 38.878374 
Q 82.518504 38.878458 81.832503 38.878522 
Q 81.147745 38.878586 80.444346 38.878586 
Q 79.552047 38.878586 78.887174 38.878496 
Q 78.223542 38.878406 77.889241 38.878238 
Q 77.55494 38.878071 77.55494 38.877874 
Q 77.55494 38.87766 77.927767 38.877494 
Q 78.300593 38.877328 79.018906 38.87724 
Q 79.566961 38.877171 80.382208 38.877171 
Q 81.442278 38.877171 82.0388 38.877278 
Q 82.635323 38.877385 82.80558 38.877573 
L 81.664731 38.877625 
Q 81.544184 38.877524 81.211125 38.877466 
Q 80.87931 38.877407 80.382208 38.877407 
Q 79.629098 38.877407 79.184192 38.877522 
Q 78.739286 38.877637 78.739286 38.877863 
Q 78.739286 38.878106 79.189163 38.878228 
Q 79.640283 38.87835 80.371023 38.87835 
Q 80.732665 38.87835 81.095549 38.878316 
Q 81.458434 38.878281 81.71817 38.878233 
L 81.71817 38.87806 
L 80.402092 38.87806 
z
" clip-path="url(#p36e4ddb8d7)" style="fill: #dc9514"/>
   </g>
   <g id="patch_41">
    <path d="M 82.880146 38.877171 
L 81.714786 38.877171 
L 81.251423 38.786778 
L 79.129218 38.786778 
L 78.691339 38.877171 
L 77.55494 38.877171 
L 79.621541 38.479387 
L 80.755624 38.479387 
L 82.880146 38.877171 
z
M 80.907375 38.719742 
L 80.176419 38.572125 
L 79.459364 38.719742 
L 80.907375 38.719742 
z
" clip-path="url(#p36e4ddb8d7)" style="fill: #0e927b"/>
   </g>
   <g id="patch_42">
    <path d="M 79.543114 38.479387 
L 79.543114 18.197913 
L 77.55494 18.197913 
L 77.55494 14.068081 
L 82.880146 14.068081 
L 82.880146 18.197913 
L 80.89636 18.197913 
L 80.89636 38.479387 
L 79.543114 38.479387 
z
" clip-path="url(#p36e4ddb8d7)" style="fill: #1a1a1a"/>
   </g>
   <g id="patch_43">
    <path d="M 87.288755 38.796114 
L 88.485625 38.809635 
Q 88.210758 38.845341 87.570293 38.862671 
Q 86.929827 38.88 85.946445 38.88 
Q 84.728226 38.88 83.943656 38.85034 
Q 83.16042 38.820632 83.16042 38.769168 
Q 83.16042 38.714703 83.947659 38.684615 
Q 84.736232 38.654479 86.021166 38.654479 
Q 87.143316 38.654479 87.843825 38.678093 
Q 88.260128 38.692089 88.468279 38.718274 
L 87.247391 38.7287 
Q 87.137978 38.711752 86.793728 38.701944 
Q 86.450812 38.692089 85.958454 38.692089 
Q 85.279294 38.692089 84.854985 38.709514 
Q 84.432011 38.726891 84.432011 38.765883 
Q 84.432011 38.807254 84.848314 38.824822 
Q 85.265951 38.842342 85.933102 38.842342 
Q 86.42546 38.842342 86.779051 38.831201 
Q 87.133976 38.820061 87.288755 38.796114 
z
" clip-path="url(#p36e4ddb8d7)" style="fill: #59a9d8"/>
   </g>
   <g id="patch_44">
    <path d="M 86.007571 38.487063 
L 86.007571 38.413712 
L 88.485625 38.413712 
L 88.485625 38.587113 
Q 88.123983 38.613813 87.437982 38.634146 
Q 86.753224 38.654479 86.049825 38.654479 
Q 85.157527 38.654479 84.492653 38.625879 
Q 83.829022 38.597185 83.494721 38.543882 
Q 83.16042 38.490579 83.16042 38.427964 
Q 83.16042 38.359934 83.533246 38.307105 
Q 83.906073 38.254277 84.624385 38.226058 
Q 85.17244 38.204395 85.987687 38.204395 
Q 87.047757 38.204395 87.64428 38.23841 
Q 88.240802 38.27233 88.41106 38.332284 
L 87.270211 38.348627 
Q 87.149663 38.316607 86.816605 38.298079 
Q 86.484789 38.279456 85.987687 38.279456 
Q 85.234578 38.279456 84.789671 38.316037 
Q 84.344765 38.352522 84.344765 38.424353 
Q 84.344765 38.501885 84.794642 38.540651 
Q 85.245763 38.579322 85.976503 38.579322 
Q 86.338144 38.579322 86.701029 38.568491 
Q 87.063913 38.557659 87.323649 38.542267 
L 87.323649 38.487063 
L 86.007571 38.487063 
z
" clip-path="url(#p36e4ddb8d7)" style="fill: #dc9514"/>
   </g>
   <g id="patch_45">
    <path d="M 85.148594 38.204395 
L 85.148594 37.137458 
L 83.16042 37.137458 
L 83.16042 36.920202 
L 88.485625 36.920202 
L 88.485625 37.137458 
L 86.50184 37.137458 
L 86.50184 38.204395 
L 85.148594 38.204395 
z
" clip-path="url(#p36e4ddb8d7)" style="fill: #1a1a1a"/>
   </g>
   <g id="patch_46">
    <path d="M 88.485625 36.920202 
L 87.320266 36.920202 
L 86.856902 33.25617 
L 84.734697 33.25617 
L 84.296819 36.920202 
L 83.16042 36.920202 
L 85.227021 20.796348 
L 86.361103 20.796348 
L 88.485625 36.920202 
z
M 86.512855 30.538943 
L 85.781899 24.555413 
L 85.064844 30.538943 
L 86.512855 30.538943 
z
" clip-path="url(#p36e4ddb8d7)" style="fill: #0e927b"/>
   </g>
   <g id="matplotlib.axis_1">
    <g id="xtick_1">
     <g id="text_1">
      <!-- 1 -->
      <g transform="translate(28.099946 45.674687) scale(0.06 -0.06)">
       <defs>
        <path id="ArialMT-31" d="M 2384 0 
L 1822 0 
L 1822 3584 
Q 1619 3391 1289 3197 
Q 959 3003 697 2906 
L 697 3450 
Q 1169 3672 1522 3987 
Q 1875 4303 2022 4600 
L 2384 4600 
L 2384 0 
z
" transform="scale(0.015625)"/>
       </defs>
       <use xlink:href="#ArialMT-31"/>
      </g>
     </g>
    </g>
    <g id="xtick_2">
     <g id="text_2">
      <!-- 2 -->
      <g transform="translate(33.705426 45.674687) scale(0.06 -0.06)">
       <defs>
        <path id="ArialMT-32" d="M 3222 541 
L 3222 0 
L 194 0 
Q 188 203 259 391 
Q 375 700 629 1000 
Q 884 1300 1366 1694 
Q 2113 2306 2375 2664 
Q 2638 3022 2638 3341 
Q 2638 3675 2398 3904 
Q 2159 4134 1775 4134 
Q 1369 4134 1125 3890 
Q 881 3647 878 3216 
L 300 3275 
Q 359 3922 746 4261 
Q 1134 4600 1788 4600 
Q 2447 4600 2831 4234 
Q 3216 3869 3216 3328 
Q 3216 3053 3103 2787 
Q 2991 2522 2730 2228 
Q 2469 1934 1863 1422 
Q 1356 997 1212 845 
Q 1069 694 975 541 
L 3222 541 
z
" transform="scale(0.015625)"/>
       </defs>
       <use xlink:href="#ArialMT-32"/>
      </g>
     </g>
    </g>
    <g id="xtick_3">
     <g id="text_3">
      <!-- 3 -->
      <g transform="translate(39.310905 45.674687) scale(0.06 -0.06)">
       <defs>
        <path id="ArialMT-33" d="M 269 1209 
L 831 1284 
Q 928 806 1161 595 
Q 1394 384 1728 384 
Q 2125 384 2398 659 
Q 2672 934 2672 1341 
Q 2672 1728 2419 1979 
Q 2166 2231 1775 2231 
Q 1616 2231 1378 2169 
L 1441 2663 
Q 1497 2656 1531 2656 
Q 1891 2656 2178 2843 
Q 2466 3031 2466 3422 
Q 2466 3731 2256 3934 
Q 2047 4138 1716 4138 
Q 1388 4138 1169 3931 
Q 950 3725 888 3313 
L 325 3413 
Q 428 3978 793 4289 
Q 1159 4600 1703 4600 
Q 2078 4600 2393 4439 
Q 2709 4278 2876 4000 
Q 3044 3722 3044 3409 
Q 3044 3113 2884 2869 
Q 2725 2625 2413 2481 
Q 2819 2388 3044 2092 
Q 3269 1797 3269 1353 
Q 3269 753 2831 336 
Q 2394 -81 1725 -81 
Q 1122 -81 723 278 
Q 325 638 269 1209 
z
" transform="scale(0.015625)"/>
       </defs>
       <use xlink:href="#ArialMT-33"/>
      </g>
     </g>
    </g>
    <g id="xtick_4">
     <g id="text_4">
      <!-- 4 -->
      <g transform="translate(44.916385 45.674687) scale(0.06 -0.06)">
       <defs>
        <path id="ArialMT-34" d="M 2069 0 
L 2069 1097 
L 81 1097 
L 81 1613 
L 2172 4581 
L 2631 4581 
L 2631 1613 
L 3250 1613 
L 3250 1097 
L 2631 1097 
L 2631 0 
L 2069 0 
z
M 2069 1613 
L 2069 3678 
L 634 1613 
L 2069 1613 
z
" transform="scale(0.015625)"/>
       </defs>
       <use xlink:href="#ArialMT-34"/>
      </g>
     </g>
    </g>
    <g id="xtick_5">
     <g id="text_5">
      <!-- 5 -->
      <g transform="translate(50.521864 45.674687) scale(0.06 -0.06)">
       <defs>
        <path id="ArialMT-35" d="M 266 1200 
L 856 1250 
Q 922 819 1161 601 
Q 1400 384 1738 384 
Q 2144 384 2425 690 
Q 2706 997 2706 1503 
Q 2706 1984 2436 2262 
Q 2166 2541 1728 2541 
Q 1456 2541 1237 2417 
Q 1019 2294 894 2097 
L 366 2166 
L 809 4519 
L 3088 4519 
L 3088 3981 
L 1259 3981 
L 1013 2750 
Q 1425 3038 1878 3038 
Q 2478 3038 2890 2622 
Q 3303 2206 3303 1553 
Q 3303 931 2941 478 
Q 2500 -78 1738 -78 
Q 1113 -78 717 272 
Q 322 622 266 1200 
z
" transform="scale(0.015625)"/>
       </defs>
       <use xlink:href="#ArialMT-35"/>
      </g>
     </g>
    </g>
    <g id="xtick_6">
     <g id="text_6">
      <!-- 6 -->
      <g transform="translate(56.127344 45.674687) scale(0.06 -0.06)">
       <defs>
        <path id="ArialMT-36" d="M 3184 3459 
L 2625 3416 
Q 2550 3747 2413 3897 
Q 2184 4138 1850 4138 
Q 1581 4138 1378 3988 
Q 1113 3794 959 3422 
Q 806 3050 800 2363 
Q 1003 2672 1297 2822 
Q 1591 2972 1913 2972 
Q 2475 2972 2870 2558 
Q 3266 2144 3266 1488 
Q 3266 1056 3080 686 
Q 2894 316 2569 119 
Q 2244 -78 1831 -78 
Q 1128 -78 684 439 
Q 241 956 241 2144 
Q 241 3472 731 4075 
Q 1159 4600 1884 4600 
Q 2425 4600 2770 4297 
Q 3116 3994 3184 3459 
z
M 888 1484 
Q 888 1194 1011 928 
Q 1134 663 1356 523 
Q 1578 384 1822 384 
Q 2178 384 2434 671 
Q 2691 959 2691 1453 
Q 2691 1928 2437 2201 
Q 2184 2475 1800 2475 
Q 1419 2475 1153 2201 
Q 888 1928 888 1484 
z
" transform="scale(0.015625)"/>
       </defs>
       <use xlink:href="#ArialMT-36"/>
      </g>
     </g>
    </g>
    <g id="xtick_7">
     <g id="text_7">
      <!-- 7 -->
      <g transform="translate(61.732823 45.674687) scale(0.06 -0.06)">
       <defs>
        <path id="ArialMT-37" d="M 303 3981 
L 303 4522 
L 3269 4522 
L 3269 4084 
Q 2831 3619 2401 2847 
Q 1972 2075 1738 1259 
Q 1569 684 1522 0 
L 944 0 
Q 953 541 1156 1306 
Q 1359 2072 1739 2783 
Q 2119 3494 2547 3981 
L 303 3981 
z
" transform="scale(0.015625)"/>
       </defs>
       <use xlink:href="#ArialMT-37"/>
      </g>
     </g>
    </g>
    <g id="xtick_8">
     <g id="text_8">
      <!-- 8 -->
      <g transform="translate(67.338303 45.674687) scale(0.06 -0.06)">
       <defs>
        <path id="ArialMT-38" d="M 1131 2484 
Q 781 2613 612 2850 
Q 444 3088 444 3419 
Q 444 3919 803 4259 
Q 1163 4600 1759 4600 
Q 2359 4600 2725 4251 
Q 3091 3903 3091 3403 
Q 3091 3084 2923 2848 
Q 2756 2613 2416 2484 
Q 2838 2347 3058 2040 
Q 3278 1734 3278 1309 
Q 3278 722 2862 322 
Q 2447 -78 1769 -78 
Q 1091 -78 675 323 
Q 259 725 259 1325 
Q 259 1772 486 2073 
Q 713 2375 1131 2484 
z
M 1019 3438 
Q 1019 3113 1228 2906 
Q 1438 2700 1772 2700 
Q 2097 2700 2305 2904 
Q 2513 3109 2513 3406 
Q 2513 3716 2298 3927 
Q 2084 4138 1766 4138 
Q 1444 4138 1231 3931 
Q 1019 3725 1019 3438 
z
M 838 1322 
Q 838 1081 952 856 
Q 1066 631 1291 507 
Q 1516 384 1775 384 
Q 2178 384 2440 643 
Q 2703 903 2703 1303 
Q 2703 1709 2433 1975 
Q 2163 2241 1756 2241 
Q 1359 2241 1098 1978 
Q 838 1716 838 1322 
z
" transform="scale(0.015625)"/>
       </defs>
       <use xlink:href="#ArialMT-38"/>
      </g>
     </g>
    </g>
    <g id="xtick_9">
     <g id="text_9">
      <!-- 9 -->
      <g transform="translate(72.943782 45.674687) scale(0.06 -0.06)">
       <defs>
        <path id="ArialMT-39" d="M 350 1059 
L 891 1109 
Q 959 728 1153 556 
Q 1347 384 1650 384 
Q 1909 384 2104 503 
Q 2300 622 2425 820 
Q 2550 1019 2634 1356 
Q 2719 1694 2719 2044 
Q 2719 2081 2716 2156 
Q 2547 1888 2255 1720 
Q 1963 1553 1622 1553 
Q 1053 1553 659 1965 
Q 266 2378 266 3053 
Q 266 3750 677 4175 
Q 1088 4600 1706 4600 
Q 2153 4600 2523 4359 
Q 2894 4119 3086 3673 
Q 3278 3228 3278 2384 
Q 3278 1506 3087 986 
Q 2897 466 2520 194 
Q 2144 -78 1638 -78 
Q 1100 -78 759 220 
Q 419 519 350 1059 
z
M 2653 3081 
Q 2653 3566 2395 3850 
Q 2138 4134 1775 4134 
Q 1400 4134 1122 3828 
Q 844 3522 844 3034 
Q 844 2597 1108 2323 
Q 1372 2050 1759 2050 
Q 2150 2050 2401 2323 
Q 2653 2597 2653 3081 
z
" transform="scale(0.015625)"/>
       </defs>
       <use xlink:href="#ArialMT-39"/>
      </g>
     </g>
    </g>
    <g id="xtick_10">
     <g id="text_10">
      <!-- 10 -->
      <g transform="translate(76.88098 45.674687) scale(0.06 -0.06)">
       <defs>
        <path id="ArialMT-30" d="M 266 2259 
Q 266 3072 433 3567 
Q 600 4063 929 4331 
Q 1259 4600 1759 4600 
Q 2128 4600 2406 4451 
Q 2684 4303 2865 4023 
Q 3047 3744 3150 3342 
Q 3253 2941 3253 2259 
Q 3253 1453 3087 958 
Q 2922 463 2592 192 
Q 2263 -78 1759 -78 
Q 1097 -78 719 397 
Q 266 969 266 2259 
z
M 844 2259 
Q 844 1131 1108 757 
Q 1372 384 1759 384 
Q 2147 384 2411 759 
Q 2675 1134 2675 2259 
Q 2675 3391 2411 3762 
Q 2147 4134 1753 4134 
Q 1366 4134 1134 3806 
Q 844 3388 844 2259 
z
" transform="scale(0.015625)"/>
       </defs>
       <use xlink:href="#ArialMT-31"/>
       <use xlink:href="#ArialMT-30" x="55.615234"/>
      </g>
     </g>
    </g>
    <g id="xtick_11">
     <g id="text_11">
      <!-- 11 -->
      <g transform="translate(82.70771 45.674687) scale(0.06 -0.06)">
       <use xlink:href="#ArialMT-31"/>
       <use xlink:href="#ArialMT-31" x="48.240234"/>
      </g>
     </g>
    </g>
   </g>
   <g id="matplotlib.axis_2">
    <g id="ytick_1">
     <g id="line2d_2">
      <defs>
       <path id="ma0e2451c32" d="M 0 0 
L -3.5 0 
" style="stroke: #000000; stroke-width: 0.8"/>
      </defs>
      <g>
       <use xlink:href="#ma0e2451c32" x="27.105625" y="38.88" style="stroke: #000000; stroke-width: 0.8"/>
      </g>
     </g>
     <g id="text_12">
      <!-- 0 -->
      <g transform="translate(16.769063 41.027344) scale(0.06 -0.06)">
       <use xlink:href="#ArialMT-30"/>
      </g>
     </g>
    </g>
    <g id="ytick_2">
     <g id="line2d_3">
      <g>
       <use xlink:href="#ma0e2451c32" x="27.105625" y="12.48" style="stroke: #000000; stroke-width: 0.8"/>
      </g>
     </g>
     <g id="text_13">
      <!-- 2 -->
      <g transform="translate(16.769063 14.627344) scale(0.06 -0.06)">
       <use xlink:href="#ArialMT-32"/>
      </g>
     </g>
    </g>
    <g id="text_14">
     <!-- IC (bits) -->
     <g transform="translate(12.295781 35.289453) rotate(-90) scale(0.07 -0.07)">
      <defs>
       <path id="ArialMT-49" d="M 597 0 
L 597 4581 
L 1203 4581 
L 1203 0 
L 597 0 
z
" transform="scale(0.015625)"/>
       <path id="ArialMT-43" d="M 3763 1606 
L 4369 1453 
Q 4178 706 3683 314 
Q 3188 -78 2472 -78 
Q 1731 -78 1267 223 
Q 803 525 561 1097 
Q 319 1669 319 2325 
Q 319 3041 592 3573 
Q 866 4106 1370 4382 
Q 1875 4659 2481 4659 
Q 3169 4659 3637 4309 
Q 4106 3959 4291 3325 
L 3694 3184 
Q 3534 3684 3231 3912 
Q 2928 4141 2469 4141 
Q 1941 4141 1586 3887 
Q 1231 3634 1087 3207 
Q 944 2781 944 2328 
Q 944 1744 1114 1308 
Q 1284 872 1643 656 
Q 2003 441 2422 441 
Q 2931 441 3284 734 
Q 3638 1028 3763 1606 
z
" transform="scale(0.015625)"/>
       <path id="ArialMT-20" transform="scale(0.015625)"/>
       <path id="ArialMT-28" d="M 1497 -1347 
Q 1031 -759 709 28 
Q 388 816 388 1659 
Q 388 2403 628 3084 
Q 909 3875 1497 4659 
L 1900 4659 
Q 1522 4009 1400 3731 
Q 1209 3300 1100 2831 
Q 966 2247 966 1656 
Q 966 153 1900 -1347 
L 1497 -1347 
z
" transform="scale(0.015625)"/>
       <path id="ArialMT-62" d="M 941 0 
L 419 0 
L 419 4581 
L 981 4581 
L 981 2947 
Q 1338 3394 1891 3394 
Q 2197 3394 2470 3270 
Q 2744 3147 2920 2923 
Q 3097 2700 3197 2384 
Q 3297 2069 3297 1709 
Q 3297 856 2875 390 
Q 2453 -75 1863 -75 
Q 1275 -75 941 416 
L 941 0 
z
M 934 1684 
Q 934 1088 1097 822 
Q 1363 388 1816 388 
Q 2184 388 2453 708 
Q 2722 1028 2722 1663 
Q 2722 2313 2464 2622 
Q 2206 2931 1841 2931 
Q 1472 2931 1203 2611 
Q 934 2291 934 1684 
z
" transform="scale(0.015625)"/>
       <path id="ArialMT-69" d="M 425 3934 
L 425 4581 
L 988 4581 
L 988 3934 
L 425 3934 
z
M 425 0 
L 425 3319 
L 988 3319 
L 988 0 
L 425 0 
z
" transform="scale(0.015625)"/>
       <path id="ArialMT-74" d="M 1650 503 
L 1731 6 
Q 1494 -44 1306 -44 
Q 1000 -44 831 53 
Q 663 150 594 308 
Q 525 466 525 972 
L 525 2881 
L 113 2881 
L 113 3319 
L 525 3319 
L 525 4141 
L 1084 4478 
L 1084 3319 
L 1650 3319 
L 1650 2881 
L 1084 2881 
L 1084 941 
Q 1084 700 1114 631 
Q 1144 563 1211 522 
Q 1278 481 1403 481 
Q 1497 481 1650 503 
z
" transform="scale(0.015625)"/>
       <path id="ArialMT-73" d="M 197 991 
L 753 1078 
Q 800 744 1014 566 
Q 1228 388 1613 388 
Q 2000 388 2187 545 
Q 2375 703 2375 916 
Q 2375 1106 2209 1216 
Q 2094 1291 1634 1406 
Q 1016 1563 777 1677 
Q 538 1791 414 1992 
Q 291 2194 291 2438 
Q 291 2659 392 2848 
Q 494 3038 669 3163 
Q 800 3259 1026 3326 
Q 1253 3394 1513 3394 
Q 1903 3394 2198 3281 
Q 2494 3169 2634 2976 
Q 2775 2784 2828 2463 
L 2278 2388 
Q 2241 2644 2061 2787 
Q 1881 2931 1553 2931 
Q 1166 2931 1000 2803 
Q 834 2675 834 2503 
Q 834 2394 903 2306 
Q 972 2216 1119 2156 
Q 1203 2125 1616 2013 
Q 2213 1853 2448 1751 
Q 2684 1650 2818 1456 
Q 2953 1263 2953 975 
Q 2953 694 2789 445 
Q 2625 197 2315 61 
Q 2006 -75 1616 -75 
Q 969 -75 630 194 
Q 291 463 197 991 
z
" transform="scale(0.015625)"/>
       <path id="ArialMT-29" d="M 791 -1347 
L 388 -1347 
Q 1322 153 1322 1656 
Q 1322 2244 1188 2822 
Q 1081 3291 891 3722 
Q 769 4003 388 4659 
L 791 4659 
Q 1378 3875 1659 3084 
Q 1900 2403 1900 1659 
Q 1900 816 1576 28 
Q 1253 -759 791 -1347 
z
" transform="scale(0.015625)"/>
      </defs>
      <use xlink:href="#ArialMT-49"/>
      <use xlink:href="#ArialMT-43" x="27.783203"/>
      <use xlink:href="#ArialMT-20" x="100"/>
      <use xlink:href="#ArialMT-28" x="127.783203"/>
      <use xlink:href="#ArialMT-62" x="161.083984"/>
      <use xlink:href="#ArialMT-69" x="216.699219"/>
      <use xlink:href="#ArialMT-74" x="238.916016"/>
      <use xlink:href="#ArialMT-73" x="266.699219"/>
      <use xlink:href="#ArialMT-29" x="316.699219"/>
     </g>
    </g>
   </g>
   <g id="patch_47">
    <path d="M 27.105625 38.88 
L 27.105625 7.2 
" style="fill: none; stroke: #000000; stroke-linejoin: miter; stroke-linecap: square"/>
   </g>
   <g id="patch_48">
    <path d="M 27.105625 38.88 
L 88.485625 38.88 
" style="fill: none; stroke: #000000; stroke-linejoin: miter; stroke-linecap: square"/>
   </g>
  </g>
  <g id="axes_2">
   <g id="text_15">
    <!-- E-value 4.8e-016 -->
    <g transform="translate(35.17625 55.506469) scale(0.07 -0.07)">
     <defs>
      <path id="Arial-ItalicMT-45" d="M 288 0 
L 1247 4581 
L 4553 4581 
L 4444 4059 
L 1750 4059 
L 1450 2634 
L 4075 2634 
L 3966 2113 
L 1341 2113 
L 1009 519 
L 3894 519 
L 3784 0 
L 288 0 
z
" transform="scale(0.015625)"/>
      <path id="Arial-ItalicMT-2d" d="M 297 1375 
L 416 1941 
L 2141 1941 
L 2025 1375 
L 297 1375 
z
" transform="scale(0.015625)"/>
      <path id="Arial-ItalicMT-76" d="M 1050 0 
L 506 3319 
L 1056 3319 
L 1341 1491 
Q 1388 1191 1456 513 
Q 1619 866 1872 1322 
L 2981 3319 
L 3578 3319 
L 1678 0 
L 1050 0 
z
" transform="scale(0.015625)"/>
      <path id="Arial-ItalicMT-61" d="M 2450 413 
Q 2156 159 1884 42 
Q 1613 -75 1303 -75 
Q 844 -75 562 195 
Q 281 466 281 888 
Q 281 1166 407 1380 
Q 534 1594 743 1723 
Q 953 1853 1256 1909 
Q 1447 1947 1980 1969 
Q 2513 1991 2744 2081 
Q 2809 2313 2809 2466 
Q 2809 2663 2666 2775 
Q 2469 2931 2091 2931 
Q 1734 2931 1507 2773 
Q 1281 2616 1178 2325 
L 606 2375 
Q 781 2869 1161 3131 
Q 1541 3394 2119 3394 
Q 2734 3394 3094 3100 
Q 3369 2881 3369 2531 
Q 3369 2266 3291 1916 
L 3106 1091 
Q 3019 697 3019 450 
Q 3019 294 3088 0 
L 2516 0 
Q 2469 163 2450 413 
z
M 2659 1681 
Q 2541 1634 2405 1609 
Q 2269 1584 1950 1556 
Q 1456 1513 1253 1445 
Q 1050 1378 947 1231 
Q 844 1084 844 906 
Q 844 669 1008 516 
Q 1172 363 1475 363 
Q 1756 363 2015 511 
Q 2275 659 2425 925 
Q 2575 1191 2659 1681 
z
" transform="scale(0.015625)"/>
      <path id="Arial-ItalicMT-6c" d="M 169 0 
L 1125 4581 
L 1691 4581 
L 734 0 
L 169 0 
z
" transform="scale(0.015625)"/>
      <path id="Arial-ItalicMT-75" d="M 2478 600 
Q 1881 -75 1256 -75 
Q 872 -75 636 145 
Q 400 366 400 684 
Q 400 894 506 1403 
L 906 3319 
L 1472 3319 
L 1028 1197 
Q 972 931 972 784 
Q 972 597 1086 492 
Q 1200 388 1422 388 
Q 1659 388 1886 503 
Q 2113 619 2277 816 
Q 2441 1013 2544 1281 
Q 2613 1453 2703 1884 
L 3003 3319 
L 3569 3319 
L 2875 0 
L 2353 0 
L 2478 600 
z
" transform="scale(0.015625)"/>
      <path id="Arial-ItalicMT-65" d="M 2650 1128 
L 3200 1072 
Q 3081 663 2654 294 
Q 2228 -75 1638 -75 
Q 1269 -75 961 95 
Q 653 266 492 591 
Q 331 916 331 1331 
Q 331 1875 582 2386 
Q 834 2897 1234 3145 
Q 1634 3394 2100 3394 
Q 2694 3394 3048 3025 
Q 3403 2656 3403 2019 
Q 3403 1775 3359 1519 
L 916 1519 
Q 903 1422 903 1344 
Q 903 878 1117 633 
Q 1331 388 1641 388 
Q 1931 388 2212 578 
Q 2494 769 2650 1128 
z
M 1006 1950 
L 2869 1950 
Q 2872 2038 2872 2075 
Q 2872 2500 2659 2726 
Q 2447 2953 2113 2953 
Q 1750 2953 1451 2703 
Q 1153 2453 1006 1950 
z
" transform="scale(0.015625)"/>
      <path id="Arial-ItalicMT-20" transform="scale(0.015625)"/>
      <path id="Arial-ItalicMT-34" d="M 1913 0 
L 2159 1169 
L 291 1169 
L 409 1728 
L 2975 4581 
L 3438 4581 
L 2828 1669 
L 3472 1669 
L 3369 1169 
L 2725 1169 
L 2478 0 
L 1913 0 
z
M 2263 1669 
L 2663 3581 
L 956 1669 
L 2263 1669 
z
" transform="scale(0.015625)"/>
      <path id="Arial-ItalicMT-2e" d="M 369 0 
L 503 641 
L 1144 641 
L 1006 0 
L 369 0 
z
" transform="scale(0.015625)"/>
      <path id="Arial-ItalicMT-38" d="M 1444 2519 
Q 1188 2659 1059 2879 
Q 931 3100 931 3353 
Q 931 3769 1231 4122 
Q 1631 4600 2316 4600 
Q 2919 4600 3266 4276 
Q 3613 3953 3613 3484 
Q 3613 3150 3425 2881 
Q 3238 2613 2838 2453 
Q 3113 2281 3231 2088 
Q 3384 1834 3384 1497 
Q 3384 881 2948 400 
Q 2513 -81 1788 -81 
Q 1209 -81 843 275 
Q 478 631 478 1166 
Q 478 1669 737 2030 
Q 997 2391 1444 2519 
z
M 1488 3328 
Q 1488 3034 1677 2854 
Q 1866 2675 2197 2675 
Q 2584 2675 2826 2911 
Q 3069 3147 3069 3491 
Q 3069 3781 2880 3964 
Q 2691 4147 2359 4147 
Q 2109 4147 1900 4031 
Q 1691 3916 1589 3717 
Q 1488 3519 1488 3328 
z
M 1047 1119 
Q 1047 928 1139 753 
Q 1231 578 1418 475 
Q 1606 372 1847 372 
Q 2306 372 2591 803 
Q 2816 1141 2816 1531 
Q 2816 1850 2608 2053 
Q 2400 2256 2063 2256 
Q 1638 2256 1342 1940 
Q 1047 1625 1047 1119 
z
" transform="scale(0.015625)"/>
      <path id="Arial-ItalicMT-30" d="M 453 1503 
Q 453 2084 626 2684 
Q 800 3284 1012 3643 
Q 1225 4003 1453 4206 
Q 1681 4409 1901 4504 
Q 2122 4600 2391 4600 
Q 2916 4600 3267 4209 
Q 3619 3819 3619 3081 
Q 3619 2322 3375 1578 
Q 3088 697 2575 256 
Q 2181 -78 1678 -78 
Q 1163 -78 808 326 
Q 453 731 453 1503 
z
M 1000 1359 
Q 1000 938 1141 700 
Q 1331 372 1706 372 
Q 2034 372 2303 669 
Q 2691 1088 2886 1895 
Q 3081 2703 3081 3216 
Q 3081 3709 2892 3928 
Q 2703 4147 2394 4147 
Q 2169 4147 1973 4031 
Q 1778 3916 1600 3634 
Q 1347 3238 1159 2447 
Q 1000 1772 1000 1359 
z
" transform="scale(0.015625)"/>
      <path id="Arial-ItalicMT-31" d="M 1541 0 
L 2266 3459 
Q 1797 3091 947 2869 
L 1053 3381 
Q 1475 3550 1886 3822 
Q 2297 4094 2503 4297 
Q 2628 4422 2741 4600 
L 3069 4600 
L 2109 0 
L 1541 0 
z
" transform="scale(0.015625)"/>
      <path id="Arial-ItalicMT-36" d="M 1288 2656 
Q 1525 2853 1761 2951 
Q 1997 3050 2228 3050 
Q 2750 3050 3090 2694 
Q 3431 2338 3431 1734 
Q 3431 956 2925 400 
Q 2488 -78 1863 -78 
Q 1294 -78 914 339 
Q 534 756 534 1528 
Q 534 2219 778 2956 
Q 966 3522 1242 3889 
Q 1519 4256 1830 4428 
Q 2141 4600 2531 4600 
Q 3000 4600 3297 4308 
Q 3594 4016 3634 3472 
L 3109 3422 
Q 3066 3794 2898 3959 
Q 2731 4125 2491 4125 
Q 2238 4125 1981 3928 
Q 1725 3731 1540 3345 
Q 1356 2959 1288 2656 
z
M 1091 1288 
Q 1091 900 1331 636 
Q 1572 372 1875 372 
Q 2088 372 2325 533 
Q 2563 694 2728 1022 
Q 2894 1350 2894 1675 
Q 2894 2094 2664 2345 
Q 2434 2597 2109 2597 
Q 1734 2597 1412 2230 
Q 1091 1863 1091 1288 
z
" transform="scale(0.015625)"/>
     </defs>
     <use xlink:href="#Arial-ItalicMT-45"/>
     <use xlink:href="#Arial-ItalicMT-2d" x="66.699219"/>
     <use xlink:href="#Arial-ItalicMT-76" x="100"/>
     <use xlink:href="#Arial-ItalicMT-61" x="150"/>
     <use xlink:href="#Arial-ItalicMT-6c" x="205.615234"/>
     <use xlink:href="#Arial-ItalicMT-75" x="227.832031"/>
     <use xlink:href="#Arial-ItalicMT-65" x="283.447266"/>
     <use xlink:href="#Arial-ItalicMT-20" x="339.0625"/>
     <use xlink:href="#Arial-ItalicMT-34" x="366.845703"/>
     <use xlink:href="#Arial-ItalicMT-2e" x="422.460938"/>
     <use xlink:href="#Arial-ItalicMT-38" x="450.244141"/>
     <use xlink:href="#Arial-ItalicMT-65" x="505.859375"/>
     <use xlink:href="#Arial-ItalicMT-2d" x="561.474609"/>
     <use xlink:href="#Arial-ItalicMT-30" x="594.775391"/>
     <use xlink:href="#Arial-ItalicMT-31" x="650.390625"/>
     <use xlink:href="#Arial-ItalicMT-36" x="706.005859"/>
    </g>
   </g>
  </g>
 </g>
 <defs>
  <clipPath id="p36e4ddb8d7">
   <rect x="27.105625" y="7.2" width="61.38" height="31.68"/>
  </clipPath>
 </defs>
</svg>
