<?xml version="1.0" encoding="utf-8" standalone="no"?>
<!DOCTYPE svg PUBLIC "-//W3C//DTD SVG 1.1//EN"
  "http://www.w3.org/Graphics/SVG/1.1/DTD/svg11.dtd">
<svg xmlns:xlink="http://www.w3.org/1999/xlink" width="81.36pt" height="31.032pt" viewBox="0 0 81.36 31.032" xmlns="http://www.w3.org/2000/svg" version="1.1">
 <metadata>
  <rdf:RDF xmlns:dc="http://purl.org/dc/elements/1.1/" xmlns:cc="http://creativecommons.org/ns#" xmlns:rdf="http://www.w3.org/1999/02/22-rdf-syntax-ns#">
   <cc:Work>
    <dc:type rdf:resource="http://purl.org/dc/dcmitype/StillImage"/>
    <dc:date>2024-02-05T14:31:50.941875</dc:date>
    <dc:format>image/svg+xml</dc:format>
    <dc:creator>
     <cc:Agent>
      <dc:title>Matplotlib v3.6.3, https://matplotlib.org/</dc:title>
     </cc:Agent>
    </dc:creator>
   </cc:Work>
  </rdf:RDF>
 </metadata>
 <defs>
  <style type="text/css">*{stroke-linejoin: round; stroke-linecap: butt}</style>
 </defs>
 <g id="figure_1">
  <g id="patch_1">
   <path d="M 0 31.032 
L 81.36 31.032 
L 81.36 0 
L 0 0 
z
" style="fill: #ffffff"/>
  </g>
  <g id="axes_1">
   <g id="patch_2">
    <path d="M 7.2 23.832 
L 74.16 23.832 
L 74.16 7.2 
L 7.2 7.2 
z
" style="fill: #ffffff"/>
   </g>
   <g id="line2d_1">
    <path d="M 7.2 23.832 
L 74.16 23.832 
" clip-path="url(#p22bd379da2)" style="fill: none; stroke: #000000; stroke-width: 0.5; stroke-linecap: square"/>
   </g>
   <g id="patch_3">
    <path d="M 9.368917 23.832 
L 9.368917 10.013752 
L 7.2 10.013752 
L 7.2 7.2 
L 13.009315 7.2 
L 13.009315 10.013752 
L 10.845186 10.013752 
L 10.845186 23.832 
L 9.368917 23.832 
z
" clip-path="url(#p22bd379da2)" style="fill: #1a1a1a"/>
   </g>
   <g id="patch_4">
    <path d="M 19.124384 23.832 
L 17.853083 23.832 
L 17.347595 20.052495 
L 15.032462 20.052495 
L 14.554777 23.832 
L 13.315068 23.832 
L 15.569543 7.2 
L 16.806723 7.2 
L 19.124384 23.832 
z
M 16.972271 17.249635 
L 16.174864 11.077532 
L 15.392622 17.249635 
L 16.972271 17.249635 
z
" clip-path="url(#p22bd379da2)" style="fill: #0e927b"/>
   </g>
   <g id="patch_5">
    <path d="M 25.239452 23.832 
L 23.968151 23.832 
L 23.462664 20.052495 
L 21.147531 20.052495 
L 20.669845 23.832 
L 19.430137 23.832 
L 21.684611 7.2 
L 22.921792 7.2 
L 25.239452 23.832 
z
M 23.087339 17.249635 
L 22.289933 11.077532 
L 21.507691 17.249635 
L 23.087339 17.249635 
z
" clip-path="url(#p22bd379da2)" style="fill: #0e927b"/>
   </g>
   <g id="patch_6">
    <path d="M 27.714123 23.832 
L 27.714123 10.013752 
L 25.545205 10.013752 
L 25.545205 7.2 
L 31.354521 7.2 
L 31.354521 10.013752 
L 29.190391 10.013752 
L 29.190391 23.832 
L 27.714123 23.832 
z
" clip-path="url(#p22bd379da2)" style="fill: #1a1a1a"/>
   </g>
   <g id="patch_7">
    <path d="M 36.163912 17.645472 
L 37.469589 18.642619 
Q 37.169735 21.275932 36.471045 22.553966 
Q 35.772355 23.832 34.699575 23.832 
Q 33.370609 23.832 32.514713 21.644595 
Q 31.660274 19.45368 31.660274 15.658199 
Q 31.660274 11.64152 32.51908 9.422516 
Q 33.379342 7.2 34.781089 7.2 
Q 36.005252 7.2 36.769444 8.941497 
Q 37.223592 9.973756 37.450666 11.904851 
L 36.118789 12.673778 
Q 35.999429 11.423833 35.623883 10.70055 
Q 35.249793 9.973756 34.712675 9.973756 
Q 33.971773 9.973756 33.508891 11.258812 
Q 33.047464 12.540357 33.047464 15.415934 
Q 33.047464 18.467065 33.501613 19.762655 
Q 33.957217 21.054733 34.685019 21.054733 
Q 35.222137 21.054733 35.607872 20.23314 
Q 35.995062 19.411547 36.163912 17.645472 
z
" clip-path="url(#p22bd379da2)" style="fill: #59a9d8"/>
   </g>
   <g id="patch_8">
    <path d="M 39.94426 23.832 
L 39.94426 21.340791 
L 37.775342 21.340791 
L 37.775342 20.833516 
L 43.584658 20.833516 
L 43.584658 21.340791 
L 41.420528 21.340791 
L 41.420528 23.832 
L 39.94426 23.832 
z
" clip-path="url(#p22bd379da2)" style="fill: #1a1a1a"/>
   </g>
   <g id="patch_9">
    <path d="M 42.278981 18.602852 
L 43.584658 18.962391 
Q 43.284803 19.911879 42.586113 20.372698 
Q 41.887423 20.833516 40.814643 20.833516 
Q 39.485677 20.833516 38.629782 20.044808 
Q 37.775342 19.254834 37.775342 17.886304 
Q 37.775342 16.438018 38.634149 15.637916 
Q 39.494411 14.836548 40.896157 14.836548 
Q 42.12032 14.836548 42.884512 15.464476 
Q 43.33866 15.836676 43.565735 16.532967 
L 42.233857 16.810218 
Q 42.114498 16.359527 41.738952 16.098735 
Q 41.364862 15.836676 40.827744 15.836676 
Q 40.086841 15.836676 39.623959 16.300026 
Q 39.162533 16.76211 39.162533 17.798952 
Q 39.162533 18.899092 39.616681 19.36624 
Q 40.072285 19.832122 40.800087 19.832122 
Q 41.337205 19.832122 41.72294 19.535882 
Q 42.110131 19.239642 42.278981 18.602852 
z
" clip-path="url(#p22bd379da2)" style="fill: #59a9d8"/>
   </g>
   <g id="patch_10">
    <path d="M 46.996395 22.285368 
L 46.996395 21.607729 
L 49.699726 21.607729 
L 49.699726 23.209661 
Q 49.305208 23.456314 48.556843 23.644157 
Q 47.809834 23.832 47.04249 23.832 
Q 46.069074 23.832 45.343757 23.567791 
Q 44.619795 23.302704 44.255103 22.810275 
Q 43.890411 22.317845 43.890411 21.739395 
Q 43.890411 21.110911 44.297131 20.62287 
Q 44.703851 20.13483 45.487464 19.874132 
Q 46.085342 19.674 46.974703 19.674 
Q 48.131143 19.674 48.781895 19.988242 
Q 49.432647 20.301606 49.618382 20.855479 
L 48.373819 21.006456 
Q 48.242313 20.710647 47.878977 20.539482 
Q 47.516996 20.367439 46.974703 20.367439 
Q 46.153129 20.367439 45.667777 20.705381 
Q 45.182424 21.042445 45.182424 21.706039 
Q 45.182424 22.4223 45.6732 22.780431 
Q 46.165331 23.137683 46.962501 23.137683 
Q 47.35702 23.137683 47.752894 23.037617 
Q 48.148768 22.937552 48.432116 22.795353 
L 48.432116 22.285368 
L 46.996395 22.285368 
z
" clip-path="url(#p22bd379da2)" style="fill: #dc9514"/>
   </g>
   <g id="patch_11">
    <path d="M 46.059328 19.674 
L 46.059328 16.219438 
L 43.890411 16.219438 
L 43.890411 15.516 
L 49.699726 15.516 
L 49.699726 16.219438 
L 47.535597 16.219438 
L 47.535597 19.674 
L 46.059328 19.674 
z
" clip-path="url(#p22bd379da2)" style="fill: #1a1a1a"/>
   </g>
   <g id="patch_12">
    <path d="M 55.814795 23.832 
L 54.543493 23.832 
L 54.038006 22.887124 
L 51.722873 22.887124 
L 51.245188 23.832 
L 50.005479 23.832 
L 52.259954 19.674 
L 53.497134 19.674 
L 55.814795 23.832 
z
M 53.662681 22.186409 
L 52.865275 20.643383 
L 52.083033 22.186409 
L 53.662681 22.186409 
z
" clip-path="url(#p22bd379da2)" style="fill: #0e927b"/>
   </g>
   <g id="patch_13">
    <path d="M 53.111463 18.127368 
L 53.111463 17.449729 
L 55.814795 17.449729 
L 55.814795 19.051661 
Q 55.420276 19.298314 54.671912 19.486157 
Q 53.924903 19.674 53.157558 19.674 
Q 52.184142 19.674 51.458825 19.409791 
Q 50.734864 19.144704 50.370172 18.652275 
Q 50.005479 18.159845 50.005479 17.581395 
Q 50.005479 16.952911 50.412199 16.46487 
Q 50.818919 15.97683 51.602533 15.716132 
Q 52.200411 15.516 53.089772 15.516 
Q 54.246212 15.516 54.896963 15.830242 
Q 55.547715 16.143606 55.733451 16.697479 
L 54.488888 16.848456 
Q 54.357382 16.552647 53.994045 16.381482 
Q 53.632065 16.209439 53.089772 16.209439 
Q 52.268198 16.209439 51.782845 16.547381 
Q 51.297493 16.884445 51.297493 17.548039 
Q 51.297493 18.2643 51.788268 18.622431 
Q 52.280399 18.979683 53.07757 18.979683 
Q 53.472088 18.979683 53.867962 18.879617 
Q 54.263836 18.779552 54.547184 18.637353 
L 54.547184 18.127368 
L 53.111463 18.127368 
z
" clip-path="url(#p22bd379da2)" style="fill: #dc9514"/>
   </g>
   <g id="patch_14">
    <path d="M 58.289465 23.832 
L 58.289465 10.013752 
L 56.120548 10.013752 
L 56.120548 7.2 
L 61.929863 7.2 
L 61.929863 10.013752 
L 59.765734 10.013752 
L 59.765734 23.832 
L 58.289465 23.832 
z
" clip-path="url(#p22bd379da2)" style="fill: #1a1a1a"/>
   </g>
   <g id="patch_15">
    <path d="M 64.404534 23.832 
L 64.404534 10.013752 
L 62.235616 10.013752 
L 62.235616 7.2 
L 68.044932 7.2 
L 68.044932 10.013752 
L 65.880802 10.013752 
L 65.880802 23.832 
L 64.404534 23.832 
z
" clip-path="url(#p22bd379da2)" style="fill: #1a1a1a"/>
   </g>
   <g id="patch_16">
    <path d="M 74.16 23.832 
L 72.888699 23.832 
L 72.383211 20.052495 
L 70.068079 20.052495 
L 69.590393 23.832 
L 68.350685 23.832 
L 70.605159 7.2 
L 71.84234 7.2 
L 74.16 23.832 
z
M 72.007887 17.249635 
L 71.21048 11.077532 
L 70.428239 17.249635 
L 72.007887 17.249635 
z
" clip-path="url(#p22bd379da2)" style="fill: #0e927b"/>
   </g>
  </g>
 </g>
 <defs>
  <clipPath id="p22bd379da2">
   <rect x="7.2" y="7.2" width="66.96" height="16.632"/>
  </clipPath>
 </defs>
</svg>
