<?xml version="1.0" encoding="utf-8" standalone="no"?>
<!DOCTYPE svg PUBLIC "-//W3C//DTD SVG 1.1//EN"
  "http://www.w3.org/Graphics/SVG/1.1/DTD/svg11.dtd">
<svg xmlns:xlink="http://www.w3.org/1999/xlink" width="59.04pt" height="31.032pt" viewBox="0 0 59.04 31.032" xmlns="http://www.w3.org/2000/svg" version="1.1">
 <metadata>
  <rdf:RDF xmlns:dc="http://purl.org/dc/elements/1.1/" xmlns:cc="http://creativecommons.org/ns#" xmlns:rdf="http://www.w3.org/1999/02/22-rdf-syntax-ns#">
   <cc:Work>
    <dc:type rdf:resource="http://purl.org/dc/dcmitype/StillImage"/>
    <dc:date>2024-02-05T14:31:35.774760</dc:date>
    <dc:format>image/svg+xml</dc:format>
    <dc:creator>
     <cc:Agent>
      <dc:title>Matplotlib v3.6.3, https://matplotlib.org/</dc:title>
     </cc:Agent>
    </dc:creator>
   </cc:Work>
  </rdf:RDF>
 </metadata>
 <defs>
  <style type="text/css">*{stroke-linejoin: round; stroke-linecap: butt}</style>
 </defs>
 <g id="figure_1">
  <g id="patch_1">
   <path d="M 0 31.032 
L 59.04 31.032 
L 59.04 0 
L 0 0 
z
" style="fill: #ffffff"/>
  </g>
  <g id="axes_1">
   <g id="patch_2">
    <path d="M 7.2 23.832 
L 51.84 23.832 
L 51.84 7.2 
L 7.2 7.2 
z
" style="fill: #ffffff"/>
   </g>
   <g id="line2d_1">
    <path d="M 7.2 23.832 
L 51.84 23.832 
" clip-path="url(#p759faf5248)" style="fill: none; stroke: #000000; stroke-width: 0.5; stroke-linecap: square"/>
   </g>
   <g id="patch_3">
    <path d="M 9.861025 23.832 
L 9.861025 10.013752 
L 7.2 10.013752 
L 7.2 7.2 
L 14.327395 7.2 
L 14.327395 10.013752 
L 11.672245 10.013752 
L 11.672245 23.832 
L 9.861025 23.832 
z
" clip-path="url(#p759faf5248)" style="fill: #1a1a1a"/>
   </g>
   <g id="patch_4">
    <path d="M 21.829916 23.832 
L 20.270168 23.832 
L 19.649991 20.052495 
L 16.809576 20.052495 
L 16.223507 23.832 
L 14.702521 23.832 
L 17.468515 7.2 
L 18.9864 7.2 
L 21.829916 23.832 
z
M 19.189508 17.249635 
L 18.211178 11.077532 
L 17.251452 17.249635 
L 19.189508 17.249635 
z
" clip-path="url(#p759faf5248)" style="fill: #0e927b"/>
   </g>
   <g id="patch_5">
    <path d="M 29.332437 23.832 
L 27.772689 23.832 
L 27.152512 20.052495 
L 24.312097 20.052495 
L 23.726028 23.832 
L 22.205042 23.832 
L 24.971036 7.2 
L 26.488921 7.2 
L 29.332437 23.832 
z
M 26.692029 17.249635 
L 25.713699 11.077532 
L 24.753973 17.249635 
L 26.692029 17.249635 
z
" clip-path="url(#p759faf5248)" style="fill: #0e927b"/>
   </g>
   <g id="patch_6">
    <path d="M 32.368588 23.832 
L 32.368588 10.013752 
L 29.707563 10.013752 
L 29.707563 7.2 
L 36.834958 7.2 
L 36.834958 10.013752 
L 34.179808 10.013752 
L 34.179808 23.832 
L 32.368588 23.832 
z
" clip-path="url(#p759faf5248)" style="fill: #1a1a1a"/>
   </g>
   <g id="patch_7">
    <path d="M 42.735556 17.645472 
L 44.337479 18.642619 
Q 43.96959 21.275932 43.112374 22.553966 
Q 42.255158 23.832 40.938974 23.832 
Q 39.308478 23.832 38.258388 21.644595 
Q 37.210084 19.45368 37.210084 15.658199 
Q 37.210084 11.64152 38.263746 9.422516 
Q 39.319193 7.2 41.038983 7.2 
Q 42.540897 7.2 43.478477 8.941497 
Q 44.035667 9.973756 44.314263 11.904851 
L 42.680194 12.673778 
Q 42.533753 11.423833 42.073 10.70055 
Q 41.614032 9.973756 40.955047 9.973756 
Q 40.046041 9.973756 39.478135 11.258812 
Q 38.912015 12.540357 38.912015 15.415934 
Q 38.912015 18.467065 39.469206 19.762655 
Q 40.028182 21.054733 40.921116 21.054733 
Q 41.5801 21.054733 42.053355 20.23314 
Q 42.528396 19.411547 42.735556 17.645472 
z
" clip-path="url(#p759faf5248)" style="fill: #59a9d8"/>
   </g>
   <g id="patch_8">
    <path d="M 50.238077 17.645472 
L 51.84 18.642619 
Q 51.472111 21.275932 50.614895 22.553966 
Q 49.757679 23.832 48.441495 23.832 
Q 46.810999 23.832 45.760909 21.644595 
Q 44.712605 19.45368 44.712605 15.658199 
Q 44.712605 11.64152 45.766267 9.422516 
Q 46.821714 7.2 48.541504 7.2 
Q 50.043418 7.2 50.980998 8.941497 
Q 51.538188 9.973756 51.816784 11.904851 
L 50.182715 12.673778 
Q 50.036274 11.423833 49.575521 10.70055 
Q 49.116553 9.973756 48.457568 9.973756 
Q 47.548562 9.973756 46.980656 11.258812 
Q 46.414536 12.540357 46.414536 15.415934 
Q 46.414536 18.467065 46.971727 19.762655 
Q 47.530703 21.054733 48.423637 21.054733 
Q 49.082621 21.054733 49.555876 20.23314 
Q 50.030917 19.411547 50.238077 17.645472 
z
" clip-path="url(#p759faf5248)" style="fill: #59a9d8"/>
   </g>
  </g>
 </g>
 <defs>
  <clipPath id="p759faf5248">
   <rect x="7.2" y="7.2" width="44.64" height="16.632"/>
  </clipPath>
 </defs>
</svg>
