<?xml version="1.0" encoding="utf-8" standalone="no"?>
<!DOCTYPE svg PUBLIC "-//W3C//DTD SVG 1.1//EN"
  "http://www.w3.org/Graphics/SVG/1.1/DTD/svg11.dtd">
<svg xmlns:xlink="http://www.w3.org/1999/xlink" width="101.47628pt" height="64.097719pt" viewBox="0 0 101.47628 64.097719" xmlns="http://www.w3.org/2000/svg" version="1.1">
 <metadata>
  <rdf:RDF xmlns:dc="http://purl.org/dc/elements/1.1/" xmlns:cc="http://creativecommons.org/ns#" xmlns:rdf="http://www.w3.org/1999/02/22-rdf-syntax-ns#">
   <cc:Work>
    <dc:type rdf:resource="http://purl.org/dc/dcmitype/StillImage"/>
    <dc:date>2024-02-05T12:51:48.772315</dc:date>
    <dc:format>image/svg+xml</dc:format>
    <dc:creator>
     <cc:Agent>
      <dc:title>Matplotlib v3.6.3, https://matplotlib.org/</dc:title>
     </cc:Agent>
    </dc:creator>
   </cc:Work>
  </rdf:RDF>
 </metadata>
 <defs>
  <style type="text/css">*{stroke-linejoin: round; stroke-linecap: butt}</style>
 </defs>
 <g id="figure_1">
  <g id="patch_1">
   <path d="M -0 64.097719 
L 101.47628 64.097719 
L 101.47628 0 
L -0 0 
z
" style="fill: #ffffff"/>
  </g>
  <g id="axes_1">
   <g id="patch_2">
    <path d="M 27.105625 38.88 
L 94.065625 38.88 
L 94.065625 7.2 
L 27.105625 7.2 
z
" style="fill: #ffffff"/>
   </g>
   <g id="line2d_1">
    <path d="M 27.105625 38.88 
L 94.065625 38.88 
" clip-path="url(#p4908cdc2b3)" style="fill: none; stroke: #000000; stroke-width: 0.5; stroke-linecap: square"/>
   </g>
   <g id="patch_3">
    <path d="M 37.724332 38.787638 
L 39.030009 38.802525 
Q 38.730154 38.841839 38.031464 38.86092 
Q 37.332774 38.88 36.259994 38.88 
Q 34.931028 38.88 34.075133 38.847343 
Q 33.220693 38.814634 33.220693 38.757969 
Q 33.220693 38.698002 34.0795 38.664873 
Q 34.939762 38.631692 36.341508 38.631692 
Q 37.565671 38.631692 38.329863 38.657692 
Q 38.784012 38.673103 39.011086 38.701933 
L 37.679208 38.713413 
Q 37.559849 38.694752 37.184303 38.683954 
Q 36.810213 38.673103 36.273095 38.673103 
Q 35.532192 38.673103 35.06931 38.692288 
Q 34.607884 38.711421 34.607884 38.754352 
Q 34.607884 38.799904 35.062032 38.819247 
Q 35.517636 38.838537 36.245438 38.838537 
Q 36.782556 38.838537 37.168291 38.826271 
Q 37.555482 38.814005 37.724332 38.787638 
z
" clip-path="url(#p4908cdc2b3)" style="fill: #59a9d8"/>
   </g>
   <g id="patch_4">
    <path d="M 35.389611 38.631692 
L 35.389611 37.911738 
L 33.220693 37.911738 
L 33.220693 37.765137 
L 39.030009 37.765137 
L 39.030009 37.911738 
L 36.865879 37.911738 
L 36.865879 38.631692 
L 35.389611 38.631692 
z
" clip-path="url(#p4908cdc2b3)" style="fill: #1a1a1a"/>
   </g>
   <g id="patch_5">
    <path d="M 36.326677 37.108645 
L 36.326677 36.821011 
L 39.030009 36.821011 
L 39.030009 37.500975 
Q 38.63549 37.605671 37.887126 37.685404 
Q 37.140117 37.765137 36.372772 37.765137 
Q 35.399356 37.765137 34.674039 37.652989 
Q 33.950078 37.540469 33.585386 37.33145 
Q 33.220693 37.122431 33.220693 36.876899 
Q 33.220693 36.610129 33.627413 36.402973 
Q 34.034133 36.195817 34.817747 36.08516 
Q 35.415625 36.000211 36.304986 36.000211 
Q 37.461426 36.000211 38.112177 36.133596 
Q 38.762929 36.266608 38.948665 36.501708 
L 37.704102 36.565792 
Q 37.572596 36.440231 37.209259 36.367578 
Q 36.847279 36.294552 36.304986 36.294552 
Q 35.483412 36.294552 34.998059 36.437996 
Q 34.512707 36.581068 34.512707 36.862741 
Q 34.512707 37.166768 35.003482 37.318782 
Q 35.495613 37.470424 36.292784 37.470424 
Q 36.687302 37.470424 37.083176 37.427949 
Q 37.47905 37.385475 37.762398 37.325116 
L 37.762398 37.108645 
L 36.326677 37.108645 
z
" clip-path="url(#p4908cdc2b3)" style="fill: #dc9514"/>
   </g>
   <g id="patch_6">
    <path d="M 39.030009 36.000211 
L 37.758708 36.000211 
L 37.25322 34.811232 
L 34.938087 34.811232 
L 34.460402 36.000211 
L 33.220693 36.000211 
L 35.475168 30.768018 
L 36.712348 30.768018 
L 39.030009 36.000211 
z
M 36.877896 33.929491 
L 36.080489 31.987835 
L 35.298247 33.929491 
L 36.877896 33.929491 
z
" clip-path="url(#p4908cdc2b3)" style="fill: #0e927b"/>
   </g>
   <g id="patch_7">
    <path d="M 43.8394 38.877957 
L 45.145077 38.878286 
Q 44.845223 38.879156 44.146533 38.879578 
Q 43.447843 38.88 42.375063 38.88 
Q 41.046097 38.88 40.190201 38.879278 
Q 39.335762 38.878554 39.335762 38.8773 
Q 39.335762 38.875974 40.194568 38.875241 
Q 41.05483 38.874507 42.456577 38.874507 
Q 43.68074 38.874507 44.444932 38.875082 
Q 44.89908 38.875423 45.126154 38.876061 
L 43.794277 38.876315 
Q 43.674917 38.875902 43.299371 38.875663 
Q 42.925281 38.875423 42.388163 38.875423 
Q 41.647261 38.875423 41.184379 38.875847 
Q 40.722952 38.876271 40.722952 38.87722 
Q 40.722952 38.878228 41.177101 38.878656 
Q 41.632705 38.879083 42.360507 38.879083 
Q 42.897625 38.879083 43.28336 38.878811 
Q 43.67055 38.87854 43.8394 38.877957 
z
" clip-path="url(#p4908cdc2b3)" style="fill: #59a9d8"/>
   </g>
   <g id="patch_8">
    <path d="M 42.441746 38.872463 
L 42.441746 38.871568 
L 45.145077 38.871568 
L 45.145077 38.873685 
Q 44.750559 38.87401 44.002194 38.874259 
Q 43.255186 38.874507 42.487841 38.874507 
Q 41.514425 38.874507 40.789108 38.874158 
Q 40.065146 38.873807 39.700454 38.873157 
Q 39.335762 38.872506 39.335762 38.871742 
Q 39.335762 38.870912 39.742482 38.870267 
Q 40.149202 38.869622 40.932815 38.869278 
Q 41.530693 38.869013 42.420054 38.869013 
Q 43.576494 38.869013 44.227246 38.869429 
Q 44.877998 38.869843 45.063733 38.870574 
L 43.81917 38.870774 
Q 43.687664 38.870383 43.324328 38.870157 
Q 42.962347 38.86993 42.420054 38.86993 
Q 41.59848 38.86993 41.113128 38.870376 
Q 40.627775 38.870821 40.627775 38.871698 
Q 40.627775 38.872644 41.118551 38.873117 
Q 41.610682 38.873589 42.407853 38.873589 
Q 42.802371 38.873589 43.198245 38.873457 
Q 43.594119 38.873325 43.877467 38.873137 
L 43.877467 38.872463 
L 42.441746 38.872463 
z
" clip-path="url(#p4908cdc2b3)" style="fill: #dc9514"/>
   </g>
   <g id="patch_9">
    <path d="M 41.504679 38.869013 
L 41.504679 38.864013 
L 39.335762 38.864013 
L 39.335762 38.862994 
L 45.145077 38.862994 
L 45.145077 38.864013 
L 42.980948 38.864013 
L 42.980948 38.869013 
L 41.504679 38.869013 
z
" clip-path="url(#p4908cdc2b3)" style="fill: #1a1a1a"/>
   </g>
   <g id="patch_10">
    <path d="M 45.145077 38.862994 
L 43.873776 38.862994 
L 43.368289 32.894077 
L 41.053156 32.894077 
L 40.57547 38.862994 
L 39.335762 38.862994 
L 41.590236 12.596318 
L 42.827417 12.596318 
L 45.145077 38.862994 
z
M 42.992964 28.46756 
L 42.195558 18.720049 
L 41.413316 28.46756 
L 42.992964 28.46756 
z
" clip-path="url(#p4908cdc2b3)" style="fill: #0e927b"/>
   </g>
   <g id="patch_11">
    <path d="M 49.954469 38.802362 
L 51.260146 38.814875 
Q 50.960291 38.847922 50.261601 38.863961 
Q 49.562911 38.88 48.490131 38.88 
Q 47.161165 38.88 46.30527 38.852549 
Q 45.45083 38.825054 45.45083 38.777422 
Q 45.45083 38.727014 46.309637 38.699167 
Q 47.169899 38.671275 48.571645 38.671275 
Q 49.795808 38.671275 50.56 38.69313 
Q 51.014148 38.706085 51.241223 38.730319 
L 49.909345 38.739969 
Q 49.789986 38.724282 49.41444 38.715206 
Q 49.04035 38.706085 48.503232 38.706085 
Q 47.762329 38.706085 47.299447 38.722212 
Q 46.838021 38.738294 46.838021 38.774382 
Q 46.838021 38.812672 47.292169 38.828931 
Q 47.747773 38.845146 48.475575 38.845146 
Q 49.012693 38.845146 49.398428 38.834836 
Q 49.785619 38.824525 49.954469 38.802362 
z
" clip-path="url(#p4908cdc2b3)" style="fill: #59a9d8"/>
   </g>
   <g id="patch_12">
    <path d="M 51.260146 38.671275 
L 49.988844 38.671275 
L 49.483357 38.615714 
L 47.168224 38.615714 
L 46.690539 38.671275 
L 45.45083 38.671275 
L 47.705305 38.426775 
L 48.942485 38.426775 
L 51.260146 38.671275 
z
M 49.108033 38.57451 
L 48.310626 38.483777 
L 47.528384 38.57451 
L 49.108033 38.57451 
z
" clip-path="url(#p4908cdc2b3)" style="fill: #0e927b"/>
   </g>
   <g id="patch_13">
    <path d="M 48.556814 36.969669 
L 48.556814 36.331255 
L 51.260146 36.331255 
L 51.260146 37.840459 
Q 50.865627 38.072835 50.117263 38.249805 
Q 49.370254 38.426775 48.602909 38.426775 
Q 47.629493 38.426775 46.904176 38.177859 
Q 46.180215 37.928117 45.815523 37.464192 
Q 45.45083 37.000267 45.45083 36.455299 
Q 45.45083 35.863195 45.85755 35.403404 
Q 46.26427 34.943614 47.047884 34.698007 
Q 47.645762 34.509459 48.535123 34.509459 
Q 49.691563 34.509459 50.342314 34.805511 
Q 50.993066 35.100737 51.178802 35.622549 
L 49.934239 35.764787 
Q 49.802733 35.486101 49.439396 35.324843 
Q 49.077416 35.162759 48.535123 35.162759 
Q 47.713549 35.162759 47.228196 35.481139 
Q 46.742844 35.798692 46.742844 36.423875 
Q 46.742844 37.098675 47.233619 37.436075 
Q 47.72575 37.772648 48.522921 37.772648 
Q 48.917439 37.772648 49.313313 37.678375 
Q 49.709187 37.584101 49.992535 37.450134 
L 49.992535 36.969669 
L 48.556814 36.969669 
z
" clip-path="url(#p4908cdc2b3)" style="fill: #dc9514"/>
   </g>
   <g id="patch_14">
    <path d="M 47.619748 34.509459 
L 47.619748 29.863509 
L 45.45083 29.863509 
L 45.45083 28.917473 
L 51.260146 28.917473 
L 51.260146 29.863509 
L 49.096016 29.863509 
L 49.096016 34.509459 
L 47.619748 34.509459 
z
" clip-path="url(#p4908cdc2b3)" style="fill: #1a1a1a"/>
   </g>
   <g id="patch_15">
    <path d="M 57.375214 38.88 
L 56.103913 38.88 
L 55.598425 38.878806 
L 53.283293 38.878806 
L 52.805607 38.88 
L 51.565899 38.88 
L 53.820373 38.874744 
L 55.057554 38.874744 
L 57.375214 38.88 
z
M 55.223101 38.87792 
L 54.425694 38.875969 
L 53.643453 38.87792 
L 55.223101 38.87792 
z
" clip-path="url(#p4908cdc2b3)" style="fill: #0e927b"/>
   </g>
   <g id="patch_16">
    <path d="M 53.734816 38.874744 
L 53.734816 38.870376 
L 51.565899 38.870376 
L 51.565899 38.869487 
L 57.375214 38.869487 
L 57.375214 38.870376 
L 55.211085 38.870376 
L 55.211085 38.874744 
L 53.734816 38.874744 
z
" clip-path="url(#p4908cdc2b3)" style="fill: #1a1a1a"/>
   </g>
   <g id="patch_17">
    <path d="M 54.671883 38.504214 
L 54.671883 38.344173 
L 57.375214 38.344173 
L 57.375214 38.722507 
Q 56.980696 38.78076 56.232331 38.825124 
Q 55.485323 38.869487 54.717978 38.869487 
Q 53.744562 38.869487 53.019245 38.807088 
Q 52.295283 38.744481 51.930591 38.628183 
Q 51.565899 38.511884 51.565899 38.375269 
Q 51.565899 38.226838 51.972619 38.111575 
Q 52.379339 37.996313 53.162952 37.934743 
Q 53.76083 37.887477 54.650191 37.887477 
Q 55.806631 37.887477 56.457383 37.961693 
Q 57.108135 38.035701 57.29387 38.166512 
L 56.049307 38.202168 
Q 55.917801 38.132306 55.554465 38.091881 
Q 55.192484 38.051249 54.650191 38.051249 
Q 53.828617 38.051249 53.343265 38.131062 
Q 52.857912 38.210668 52.857912 38.367391 
Q 52.857912 38.536553 53.348688 38.621134 
Q 53.840819 38.705508 54.63799 38.705508 
Q 55.032508 38.705508 55.428382 38.681875 
Q 55.824256 38.658242 56.107604 38.624658 
L 56.107604 38.504214 
L 54.671883 38.504214 
z
" clip-path="url(#p4908cdc2b3)" style="fill: #dc9514"/>
   </g>
   <g id="patch_18">
    <path d="M 56.069537 29.71864 
L 57.375214 31.035297 
Q 57.07536 34.512385 56.37667 36.199931 
Q 55.67798 37.887477 54.6052 37.887477 
Q 53.276234 37.887477 52.420338 34.999177 
Q 51.565899 32.10624 51.565899 27.094598 
Q 51.565899 21.790881 52.424705 18.860856 
Q 53.284967 15.926194 54.686714 15.926194 
Q 55.910877 15.926194 56.675069 18.225708 
Q 57.129217 19.588726 57.356291 22.13859 
L 56.024414 23.153899 
Q 55.905054 21.503442 55.529508 20.548402 
Q 55.155418 19.588726 54.6183 19.588726 
Q 53.877398 19.588726 53.414516 21.285545 
Q 52.953089 22.977727 52.953089 26.774706 
Q 52.953089 30.803492 53.407238 32.514218 
Q 53.862842 34.220309 54.590644 34.220309 
Q 55.127762 34.220309 55.513497 33.135458 
Q 55.900687 32.050607 56.069537 29.71864 
z
" clip-path="url(#p4908cdc2b3)" style="fill: #59a9d8"/>
   </g>
   <g id="patch_19">
    <path d="M 60.786951 38.87888 
L 60.786951 38.87839 
L 63.490283 38.87839 
L 63.490283 38.879549 
Q 63.095764 38.879728 62.3474 38.879864 
Q 61.600391 38.88 60.833046 38.88 
Q 59.85963 38.88 59.134313 38.879809 
Q 58.410352 38.879617 58.04566 38.87926 
Q 57.680967 38.878904 57.680967 38.878485 
Q 57.680967 38.87803 58.087687 38.877677 
Q 58.494407 38.877324 59.278021 38.877135 
Q 59.875899 38.87699 60.76526 38.87699 
Q 61.9217 38.87699 62.572451 38.877217 
Q 63.223203 38.877444 63.408939 38.877845 
L 62.164376 38.877955 
Q 62.03287 38.87774 61.669533 38.877616 
Q 61.307553 38.877492 60.76526 38.877492 
Q 59.943686 38.877492 59.458333 38.877737 
Q 58.972981 38.877981 58.972981 38.878461 
Q 58.972981 38.878979 59.463756 38.879239 
Q 59.955887 38.879497 60.753058 38.879497 
Q 61.147576 38.879497 61.54345 38.879425 
Q 61.939324 38.879352 62.222672 38.87925 
L 62.222672 38.87888 
L 60.786951 38.87888 
z
" clip-path="url(#p4908cdc2b3)" style="fill: #dc9514"/>
   </g>
   <g id="patch_20">
    <path d="M 63.490283 38.87699 
L 62.218981 38.87699 
L 61.713494 38.87624 
L 59.398361 38.87624 
L 58.920676 38.87699 
L 57.680967 38.87699 
L 59.935442 38.873692 
L 61.172622 38.873692 
L 63.490283 38.87699 
z
M 61.33817 38.875685 
L 60.540763 38.874461 
L 59.758521 38.875685 
L 61.33817 38.875685 
z
" clip-path="url(#p4908cdc2b3)" style="fill: #0e927b"/>
   </g>
   <g id="patch_21">
    <path d="M 59.849885 38.873692 
L 59.849885 35.057553 
L 57.680967 35.057553 
L 57.680967 34.280488 
L 63.490283 34.280488 
L 63.490283 35.057553 
L 61.326153 35.057553 
L 61.326153 38.873692 
L 59.849885 38.873692 
z
" clip-path="url(#p4908cdc2b3)" style="fill: #1a1a1a"/>
   </g>
   <g id="patch_22">
    <path d="M 62.184606 30.634199 
L 63.490283 31.221909 
Q 63.190428 32.773962 62.491738 33.527225 
Q 61.793048 34.280488 60.720268 34.280488 
Q 59.391302 34.280488 58.535407 32.99125 
Q 57.680967 31.699942 57.680967 29.462916 
Q 57.680967 27.095518 58.539774 25.787655 
Q 59.400036 24.477722 60.801782 24.477722 
Q 62.025945 24.477722 62.790137 25.504146 
Q 63.244285 26.112551 63.47136 27.250723 
L 62.139482 27.703923 
Q 62.020123 26.967215 61.644577 26.540918 
Q 61.270487 26.112551 60.733369 26.112551 
Q 59.992466 26.112551 59.529584 26.869953 
Q 59.068158 27.625285 59.068158 29.320127 
Q 59.068158 31.118439 59.522306 31.882049 
Q 59.97791 32.64359 60.705712 32.64359 
Q 61.24283 32.64359 61.628565 32.159349 
Q 62.015756 31.675109 62.184606 30.634199 
z
" clip-path="url(#p4908cdc2b3)" style="fill: #59a9d8"/>
   </g>
   <g id="patch_23">
    <path d="M 68.299674 38.879223 
L 69.605351 38.879348 
Q 69.305497 38.879679 68.606807 38.879839 
Q 67.908117 38.88 66.835337 38.88 
Q 65.506371 38.88 64.650475 38.879725 
Q 63.796036 38.87945 63.796036 38.878973 
Q 63.796036 38.878469 64.654842 38.87819 
Q 65.515104 38.877911 66.916851 38.877911 
Q 68.141014 38.877911 68.905206 38.87813 
Q 69.359354 38.878259 69.586428 38.878502 
L 68.254551 38.878598 
Q 68.135191 38.878441 67.759645 38.878351 
Q 67.385555 38.878259 66.848437 38.878259 
Q 66.107535 38.878259 65.644653 38.878421 
Q 65.183226 38.878582 65.183226 38.878943 
Q 65.183226 38.879326 65.637375 38.879489 
Q 66.092979 38.879651 66.820781 38.879651 
Q 67.357899 38.879651 67.743634 38.879548 
Q 68.130824 38.879445 68.299674 38.879223 
z
" clip-path="url(#p4908cdc2b3)" style="fill: #59a9d8"/>
   </g>
   <g id="patch_24">
    <path d="M 69.605351 38.877911 
L 68.33405 38.877911 
L 67.828562 38.75674 
L 65.51343 38.75674 
L 65.035744 38.877911 
L 63.796036 38.877911 
L 66.05051 38.344688 
L 67.287691 38.344688 
L 69.605351 38.877911 
z
M 67.453238 38.66688 
L 66.655831 38.469002 
L 65.87359 38.66688 
L 67.453238 38.66688 
z
" clip-path="url(#p4908cdc2b3)" style="fill: #0e927b"/>
   </g>
   <g id="patch_25">
    <path d="M 66.90202 36.763131 
L 66.90202 36.07019 
L 69.605351 36.07019 
L 69.605351 37.708295 
Q 69.210833 37.960519 68.462468 38.152604 
Q 67.715459 38.344688 66.948115 38.344688 
Q 65.974699 38.344688 65.249382 38.074513 
Q 64.52542 37.80344 64.160728 37.299891 
Q 63.796036 36.796342 63.796036 36.204828 
Q 63.796036 35.562152 64.202756 35.063091 
Q 64.609476 34.56403 65.393089 34.297445 
Q 65.990967 34.092794 66.880328 34.092794 
Q 68.036768 34.092794 68.68752 34.414132 
Q 69.338272 34.734572 69.524007 35.300953 
L 68.279444 35.455339 
Q 68.147938 35.15285 67.784602 34.97782 
Q 67.422621 34.801892 66.880328 34.801892 
Q 66.058754 34.801892 65.573402 35.147465 
Q 65.088049 35.49214 65.088049 36.17072 
Q 65.088049 36.903155 65.578825 37.269373 
Q 66.070956 37.634693 66.868126 37.634693 
Q 67.262645 37.634693 67.658519 37.532367 
Q 68.054393 37.430042 68.337741 37.284632 
L 68.337741 36.763131 
L 66.90202 36.763131 
z
" clip-path="url(#p4908cdc2b3)" style="fill: #dc9514"/>
   </g>
   <g id="patch_26">
    <path d="M 65.964953 34.092794 
L 65.964953 29.76511 
L 63.796036 29.76511 
L 63.796036 28.883882 
L 69.605351 28.883882 
L 69.605351 29.76511 
L 67.441222 29.76511 
L 67.441222 34.092794 
L 65.964953 34.092794 
z
" clip-path="url(#p4908cdc2b3)" style="fill: #1a1a1a"/>
   </g>
   <g id="patch_27">
    <path d="M 73.017088 38.878952 
L 73.017088 38.878492 
L 75.72042 38.878492 
L 75.72042 38.879578 
Q 75.325901 38.879745 74.577537 38.879873 
Q 73.830528 38.88 73.063183 38.88 
Q 72.089767 38.88 71.36445 38.879821 
Q 70.640489 38.879641 70.275797 38.879307 
Q 69.911104 38.878974 69.911104 38.878582 
Q 69.911104 38.878155 70.317824 38.877825 
Q 70.724544 38.877494 71.508158 38.877317 
Q 72.106036 38.877181 72.995397 38.877181 
Q 74.151837 38.877181 74.802588 38.877394 
Q 75.45334 38.877607 75.639076 38.877982 
L 74.394513 38.878085 
Q 74.263007 38.877884 73.89967 38.877768 
Q 73.53769 38.877652 72.995397 38.877652 
Q 72.173823 38.877652 71.68847 38.877881 
Q 71.203118 38.878109 71.203118 38.878559 
Q 71.203118 38.879044 71.693893 38.879287 
Q 72.186024 38.879529 72.983195 38.879529 
Q 73.377713 38.879529 73.773587 38.879462 
Q 74.169461 38.879394 74.452809 38.879297 
L 74.452809 38.878952 
L 73.017088 38.878952 
z
" clip-path="url(#p4908cdc2b3)" style="fill: #dc9514"/>
   </g>
   <g id="patch_28">
    <path d="M 72.080022 38.877181 
L 72.080022 38.874616 
L 69.911104 38.874616 
L 69.911104 38.874093 
L 75.72042 38.874093 
L 75.72042 38.874616 
L 73.55629 38.874616 
L 73.55629 38.877181 
L 72.080022 38.877181 
z
" clip-path="url(#p4908cdc2b3)" style="fill: #1a1a1a"/>
   </g>
   <g id="patch_29">
    <path d="M 75.72042 38.874093 
L 74.449118 38.874093 
L 73.943631 37.638856 
L 71.628498 37.638856 
L 71.150813 38.874093 
L 69.911104 38.874093 
L 72.165579 33.438337 
L 73.402759 33.438337 
L 75.72042 38.874093 
z
M 73.568306 36.72281 
L 72.7709 34.705612 
L 71.988658 36.72281 
L 73.568306 36.72281 
z
" clip-path="url(#p4908cdc2b3)" style="fill: #0e927b"/>
   </g>
   <g id="patch_30">
    <path d="M 74.414743 30.446201 
L 75.72042 30.928475 
Q 75.420565 32.202085 74.721875 32.820211 
Q 74.023185 33.438337 72.950405 33.438337 
Q 71.621439 33.438337 70.765544 32.380391 
Q 69.911104 31.320747 69.911104 29.48505 
Q 69.911104 27.542369 70.769911 26.46914 
Q 71.630173 25.394213 73.031919 25.394213 
Q 74.256082 25.394213 75.020274 26.236494 
Q 75.474422 26.735749 75.701497 27.66973 
L 74.369619 28.041625 
Q 74.25026 27.437084 73.874714 27.087266 
Q 73.500624 26.735749 72.963506 26.735749 
Q 72.222603 26.735749 71.759721 27.357271 
Q 71.298295 27.977095 71.298295 29.367878 
Q 71.298295 30.843568 71.752443 31.470184 
Q 72.208047 32.095102 72.935849 32.095102 
Q 73.472967 32.095102 73.858702 31.697736 
Q 74.245893 31.300369 74.414743 30.446201 
z
" clip-path="url(#p4908cdc2b3)" style="fill: #59a9d8"/>
   </g>
   <g id="patch_31">
    <path d="M 80.529811 38.877957 
L 81.835488 38.878286 
Q 81.535634 38.879156 80.836944 38.879578 
Q 80.138254 38.88 79.065474 38.88 
Q 77.736507 38.88 76.880612 38.879278 
Q 76.026173 38.878554 76.026173 38.8773 
Q 76.026173 38.875974 76.884979 38.875241 
Q 77.745241 38.874507 79.146988 38.874507 
Q 80.371151 38.874507 81.135343 38.875082 
Q 81.589491 38.875423 81.816565 38.876061 
L 80.484688 38.876315 
Q 80.365328 38.875902 79.989782 38.875663 
Q 79.615692 38.875423 79.078574 38.875423 
Q 78.337672 38.875423 77.87479 38.875847 
Q 77.413363 38.876271 77.413363 38.87722 
Q 77.413363 38.878228 77.867512 38.878656 
Q 78.323116 38.879083 79.050918 38.879083 
Q 79.588036 38.879083 79.973771 38.878811 
Q 80.360961 38.87854 80.529811 38.877957 
z
" clip-path="url(#p4908cdc2b3)" style="fill: #59a9d8"/>
   </g>
   <g id="patch_32">
    <path d="M 79.132157 38.872463 
L 79.132157 38.871568 
L 81.835488 38.871568 
L 81.835488 38.873685 
Q 81.44097 38.87401 80.692605 38.874259 
Q 79.945596 38.874507 79.178252 38.874507 
Q 78.204836 38.874507 77.479519 38.874158 
Q 76.755557 38.873807 76.390865 38.873157 
Q 76.026173 38.872506 76.026173 38.871742 
Q 76.026173 38.870912 76.432893 38.870267 
Q 76.839613 38.869622 77.623226 38.869278 
Q 78.221104 38.869013 79.110465 38.869013 
Q 80.266905 38.869013 80.917657 38.869429 
Q 81.568409 38.869843 81.754144 38.870574 
L 80.509581 38.870774 
Q 80.378075 38.870383 80.014739 38.870157 
Q 79.652758 38.86993 79.110465 38.86993 
Q 78.288891 38.86993 77.803539 38.870376 
Q 77.318186 38.870821 77.318186 38.871698 
Q 77.318186 38.872644 77.808962 38.873117 
Q 78.301093 38.873589 79.098263 38.873589 
Q 79.492782 38.873589 79.888656 38.873457 
Q 80.28453 38.873325 80.567878 38.873137 
L 80.567878 38.872463 
L 79.132157 38.872463 
z
" clip-path="url(#p4908cdc2b3)" style="fill: #dc9514"/>
   </g>
   <g id="patch_33">
    <path d="M 81.835488 38.869013 
L 80.564187 38.869013 
L 80.058699 38.867646 
L 77.743567 38.867646 
L 77.265881 38.869013 
L 76.026173 38.869013 
L 78.280647 38.862994 
L 79.517828 38.862994 
L 81.835488 38.869013 
z
M 79.683375 38.866631 
L 78.885968 38.864398 
L 78.103727 38.866631 
L 79.683375 38.866631 
z
" clip-path="url(#p4908cdc2b3)" style="fill: #0e927b"/>
   </g>
   <g id="patch_34">
    <path d="M 78.19509 38.862994 
L 78.19509 17.040037 
L 76.026173 17.040037 
L 76.026173 12.596318 
L 81.835488 12.596318 
L 81.835488 17.040037 
L 79.671359 17.040037 
L 79.671359 38.862994 
L 78.19509 38.862994 
z
" clip-path="url(#p4908cdc2b3)" style="fill: #1a1a1a"/>
   </g>
   <g id="patch_35">
    <path d="M 86.64488 38.877957 
L 87.950557 38.878286 
Q 87.650702 38.879156 86.952012 38.879578 
Q 86.253322 38.88 85.180542 38.88 
Q 83.851576 38.88 82.995681 38.879278 
Q 82.141241 38.878554 82.141241 38.8773 
Q 82.141241 38.875974 83.000048 38.875241 
Q 83.86031 38.874507 85.262056 38.874507 
Q 86.486219 38.874507 87.250411 38.875082 
Q 87.704559 38.875423 87.931634 38.876061 
L 86.599756 38.876315 
Q 86.480397 38.875902 86.104851 38.875663 
Q 85.730761 38.875423 85.193643 38.875423 
Q 84.45274 38.875423 83.989858 38.875847 
Q 83.528432 38.876271 83.528432 38.87722 
Q 83.528432 38.878228 83.98258 38.878656 
Q 84.438184 38.879083 85.165986 38.879083 
Q 85.703104 38.879083 86.088839 38.878811 
Q 86.47603 38.87854 86.64488 38.877957 
z
" clip-path="url(#p4908cdc2b3)" style="fill: #59a9d8"/>
   </g>
   <g id="patch_36">
    <path d="M 85.247225 38.872463 
L 85.247225 38.871568 
L 87.950557 38.871568 
L 87.950557 38.873685 
Q 87.556038 38.87401 86.807674 38.874259 
Q 86.060665 38.874507 85.29332 38.874507 
Q 84.319904 38.874507 83.594587 38.874158 
Q 82.870626 38.873807 82.505934 38.873157 
Q 82.141241 38.872506 82.141241 38.871742 
Q 82.141241 38.870912 82.547961 38.870267 
Q 82.954681 38.869622 83.738295 38.869278 
Q 84.336173 38.869013 85.225534 38.869013 
Q 86.381974 38.869013 87.032725 38.869429 
Q 87.683477 38.869843 87.869213 38.870574 
L 86.62465 38.870774 
Q 86.493144 38.870383 86.129807 38.870157 
Q 85.767827 38.86993 85.225534 38.86993 
Q 84.403959 38.86993 83.918607 38.870376 
Q 83.433255 38.870821 83.433255 38.871698 
Q 83.433255 38.872644 83.92403 38.873117 
Q 84.416161 38.873589 85.213332 38.873589 
Q 85.60785 38.873589 86.003724 38.873457 
Q 86.399598 38.873325 86.682946 38.873137 
L 86.682946 38.872463 
L 85.247225 38.872463 
z
" clip-path="url(#p4908cdc2b3)" style="fill: #dc9514"/>
   </g>
   <g id="patch_37">
    <path d="M 87.950557 38.869013 
L 86.679255 38.869013 
L 86.173768 38.867646 
L 83.858635 38.867646 
L 83.38095 38.869013 
L 82.141241 38.869013 
L 84.395716 38.862994 
L 85.632896 38.862994 
L 87.950557 38.869013 
z
M 85.798443 38.866631 
L 85.001037 38.864398 
L 84.218795 38.866631 
L 85.798443 38.866631 
z
" clip-path="url(#p4908cdc2b3)" style="fill: #0e927b"/>
   </g>
   <g id="patch_38">
    <path d="M 84.310159 38.862994 
L 84.310159 17.040037 
L 82.141241 17.040037 
L 82.141241 12.596318 
L 87.950557 12.596318 
L 87.950557 17.040037 
L 85.786427 17.040037 
L 85.786427 38.862994 
L 84.310159 38.862994 
z
" clip-path="url(#p4908cdc2b3)" style="fill: #1a1a1a"/>
   </g>
   <g id="patch_39">
    <path d="M 92.759948 38.878285 
L 94.065625 38.878562 
Q 93.765771 38.879292 93.067081 38.879646 
Q 92.368391 38.88 91.295611 38.88 
Q 89.966644 38.88 89.110749 38.879394 
Q 88.25631 38.878787 88.25631 38.877735 
Q 88.25631 38.876622 89.115116 38.876007 
Q 89.975378 38.875391 91.377125 38.875391 
Q 92.601288 38.875391 93.36548 38.875873 
Q 93.819628 38.876159 94.046702 38.876695 
L 92.714825 38.876908 
Q 92.595465 38.876561 92.219919 38.876361 
Q 91.845829 38.876159 91.308711 38.876159 
Q 90.567809 38.876159 90.104927 38.876515 
Q 89.6435 38.876871 89.6435 38.877668 
Q 89.6435 38.878513 90.097649 38.878872 
Q 90.553253 38.87923 91.281055 38.87923 
Q 91.818173 38.87923 92.203908 38.879003 
Q 92.591098 38.878775 92.759948 38.878285 
z
" clip-path="url(#p4908cdc2b3)" style="fill: #59a9d8"/>
   </g>
   <g id="patch_40">
    <path d="M 91.362294 38.873676 
L 91.362294 38.872925 
L 94.065625 38.872925 
L 94.065625 38.874701 
Q 93.671107 38.874974 92.922742 38.875182 
Q 92.175733 38.875391 91.408389 38.875391 
Q 90.434973 38.875391 89.709655 38.875098 
Q 88.985694 38.874804 88.621002 38.874258 
Q 88.25631 38.873712 88.25631 38.873071 
Q 88.25631 38.872374 88.66303 38.871833 
Q 89.06975 38.871292 89.853363 38.871003 
Q 90.451241 38.870781 91.340602 38.870781 
Q 92.497042 38.870781 93.147794 38.87113 
Q 93.798546 38.871477 93.984281 38.872091 
L 92.739718 38.872258 
Q 92.608212 38.87193 92.244876 38.871741 
Q 91.882895 38.87155 91.340602 38.87155 
Q 90.519028 38.87155 90.033676 38.871925 
Q 89.548323 38.872298 89.548323 38.873034 
Q 89.548323 38.873828 90.039099 38.874225 
Q 90.53123 38.874621 91.3284 38.874621 
Q 91.722919 38.874621 92.118793 38.87451 
Q 92.514667 38.874399 92.798015 38.874241 
L 92.798015 38.873676 
L 91.362294 38.873676 
z
" clip-path="url(#p4908cdc2b3)" style="fill: #dc9514"/>
   </g>
   <g id="patch_41">
    <path d="M 90.425227 38.870781 
L 90.425227 37.789375 
L 88.25631 37.789375 
L 88.25631 37.569173 
L 94.065625 37.569173 
L 94.065625 37.789375 
L 91.901496 37.789375 
L 91.901496 38.870781 
L 90.425227 38.870781 
z
" clip-path="url(#p4908cdc2b3)" style="fill: #1a1a1a"/>
   </g>
   <g id="patch_42">
    <path d="M 94.065625 37.569173 
L 92.794324 37.569173 
L 92.288836 32.855337 
L 89.973704 32.855337 
L 89.496018 37.569173 
L 88.25631 37.569173 
L 90.510784 16.825576 
L 91.747965 16.825576 
L 94.065625 37.569173 
z
M 91.913512 29.359581 
L 91.116105 21.661673 
L 90.333864 29.359581 
L 91.913512 29.359581 
z
" clip-path="url(#p4908cdc2b3)" style="fill: #0e927b"/>
   </g>
   <g id="matplotlib.axis_1">
    <g id="xtick_1">
     <g id="text_1">
      <!-- 1 -->
      <g transform="translate(28.342001 45.674687) scale(0.06 -0.06)">
       <defs>
        <path id="ArialMT-31" d="M 2384 0 
L 1822 0 
L 1822 3584 
Q 1619 3391 1289 3197 
Q 959 3003 697 2906 
L 697 3450 
Q 1169 3672 1522 3987 
Q 1875 4303 2022 4600 
L 2384 4600 
L 2384 0 
z
" transform="scale(0.015625)"/>
       </defs>
       <use xlink:href="#ArialMT-31"/>
      </g>
     </g>
    </g>
    <g id="xtick_2">
     <g id="text_2">
      <!-- 2 -->
      <g transform="translate(34.45707 45.674687) scale(0.06 -0.06)">
       <defs>
        <path id="ArialMT-32" d="M 3222 541 
L 3222 0 
L 194 0 
Q 188 203 259 391 
Q 375 700 629 1000 
Q 884 1300 1366 1694 
Q 2113 2306 2375 2664 
Q 2638 3022 2638 3341 
Q 2638 3675 2398 3904 
Q 2159 4134 1775 4134 
Q 1369 4134 1125 3890 
Q 881 3647 878 3216 
L 300 3275 
Q 359 3922 746 4261 
Q 1134 4600 1788 4600 
Q 2447 4600 2831 4234 
Q 3216 3869 3216 3328 
Q 3216 3053 3103 2787 
Q 2991 2522 2730 2228 
Q 2469 1934 1863 1422 
Q 1356 997 1212 845 
Q 1069 694 975 541 
L 3222 541 
z
" transform="scale(0.015625)"/>
       </defs>
       <use xlink:href="#ArialMT-32"/>
      </g>
     </g>
    </g>
    <g id="xtick_3">
     <g id="text_3">
      <!-- 3 -->
      <g transform="translate(40.572138 45.674687) scale(0.06 -0.06)">
       <defs>
        <path id="ArialMT-33" d="M 269 1209 
L 831 1284 
Q 928 806 1161 595 
Q 1394 384 1728 384 
Q 2125 384 2398 659 
Q 2672 934 2672 1341 
Q 2672 1728 2419 1979 
Q 2166 2231 1775 2231 
Q 1616 2231 1378 2169 
L 1441 2663 
Q 1497 2656 1531 2656 
Q 1891 2656 2178 2843 
Q 2466 3031 2466 3422 
Q 2466 3731 2256 3934 
Q 2047 4138 1716 4138 
Q 1388 4138 1169 3931 
Q 950 3725 888 3313 
L 325 3413 
Q 428 3978 793 4289 
Q 1159 4600 1703 4600 
Q 2078 4600 2393 4439 
Q 2709 4278 2876 4000 
Q 3044 3722 3044 3409 
Q 3044 3113 2884 2869 
Q 2725 2625 2413 2481 
Q 2819 2388 3044 2092 
Q 3269 1797 3269 1353 
Q 3269 753 2831 336 
Q 2394 -81 1725 -81 
Q 1122 -81 723 278 
Q 325 638 269 1209 
z
" transform="scale(0.015625)"/>
       </defs>
       <use xlink:href="#ArialMT-33"/>
      </g>
     </g>
    </g>
    <g id="xtick_4">
     <g id="text_4">
      <!-- 4 -->
      <g transform="translate(46.687207 45.674687) scale(0.06 -0.06)">
       <defs>
        <path id="ArialMT-34" d="M 2069 0 
L 2069 1097 
L 81 1097 
L 81 1613 
L 2172 4581 
L 2631 4581 
L 2631 1613 
L 3250 1613 
L 3250 1097 
L 2631 1097 
L 2631 0 
L 2069 0 
z
M 2069 1613 
L 2069 3678 
L 634 1613 
L 2069 1613 
z
" transform="scale(0.015625)"/>
       </defs>
       <use xlink:href="#ArialMT-34"/>
      </g>
     </g>
    </g>
    <g id="xtick_5">
     <g id="text_5">
      <!-- 5 -->
      <g transform="translate(52.802275 45.674687) scale(0.06 -0.06)">
       <defs>
        <path id="ArialMT-35" d="M 266 1200 
L 856 1250 
Q 922 819 1161 601 
Q 1400 384 1738 384 
Q 2144 384 2425 690 
Q 2706 997 2706 1503 
Q 2706 1984 2436 2262 
Q 2166 2541 1728 2541 
Q 1456 2541 1237 2417 
Q 1019 2294 894 2097 
L 366 2166 
L 809 4519 
L 3088 4519 
L 3088 3981 
L 1259 3981 
L 1013 2750 
Q 1425 3038 1878 3038 
Q 2478 3038 2890 2622 
Q 3303 2206 3303 1553 
Q 3303 931 2941 478 
Q 2500 -78 1738 -78 
Q 1113 -78 717 272 
Q 322 622 266 1200 
z
" transform="scale(0.015625)"/>
       </defs>
       <use xlink:href="#ArialMT-35"/>
      </g>
     </g>
    </g>
    <g id="xtick_6">
     <g id="text_6">
      <!-- 6 -->
      <g transform="translate(58.917344 45.674687) scale(0.06 -0.06)">
       <defs>
        <path id="ArialMT-36" d="M 3184 3459 
L 2625 3416 
Q 2550 3747 2413 3897 
Q 2184 4138 1850 4138 
Q 1581 4138 1378 3988 
Q 1113 3794 959 3422 
Q 806 3050 800 2363 
Q 1003 2672 1297 2822 
Q 1591 2972 1913 2972 
Q 2475 2972 2870 2558 
Q 3266 2144 3266 1488 
Q 3266 1056 3080 686 
Q 2894 316 2569 119 
Q 2244 -78 1831 -78 
Q 1128 -78 684 439 
Q 241 956 241 2144 
Q 241 3472 731 4075 
Q 1159 4600 1884 4600 
Q 2425 4600 2770 4297 
Q 3116 3994 3184 3459 
z
M 888 1484 
Q 888 1194 1011 928 
Q 1134 663 1356 523 
Q 1578 384 1822 384 
Q 2178 384 2434 671 
Q 2691 959 2691 1453 
Q 2691 1928 2437 2201 
Q 2184 2475 1800 2475 
Q 1419 2475 1153 2201 
Q 888 1928 888 1484 
z
" transform="scale(0.015625)"/>
       </defs>
       <use xlink:href="#ArialMT-36"/>
      </g>
     </g>
    </g>
    <g id="xtick_7">
     <g id="text_7">
      <!-- 7 -->
      <g transform="translate(65.032412 45.674687) scale(0.06 -0.06)">
       <defs>
        <path id="ArialMT-37" d="M 303 3981 
L 303 4522 
L 3269 4522 
L 3269 4084 
Q 2831 3619 2401 2847 
Q 1972 2075 1738 1259 
Q 1569 684 1522 0 
L 944 0 
Q 953 541 1156 1306 
Q 1359 2072 1739 2783 
Q 2119 3494 2547 3981 
L 303 3981 
z
" transform="scale(0.015625)"/>
       </defs>
       <use xlink:href="#ArialMT-37"/>
      </g>
     </g>
    </g>
    <g id="xtick_8">
     <g id="text_8">
      <!-- 8 -->
      <g transform="translate(71.147481 45.674687) scale(0.06 -0.06)">
       <defs>
        <path id="ArialMT-38" d="M 1131 2484 
Q 781 2613 612 2850 
Q 444 3088 444 3419 
Q 444 3919 803 4259 
Q 1163 4600 1759 4600 
Q 2359 4600 2725 4251 
Q 3091 3903 3091 3403 
Q 3091 3084 2923 2848 
Q 2756 2613 2416 2484 
Q 2838 2347 3058 2040 
Q 3278 1734 3278 1309 
Q 3278 722 2862 322 
Q 2447 -78 1769 -78 
Q 1091 -78 675 323 
Q 259 725 259 1325 
Q 259 1772 486 2073 
Q 713 2375 1131 2484 
z
M 1019 3438 
Q 1019 3113 1228 2906 
Q 1438 2700 1772 2700 
Q 2097 2700 2305 2904 
Q 2513 3109 2513 3406 
Q 2513 3716 2298 3927 
Q 2084 4138 1766 4138 
Q 1444 4138 1231 3931 
Q 1019 3725 1019 3438 
z
M 838 1322 
Q 838 1081 952 856 
Q 1066 631 1291 507 
Q 1516 384 1775 384 
Q 2178 384 2440 643 
Q 2703 903 2703 1303 
Q 2703 1709 2433 1975 
Q 2163 2241 1756 2241 
Q 1359 2241 1098 1978 
Q 838 1716 838 1322 
z
" transform="scale(0.015625)"/>
       </defs>
       <use xlink:href="#ArialMT-38"/>
      </g>
     </g>
    </g>
    <g id="xtick_9">
     <g id="text_9">
      <!-- 9 -->
      <g transform="translate(77.262549 45.674687) scale(0.06 -0.06)">
       <defs>
        <path id="ArialMT-39" d="M 350 1059 
L 891 1109 
Q 959 728 1153 556 
Q 1347 384 1650 384 
Q 1909 384 2104 503 
Q 2300 622 2425 820 
Q 2550 1019 2634 1356 
Q 2719 1694 2719 2044 
Q 2719 2081 2716 2156 
Q 2547 1888 2255 1720 
Q 1963 1553 1622 1553 
Q 1053 1553 659 1965 
Q 266 2378 266 3053 
Q 266 3750 677 4175 
Q 1088 4600 1706 4600 
Q 2153 4600 2523 4359 
Q 2894 4119 3086 3673 
Q 3278 3228 3278 2384 
Q 3278 1506 3087 986 
Q 2897 466 2520 194 
Q 2144 -78 1638 -78 
Q 1100 -78 759 220 
Q 419 519 350 1059 
z
M 2653 3081 
Q 2653 3566 2395 3850 
Q 2138 4134 1775 4134 
Q 1400 4134 1122 3828 
Q 844 3522 844 3034 
Q 844 2597 1108 2323 
Q 1372 2050 1759 2050 
Q 2150 2050 2401 2323 
Q 2653 2597 2653 3081 
z
" transform="scale(0.015625)"/>
       </defs>
       <use xlink:href="#ArialMT-39"/>
      </g>
     </g>
    </g>
    <g id="xtick_10">
     <g id="text_10">
      <!-- 10 -->
      <g transform="translate(81.709336 45.674687) scale(0.06 -0.06)">
       <defs>
        <path id="ArialMT-30" d="M 266 2259 
Q 266 3072 433 3567 
Q 600 4063 929 4331 
Q 1259 4600 1759 4600 
Q 2128 4600 2406 4451 
Q 2684 4303 2865 4023 
Q 3047 3744 3150 3342 
Q 3253 2941 3253 2259 
Q 3253 1453 3087 958 
Q 2922 463 2592 192 
Q 2263 -78 1759 -78 
Q 1097 -78 719 397 
Q 266 969 266 2259 
z
M 844 2259 
Q 844 1131 1108 757 
Q 1372 384 1759 384 
Q 2147 384 2411 759 
Q 2675 1134 2675 2259 
Q 2675 3391 2411 3762 
Q 2147 4134 1753 4134 
Q 1366 4134 1134 3806 
Q 844 3388 844 2259 
z
" transform="scale(0.015625)"/>
       </defs>
       <use xlink:href="#ArialMT-31"/>
       <use xlink:href="#ArialMT-30" x="55.615234"/>
      </g>
     </g>
    </g>
    <g id="xtick_11">
     <g id="text_11">
      <!-- 11 -->
      <g transform="translate(88.045655 45.674687) scale(0.06 -0.06)">
       <use xlink:href="#ArialMT-31"/>
       <use xlink:href="#ArialMT-31" x="48.240234"/>
      </g>
     </g>
    </g>
   </g>
   <g id="matplotlib.axis_2">
    <g id="ytick_1">
     <g id="line2d_2">
      <defs>
       <path id="m22bf573288" d="M 0 0 
L -3.5 0 
" style="stroke: #000000; stroke-width: 0.8"/>
      </defs>
      <g>
       <use xlink:href="#m22bf573288" x="27.105625" y="38.88" style="stroke: #000000; stroke-width: 0.8"/>
      </g>
     </g>
     <g id="text_12">
      <!-- 0 -->
      <g transform="translate(16.769063 41.027344) scale(0.06 -0.06)">
       <use xlink:href="#ArialMT-30"/>
      </g>
     </g>
    </g>
    <g id="ytick_2">
     <g id="line2d_3">
      <g>
       <use xlink:href="#m22bf573288" x="27.105625" y="12.48" style="stroke: #000000; stroke-width: 0.8"/>
      </g>
     </g>
     <g id="text_13">
      <!-- 2 -->
      <g transform="translate(16.769063 14.627344) scale(0.06 -0.06)">
       <use xlink:href="#ArialMT-32"/>
      </g>
     </g>
    </g>
    <g id="text_14">
     <!-- IC (bits) -->
     <g transform="translate(12.295781 35.289453) rotate(-90) scale(0.07 -0.07)">
      <defs>
       <path id="ArialMT-49" d="M 597 0 
L 597 4581 
L 1203 4581 
L 1203 0 
L 597 0 
z
" transform="scale(0.015625)"/>
       <path id="ArialMT-43" d="M 3763 1606 
L 4369 1453 
Q 4178 706 3683 314 
Q 3188 -78 2472 -78 
Q 1731 -78 1267 223 
Q 803 525 561 1097 
Q 319 1669 319 2325 
Q 319 3041 592 3573 
Q 866 4106 1370 4382 
Q 1875 4659 2481 4659 
Q 3169 4659 3637 4309 
Q 4106 3959 4291 3325 
L 3694 3184 
Q 3534 3684 3231 3912 
Q 2928 4141 2469 4141 
Q 1941 4141 1586 3887 
Q 1231 3634 1087 3207 
Q 944 2781 944 2328 
Q 944 1744 1114 1308 
Q 1284 872 1643 656 
Q 2003 441 2422 441 
Q 2931 441 3284 734 
Q 3638 1028 3763 1606 
z
" transform="scale(0.015625)"/>
       <path id="ArialMT-20" transform="scale(0.015625)"/>
       <path id="ArialMT-28" d="M 1497 -1347 
Q 1031 -759 709 28 
Q 388 816 388 1659 
Q 388 2403 628 3084 
Q 909 3875 1497 4659 
L 1900 4659 
Q 1522 4009 1400 3731 
Q 1209 3300 1100 2831 
Q 966 2247 966 1656 
Q 966 153 1900 -1347 
L 1497 -1347 
z
" transform="scale(0.015625)"/>
       <path id="ArialMT-62" d="M 941 0 
L 419 0 
L 419 4581 
L 981 4581 
L 981 2947 
Q 1338 3394 1891 3394 
Q 2197 3394 2470 3270 
Q 2744 3147 2920 2923 
Q 3097 2700 3197 2384 
Q 3297 2069 3297 1709 
Q 3297 856 2875 390 
Q 2453 -75 1863 -75 
Q 1275 -75 941 416 
L 941 0 
z
M 934 1684 
Q 934 1088 1097 822 
Q 1363 388 1816 388 
Q 2184 388 2453 708 
Q 2722 1028 2722 1663 
Q 2722 2313 2464 2622 
Q 2206 2931 1841 2931 
Q 1472 2931 1203 2611 
Q 934 2291 934 1684 
z
" transform="scale(0.015625)"/>
       <path id="ArialMT-69" d="M 425 3934 
L 425 4581 
L 988 4581 
L 988 3934 
L 425 3934 
z
M 425 0 
L 425 3319 
L 988 3319 
L 988 0 
L 425 0 
z
" transform="scale(0.015625)"/>
       <path id="ArialMT-74" d="M 1650 503 
L 1731 6 
Q 1494 -44 1306 -44 
Q 1000 -44 831 53 
Q 663 150 594 308 
Q 525 466 525 972 
L 525 2881 
L 113 2881 
L 113 3319 
L 525 3319 
L 525 4141 
L 1084 4478 
L 1084 3319 
L 1650 3319 
L 1650 2881 
L 1084 2881 
L 1084 941 
Q 1084 700 1114 631 
Q 1144 563 1211 522 
Q 1278 481 1403 481 
Q 1497 481 1650 503 
z
" transform="scale(0.015625)"/>
       <path id="ArialMT-73" d="M 197 991 
L 753 1078 
Q 800 744 1014 566 
Q 1228 388 1613 388 
Q 2000 388 2187 545 
Q 2375 703 2375 916 
Q 2375 1106 2209 1216 
Q 2094 1291 1634 1406 
Q 1016 1563 777 1677 
Q 538 1791 414 1992 
Q 291 2194 291 2438 
Q 291 2659 392 2848 
Q 494 3038 669 3163 
Q 800 3259 1026 3326 
Q 1253 3394 1513 3394 
Q 1903 3394 2198 3281 
Q 2494 3169 2634 2976 
Q 2775 2784 2828 2463 
L 2278 2388 
Q 2241 2644 2061 2787 
Q 1881 2931 1553 2931 
Q 1166 2931 1000 2803 
Q 834 2675 834 2503 
Q 834 2394 903 2306 
Q 972 2216 1119 2156 
Q 1203 2125 1616 2013 
Q 2213 1853 2448 1751 
Q 2684 1650 2818 1456 
Q 2953 1263 2953 975 
Q 2953 694 2789 445 
Q 2625 197 2315 61 
Q 2006 -75 1616 -75 
Q 969 -75 630 194 
Q 291 463 197 991 
z
" transform="scale(0.015625)"/>
       <path id="ArialMT-29" d="M 791 -1347 
L 388 -1347 
Q 1322 153 1322 1656 
Q 1322 2244 1188 2822 
Q 1081 3291 891 3722 
Q 769 4003 388 4659 
L 791 4659 
Q 1378 3875 1659 3084 
Q 1900 2403 1900 1659 
Q 1900 816 1576 28 
Q 1253 -759 791 -1347 
z
" transform="scale(0.015625)"/>
      </defs>
      <use xlink:href="#ArialMT-49"/>
      <use xlink:href="#ArialMT-43" x="27.783203"/>
      <use xlink:href="#ArialMT-20" x="100"/>
      <use xlink:href="#ArialMT-28" x="127.783203"/>
      <use xlink:href="#ArialMT-62" x="161.083984"/>
      <use xlink:href="#ArialMT-69" x="216.699219"/>
      <use xlink:href="#ArialMT-74" x="238.916016"/>
      <use xlink:href="#ArialMT-73" x="266.699219"/>
      <use xlink:href="#ArialMT-29" x="316.699219"/>
     </g>
    </g>
   </g>
   <g id="patch_43">
    <path d="M 27.105625 38.88 
L 27.105625 7.2 
" style="fill: none; stroke: #000000; stroke-linejoin: miter; stroke-linecap: square"/>
   </g>
   <g id="patch_44">
    <path d="M 27.105625 38.88 
L 94.065625 38.88 
" style="fill: none; stroke: #000000; stroke-linejoin: miter; stroke-linecap: square"/>
   </g>
  </g>
  <g id="axes_2">
   <g id="text_15">
    <!-- E-value 2.9e-005 -->
    <g transform="translate(40.75625 55.506469) scale(0.07 -0.07)">
     <defs>
      <path id="Arial-ItalicMT-45" d="M 288 0 
L 1247 4581 
L 4553 4581 
L 4444 4059 
L 1750 4059 
L 1450 2634 
L 4075 2634 
L 3966 2113 
L 1341 2113 
L 1009 519 
L 3894 519 
L 3784 0 
L 288 0 
z
" transform="scale(0.015625)"/>
      <path id="Arial-ItalicMT-2d" d="M 297 1375 
L 416 1941 
L 2141 1941 
L 2025 1375 
L 297 1375 
z
" transform="scale(0.015625)"/>
      <path id="Arial-ItalicMT-76" d="M 1050 0 
L 506 3319 
L 1056 3319 
L 1341 1491 
Q 1388 1191 1456 513 
Q 1619 866 1872 1322 
L 2981 3319 
L 3578 3319 
L 1678 0 
L 1050 0 
z
" transform="scale(0.015625)"/>
      <path id="Arial-ItalicMT-61" d="M 2450 413 
Q 2156 159 1884 42 
Q 1613 -75 1303 -75 
Q 844 -75 562 195 
Q 281 466 281 888 
Q 281 1166 407 1380 
Q 534 1594 743 1723 
Q 953 1853 1256 1909 
Q 1447 1947 1980 1969 
Q 2513 1991 2744 2081 
Q 2809 2313 2809 2466 
Q 2809 2663 2666 2775 
Q 2469 2931 2091 2931 
Q 1734 2931 1507 2773 
Q 1281 2616 1178 2325 
L 606 2375 
Q 781 2869 1161 3131 
Q 1541 3394 2119 3394 
Q 2734 3394 3094 3100 
Q 3369 2881 3369 2531 
Q 3369 2266 3291 1916 
L 3106 1091 
Q 3019 697 3019 450 
Q 3019 294 3088 0 
L 2516 0 
Q 2469 163 2450 413 
z
M 2659 1681 
Q 2541 1634 2405 1609 
Q 2269 1584 1950 1556 
Q 1456 1513 1253 1445 
Q 1050 1378 947 1231 
Q 844 1084 844 906 
Q 844 669 1008 516 
Q 1172 363 1475 363 
Q 1756 363 2015 511 
Q 2275 659 2425 925 
Q 2575 1191 2659 1681 
z
" transform="scale(0.015625)"/>
      <path id="Arial-ItalicMT-6c" d="M 169 0 
L 1125 4581 
L 1691 4581 
L 734 0 
L 169 0 
z
" transform="scale(0.015625)"/>
      <path id="Arial-ItalicMT-75" d="M 2478 600 
Q 1881 -75 1256 -75 
Q 872 -75 636 145 
Q 400 366 400 684 
Q 400 894 506 1403 
L 906 3319 
L 1472 3319 
L 1028 1197 
Q 972 931 972 784 
Q 972 597 1086 492 
Q 1200 388 1422 388 
Q 1659 388 1886 503 
Q 2113 619 2277 816 
Q 2441 1013 2544 1281 
Q 2613 1453 2703 1884 
L 3003 3319 
L 3569 3319 
L 2875 0 
L 2353 0 
L 2478 600 
z
" transform="scale(0.015625)"/>
      <path id="Arial-ItalicMT-65" d="M 2650 1128 
L 3200 1072 
Q 3081 663 2654 294 
Q 2228 -75 1638 -75 
Q 1269 -75 961 95 
Q 653 266 492 591 
Q 331 916 331 1331 
Q 331 1875 582 2386 
Q 834 2897 1234 3145 
Q 1634 3394 2100 3394 
Q 2694 3394 3048 3025 
Q 3403 2656 3403 2019 
Q 3403 1775 3359 1519 
L 916 1519 
Q 903 1422 903 1344 
Q 903 878 1117 633 
Q 1331 388 1641 388 
Q 1931 388 2212 578 
Q 2494 769 2650 1128 
z
M 1006 1950 
L 2869 1950 
Q 2872 2038 2872 2075 
Q 2872 2500 2659 2726 
Q 2447 2953 2113 2953 
Q 1750 2953 1451 2703 
Q 1153 2453 1006 1950 
z
" transform="scale(0.015625)"/>
      <path id="Arial-ItalicMT-20" transform="scale(0.015625)"/>
      <path id="Arial-ItalicMT-32" d="M 375 0 
Q 463 409 617 686 
Q 772 963 1028 1211 
Q 1284 1459 2016 2044 
Q 2459 2397 2622 2566 
Q 2856 2809 2963 3044 
Q 3034 3203 3034 3391 
Q 3034 3706 2811 3926 
Q 2588 4147 2263 4147 
Q 1941 4147 1700 3923 
Q 1459 3700 1356 3206 
L 803 3288 
Q 884 3897 1276 4248 
Q 1669 4600 2253 4600 
Q 2644 4600 2961 4437 
Q 3278 4275 3437 3981 
Q 3597 3688 3597 3375 
Q 3597 2919 3272 2497 
Q 3072 2234 2097 1463 
Q 1678 1131 1473 918 
Q 1269 706 1166 519 
L 3216 519 
L 3106 0 
L 375 0 
z
" transform="scale(0.015625)"/>
      <path id="Arial-ItalicMT-2e" d="M 369 0 
L 503 641 
L 1144 641 
L 1006 0 
L 369 0 
z
" transform="scale(0.015625)"/>
      <path id="Arial-ItalicMT-39" d="M 431 1050 
L 963 1103 
Q 1016 719 1181 556 
Q 1347 394 1575 394 
Q 1900 394 2178 675 
Q 2588 1088 2781 1859 
Q 2497 1647 2276 1556 
Q 2056 1466 1825 1466 
Q 1406 1466 1075 1747 
Q 638 2113 638 2797 
Q 638 3572 1144 4125 
Q 1578 4600 2209 4600 
Q 2778 4600 3153 4179 
Q 3528 3759 3528 2991 
Q 3528 2244 3278 1516 
Q 2981 659 2475 253 
Q 2063 -78 1547 -78 
Q 1072 -78 770 217 
Q 469 513 431 1050 
z
M 1184 2863 
Q 1184 2431 1414 2175 
Q 1644 1919 1959 1919 
Q 2194 1919 2425 2078 
Q 2656 2238 2822 2555 
Q 2988 2872 2988 3206 
Q 2988 3469 2878 3694 
Q 2769 3919 2580 4033 
Q 2391 4147 2197 4147 
Q 2009 4147 1828 4047 
Q 1647 3947 1492 3753 
Q 1338 3559 1261 3307 
Q 1184 3056 1184 2863 
z
" transform="scale(0.015625)"/>
      <path id="Arial-ItalicMT-30" d="M 453 1503 
Q 453 2084 626 2684 
Q 800 3284 1012 3643 
Q 1225 4003 1453 4206 
Q 1681 4409 1901 4504 
Q 2122 4600 2391 4600 
Q 2916 4600 3267 4209 
Q 3619 3819 3619 3081 
Q 3619 2322 3375 1578 
Q 3088 697 2575 256 
Q 2181 -78 1678 -78 
Q 1163 -78 808 326 
Q 453 731 453 1503 
z
M 1000 1359 
Q 1000 938 1141 700 
Q 1331 372 1706 372 
Q 2034 372 2303 669 
Q 2691 1088 2886 1895 
Q 3081 2703 3081 3216 
Q 3081 3709 2892 3928 
Q 2703 4147 2394 4147 
Q 2169 4147 1973 4031 
Q 1778 3916 1600 3634 
Q 1347 3238 1159 2447 
Q 1000 1772 1000 1359 
z
" transform="scale(0.015625)"/>
      <path id="Arial-ItalicMT-35" d="M 447 1309 
L 1022 1366 
Q 1016 1244 1016 1219 
Q 1016 1013 1120 803 
Q 1225 594 1404 483 
Q 1584 372 1784 372 
Q 2047 372 2319 553 
Q 2591 734 2759 1081 
Q 2928 1428 2928 1769 
Q 2928 2153 2701 2384 
Q 2475 2616 2106 2616 
Q 1859 2616 1639 2497 
Q 1419 2378 1228 2141 
L 734 2175 
L 1425 4519 
L 3663 4519 
L 3553 4000 
L 1813 4000 
L 1469 2834 
Q 1663 2975 1867 3045 
Q 2072 3116 2288 3116 
Q 2813 3116 3150 2769 
Q 3488 2422 3488 1819 
Q 3488 1291 3256 845 
Q 3025 400 2620 161 
Q 2216 -78 1747 -78 
Q 1353 -78 1050 100 
Q 747 278 595 590 
Q 444 903 444 1216 
Q 444 1247 447 1309 
z
" transform="scale(0.015625)"/>
     </defs>
     <use xlink:href="#Arial-ItalicMT-45"/>
     <use xlink:href="#Arial-ItalicMT-2d" x="66.699219"/>
     <use xlink:href="#Arial-ItalicMT-76" x="100"/>
     <use xlink:href="#Arial-ItalicMT-61" x="150"/>
     <use xlink:href="#Arial-ItalicMT-6c" x="205.615234"/>
     <use xlink:href="#Arial-ItalicMT-75" x="227.832031"/>
     <use xlink:href="#Arial-ItalicMT-65" x="283.447266"/>
     <use xlink:href="#Arial-ItalicMT-20" x="339.0625"/>
     <use xlink:href="#Arial-ItalicMT-32" x="366.845703"/>
     <use xlink:href="#Arial-ItalicMT-2e" x="422.460938"/>
     <use xlink:href="#Arial-ItalicMT-39" x="450.244141"/>
     <use xlink:href="#Arial-ItalicMT-65" x="505.859375"/>
     <use xlink:href="#Arial-ItalicMT-2d" x="561.474609"/>
     <use xlink:href="#Arial-ItalicMT-30" x="594.775391"/>
     <use xlink:href="#Arial-ItalicMT-30" x="650.390625"/>
     <use xlink:href="#Arial-ItalicMT-35" x="706.005859"/>
    </g>
   </g>
  </g>
 </g>
 <defs>
  <clipPath id="p4908cdc2b3">
   <rect x="27.105625" y="7.2" width="66.96" height="31.68"/>
  </clipPath>
 </defs>
</svg>
