<?xml version="1.0" encoding="utf-8" standalone="no"?>
<!DOCTYPE svg PUBLIC "-//W3C//DTD SVG 1.1//EN"
  "http://www.w3.org/Graphics/SVG/1.1/DTD/svg11.dtd">
<svg xmlns:xlink="http://www.w3.org/1999/xlink" width="81.36pt" height="31.032pt" viewBox="0 0 81.36 31.032" xmlns="http://www.w3.org/2000/svg" version="1.1">
 <metadata>
  <rdf:RDF xmlns:dc="http://purl.org/dc/elements/1.1/" xmlns:cc="http://creativecommons.org/ns#" xmlns:rdf="http://www.w3.org/1999/02/22-rdf-syntax-ns#">
   <cc:Work>
    <dc:type rdf:resource="http://purl.org/dc/dcmitype/StillImage"/>
    <dc:date>2024-02-18T21:43:37.677764</dc:date>
    <dc:format>image/svg+xml</dc:format>
    <dc:creator>
     <cc:Agent>
      <dc:title>Matplotlib v3.6.3, https://matplotlib.org/</dc:title>
     </cc:Agent>
    </dc:creator>
   </cc:Work>
  </rdf:RDF>
 </metadata>
 <defs>
  <style type="text/css">*{stroke-linejoin: round; stroke-linecap: butt}</style>
 </defs>
 <g id="figure_1">
  <g id="patch_1">
   <path d="M 0 31.032 
L 81.36 31.032 
L 81.36 0 
L 0 0 
z
" style="fill: #ffffff"/>
  </g>
  <g id="axes_1">
   <g id="patch_2">
    <path d="M 7.2 23.832 
L 74.16 23.832 
L 74.16 7.2 
L 7.2 7.2 
z
" style="fill: #ffffff"/>
   </g>
   <g id="line2d_1">
    <path d="M 7.2 23.832 
L 74.16 23.832 
" clip-path="url(#pbe0d633936)" style="fill: none; stroke: #000000; stroke-width: 0.5; stroke-linecap: square"/>
   </g>
   <g id="patch_3">
    <path d="M 9.368917 23.832 
L 9.368917 10.013752 
L 7.2 10.013752 
L 7.2 7.2 
L 13.009315 7.2 
L 13.009315 10.013752 
L 10.845186 10.013752 
L 10.845186 23.832 
L 9.368917 23.832 
z
" clip-path="url(#pbe0d633936)" style="fill: #1a1a1a"/>
   </g>
   <g id="patch_4">
    <path d="M 19.124384 23.832 
L 17.853083 23.832 
L 17.347595 20.052495 
L 15.032462 20.052495 
L 14.554777 23.832 
L 13.315068 23.832 
L 15.569543 7.2 
L 16.806723 7.2 
L 19.124384 23.832 
z
M 16.972271 17.249635 
L 16.174864 11.077532 
L 15.392622 17.249635 
L 16.972271 17.249635 
z
" clip-path="url(#pbe0d633936)" style="fill: #0e927b"/>
   </g>
   <g id="patch_5">
    <path d="M 25.239452 23.832 
L 23.968151 23.832 
L 23.462664 20.052495 
L 21.147531 20.052495 
L 20.669845 23.832 
L 19.430137 23.832 
L 21.684611 7.2 
L 22.921792 7.2 
L 25.239452 23.832 
z
M 23.087339 17.249635 
L 22.289933 11.077532 
L 21.507691 17.249635 
L 23.087339 17.249635 
z
" clip-path="url(#pbe0d633936)" style="fill: #0e927b"/>
   </g>
   <g id="patch_6">
    <path d="M 27.714123 23.832 
L 27.714123 10.013752 
L 25.545205 10.013752 
L 25.545205 7.2 
L 31.354521 7.2 
L 31.354521 10.013752 
L 29.190391 10.013752 
L 29.190391 23.832 
L 27.714123 23.832 
z
" clip-path="url(#pbe0d633936)" style="fill: #1a1a1a"/>
   </g>
   <g id="patch_7">
    <path d="M 37.469589 23.832 
L 36.198288 23.832 
L 35.6928 23.805694 
L 33.377668 23.805694 
L 32.899982 23.832 
L 31.660274 23.832 
L 33.914748 23.716238 
L 35.151929 23.716238 
L 37.469589 23.832 
z
M 35.317476 23.786186 
L 34.520069 23.743227 
L 33.737828 23.786186 
L 35.317476 23.786186 
z
" clip-path="url(#pbe0d633936)" style="fill: #0e927b"/>
   </g>
   <g id="patch_8">
    <path d="M 36.163912 23.667797 
L 37.469589 23.675605 
Q 37.169735 23.696224 36.471045 23.706231 
Q 35.772355 23.716238 34.699575 23.716238 
Q 33.370609 23.716238 32.514713 23.699111 
Q 31.660274 23.681955 31.660274 23.652236 
Q 31.660274 23.620785 32.51908 23.603409 
Q 33.379342 23.586007 34.781089 23.586007 
Q 36.005252 23.586007 36.769444 23.599643 
Q 37.223592 23.607726 37.450666 23.622847 
L 36.118789 23.628867 
Q 35.999429 23.61908 35.623883 23.613417 
Q 35.249793 23.607726 34.712675 23.607726 
Q 33.971773 23.607726 33.508891 23.617788 
Q 33.047464 23.627823 33.047464 23.650339 
Q 33.047464 23.67423 33.501613 23.684375 
Q 33.957217 23.694492 34.685019 23.694492 
Q 35.222137 23.694492 35.607872 23.688059 
Q 35.995062 23.681625 36.163912 23.667797 
z
" clip-path="url(#pbe0d633936)" style="fill: #59a9d8"/>
   </g>
   <g id="patch_9">
    <path d="M 34.766258 23.510653 
L 34.766258 23.477638 
L 37.469589 23.477638 
L 37.469589 23.555686 
Q 37.075071 23.567703 36.326706 23.576855 
Q 35.579698 23.586007 34.812353 23.586007 
Q 33.838937 23.586007 33.11362 23.573134 
Q 32.389658 23.560219 32.024966 23.536227 
Q 31.660274 23.512235 31.660274 23.484052 
Q 31.660274 23.453432 32.066994 23.429654 
Q 32.473714 23.405876 33.257327 23.393175 
Q 33.855205 23.383424 34.744566 23.383424 
Q 35.901006 23.383424 36.551758 23.398734 
Q 37.20251 23.414002 37.388245 23.440987 
L 36.143682 23.448343 
Q 36.012176 23.433931 35.64884 23.425591 
Q 35.286859 23.417209 34.744566 23.417209 
Q 33.922992 23.417209 33.43764 23.433674 
Q 32.952287 23.450096 32.952287 23.482427 
Q 32.952287 23.517324 33.443063 23.534773 
Q 33.935194 23.552179 34.732365 23.552179 
Q 35.126883 23.552179 35.522757 23.547303 
Q 35.918631 23.542428 36.201979 23.5355 
L 36.201979 23.510653 
L 34.766258 23.510653 
z
" clip-path="url(#pbe0d633936)" style="fill: #dc9514"/>
   </g>
   <g id="patch_10">
    <path d="M 33.829191 23.383424 
L 33.829191 23.155003 
L 31.660274 23.155003 
L 31.660274 23.10849 
L 37.469589 23.10849 
L 37.469589 23.155003 
L 35.30546 23.155003 
L 35.30546 23.383424 
L 33.829191 23.383424 
z
" clip-path="url(#pbe0d633936)" style="fill: #1a1a1a"/>
   </g>
   <g id="patch_11">
    <path d="M 43.584658 23.832 
L 42.313356 23.832 
L 41.807869 22.887124 
L 39.492736 22.887124 
L 39.015051 23.832 
L 37.775342 23.832 
L 40.029817 19.674 
L 41.266997 19.674 
L 43.584658 23.832 
z
M 41.432545 22.186409 
L 40.635138 20.643383 
L 39.852896 22.186409 
L 41.432545 22.186409 
z
" clip-path="url(#pbe0d633936)" style="fill: #0e927b"/>
   </g>
   <g id="patch_12">
    <path d="M 39.94426 19.674 
L 39.94426 16.219438 
L 37.775342 16.219438 
L 37.775342 15.516 
L 43.584658 15.516 
L 43.584658 16.219438 
L 41.420528 16.219438 
L 41.420528 19.674 
L 39.94426 19.674 
z
" clip-path="url(#pbe0d633936)" style="fill: #1a1a1a"/>
   </g>
   <g id="patch_13">
    <path d="M 46.059328 23.832 
L 46.059328 23.735823 
L 43.890411 23.735823 
L 43.890411 23.716238 
L 49.699726 23.716238 
L 49.699726 23.735823 
L 47.535597 23.735823 
L 47.535597 23.832 
L 46.059328 23.832 
z
" clip-path="url(#pbe0d633936)" style="fill: #1a1a1a"/>
   </g>
   <g id="patch_14">
    <path d="M 46.996395 23.667797 
L 46.996395 23.646573 
L 49.699726 23.646573 
L 49.699726 23.696746 
Q 49.305208 23.704472 48.556843 23.710355 
Q 47.809834 23.716238 47.04249 23.716238 
Q 46.069074 23.716238 45.343757 23.707963 
Q 44.619795 23.69966 44.255103 23.684237 
Q 43.890411 23.668814 43.890411 23.650696 
Q 43.890411 23.631012 44.297131 23.615726 
Q 44.703851 23.60044 45.487464 23.592275 
Q 46.085342 23.586007 46.974703 23.586007 
Q 48.131143 23.586007 48.781895 23.595849 
Q 49.432647 23.605664 49.618382 23.623012 
L 48.373819 23.62774 
Q 48.242313 23.618475 47.878977 23.613114 
Q 47.516996 23.607726 46.974703 23.607726 
Q 46.153129 23.607726 45.667777 23.61831 
Q 45.182424 23.628867 45.182424 23.649652 
Q 45.182424 23.672086 45.6732 23.683302 
Q 46.165331 23.694492 46.962501 23.694492 
Q 47.35702 23.694492 47.752894 23.691358 
Q 48.148768 23.688224 48.432116 23.68377 
L 48.432116 23.667797 
L 46.996395 23.667797 
z
" clip-path="url(#pbe0d633936)" style="fill: #dc9514"/>
   </g>
   <g id="patch_15">
    <path d="M 48.394049 23.510653 
L 49.699726 23.522798 
Q 49.399872 23.554873 48.701182 23.57044 
Q 48.002492 23.586007 46.929712 23.586007 
Q 45.600746 23.586007 44.74485 23.559363 
Q 43.890411 23.532677 43.890411 23.486447 
Q 43.890411 23.437523 44.749217 23.410495 
Q 45.609479 23.383424 47.011226 23.383424 
Q 48.235389 23.383424 48.999581 23.404636 
Q 49.453729 23.417209 49.680803 23.44073 
L 48.348926 23.450096 
Q 48.229566 23.434871 47.85402 23.426062 
Q 47.47993 23.417209 46.942812 23.417209 
Q 46.20191 23.417209 45.739028 23.432861 
Q 45.277601 23.448471 45.277601 23.483496 
Q 45.277601 23.52066 45.73175 23.536441 
Q 46.187354 23.552179 46.915156 23.552179 
Q 47.452274 23.552179 47.838009 23.542171 
Q 48.225199 23.532164 48.394049 23.510653 
z
" clip-path="url(#pbe0d633936)" style="fill: #59a9d8"/>
   </g>
   <g id="patch_16">
    <path d="M 49.699726 23.383424 
L 48.428425 23.383424 
L 47.922937 23.320947 
L 45.607805 23.320947 
L 45.130119 23.383424 
L 43.890411 23.383424 
L 46.144885 23.10849 
L 47.382066 23.10849 
L 49.699726 23.383424 
z
M 47.547613 23.274615 
L 46.750206 23.172587 
L 45.967965 23.274615 
L 47.547613 23.274615 
z
" clip-path="url(#pbe0d633936)" style="fill: #0e927b"/>
   </g>
   <g id="patch_17">
    <path d="M 55.814795 23.832 
L 54.543493 23.832 
L 54.038006 20.052495 
L 51.722873 20.052495 
L 51.245188 23.832 
L 50.005479 23.832 
L 52.259954 7.2 
L 53.497134 7.2 
L 55.814795 23.832 
z
M 53.662681 17.249635 
L 52.865275 11.077532 
L 52.083033 17.249635 
L 53.662681 17.249635 
z
" clip-path="url(#pbe0d633936)" style="fill: #0e927b"/>
   </g>
   <g id="patch_18">
    <path d="M 58.289465 23.832 
L 58.289465 10.013752 
L 56.120548 10.013752 
L 56.120548 7.2 
L 61.929863 7.2 
L 61.929863 10.013752 
L 59.765734 10.013752 
L 59.765734 23.832 
L 58.289465 23.832 
z
" clip-path="url(#pbe0d633936)" style="fill: #1a1a1a"/>
   </g>
   <g id="patch_19">
    <path d="M 64.404534 23.832 
L 64.404534 10.013752 
L 62.235616 10.013752 
L 62.235616 7.2 
L 68.044932 7.2 
L 68.044932 10.013752 
L 65.880802 10.013752 
L 65.880802 23.832 
L 64.404534 23.832 
z
" clip-path="url(#pbe0d633936)" style="fill: #1a1a1a"/>
   </g>
   <g id="patch_20">
    <path d="M 74.16 23.832 
L 72.888699 23.832 
L 72.383211 20.052495 
L 70.068079 20.052495 
L 69.590393 23.832 
L 68.350685 23.832 
L 70.605159 7.2 
L 71.84234 7.2 
L 74.16 23.832 
z
M 72.007887 17.249635 
L 71.21048 11.077532 
L 70.428239 17.249635 
L 72.007887 17.249635 
z
" clip-path="url(#pbe0d633936)" style="fill: #0e927b"/>
   </g>
  </g>
 </g>
 <defs>
  <clipPath id="pbe0d633936">
   <rect x="7.2" y="7.2" width="66.96" height="16.632"/>
  </clipPath>
 </defs>
</svg>
